<svg width="12" height="13" viewBox="0 0 12 13" fill="none" xmlns="http://www.w3.org/2000/svg">
<path d="M6 0.4375C8.39664 0.4375 9.59486 0.437746 10.458 1.00879C10.8435 1.26383 11.1737 1.59405 11.4287 1.97949C11.9998 2.84264 12 4.04086 12 6.4375C12 8.83414 11.9998 10.0324 11.4287 10.8955C11.1737 11.281 10.8435 11.6112 10.458 11.8662C9.59486 12.4373 8.39664 12.4375 6 12.4375C3.60336 12.4375 2.40514 12.4373 1.54199 11.8662C1.15655 11.6112 0.826325 11.281 0.571289 10.8955C0.000245758 10.0324 0 8.83414 0 6.4375C0 4.04086 0.000245908 2.84264 0.571289 1.97949C0.826325 1.59405 1.15655 1.26383 1.54199 1.00879C2.40514 0.437746 3.60336 0.4375 6 0.4375ZM6 3.33105C4.2845 3.33105 2.89364 4.72202 2.89355 6.4375C2.89355 8.15305 4.28445 9.54395 6 9.54395C7.7155 9.54389 9.10645 8.15301 9.10645 6.4375C9.10636 4.72206 7.71545 3.33111 6 3.33105ZM6 4.38184C7.13503 4.38189 8.05558 5.30247 8.05566 6.4375C8.05566 7.5726 7.13508 8.49311 6 8.49316C4.86487 8.49316 3.94434 7.57263 3.94434 6.4375C3.94442 5.30244 4.86492 4.38184 6 4.38184ZM9.22852 2.44531C8.82557 2.44549 8.49902 2.77279 8.49902 3.17578C8.49927 3.57856 8.82572 3.90509 9.22852 3.90527C9.63146 3.90527 9.95873 3.57867 9.95898 3.17578C9.95898 2.77268 9.63162 2.44531 9.22852 2.44531Z" fill="white"/>
</svg>
