<svg width="12" height="11" viewBox="0 0 12 11" fill="none" xmlns="http://www.w3.org/2000/svg">
<path d="M8.01803 0.571497V0.569336H8.5807L8.78629 0.610397C8.92336 0.637055 9.04779 0.671989 9.1596 0.715212C9.27142 0.758434 9.37963 0.808864 9.48422 0.86649C9.58882 0.924116 9.68369 0.982834 9.76881 1.04262C9.85321 1.1017 9.92896 1.16437 9.99604 1.23064C10.0624 1.29763 10.1659 1.31492 10.3066 1.28251C10.4473 1.25009 10.5987 1.20506 10.761 1.14744C10.9234 1.08981 11.0839 1.02498 11.2426 0.952935C11.4013 0.880894 11.4979 0.835154 11.5326 0.815704C11.5665 0.79554 11.5845 0.784735 11.5867 0.783287L11.5888 0.780045L11.5996 0.774642L11.6105 0.76924L11.6213 0.763837L11.6321 0.758434L11.6343 0.755192L11.6375 0.753031L11.6408 0.75087L11.6429 0.747628L11.6537 0.744387L11.6646 0.742226L11.6624 0.758434L11.6592 0.774642L11.6537 0.790851L11.6483 0.807059L11.6429 0.817865L11.6375 0.82867L11.6321 0.844879C11.6285 0.855684 11.6249 0.870088 11.6213 0.888101C11.6177 0.906114 11.5834 0.978144 11.5185 1.10421C11.4536 1.23028 11.3724 1.35815 11.275 1.48781C11.1776 1.61748 11.0904 1.71544 11.0132 1.78172C10.9353 1.84872 10.8837 1.89554 10.8584 1.9222C10.8332 1.94957 10.8025 1.97478 10.7665 1.99784L10.7124 2.0335L10.7015 2.0389L10.6907 2.0443L10.6886 2.04754L10.6853 2.0497L10.6821 2.05186L10.6799 2.05511L10.6691 2.06051L10.6583 2.06591L10.6561 2.06915L10.6528 2.07132L10.6496 2.07348L10.6474 2.07672L10.6453 2.07996L10.642 2.08212L10.6388 2.08428L10.6366 2.08752H10.6907L10.9937 2.02269C11.1957 1.97947 11.3886 1.92724 11.5726 1.86601L11.8647 1.76876L11.8972 1.75795L11.9134 1.75255L11.9243 1.74715L11.9351 1.74174L11.9459 1.73634L11.9567 1.73094L11.9784 1.7277L12 1.72554V1.74715L11.9946 1.74931L11.9892 1.75255L11.987 1.75579L11.9838 1.75795L11.9805 1.76011L11.9784 1.76336L11.9762 1.7666L11.9729 1.76876L11.9697 1.77092L11.9675 1.77416L11.9654 1.7774L11.9621 1.77956L11.9567 1.79037L11.9513 1.80117L11.9481 1.80334C11.9466 1.8055 11.9008 1.86672 11.8106 1.98703C11.7205 2.10805 11.6718 2.16928 11.6646 2.17073C11.6574 2.17289 11.6472 2.18369 11.6343 2.20314C11.622 2.22331 11.5455 2.30364 11.4049 2.44411C11.2642 2.58458 11.1264 2.70956 10.9915 2.81906C10.8559 2.92928 10.7874 3.06471 10.7859 3.22535C10.7838 3.38528 10.7755 3.5661 10.761 3.7678C10.7466 3.9695 10.7196 4.18741 10.6799 4.42153C10.6402 4.65566 10.5789 4.9204 10.4959 5.21575C10.413 5.5111 10.312 5.79925 10.193 6.08019C10.0739 6.36114 9.9495 6.61327 9.81966 6.83659C9.68981 7.05991 9.57078 7.249 9.46258 7.40388C9.35437 7.55876 9.24437 7.70463 9.13255 7.84151C9.02074 7.97838 8.87936 8.13255 8.7084 8.30399C8.53671 8.47472 8.44294 8.56837 8.42706 8.58493C8.41047 8.60079 8.33978 8.65986 8.21497 8.76215C8.0909 8.86516 7.95744 8.96817 7.81461 9.07119C7.6725 9.17348 7.54193 9.25885 7.4229 9.32728C7.30388 9.39571 7.16033 9.47387 6.99225 9.56176C6.82489 9.65037 6.64382 9.73249 6.44905 9.80813C6.25428 9.88377 6.04869 9.954 5.83228 10.0188C5.61587 10.0837 5.40668 10.1341 5.20469 10.1701C5.00271 10.2061 4.77367 10.2368 4.51758 10.262L4.13345 10.2998V10.3052H3.43012V10.2998L3.33814 10.2944C3.27683 10.2908 3.22633 10.2872 3.18665 10.2836C3.14699 10.28 2.99729 10.2602 2.7376 10.2241C2.47791 10.1881 2.27412 10.1521 2.12624 10.1161C1.97837 10.0801 1.75834 10.0116 1.46619 9.91078C1.17403 9.80993 0.924076 9.70799 0.716321 9.60498C0.509291 9.50269 0.379445 9.43785 0.326781 9.41048C0.274842 9.38382 0.216411 9.35069 0.151488 9.31107L0.0541028 9.25164L0.0519495 9.2484L0.0486925 9.24624L0.0454463 9.24408L0.0432822 9.24083L0.0324617 9.23543L0.0216411 9.23003L0.0194878 9.22679L0.0162308 9.22463L0.0129847 9.22246L0.0108206 9.21922L0.00866727 9.21598L0.00541028 9.21382H0V9.19221L0.0108206 9.19437L0.0216411 9.19761L0.0703336 9.20301C0.102795 9.20661 0.191167 9.21202 0.335437 9.21922C0.479719 9.22643 0.633003 9.22643 0.795311 9.21922C0.957619 9.21202 1.12354 9.19581 1.29306 9.1706C1.46258 9.14539 1.66276 9.10217 1.8936 9.04093C2.12444 8.9797 2.33653 8.90694 2.52986 8.82266C2.72246 8.73766 2.85952 8.67426 2.94104 8.63248C3.02183 8.59142 3.14518 8.51505 3.31109 8.4034L3.55996 8.23591L3.56213 8.23267L3.56537 8.23051L3.56863 8.22835L3.57078 8.22511L3.57295 8.22187L3.57619 8.2197L3.57945 8.21754L3.58161 8.2143L3.59243 8.21106L3.60325 8.2089L3.60541 8.19809L3.60866 8.18729L3.61191 8.18513L3.61407 8.18188L3.5275 8.17648C3.4698 8.17288 3.41389 8.16927 3.35978 8.16568C3.30568 8.16208 3.22092 8.14587 3.1055 8.11705C2.99009 8.08823 2.86565 8.04501 2.73219 7.98738C2.59874 7.92976 2.46889 7.86131 2.34265 7.78208C2.21642 7.70284 2.12516 7.63691 2.06889 7.58433C2.01335 7.53246 1.94121 7.45899 1.85248 7.3639C1.76448 7.2681 1.68801 7.16976 1.62308 7.06891C1.55816 6.96806 1.49613 6.8517 1.43698 6.71989L1.34716 6.52322L1.34175 6.50702L1.33634 6.49081L1.33309 6.48L1.33093 6.4692L1.34716 6.47136L1.36339 6.4746L1.48242 6.49081C1.56177 6.50161 1.68621 6.50521 1.85573 6.50161C2.02525 6.49801 2.14247 6.49081 2.20739 6.48C2.27232 6.4692 2.312 6.46199 2.32642 6.45839L2.34806 6.45299L2.37511 6.44759L2.40216 6.44218L2.40433 6.43894L2.40757 6.43678L2.41083 6.43462L2.41298 6.43138L2.39134 6.42597L2.3697 6.42057L2.34806 6.41517L2.32642 6.40977L2.30478 6.40436C2.29036 6.40076 2.26511 6.39356 2.22904 6.38275C2.19297 6.37195 2.09559 6.33232 1.93688 6.26389C1.77819 6.19546 1.65194 6.12882 1.55816 6.06399C1.46415 5.99896 1.3745 5.92786 1.28981 5.85112C1.20541 5.77331 1.11272 5.67318 1.01172 5.55072C0.910734 5.42826 0.820566 5.28598 0.741208 5.1239C0.661861 4.96181 0.602348 4.80694 0.562669 4.65926C0.52315 4.51245 0.497077 4.36235 0.484772 4.21082L0.465284 3.98391L0.476105 3.98607L0.486925 3.98931L0.497746 3.99471L0.508566 4.00012L0.519387 4.00552L0.530207 4.01092L0.697926 4.08656C0.809746 4.13699 0.948606 4.18021 1.11452 4.21623C1.28044 4.25224 1.37962 4.27206 1.41208 4.27566L1.46078 4.28106H1.55816L1.55601 4.27782L1.55275 4.27566L1.5495 4.2735L1.54734 4.27026L1.54519 4.26701L1.54193 4.26485L1.53868 4.26269L1.53652 4.25945L1.5257 4.25405L1.51488 4.24864L1.51272 4.2454L1.50947 4.24324L1.50622 4.24108L1.50406 4.23784L1.49324 4.23244L1.48242 4.22703L1.48026 4.22379C1.4781 4.22234 1.44708 4.1993 1.3872 4.15464C1.32804 4.10925 1.26601 4.05055 1.20108 3.9785C1.13616 3.90646 1.07124 3.83082 1.00631 3.75159C0.941269 3.67217 0.883337 3.5872 0.833183 3.49765C0.782694 3.40761 0.729306 3.29306 0.673039 3.15404C0.617497 3.01572 0.575297 2.87633 0.546438 2.73586C0.517591 2.59539 0.50136 2.45672 0.497746 2.31984C0.494142 2.18297 0.497746 2.06591 0.508566 1.96866C0.519387 1.87141 0.541028 1.76155 0.57349 1.63909C0.605951 1.51663 0.652848 1.38696 0.714157 1.25009L0.806132 1.04478L0.811542 1.02857L0.816952 1.01237L0.820209 1.0102L0.822362 1.00696L0.824527 1.00372L0.827773 1.00156L0.83103 1.00372L0.833183 1.00696L0.835347 1.0102L0.838593 1.01237L0.84185 1.01453L0.844004 1.01777L0.846168 1.02101L0.849414 1.02317L0.854824 1.03398L0.860234 1.04478L0.863491 1.04694L0.865645 1.05019L1.01172 1.21227C1.10911 1.32033 1.22453 1.44099 1.35798 1.57426C1.49144 1.70752 1.56538 1.77668 1.5798 1.78172C1.59424 1.78748 1.61226 1.80405 1.6339 1.83143C1.65555 1.85809 1.72769 1.92184 1.85032 2.02269C1.97296 2.12354 2.13346 2.24061 2.33183 2.37387C2.53021 2.50714 2.75023 2.63861 2.99188 2.76828C3.23355 2.89794 3.49324 3.015 3.77096 3.11946C4.0487 3.22392 4.24347 3.29235 4.35528 3.32477C4.46709 3.35718 4.65825 3.3986 4.92876 3.44903C5.19928 3.49946 5.40307 3.53188 5.54013 3.54628C5.67719 3.56068 5.77097 3.56897 5.82146 3.57113L5.8972 3.57329L5.89505 3.55709L5.89179 3.54088L5.87015 3.40581C5.85573 3.31576 5.84851 3.1897 5.84851 3.02761C5.84851 2.86553 5.86114 2.71605 5.88638 2.57918C5.91164 2.4423 5.94951 2.30364 6 2.16316C6.0505 2.02269 6.09992 1.90994 6.14824 1.82495C6.1973 1.74066 6.2615 1.64449 6.34085 1.53644C6.42021 1.42838 6.523 1.31673 6.64923 1.20146C6.77548 1.0862 6.91975 0.983547 7.08206 0.893504C7.24436 0.803461 7.39406 0.735018 7.53111 0.688198C7.66817 0.641377 7.7836 0.610754 7.87737 0.59635C7.97115 0.581946 8.01803 0.573658 8.01803 0.571497Z" fill="white"/>
</svg>
