<svg width="24" height="25" viewBox="0 0 24 25" fill="none" xmlns="http://www.w3.org/2000/svg">
<path d="M10.757 12.4377L15.707 17.3877C15.8025 17.4799 15.8787 17.5903 15.9311 17.7123C15.9835 17.8343 16.0111 17.9655 16.0123 18.0983C16.0134 18.2311 15.9881 18.3627 15.9378 18.4856C15.8875 18.6085 15.8133 18.7202 15.7194 18.8141C15.6255 18.908 15.5139 18.9822 15.391 19.0325C15.2681 19.0828 15.1364 19.1081 15.0036 19.1069C14.8708 19.1058 14.7396 19.0782 14.6176 19.0258C14.4956 18.9734 14.3852 18.8972 14.293 18.8017L8.636 13.1447C8.44853 12.9572 8.34322 12.7028 8.34322 12.4377C8.34322 12.1725 8.44853 11.9182 8.636 11.7307L14.293 6.07368C14.4816 5.89152 14.7342 5.79073 14.9964 5.79301C15.2586 5.79528 15.5094 5.90045 15.6948 6.08586C15.8802 6.27127 15.9854 6.52208 15.9877 6.78428C15.99 7.04648 15.8892 7.29908 15.707 7.48768L10.757 12.4377Z" fill="#202938"/>
</svg>
