<svg width="56" height="57" viewBox="0 0 56 57" fill="none" xmlns="http://www.w3.org/2000/svg">
<path d="M18.667 51.6745C14.7349 51.6745 11.4185 50.3242 8.71792 47.6236C6.0173 44.9229 4.66699 41.6066 4.66699 37.6745C4.66699 36.0325 4.94786 34.4337 5.50958 32.8782C6.07131 31.3226 6.8707 29.9183 7.90773 28.6652L17.1114 17.5819L10.8244 5.00781H45.1763L38.8892 17.5819L48.0929 28.6652C49.13 29.9183 49.9293 31.3226 50.4911 32.8782C51.0528 34.4337 51.3337 36.0325 51.3337 37.6745C51.3337 41.6066 49.9726 44.9229 47.2503 47.6236C44.5281 50.3242 41.2226 51.6745 37.3337 51.6745H18.667ZM28.0003 38.7115C26.5744 38.7115 25.3537 38.2038 24.3383 37.1884C23.3229 36.1729 22.8151 34.9523 22.8151 33.5263C22.8151 32.1004 23.3229 30.8797 24.3383 29.8643C25.3537 28.8489 26.5744 28.3411 28.0003 28.3411C29.4263 28.3411 30.6469 28.8489 31.6624 29.8643C32.6778 30.8797 33.1855 32.1004 33.1855 33.5263C33.1855 34.9523 32.6778 36.1729 31.6624 37.1884C30.6469 38.2038 29.4263 38.7115 28.0003 38.7115ZM21.8429 15.3782H34.1577L36.7503 10.193H19.2503L21.8429 15.3782ZM18.667 46.4893H37.3337C39.7966 46.4893 41.8815 45.6359 43.5883 43.9291C45.2951 42.2223 46.1485 40.1374 46.1485 37.6745C46.1485 36.6374 45.9648 35.6328 45.5976 34.6606C45.2303 33.6884 44.7225 32.8134 44.0744 32.0356L34.5466 20.5634H21.5188L11.9263 31.9708C11.2781 32.7486 10.7704 33.6344 10.4031 34.6282C10.0358 35.622 9.85218 36.6374 9.85218 37.6745C9.85218 40.1374 10.7056 42.2223 12.4124 43.9291C14.1192 45.6359 16.204 46.4893 18.667 46.4893Z" fill="#4F48E5"/>
</svg>
