<svg width="22" height="22" viewBox="0 0 22 22" fill="none" xmlns="http://www.w3.org/2000/svg">
<g clip-path="url(#clip0_341_11550)">
<path fill-rule="evenodd" clip-rule="evenodd" d="M18.9604 9.48047C19.3344 9.48047 19.6375 9.78365 19.6375 10.1576V18.9608C19.6375 19.3348 19.3344 19.6379 18.9604 19.6379C18.5864 19.6379 18.2832 19.3348 18.2832 18.9608V10.1576C18.2832 9.78365 18.5864 9.48047 18.9604 9.48047Z" fill="#202938"/>
<path fill-rule="evenodd" clip-rule="evenodd" d="M2.70842 9.48047C3.0824 9.48047 3.38558 9.78365 3.38558 10.1576V18.9608C3.38558 19.3348 3.0824 19.6379 2.70842 19.6379C2.33443 19.6379 2.03125 19.3348 2.03125 18.9608V10.1576C2.03125 9.78365 2.33443 9.48047 2.70842 9.48047Z" fill="#202938"/>
<path fill-rule="evenodd" clip-rule="evenodd" d="M2.75354 3.03869C3.23192 1.99484 4.32022 1.35449 5.48231 1.35449H16.1875C17.3495 1.35449 18.4378 1.99484 18.9162 3.03869L18.9163 3.03883L20.7487 7.03971C20.7488 7.03982 20.7488 7.03993 20.7489 7.04003C21.5959 8.88738 20.161 10.8567 18.1571 10.9191C18.1501 10.9193 18.143 10.9195 18.136 10.9195H18.0535C17.1022 10.9195 16.2217 10.5063 15.6473 9.83992C15.0728 10.5063 14.1921 10.9195 13.2409 10.9195C12.2915 10.9195 11.4216 10.4854 10.8496 9.82367C10.2763 10.4994 9.3902 10.9195 8.43095 10.9195C7.47355 10.9195 6.59677 10.478 6.02493 9.80682C5.45319 10.4784 4.57613 10.9195 3.61842 10.9195H3.53377C3.52686 10.9195 3.51995 10.9193 3.51305 10.9191C1.50835 10.8578 0.074093 8.88786 0.920892 7.04003C0.920919 7.03998 0.920945 7.03992 0.920971 7.03986L2.75354 3.03869ZM6.70163 8.03177C6.70163 8.76226 7.43659 9.56512 8.43095 9.56512C9.44028 9.56512 10.1577 8.82663 10.1577 8.03177C10.1577 7.65778 10.4609 7.3546 10.8349 7.3546C11.2089 7.3546 11.512 7.65778 11.512 8.03177C11.512 8.76241 12.2467 9.56512 13.2409 9.56512C14.2512 9.56512 14.9702 8.82574 14.9702 8.03177C14.9702 7.65778 15.2734 7.3546 15.6474 7.3546C16.0214 7.3546 16.3246 7.65778 16.3246 8.03177C16.3246 8.82589 17.0433 9.56512 18.0535 9.56512H18.1246C19.2935 9.52286 19.9035 8.44542 19.5177 7.60431L19.5175 7.60399L17.685 3.60293C17.685 3.60288 17.685 3.60284 17.685 3.60279C17.4472 3.08415 16.8697 2.70882 16.1875 2.70882H5.48231C4.80004 2.70882 4.22256 3.08415 3.9848 3.60279C3.98478 3.60284 3.98475 3.60288 3.98473 3.60293L2.15214 7.60416C1.76603 8.44656 2.37662 9.52359 3.54491 9.56512H3.61842C4.61304 9.56512 5.3473 8.76413 5.3473 8.03177C5.3473 7.65778 5.65048 7.3546 6.02447 7.3546C6.39846 7.3546 6.70163 7.65778 6.70163 8.03177Z" fill="#202938"/>
<path fill-rule="evenodd" clip-rule="evenodd" d="M0.676758 19.6376C0.676758 19.2636 0.979935 18.9604 1.35392 18.9604H20.3146C20.6885 18.9604 20.9917 19.2636 20.9917 19.6376C20.9917 20.0116 20.6885 20.3148 20.3146 20.3148H1.35392C0.979935 20.3148 0.676758 20.0116 0.676758 19.6376Z" fill="#202938"/>
<path fill-rule="evenodd" clip-rule="evenodd" d="M5.75639 12.866C5.66659 12.866 5.58047 12.9017 5.51698 12.9652C5.45348 13.0287 5.41781 13.1148 5.41781 13.2046V16.2519H9.4808V13.2046C9.4808 13.1148 9.44513 13.0287 9.38163 12.9652C9.31813 12.9017 9.23201 12.866 9.14222 12.866H5.75639ZM4.55932 12.0076C4.8768 11.6901 5.3074 11.5117 5.75639 11.5117H9.14222C9.59121 11.5117 10.0218 11.6901 10.3393 12.0076C10.6568 12.325 10.8351 12.7556 10.8351 13.2046V16.929C10.8351 17.303 10.532 17.6062 10.158 17.6062H4.74064C4.36665 17.6062 4.06348 17.303 4.06348 16.929V13.2046C4.06348 12.7556 4.24184 12.325 4.55932 12.0076Z" fill="#202938"/>
<path fill-rule="evenodd" clip-rule="evenodd" d="M13.2046 12.866C13.1148 12.866 13.0287 12.9017 12.9652 12.9652C12.9017 13.0287 12.866 13.1148 12.866 13.2046V19.6377C12.866 20.0117 12.5629 20.3149 12.1889 20.3149C11.8149 20.3149 11.5117 20.0117 11.5117 19.6377V13.2046C11.5117 12.7556 11.6901 12.325 12.0076 12.0076C12.325 11.6901 12.7556 11.5117 13.2046 11.5117H15.9133C16.3623 11.5117 16.7929 11.6901 17.1104 12.0076C17.4278 12.325 17.6062 12.7556 17.6062 13.2046V19.6377C17.6062 20.0117 17.303 20.3149 16.929 20.3149C16.5551 20.3149 16.2519 20.0117 16.2519 19.6377V13.2046C16.2519 13.1148 16.2162 13.0287 16.1527 12.9652C16.0892 12.9017 16.0031 12.866 15.9133 12.866H13.2046Z" fill="#202938"/>
</g>
<defs>
<clipPath id="clip0_341_11550">
<rect width="21.6693" height="21.6693" fill="white"/>
</clipPath>
</defs>
</svg>
