<svg width="24" height="25" viewBox="0 0 24 25" fill="none" xmlns="http://www.w3.org/2000/svg">
<path d="M13.314 12.509L8.36396 7.55897C8.18181 7.37037 8.08101 7.11777 8.08329 6.85557C8.08557 6.59337 8.19074 6.34256 8.37615 6.15715C8.56155 5.97174 8.81237 5.86657 9.07456 5.8643C9.33676 5.86202 9.58936 5.96281 9.77796 6.14497L15.435 11.802C15.6224 11.9895 15.7278 12.2438 15.7278 12.509C15.7278 12.7741 15.6224 13.0284 15.435 13.216L9.77796 18.873C9.58936 19.0551 9.33676 19.1559 9.07456 19.1536C8.81237 19.1514 8.56155 19.0462 8.37615 18.8608C8.19074 18.6754 8.08557 18.4246 8.08329 18.1624C8.08101 17.9002 8.18181 17.6476 8.36396 17.459L13.314 12.509Z" fill="#202938"/>
</svg>
