<svg width="56" height="57" viewBox="0 0 56 57" fill="none" xmlns="http://www.w3.org/2000/svg">
<path d="M13.2629 32.0254C13.2629 34.154 13.6927 36.1701 14.5523 38.0736C15.412 39.9771 16.6401 41.6452 18.2366 43.078C18.1956 42.8733 18.1751 42.6891 18.1751 42.5254V41.9727C18.1751 40.6628 18.4208 39.4347 18.912 38.2885C19.4032 37.1423 20.1196 36.0985 21.0611 35.1569L27.9997 28.3411L34.9383 35.1569C35.8798 36.0985 36.5962 37.1423 37.0874 38.2885C37.5787 39.4347 37.8243 40.6628 37.8243 41.9727V42.5254C37.8243 42.6891 37.8038 42.8733 37.7629 43.078C39.3594 41.6452 40.5874 39.9771 41.4471 38.0736C42.3067 36.1701 42.7366 34.154 42.7366 32.0254C42.7366 29.9786 42.3579 28.0444 41.6006 26.2227C40.8433 24.4011 39.7482 22.7739 38.3155 21.3411C37.4968 21.8733 36.6371 22.2724 35.7366 22.5385C34.836 22.8046 33.9149 22.9376 32.9734 22.9376C30.4354 22.9376 28.2351 22.0985 26.3725 20.4201C24.5099 18.7417 23.4354 16.6745 23.1488 14.2183C21.5523 15.5692 20.1401 16.9713 18.912 18.4245C17.6839 19.8777 16.6503 21.3514 15.8111 22.8455C14.9719 24.3397 14.3374 25.8645 13.9076 27.4201C13.4778 28.9757 13.2629 30.5107 13.2629 32.0254ZM27.9997 35.2183L24.4997 38.6569C24.0494 39.1072 23.7015 39.6189 23.4559 40.192C23.2102 40.7651 23.0874 41.3587 23.0874 41.9727C23.0874 43.2827 23.5684 44.4084 24.5304 45.3499C25.4924 46.2914 26.6488 46.7622 27.9997 46.7622C29.3506 46.7622 30.507 46.2914 31.469 45.3499C32.431 44.4084 32.912 43.2827 32.912 41.9727C32.912 41.3178 32.7892 40.714 32.5436 40.1613C32.298 39.6087 31.95 39.1072 31.4997 38.6569L27.9997 35.2183ZM27.9997 5.00781V13.1131C27.9997 14.5049 28.4807 15.6716 29.4427 16.6131C30.4047 17.5546 31.5816 18.0254 32.9734 18.0254C33.7102 18.0254 34.3959 17.8718 35.0304 17.5648C35.6649 17.2578 36.2278 16.7973 36.719 16.1833L37.8243 14.8324C40.8535 16.5517 43.2482 18.9464 45.0085 22.0166C46.7687 25.0868 47.6488 28.423 47.6488 32.0254C47.6488 37.5107 45.7453 42.1569 41.9383 45.964C38.1313 49.771 33.4851 51.6745 27.9997 51.6745C22.5143 51.6745 17.8681 49.771 14.0611 45.964C10.2541 42.1569 8.35059 37.5107 8.35059 32.0254C8.35059 26.7447 10.1211 21.73 13.662 16.9815C17.2029 12.233 21.9822 8.24173 27.9997 5.00781Z" fill="#4F48E5"/>
</svg>
