<svg width="56" height="57" viewBox="0 0 56 57" fill="none" xmlns="http://www.w3.org/2000/svg">
<g clip-path="url(#clip0_235_75495)">
<path d="M27.9205 54.5205C42.4126 54.5205 54.1607 42.8231 54.1607 28.3938C54.1607 13.9644 42.4126 2.26709 27.9205 2.26709C13.4285 2.26709 1.6804 13.9644 1.6804 28.3938C1.6804 42.8231 13.4285 54.5205 27.9205 54.5205Z" fill="#202938"/>
<path d="M27.9203 53.7577C41.9284 53.7577 53.2842 42.4017 53.2842 28.3935C53.2842 14.3852 41.9284 3.0293 27.9203 3.0293C13.9122 3.0293 2.55634 14.3852 2.55634 28.3935C2.55634 42.4017 13.9122 53.7577 27.9203 53.7577Z" fill="#4F48E5" stroke="#202938" stroke-width="0.306464" stroke-miterlimit="10" stroke-linecap="round" stroke-linejoin="round"/>
<path d="M28.0002 52.1058C41.0742 52.1058 51.6727 41.5073 51.6727 28.4333C51.6727 15.3593 41.0742 4.76074 28.0002 4.76074C14.9262 4.76074 4.32762 15.3593 4.32762 28.4333C4.32762 41.5073 14.9262 52.1058 28.0002 52.1058Z" fill="#E1E7FF" stroke="#202938" stroke-width="0.306464" stroke-miterlimit="10" stroke-linecap="round" stroke-linejoin="round"/>
<path d="M42.0001 42.4336C49.7321 34.7016 49.7321 22.1656 42.0001 14.4336C34.2681 6.70161 21.7321 6.70161 14.0001 14.4336C6.26808 22.1656 6.26808 34.7016 14.0001 42.4336C21.7321 50.1656 34.2681 50.1656 42.0001 42.4336Z" stroke="#202938" stroke-width="0.306464" stroke-miterlimit="10"/>
<path d="M10.4066 41.4872C10.3873 41.4872 10.3682 41.4851 10.347 41.481C10.3279 41.4768 10.3086 41.4703 10.2917 41.4639C10.2724 41.4553 10.2552 41.4467 10.2385 41.436C10.2214 41.4234 10.2066 41.4107 10.1937 41.3979C10.136 41.3404 10.1041 41.2637 10.1041 41.1829C10.1041 41.104 10.136 41.0253 10.1937 40.97C10.2064 40.955 10.2214 40.9423 10.2385 40.9316C10.2555 40.9209 10.2724 40.9102 10.2917 40.9037C10.3086 40.8954 10.3279 40.8911 10.347 40.8868C10.3873 40.8782 10.4278 40.8782 10.4662 40.8868C10.4852 40.8911 10.5045 40.8954 10.5238 40.9037C10.541 40.9123 10.5579 40.9209 10.5749 40.9316C10.592 40.9423 10.6068 40.955 10.6218 40.97C10.6771 41.0253 10.7112 41.1042 10.7112 41.1829C10.7112 41.2637 10.6771 41.3404 10.6218 41.3979C10.6068 41.4107 10.5918 41.4234 10.5749 41.436C10.5579 41.4467 10.541 41.4553 10.5238 41.4639C10.5048 41.4701 10.4855 41.4765 10.4662 41.481C10.4469 41.4851 10.4278 41.4872 10.4066 41.4872Z" fill="#202938"/>
<path d="M35.4064 48.9089C35.349 48.7513 35.4279 48.5787 35.5833 48.5191C35.7408 48.4595 35.9153 48.5404 35.9751 48.696C36.0328 48.8533 35.9539 49.028 35.7964 49.0879C35.7623 49.1005 35.726 49.1069 35.692 49.1069C35.568 49.1067 35.4531 49.0299 35.4064 48.9089ZM36.9779 48.2741C36.9076 48.123 36.9736 47.9421 37.125 47.8718C37.2761 47.8014 37.457 47.8653 37.5273 48.0164C37.5977 48.1697 37.5338 48.3487 37.3805 48.4212C37.3805 48.4212 37.3805 48.4212 37.3805 48.4188C37.34 48.4402 37.2952 48.4488 37.2525 48.4488C37.1395 48.4488 37.0311 48.3826 36.9779 48.2741ZM38.496 47.518C38.4131 47.3733 38.4641 47.1879 38.6109 47.1047C38.7558 47.0218 38.9411 47.0728 39.0221 47.2196C39.105 47.3645 39.0538 47.5497 38.9091 47.6329C38.8624 47.6584 38.8111 47.6711 38.7599 47.6711C38.6538 47.6713 38.5516 47.616 38.496 47.518ZM39.9505 46.6451C39.8568 46.5067 39.8931 46.3193 40.0313 46.2254C40.1698 46.1317 40.3593 46.1679 40.4511 46.3086C40.5447 46.4468 40.5085 46.6342 40.3703 46.7281C40.319 46.7622 40.2594 46.7793 40.202 46.7793C40.104 46.7793 40.0082 46.7322 39.9505 46.6451ZM41.3325 45.6633C41.2281 45.5334 41.2496 45.3418 41.3792 45.2374C41.5113 45.1351 41.701 45.1566 41.8052 45.2886C41.9096 45.4183 41.8884 45.608 41.7563 45.7122C41.701 45.757 41.6348 45.7782 41.569 45.7782C41.4796 45.7785 41.3924 45.7401 41.3325 45.6633ZM42.6337 44.5771C42.5189 44.4558 42.525 44.2642 42.6485 44.1493C42.772 44.0365 42.9639 44.0427 43.0766 44.1664C43.1915 44.2878 43.1832 44.4794 43.0616 44.5945C43.002 44.6477 42.9295 44.6756 42.8552 44.6756C42.7744 44.6753 42.6933 44.6412 42.6337 44.5771ZM43.8475 43.3934C43.7242 43.2805 43.7157 43.089 43.8305 42.9653C43.9433 42.844 44.1349 42.8354 44.2586 42.9482C44.38 43.0631 44.3883 43.2547 44.2758 43.3763C44.2162 43.4423 44.133 43.4742 44.0522 43.4742C43.9774 43.4742 43.9052 43.4487 43.8475 43.3934ZM44.9654 42.1201C44.8336 42.0157 44.8121 41.826 44.9144 41.6942C45.0185 41.5643 45.2083 41.5407 45.3403 41.6451C45.4724 41.7473 45.4936 41.939 45.3913 42.071C45.3317 42.1454 45.2424 42.1861 45.153 42.1861C45.0869 42.1859 45.0209 42.1647 44.9654 42.1201ZM45.9813 40.7636C45.8428 40.6697 45.8066 40.4823 45.8983 40.3438C45.992 40.2035 46.1794 40.1672 46.3197 40.2609C46.4582 40.3546 46.4945 40.5422 46.4027 40.6804C46.3431 40.7677 46.2473 40.8146 46.1493 40.8146C46.0919 40.8146 46.0344 40.7974 45.9813 40.7636ZM9.20558 39.9329C9.20558 39.9329 9.20558 39.9329 9.20773 39.9329C9.11834 39.7901 9.16291 39.6028 9.30569 39.5155C9.44847 39.4283 9.63582 39.4729 9.72306 39.6157C9.8103 39.7582 9.76573 39.9436 9.62295 40.033C9.57408 40.0631 9.51855 40.0778 9.46539 40.0778C9.36314 40.0776 9.26303 40.0244 9.20558 39.9329ZM46.8904 39.3325C46.7436 39.2517 46.6923 39.0662 46.7755 38.9194C46.8565 38.7745 47.0417 38.7213 47.1867 38.8045C47.3335 38.8853 47.3847 39.0708 47.3037 39.2176C47.2484 39.3156 47.144 39.3711 47.0396 39.3711C46.9883 39.3709 46.9373 39.358 46.8904 39.3325ZM8.3644 38.4339C8.3644 38.4339 8.36441 38.4339 8.36679 38.4339C8.29004 38.2827 8.34963 38.1018 8.4986 38.0251C8.64758 37.9507 8.82873 38.0079 8.90524 38.1571C8.982 38.3063 8.92241 38.4892 8.77319 38.5659C8.72838 38.5871 8.68166 38.5979 8.63495 38.5979C8.52625 38.5979 8.41994 38.5383 8.3644 38.4339ZM47.6848 37.8356C47.5337 37.7629 47.4653 37.5841 47.5378 37.433C47.6081 37.2797 47.7869 37.2139 47.9404 37.2862C48.0915 37.3541 48.1575 37.5352 48.0872 37.6864C48.034 37.797 47.9253 37.8632 47.8105 37.8632C47.7678 37.8632 47.7254 37.8546 47.6848 37.8356ZM7.64456 36.8728C7.58068 36.7174 7.65314 36.5408 7.80855 36.4769C7.96181 36.4128 8.13868 36.4853 8.20447 36.6409C8.26859 36.7942 8.19398 36.9729 8.04071 37.0371C8.00233 37.0518 7.96396 37.0604 7.92368 37.0604C7.80426 37.0602 7.69152 36.9901 7.64456 36.8728ZM48.3599 36.2788C48.2023 36.2214 48.1213 36.0467 48.1811 35.8891C48.2385 35.7337 48.4133 35.6529 48.5708 35.7123C48.7262 35.7699 48.807 35.9444 48.7477 36.102C48.7029 36.2233 48.588 36.2979 48.4645 36.2979C48.4302 36.2979 48.394 36.2917 48.3599 36.2788ZM7.04627 35.2608C7.04627 35.2608 7.04627 35.2608 7.04842 35.2608C6.99526 35.1035 7.0825 34.9307 7.24006 34.8799C7.39976 34.8287 7.5721 34.9138 7.62334 35.0735C7.67459 35.2332 7.58711 35.4036 7.42956 35.4546C7.39761 35.4653 7.36567 35.4696 7.33588 35.4696C7.20812 35.4696 7.08894 35.3888 7.04627 35.2608ZM48.9093 34.6752C48.7496 34.6303 48.6557 34.4623 48.7005 34.3005C48.7474 34.1407 48.9157 34.0471 49.0754 34.094C49.2373 34.1388 49.3288 34.3069 49.284 34.4666C49.2456 34.6008 49.1243 34.688 48.9922 34.688C48.9646 34.688 48.9369 34.6837 48.9093 34.6752ZM6.57789 33.6085C6.53952 33.4447 6.63963 33.2805 6.80148 33.2424C6.96547 33.204 7.12731 33.3041 7.1676 33.4659C7.20597 33.6278 7.1061 33.7918 6.94401 33.8321C6.92065 33.8364 6.89515 33.8407 6.87155 33.8407C6.73545 33.8404 6.61198 33.747 6.57789 33.6085ZM49.3331 33.0357C49.1691 33.0016 49.0626 32.8419 49.0966 32.6779C49.1286 32.5139 49.2883 32.4074 49.4523 32.4415C49.6163 32.4734 49.7228 32.6331 49.6909 32.7971C49.6611 32.9418 49.5355 33.0398 49.3927 33.0398C49.3734 33.04 49.3543 33.0379 49.3331 33.0357ZM6.24133 31.9242C6.21368 31.7581 6.32666 31.6027 6.49256 31.5772C6.65655 31.5495 6.81196 31.6623 6.83747 31.8284C6.86512 31.9924 6.75237 32.1478 6.58838 32.1755C6.57122 32.1776 6.5543 32.1776 6.53952 32.1776C6.39245 32.1776 6.26469 32.0732 6.24133 31.9242ZM49.627 31.3662C49.4609 31.345 49.3438 31.1937 49.3629 31.0278C49.382 30.8616 49.5333 30.7446 49.6995 30.7637C49.8656 30.7849 49.9848 30.9341 49.9657 31.1024C49.9466 31.2556 49.8146 31.3686 49.6635 31.3686C49.6525 31.3684 49.6396 31.3662 49.627 31.3662ZM6.03491 30.2183C6.01989 30.05 6.14551 29.9053 6.31164 29.8903C6.47778 29.8777 6.62461 30.0011 6.63963 30.1692H6.63748C6.65226 30.3353 6.52665 30.48 6.36075 30.495C6.35217 30.495 6.34358 30.495 6.33524 30.495C6.17959 30.4953 6.04754 30.3761 6.03491 30.2183ZM49.7908 29.6774C49.6225 29.671 49.4928 29.5285 49.5014 29.3623C49.5076 29.1941 49.6504 29.0663 49.8165 29.0727C49.9848 29.0813 50.1125 29.2219 50.1061 29.39C50.0997 29.5518 49.9655 29.6774 49.8036 29.6774C49.7993 29.6774 49.7953 29.6774 49.7908 29.6774ZM5.96006 28.5021C5.96006 28.5021 5.96006 28.5021 5.96245 28.5021C5.96006 28.334 6.09664 28.1977 6.26254 28.1977C6.43083 28.1956 6.56717 28.3319 6.56717 28.498C6.56717 28.6661 6.43297 28.8024 6.26469 28.8024C6.09879 28.8024 5.96245 28.6682 5.96006 28.5021ZM49.51 27.6907C49.5057 27.5224 49.6356 27.3839 49.8039 27.3777C49.9698 27.3735 50.1104 27.5034 50.1168 27.6716C50.1211 27.8378 49.9891 27.9782 49.8229 27.9825C49.8186 27.9825 49.8165 27.9846 49.8122 27.9846C49.6501 27.9825 49.5162 27.8547 49.51 27.6907ZM6.29901 27.1072C6.13287 27.0967 6.00726 26.9518 6.01989 26.7835C6.03038 26.6174 6.17554 26.4918 6.34358 26.5046C6.50948 26.5154 6.6351 26.66 6.62461 26.8283C6.61198 26.988 6.47993 27.1096 6.32213 27.1096C6.31379 27.1094 6.30735 27.1093 6.29901 27.1072ZM49.3924 26.0234C49.3734 25.8572 49.4928 25.7083 49.6587 25.689C49.8248 25.672 49.976 25.7912 49.9953 25.9574C50.0124 26.1235 49.8932 26.2725 49.725 26.2918C49.7145 26.2918 49.7035 26.2939 49.6909 26.2939C49.5395 26.2939 49.4075 26.1788 49.3924 26.0234ZM6.46491 25.4208C6.29901 25.3974 6.18388 25.242 6.20939 25.0759C6.23489 24.9119 6.3884 24.797 6.5543 24.8225C6.72043 24.848 6.83341 25.0013 6.80982 25.1674C6.78646 25.3185 6.65655 25.4251 6.50948 25.4251C6.4947 25.4251 6.47993 25.4251 6.46491 25.4208ZM49.1434 24.3708C49.1136 24.2068 49.2223 24.0471 49.3862 24.0173C49.5502 23.9854 49.7078 24.0938 49.7397 24.2578C49.7717 24.4218 49.663 24.5815 49.499 24.6113C49.4799 24.6156 49.4606 24.6178 49.4416 24.6178C49.299 24.618 49.171 24.5157 49.1434 24.3708ZM6.75881 23.7535C6.59696 23.7151 6.49494 23.5511 6.53308 23.3893C6.56931 23.2253 6.7333 23.1252 6.89515 23.1614C7.05914 23.1995 7.15925 23.3635 7.12278 23.5256C7.09108 23.666 6.96547 23.7599 6.82889 23.7599C6.80576 23.7599 6.78217 23.7578 6.75881 23.7535ZM48.7687 22.744C48.7239 22.5822 48.8199 22.416 48.9815 22.3715C49.1434 22.3266 49.3095 22.4225 49.3522 22.5843C49.3522 22.5843 49.3522 22.5843 49.3543 22.5843C49.397 22.7462 49.3031 22.9121 49.1415 22.9547C49.1138 22.9633 49.0862 22.9652 49.0606 22.9652C48.9262 22.9655 48.8049 22.8782 48.7687 22.744ZM7.18452 22.1116C7.02482 22.0604 6.93543 21.8902 6.98668 21.7327C7.03793 21.5729 7.20812 21.4833 7.36567 21.5346C7.52537 21.5856 7.61476 21.7539 7.56375 21.9136C7.52347 22.0435 7.40405 22.1264 7.27629 22.1264C7.24625 22.1264 7.21455 22.1221 7.18452 22.1116ZM48.266 21.1491C48.2107 20.9916 48.2915 20.819 48.4493 20.7616C48.6068 20.7063 48.7794 20.7871 48.8368 20.9446C48.8921 21.1022 48.8113 21.2748 48.6535 21.3322C48.6194 21.3451 48.5854 21.3494 48.5515 21.3494C48.428 21.3491 48.311 21.2726 48.266 21.1491ZM7.73633 20.5082C7.58068 20.4443 7.50631 20.2674 7.57019 20.112C7.63192 19.9588 7.80879 19.8842 7.96396 19.9459C8.11961 20.0098 8.19398 20.1864 8.13224 20.3399C8.08338 20.4591 7.97039 20.5294 7.84907 20.5294C7.81284 20.5294 7.77446 20.523 7.73633 20.5082ZM47.6422 19.601C47.574 19.4477 47.6422 19.2687 47.7933 19.2008C47.9466 19.1326 48.1256 19.2008 48.1935 19.3519C48.2617 19.5052 48.1935 19.6842 48.0424 19.7521C48.0021 19.7712 47.9594 19.7798 47.9189 19.7798C47.8019 19.7798 47.6913 19.714 47.6422 19.601ZM8.41351 18.9515C8.2643 18.8769 8.20256 18.6959 8.27717 18.5467C8.35153 18.3956 8.53483 18.336 8.68381 18.4104C8.83302 18.485 8.89476 18.6659 8.82015 18.817C8.767 18.9236 8.65807 18.9832 8.54747 18.9832C8.50289 18.9834 8.45594 18.9748 8.41351 18.9515ZM46.8968 18.106C46.8179 17.9592 46.8713 17.7759 47.0181 17.6951C47.165 17.6143 47.3483 17.6674 47.4291 17.8142C47.5099 17.9611 47.4546 18.1465 47.3077 18.2252C47.2629 18.2507 47.2122 18.2636 47.1631 18.2636C47.0565 18.2638 46.9521 18.2061 46.8968 18.106ZM9.20749 17.4543C9.06471 17.3671 9.02014 17.1819 9.10547 17.0391C9.19056 16.8942 9.37815 16.8496 9.52069 16.9347C9.66323 17.0219 9.71019 17.2074 9.62486 17.3499C9.56741 17.4457 9.46754 17.4967 9.36504 17.4967C9.31189 17.497 9.25659 17.4843 9.20749 17.4543ZM46.0387 16.673C45.9472 16.5323 45.9877 16.345 46.1262 16.2535C46.2668 16.1619 46.4542 16.2003 46.5457 16.3407C46.6372 16.4813 46.5989 16.6687 46.4585 16.7602C46.4072 16.7943 46.3498 16.8093 46.2923 16.8093C46.1941 16.8093 46.0962 16.7624 46.0387 16.673ZM10.119 16.0234C9.98287 15.9255 9.9507 15.7381 10.0487 15.6018C10.1445 15.4654 10.334 15.4335 10.4703 15.5293C10.6067 15.6273 10.6386 15.8168 10.5406 15.9531C10.481 16.0363 10.3895 16.0787 10.2937 16.0787C10.2341 16.0787 10.1724 16.0618 10.119 16.0234ZM45.0719 15.31C44.9699 15.178 44.9954 14.9863 45.1275 14.8862C45.2595 14.784 45.449 14.8076 45.551 14.9394C45.6533 15.0736 45.6299 15.2631 45.4957 15.3653C45.4426 15.408 45.3766 15.4292 45.3127 15.4292C45.2209 15.4294 45.1315 15.3868 45.0719 15.31ZM11.137 14.6669C11.009 14.5604 10.9923 14.3687 11.0989 14.241C11.2054 14.1132 11.3968 14.0961 11.5248 14.2026C11.6545 14.3091 11.6717 14.5008 11.563 14.6307C11.5034 14.701 11.4183 14.7372 11.3308 14.7372C11.2626 14.7372 11.1945 14.716 11.137 14.6669ZM44.001 14.026C43.8901 13.9025 43.8987 13.7109 44.0243 13.5979C44.1478 13.487 44.3397 13.4956 44.4524 13.6212C44.563 13.7447 44.5545 13.9364 44.4288 14.0493C44.3714 14.1003 44.2989 14.1258 44.2265 14.1258C44.1435 14.1261 44.0603 14.092 44.001 14.026ZM12.2571 13.3958C12.1379 13.2787 12.1336 13.0871 12.2506 12.9655C12.3701 12.8463 12.5615 12.8442 12.6809 12.9612C12.8001 13.0785 12.8024 13.2701 12.6849 13.3893C12.6256 13.451 12.5467 13.4808 12.4678 13.4808C12.3913 13.4808 12.3145 13.4532 12.2571 13.3958ZM42.834 12.8294C42.7126 12.7145 42.7083 12.5229 42.8235 12.4013C42.9405 12.28 43.1324 12.2757 43.2516 12.3908C43.3729 12.5057 43.3793 12.6974 43.2644 12.8189C43.2048 12.8807 43.1238 12.9126 43.0451 12.9126C42.9679 12.9124 42.8936 12.8847 42.834 12.8294ZM13.4708 12.2116C13.36 12.086 13.3728 11.8943 13.4985 11.7856C13.6262 11.675 13.8157 11.6877 13.9265 11.8133C14.0374 11.9389 14.0245 12.1305 13.8989 12.2414C13.8415 12.2905 13.769 12.316 13.6989 12.316C13.6155 12.316 13.5306 12.28 13.4708 12.2116ZM41.5797 11.7263C41.4498 11.6197 41.4307 11.4302 41.5349 11.3003C41.6414 11.1704 41.8307 11.1492 41.9608 11.2555C42.0905 11.3599 42.112 11.5516 42.0057 11.6815C41.9461 11.7561 41.8586 11.7942 41.7692 11.7942C41.7032 11.7942 41.635 11.7708 41.5797 11.7263ZM14.7742 11.1278C14.6738 10.9936 14.7017 10.8041 14.8359 10.7039C14.8359 10.7039 14.8359 10.7039 14.8335 10.7039C14.9679 10.6038 15.1593 10.6293 15.2595 10.7657C15.3598 10.8999 15.3322 11.0894 15.198 11.1895C15.1424 11.23 15.0785 11.2491 15.0168 11.2491C14.9231 11.2493 14.8335 11.2066 14.7742 11.1278ZM40.2423 10.7233V10.7211C40.104 10.6274 40.0699 10.4379 40.1658 10.3016C40.2594 10.1631 40.4487 10.129 40.5872 10.2227C40.7233 10.3185 40.7576 10.508 40.6639 10.6444C40.6043 10.7295 40.5104 10.7764 40.4125 10.7764C40.3553 10.7764 40.2957 10.7595 40.2423 10.7233ZM16.1562 10.1462C16.0666 10.0055 16.1092 9.8182 16.2498 9.72881C16.3905 9.63943 16.5778 9.68185 16.6672 9.82249C16.7566 9.96526 16.7139 10.1505 16.5735 10.242C16.5244 10.2739 16.467 10.289 16.4115 10.289C16.3116 10.2887 16.2136 10.2377 16.1562 10.1462ZM38.8305 9.82463C38.6858 9.74168 38.6367 9.55648 38.722 9.41155C38.805 9.26687 38.9902 9.21776 39.1351 9.3031C39.28 9.38605 39.3289 9.57125 39.2459 9.71618C39.1882 9.81414 39.0884 9.8673 38.984 9.8673C38.9306 9.86706 38.8796 9.85443 38.8305 9.82463ZM17.6104 9.27736C17.5318 9.12814 17.5871 8.94508 17.7363 8.86857C17.8831 8.78967 18.0664 8.84521 18.1451 8.99418C18.224 9.1434 18.1663 9.32646 18.0194 9.40297C17.9725 9.42657 17.9255 9.43921 17.8767 9.43921C17.768 9.43921 17.6636 9.37961 17.6104 9.27736ZM37.3548 9.0409C37.2036 8.96844 37.1395 8.78752 37.212 8.6364C37.2845 8.48743 37.4654 8.42355 37.6165 8.49577C37.7676 8.56823 37.8293 8.74915 37.7571 8.90027C37.7059 9.00896 37.5974 9.07046 37.4844 9.07046C37.4399 9.0707 37.3953 9.06236 37.3548 9.0409ZM19.1266 8.52342C19.0606 8.37016 19.1309 8.19115 19.2842 8.12512C19.4374 8.0591 19.6165 8.12941 19.6825 8.28268C19.7483 8.43594 19.6782 8.61495 19.5249 8.68098C19.4846 8.6979 19.4441 8.70648 19.4036 8.70648C19.2863 8.70672 19.1757 8.63855 19.1266 8.52342ZM35.8195 8.37445C35.6638 8.31486 35.5852 8.14014 35.6469 7.98258C35.7086 7.82717 35.8834 7.75042 36.0388 7.81001C36.1944 7.87174 36.2731 8.04646 36.2114 8.20187C36.1646 8.3232 36.0516 8.39566 35.9303 8.39566C35.8941 8.39566 35.8557 8.38946 35.8195 8.37445ZM20.696 7.89105C20.6428 7.73135 20.726 7.55878 20.8857 7.50562C21.043 7.45032 21.2159 7.53542 21.269 7.69297C21.3243 7.85268 21.239 8.02525 21.0817 8.0784C21.0497 8.08913 21.0156 8.09556 20.9837 8.09556C20.8578 8.09556 20.7387 8.01667 20.696 7.89105ZM34.2372 7.83146C34.0775 7.7826 33.986 7.61432 34.0351 7.45461C34.084 7.29277 34.2523 7.20338 34.412 7.2501C34.5717 7.2992 34.6632 7.46725 34.6143 7.62909C34.5762 7.759 34.4568 7.8441 34.3247 7.8441C34.2968 7.8441 34.267 7.84004 34.2372 7.83146ZM22.3123 7.38215C22.272 7.22031 22.37 7.05417 22.5316 7.01365C22.6934 6.97098 22.8596 7.06894 22.9001 7.23079C22.9425 7.39264 22.8446 7.55878 22.6827 7.5993C22.6572 7.60573 22.6315 7.61002 22.606 7.61002C22.472 7.61002 22.3485 7.51849 22.3123 7.38215ZM32.6209 7.41409C32.4569 7.37786 32.3528 7.21601 32.3888 7.05202C32.4228 6.89017 32.5847 6.78577 32.7487 6.822C32.9124 6.85609 33.0149 7.01794 32.9809 7.18193C32.9489 7.32232 32.8233 7.42029 32.6848 7.42029C32.6636 7.42029 32.6424 7.41838 32.6209 7.41409ZM23.9649 7.00101C23.9348 6.83702 24.0457 6.67947 24.2118 6.64967C24.2118 6.64967 24.2118 6.64967 24.2118 6.65182C24.3758 6.62202 24.5336 6.73262 24.5612 6.89661C24.591 7.0606 24.4804 7.21816 24.3162 7.24795C24.2971 7.2501 24.28 7.25225 24.2631 7.25225C24.1181 7.25225 23.9901 7.14784 23.9649 7.00101ZM30.975 7.12234C30.8089 7.10113 30.6938 6.94786 30.715 6.78148C30.7386 6.61535 30.8897 6.50046 31.0559 6.52167C31.222 6.54503 31.3369 6.69853 31.3157 6.86443C31.2945 7.01555 31.1645 7.12639 31.0153 7.12639C31.0027 7.12663 30.9877 7.12449 30.975 7.12234ZM25.6405 6.75193C25.6258 6.58364 25.7471 6.43681 25.9132 6.41965C26.0794 6.40487 26.2286 6.5262 26.2431 6.6921C26.2603 6.86038 26.1366 7.00721 25.9728 7.02437C25.9623 7.02437 25.9516 7.02437 25.943 7.02437C25.7876 7.02437 25.6556 6.90734 25.6405 6.75193ZM29.3118 6.96049C29.1435 6.95191 29.0157 6.80937 29.0265 6.64109C29.035 6.47495 29.1797 6.34719 29.3459 6.35577C29.3459 6.35577 29.3459 6.35577 29.3459 6.35792C29.5141 6.3665 29.6417 6.50904 29.6312 6.67732C29.6226 6.83702 29.4884 6.96264 29.3287 6.96264C29.3225 6.96264 29.3161 6.96264 29.3118 6.96049ZM27.3315 6.63036C27.3272 6.46422 27.4614 6.32598 27.6297 6.32383C27.7956 6.31954 27.934 6.45374 27.9362 6.61988C27.9405 6.78816 27.8065 6.92641 27.6404 6.92855C27.6382 6.92855 27.6361 6.92855 27.6339 6.92855C27.47 6.92855 27.3336 6.7965 27.3315 6.63036Z" fill="#202938"/>
<path d="M34.0411 49.6493C34.0199 49.6493 34.0008 49.6472 33.9815 49.6429C33.9622 49.6389 33.9431 49.6343 33.9238 49.626C33.9066 49.6174 33.8876 49.6088 33.8725 49.5981C33.8554 49.5876 33.8408 49.5747 33.8258 49.56C33.7684 49.5047 33.7364 49.4258 33.7364 49.3471C33.7364 49.2663 33.7684 49.1895 33.8258 49.1321C33.9367 49.0191 34.1412 49.0191 34.2537 49.1321C34.3114 49.1895 34.3431 49.2663 34.3431 49.3471C34.3431 49.426 34.3114 49.5047 34.2537 49.56C34.1967 49.6176 34.12 49.6493 34.0411 49.6493Z" fill="#202938"/>
<path d="M32.3113 50.0561C32.29 50.0561 32.271 50.0539 32.2517 50.0496C32.2324 50.0456 32.2133 50.0411 32.194 50.0327C32.1768 50.0241 32.1578 50.0156 32.1427 50.0048C32.1256 49.9943 32.111 49.9815 32.096 49.9667C32.0386 49.9114 32.0066 49.8325 32.0066 49.7538C32.0066 49.673 32.0386 49.5963 32.096 49.5388C32.2069 49.4259 32.4114 49.4259 32.5239 49.5388C32.5816 49.5963 32.6133 49.673 32.6133 49.7538C32.6133 49.8327 32.5816 49.9114 32.5239 49.9667C32.4669 50.0244 32.3902 50.0561 32.3113 50.0561Z" fill="#202938"/>
<path d="M30.5815 50.4609C30.5602 50.4609 30.5412 50.4587 30.5219 50.4544C30.5026 50.4504 30.4835 50.4458 30.4642 50.4375C30.447 50.4289 30.428 50.4203 30.4129 50.4096C30.3958 50.3991 30.3812 50.3863 30.3662 50.3715C30.3088 50.3162 30.2768 50.2373 30.2768 50.1586C30.2768 50.0778 30.3088 50.0011 30.3662 49.9436C30.4771 49.8306 30.6816 49.8306 30.7941 49.9436C30.8518 50.0011 30.8835 50.0778 30.8835 50.1586C30.8835 50.2375 30.8518 50.3162 30.7941 50.3715C30.7371 50.4292 30.6604 50.4609 30.5815 50.4609Z" fill="#202938"/>
<path d="M25.8755 50.5322C25.8543 50.5322 25.8352 50.53 25.8159 50.5257C25.7966 50.5217 25.7776 50.5171 25.7583 50.5088C25.7411 50.5002 25.722 50.4916 25.707 50.4809C25.6898 50.4704 25.6753 50.4575 25.6603 50.4428C25.6028 50.3875 25.5709 50.3086 25.5709 50.2299C25.5709 50.1491 25.6028 50.0724 25.6603 50.0149C25.7711 49.9019 25.9756 49.9019 26.0881 50.0149C26.1458 50.0724 26.1775 50.1491 26.1775 50.2299C26.1775 50.3088 26.1458 50.3875 26.0881 50.4428C26.0312 50.5004 25.9544 50.5322 25.8755 50.5322Z" fill="#202938"/>
<path d="M27.5441 50.7695C27.5228 50.7695 27.5038 50.7673 27.4845 50.763C27.4652 50.759 27.4461 50.7544 27.4268 50.7461C27.4096 50.7375 27.3905 50.7289 27.3755 50.7182C27.3584 50.7077 27.3438 50.6948 27.3288 50.6801C27.2714 50.6248 27.2394 50.5459 27.2394 50.4672C27.2394 50.3864 27.2714 50.3097 27.3288 50.2522C27.4396 50.1392 27.6442 50.1392 27.7567 50.2522C27.8144 50.3097 27.8461 50.3864 27.8461 50.4672C27.8461 50.5461 27.8144 50.6248 27.7567 50.6801C27.6997 50.7378 27.623 50.7695 27.5441 50.7695Z" fill="#202938"/>
<path d="M29.2126 50.5322C29.1914 50.5322 29.1723 50.53 29.153 50.5257C29.1337 50.5217 29.1146 50.5171 29.0953 50.5088C29.0781 50.5002 29.0591 50.4916 29.0441 50.4809C29.0269 50.4704 29.0123 50.4575 28.9973 50.4428C28.9399 50.3875 28.9079 50.3086 28.9079 50.2299C28.9079 50.1491 28.9399 50.0724 28.9973 50.0149C29.1082 49.9019 29.3127 49.9019 29.4252 50.0149C29.4829 50.0724 29.5146 50.1491 29.5146 50.2299C29.5146 50.3088 29.4829 50.3875 29.4252 50.4428C29.3682 50.5004 29.2915 50.5322 29.2126 50.5322Z" fill="#202938"/>
<path d="M23.9686 50.2934C23.9474 50.2934 23.9284 50.2912 23.9091 50.287C23.8897 50.2829 23.8707 50.2784 23.8514 50.27C23.8342 50.2614 23.8151 50.2529 23.8001 50.2421C23.783 50.2316 23.7684 50.2188 23.7534 50.204C23.696 50.1487 23.664 50.0698 23.664 49.9911C23.664 49.9103 23.696 49.8336 23.7534 49.7761C23.8642 49.6632 24.0688 49.6632 24.1813 49.7761C24.2389 49.8336 24.2706 49.9103 24.2706 49.9911C24.2706 50.07 24.2389 50.1487 24.1813 50.204C24.1243 50.2617 24.0475 50.2934 23.9686 50.2934Z" fill="#202938"/>
<path d="M12.289 43.8578C12.2678 43.8578 12.2487 43.8557 12.2294 43.8514C12.2101 43.8474 12.191 43.8428 12.1717 43.8345C12.1545 43.8259 12.1355 43.8173 12.1205 43.8066C12.1033 43.7961 12.0888 43.7832 12.0737 43.7684C12.0163 43.7132 11.9844 43.6343 11.9844 43.5556C11.9844 43.4748 12.0163 43.398 12.0737 43.3406C12.1846 43.2276 12.3891 43.2276 12.5016 43.3406C12.5593 43.398 12.591 43.4748 12.591 43.5556C12.591 43.6345 12.5593 43.7132 12.5016 43.7684C12.4446 43.8261 12.3679 43.8578 12.289 43.8578Z" fill="#202938"/>
<path d="M13.2424 44.8114C13.2212 44.8114 13.2021 44.8093 13.1828 44.805C13.1635 44.801 13.1445 44.7964 13.1251 44.7881C13.108 44.7795 13.0889 44.7709 13.0739 44.7602C13.0567 44.7497 13.0422 44.7368 13.0272 44.7221C12.9697 44.6668 12.9378 44.5879 12.9378 44.5092C12.9378 44.4284 12.9697 44.3517 13.0272 44.2942C13.138 44.1812 13.3425 44.1812 13.455 44.2942C13.5127 44.3517 13.5444 44.4284 13.5444 44.5092C13.5444 44.5881 13.5127 44.6668 13.455 44.7221C13.3981 44.7797 13.3213 44.8114 13.2424 44.8114Z" fill="#202938"/>
<path d="M14.4342 46.0033C14.413 46.0033 14.3939 46.0012 14.3746 45.9969C14.3553 45.9929 14.3363 45.9883 14.3169 45.98C14.2998 45.9714 14.2807 45.9628 14.2657 45.9521C14.2485 45.9416 14.234 45.9287 14.219 45.914C14.1615 45.8587 14.1296 45.7798 14.1296 45.7011C14.1296 45.6203 14.1615 45.5435 14.219 45.4861C14.3298 45.3731 14.5343 45.3731 14.6468 45.4861C14.7045 45.5435 14.7362 45.6203 14.7362 45.7011C14.7362 45.78 14.7045 45.8587 14.6468 45.914C14.5899 45.9716 14.5131 46.0033 14.4342 46.0033Z" fill="#202938"/>
<path d="M17.2945 47.9106C17.2733 47.9106 17.2543 47.9084 17.235 47.9041C17.2157 47.9001 17.1966 47.8956 17.1773 47.8872C17.1601 47.8786 17.141 47.87 17.126 47.8593C17.1089 47.8488 17.0943 47.836 17.0793 47.8212C17.0219 47.7659 16.9899 47.687 16.9899 47.6083C16.9899 47.5275 17.0219 47.4508 17.0793 47.3933C17.1901 47.2803 17.3947 47.2803 17.5072 47.3933C17.5649 47.4508 17.5966 47.5275 17.5966 47.6083C17.5966 47.6872 17.5649 47.7659 17.5072 47.8212C17.4502 47.8789 17.3734 47.9106 17.2945 47.9106Z" fill="#202938"/>
<path d="M18.7247 48.6249C18.7035 48.6249 18.6844 48.6228 18.6651 48.6185C18.6458 48.6144 18.6267 48.6099 18.6074 48.6016C18.5903 48.593 18.5712 48.5844 18.5562 48.5737C18.539 48.5632 18.5245 48.5503 18.5095 48.5355C18.452 48.4802 18.4201 48.4013 18.4201 48.3227C18.4201 48.2419 18.452 48.1651 18.5095 48.1077C18.6203 47.9947 18.8248 47.9947 18.9373 48.1077C18.995 48.1651 19.0267 48.2419 19.0267 48.3227C19.0267 48.4016 18.995 48.4802 18.9373 48.5355C18.8804 48.5932 18.8036 48.6249 18.7247 48.6249Z" fill="#202938"/>
<path d="M20.3932 49.3398C20.372 49.3398 20.353 49.3376 20.3336 49.3333C20.3143 49.3293 20.2953 49.3248 20.276 49.3164C20.2588 49.3078 20.2397 49.2992 20.2247 49.2885C20.2076 49.278 20.193 49.2652 20.178 49.2504C20.1205 49.1951 20.0886 49.1162 20.0886 49.0375C20.0886 48.9567 20.1205 48.88 20.178 48.8225C20.2888 48.7095 20.4933 48.7095 20.6059 48.8225C20.6635 48.88 20.6952 48.9567 20.6952 49.0375C20.6952 49.1164 20.6635 49.1951 20.6059 49.2504C20.5489 49.3081 20.4721 49.3398 20.3932 49.3398Z" fill="#202938"/>
<path d="M22.0618 49.8158C22.0405 49.8158 22.0215 49.8137 22.0022 49.8094C21.9829 49.8054 21.9638 49.8008 21.9445 49.7925C21.9273 49.7839 21.9083 49.7753 21.8932 49.7646C21.8761 49.7541 21.8615 49.7412 21.8465 49.7265C21.7891 49.6712 21.7571 49.5923 21.7571 49.5136C21.7571 49.4328 21.7891 49.356 21.8465 49.2986C21.9574 49.1856 22.1619 49.1856 22.2744 49.2986C22.3321 49.356 22.3638 49.4328 22.3638 49.5136C22.3638 49.5925 22.3321 49.6712 22.2744 49.7265C22.2174 49.7841 22.1407 49.8158 22.0618 49.8158Z" fill="#202938"/>
<path d="M15.8644 46.957C15.8432 46.957 15.8241 46.9548 15.8048 46.9505C15.7855 46.9465 15.7664 46.9419 15.7471 46.9336C15.73 46.925 15.7109 46.9164 15.6959 46.9057C15.6787 46.8952 15.6642 46.8823 15.6491 46.8676C15.5917 46.8123 15.5598 46.7334 15.5598 46.6547C15.5598 46.5739 15.5917 46.4972 15.6491 46.4397C15.76 46.3267 15.9645 46.3267 16.077 46.4397C16.1347 46.4972 16.1664 46.5739 16.1664 46.6547C16.1664 46.7336 16.1347 46.8123 16.077 46.8676C16.02 46.9253 15.9433 46.957 15.8644 46.957Z" fill="#202938"/>
<path d="M11.3357 42.6659C11.3145 42.6659 11.2954 42.6638 11.2761 42.6595C11.2568 42.6555 11.2377 42.6509 11.2184 42.6426C11.2012 42.634 11.1822 42.6254 11.1672 42.6147C11.15 42.6042 11.1355 42.5913 11.1204 42.5766C11.063 42.5213 11.0311 42.4424 11.0311 42.3637C11.0311 42.2829 11.063 42.2061 11.1204 42.1487C11.2313 42.0357 11.4358 42.0357 11.5483 42.1487C11.606 42.2061 11.6377 42.2829 11.6377 42.3637C11.6377 42.4426 11.606 42.5213 11.5483 42.5766C11.4913 42.6342 11.4146 42.6659 11.3357 42.6659Z" fill="#202938"/>
<path d="M33.0689 14.4482C34.3707 14.4483 35.5015 14.7911 36.4507 15.4844H36.4498C37.4133 16.1449 38.1443 17.0089 38.6392 18.0742H38.6382C39.1562 19.11 39.4166 20.1985 39.4166 21.3369C39.4165 22.63 39.0774 23.8594 38.4029 25.0215C38.0188 25.6833 37.5328 26.2482 36.9468 26.7158C36.789 26.8418 36.7039 27.078 36.7222 27.332C36.7406 27.5864 36.8588 27.8013 37.0328 27.8965C37.8689 28.3542 38.5735 28.9572 39.1451 29.7041L39.316 29.9316C40.144 31.0876 40.5543 32.4856 40.5543 34.1143C40.5542 35.6291 40.151 36.9182 39.3355 37.9688L39.3335 37.9707C38.5242 38.9877 37.4309 39.7579 36.0621 40.2861L36.063 40.2871C34.7223 40.8143 33.2556 41.0762 31.6656 41.0762H19.8843C19.0947 41.076 18.4548 40.4361 18.4546 39.6465V15.8779C18.4548 15.0883 19.0947 14.4484 19.8843 14.4482H33.0689ZM25.1177 29.8496C24.5537 29.8496 24.0964 30.3071 24.0962 30.8711V35.3252C24.0962 35.8894 24.5535 36.3467 25.1177 36.3467H31.6656C32.2643 36.3467 32.7972 36.2074 33.2691 35.9316C33.7706 35.6288 34.1618 35.2348 34.4468 34.749C34.7312 34.2644 34.8745 33.7343 34.8746 33.1543C34.8746 32.5188 34.7411 31.961 34.481 31.4775L34.48 31.4746C34.2176 30.9635 33.8625 30.5741 33.4166 30.2998L33.4058 30.293C32.9884 29.9994 32.4997 29.8496 31.9312 29.8496H25.1177ZM25.1177 19.2139C24.5537 19.2139 24.0965 19.6714 24.0962 20.2354V24.3945C24.0963 24.9587 24.5536 25.416 25.1177 25.416H30.8697C31.4178 25.416 31.9139 25.2887 32.3619 25.0361C32.8088 24.7841 33.1612 24.4295 33.4214 23.9688L33.4253 23.9619C33.7053 23.5075 33.8501 22.9556 33.8502 22.2969C33.8502 21.6611 33.7175 21.1179 33.4595 20.6611L33.4556 20.6543C33.2195 20.1945 32.8918 19.8421 32.4712 19.5918L32.4664 19.5889C32.0725 19.3408 31.6183 19.2139 31.0972 19.2139H25.1177Z" fill="#4F48E5" stroke="#202938" stroke-width="0.408618"/>
</g>
<defs>
<clipPath id="clip0_235_75495">
<rect width="56" height="56" fill="white" transform="translate(0 0.433594)"/>
</clipPath>
</defs>
</svg>
