<svg width="601" height="601" viewBox="0 0 601 601" fill="none" xmlns="http://www.w3.org/2000/svg">
<g clip-path="url(#clip0_235_76052)">
<path d="M300.283 497.047C408.713 497.047 496.613 409.147 496.613 300.717C496.613 192.287 408.713 104.387 300.283 104.387C191.853 104.387 103.953 192.287 103.953 300.717C103.953 409.147 191.853 497.047 300.283 497.047Z" fill="#FBFCFF"/>
<path d="M369.617 370.054C408.077 331.594 408.212 269.372 369.918 231.078C331.623 192.784 269.402 192.919 230.942 231.379C192.481 269.839 192.347 332.061 230.641 370.355C268.935 408.649 331.157 408.514 369.617 370.054Z" fill="#964529"/>
<path d="M326.62 370.466C365.062 356.093 384.574 313.278 370.202 274.836C355.83 236.393 313.015 216.88 274.573 231.252C236.131 245.624 216.619 288.439 230.991 326.882C245.363 365.325 288.178 384.838 326.62 370.466Z" stroke="#964529" stroke-width="1.34191" stroke-miterlimit="10"/>
<path d="M234.548 349.857C234.476 349.857 234.404 349.849 234.324 349.833C234.252 349.816 234.18 349.792 234.116 349.769C234.043 349.737 233.98 349.706 233.917 349.665C233.853 349.617 233.797 349.57 233.749 349.521C233.533 349.306 233.413 349.017 233.413 348.713C233.413 348.418 233.533 348.121 233.749 347.915C233.797 347.858 233.852 347.811 233.917 347.771C233.981 347.73 234.044 347.69 234.116 347.666C234.18 347.635 234.252 347.618 234.324 347.602C234.476 347.57 234.628 347.57 234.771 347.602C234.843 347.618 234.915 347.635 234.987 347.666C235.051 347.699 235.116 347.73 235.178 347.771C235.242 347.81 235.298 347.858 235.355 347.915C235.563 348.123 235.69 348.418 235.69 348.713C235.69 349.017 235.561 349.304 235.355 349.521C235.298 349.569 235.242 349.617 235.178 349.665C235.115 349.706 235.051 349.737 234.987 349.769C234.915 349.793 234.843 349.817 234.771 349.833C234.7 349.85 234.628 349.857 234.548 349.857Z" fill="#964529"/>
<path d="M328.377 377.711C328.162 377.12 328.457 376.471 329.04 376.248C329.632 376.025 330.286 376.327 330.51 376.911C330.726 377.502 330.43 378.158 329.838 378.381C329.71 378.429 329.574 378.453 329.447 378.453C328.983 378.453 328.552 378.165 328.377 377.711ZM334.274 375.328C334.01 374.761 334.258 374.081 334.825 373.818C335.392 373.554 336.072 373.794 336.335 374.361C336.599 374.936 336.359 375.608 335.784 375.879C335.784 375.879 335.784 375.879 335.784 375.871C335.631 375.951 335.464 375.984 335.303 375.984C334.882 375.984 334.475 375.735 334.274 375.328ZM339.972 372.491C339.661 371.948 339.853 371.252 340.403 370.94C340.948 370.629 341.643 370.821 341.947 371.371C342.258 371.915 342.066 372.611 341.523 372.922C341.348 373.018 341.155 373.066 340.963 373.066C340.564 373.066 340.181 372.858 339.972 372.491ZM345.431 369.215C345.081 368.695 345.216 367.993 345.735 367.641C346.255 367.29 346.966 367.426 347.31 367.953C347.661 368.472 347.525 369.176 347.006 369.528C346.814 369.655 346.59 369.72 346.374 369.72C346.008 369.719 345.648 369.542 345.431 369.215ZM350.619 365.53C350.228 365.043 350.308 364.323 350.794 363.932C351.291 363.547 352.002 363.628 352.393 364.124C352.785 364.611 352.705 365.322 352.209 365.714C352.002 365.882 351.754 365.963 351.507 365.963C351.17 365.961 350.843 365.819 350.619 365.53ZM355.503 361.454C355.072 360.998 355.095 360.279 355.558 359.848C356.022 359.425 356.741 359.448 357.165 359.911C357.596 360.367 357.565 361.086 357.109 361.517C356.885 361.717 356.613 361.821 356.334 361.821C356.03 361.822 355.725 361.694 355.503 361.454ZM360.058 357.011C359.595 356.587 359.563 355.868 359.994 355.405C360.417 354.949 361.136 354.917 361.6 355.341C362.055 355.772 362.086 356.492 361.663 356.947C361.44 357.196 361.128 357.314 360.824 357.314C360.545 357.313 360.274 357.217 360.058 357.011ZM364.253 352.231C363.758 351.84 363.678 351.127 364.062 350.633C364.454 350.145 365.165 350.056 365.661 350.449C366.157 350.833 366.236 351.551 365.852 352.048C365.628 352.327 365.293 352.479 364.957 352.479C364.708 352.479 364.461 352.399 364.253 352.231ZM368.066 347.14C367.545 346.788 367.41 346.084 367.754 345.565C368.105 345.038 368.809 344.902 369.336 345.254C369.856 345.606 369.992 346.31 369.647 346.829C369.424 347.156 369.065 347.332 368.696 347.332C368.481 347.332 368.266 347.267 368.066 347.14ZM230.04 344.023C230.04 344.023 230.04 344.023 230.048 344.023C229.713 343.487 229.88 342.784 230.416 342.456C230.951 342.129 231.655 342.297 231.982 342.832C232.31 343.368 232.142 344.064 231.606 344.399C231.422 344.512 231.214 344.567 231.014 344.567C230.632 344.566 230.256 344.366 230.04 344.023ZM371.478 341.768C370.927 341.464 370.734 340.769 371.047 340.219C371.351 339.675 372.046 339.475 372.59 339.788C373.142 340.091 373.334 340.787 373.03 341.337C372.822 341.705 372.43 341.914 372.039 341.914C371.846 341.914 371.655 341.864 371.478 341.768ZM226.883 338.397C226.883 338.397 226.883 338.397 226.892 338.397C226.603 337.83 226.828 337.15 227.386 336.863C227.946 336.583 228.626 336.799 228.913 337.359C229.201 337.919 228.977 338.606 228.417 338.893C228.249 338.972 228.074 339.013 227.898 339.013C227.491 339.012 227.091 338.788 226.883 338.397ZM374.459 336.151C373.892 335.878 373.635 335.206 373.908 334.64C374.172 334.064 374.842 333.817 375.419 334.088C375.986 334.344 376.233 335.023 375.97 335.591C375.771 336.006 375.364 336.254 374.931 336.254C374.771 336.255 374.612 336.223 374.459 336.151ZM224.182 332.538C223.943 331.955 224.214 331.291 224.798 331.052C225.373 330.812 226.036 331.083 226.284 331.667C226.524 332.242 226.244 332.913 225.669 333.154C225.525 333.209 225.381 333.241 225.229 333.241C224.781 333.241 224.358 332.977 224.182 332.538ZM376.994 330.308C376.403 330.093 376.099 329.437 376.322 328.845C376.537 328.263 377.193 327.959 377.785 328.182C378.368 328.398 378.672 329.054 378.448 329.645C378.28 330.1 377.849 330.38 377.385 330.38C377.257 330.38 377.121 330.356 376.994 330.308ZM221.936 326.487C221.936 326.487 221.936 326.487 221.944 326.487C221.745 325.896 222.073 325.249 222.664 325.058C223.263 324.866 223.91 325.185 224.101 325.785C224.294 326.384 223.966 327.024 223.373 327.215C223.253 327.256 223.133 327.272 223.022 327.272C222.544 327.271 222.097 326.968 221.936 326.487ZM379.055 324.289C378.455 324.121 378.103 323.491 378.272 322.883C378.448 322.283 379.08 321.932 379.679 322.108C380.286 322.276 380.629 322.907 380.462 323.507C380.318 324.011 379.863 324.339 379.367 324.339C379.263 324.339 379.159 324.322 379.055 324.289ZM220.178 320.286C220.034 319.671 220.41 319.055 221.017 318.912C221.633 318.768 222.24 319.144 222.391 319.751C222.535 320.358 222.16 320.974 221.551 321.126C221.464 321.142 221.368 321.158 221.28 321.158C220.769 321.157 220.306 320.806 220.178 320.286ZM380.646 318.136C380.03 318.009 379.631 317.409 379.759 316.793C379.879 316.178 380.478 315.778 381.093 315.905C381.709 316.026 382.108 316.625 381.988 317.24C381.876 317.783 381.405 318.15 380.868 318.15C380.798 318.152 380.725 318.144 380.646 318.136ZM218.915 313.964C218.812 313.341 219.234 312.757 219.858 312.661C220.474 312.557 221.057 312.981 221.153 313.604C221.256 314.219 220.833 314.803 220.217 314.907C220.153 314.916 220.088 314.916 220.033 314.916C219.482 314.916 219.003 314.523 218.915 313.964ZM381.749 311.87C381.125 311.789 380.686 311.222 380.758 310.599C380.83 309.975 381.397 309.536 382.02 309.608C382.644 309.688 383.092 310.248 383.02 310.879C382.948 311.454 382.453 311.878 381.885 311.878C381.845 311.878 381.796 311.87 381.749 311.87ZM218.14 307.562C218.084 306.931 218.556 306.388 219.179 306.331C219.803 306.283 220.354 306.747 220.41 307.379H220.402C220.457 308.002 219.986 308.545 219.363 308.601C219.33 308.601 219.299 308.601 219.267 308.601C218.683 308.601 218.187 308.155 218.14 307.562ZM382.364 305.532C381.732 305.508 381.246 304.973 381.277 304.349C381.301 303.718 381.835 303.238 382.46 303.262C383.092 303.295 383.571 303.822 383.547 304.454C383.523 305.06 383.02 305.532 382.412 305.532C382.396 305.532 382.381 305.532 382.364 305.532ZM217.86 301.121C217.86 301.121 217.86 301.121 217.869 301.121C217.86 300.49 218.372 299.978 218.995 299.978C219.627 299.97 220.139 300.482 220.139 301.105C220.139 301.736 219.636 302.247 219.004 302.247C218.379 302.247 217.869 301.744 217.86 301.121ZM381.309 298.076C381.292 297.444 381.78 296.925 382.412 296.901C383.035 296.886 383.563 297.373 383.587 298.004C383.603 298.627 383.107 299.154 382.484 299.17C382.467 299.17 382.46 299.178 382.444 299.178C381.837 299.17 381.333 298.691 381.309 298.076ZM219.131 295.886C218.508 295.847 218.036 295.302 218.084 294.671C218.123 294.047 218.667 293.575 219.299 293.623C219.921 293.663 220.393 294.207 220.354 294.838C220.306 295.437 219.811 295.893 219.219 295.893C219.186 295.895 219.164 295.895 219.131 295.886ZM380.87 291.818C380.798 291.195 381.246 290.635 381.869 290.563C382.492 290.499 383.061 290.946 383.131 291.57C383.195 292.194 382.748 292.754 382.116 292.826C382.077 292.826 382.036 292.834 381.988 292.834C381.421 292.833 380.925 292.402 380.87 291.818ZM219.754 289.556C219.131 289.468 218.7 288.885 218.795 288.261C218.891 287.646 219.466 287.214 220.09 287.31C220.713 287.406 221.137 287.982 221.049 288.605C220.962 289.172 220.474 289.572 219.923 289.572C219.866 289.572 219.81 289.572 219.754 289.556ZM379.934 285.615C379.822 285 380.229 284.401 380.846 284.289C381.461 284.169 382.053 284.577 382.173 285.192C382.293 285.807 381.885 286.407 381.27 286.52C381.198 286.535 381.125 286.544 381.055 286.544C380.518 286.543 380.038 286.159 379.934 285.615ZM220.857 283.298C220.251 283.154 219.866 282.539 220.01 281.931C220.146 281.316 220.762 280.94 221.369 281.076C221.984 281.22 222.36 281.835 222.224 282.443C222.105 282.97 221.633 283.322 221.121 283.322C221.034 283.322 220.945 283.314 220.857 283.298ZM378.527 279.51C378.359 278.902 378.72 278.279 379.326 278.112C379.933 277.944 380.557 278.304 380.717 278.911C380.717 278.911 380.717 278.911 380.725 278.911C380.885 279.518 380.533 280.14 379.927 280.301C379.823 280.334 379.719 280.341 379.623 280.341C379.12 280.341 378.663 280.013 378.527 279.51ZM222.456 277.136C221.856 276.944 221.521 276.305 221.712 275.714C221.905 275.115 222.544 274.779 223.134 274.971C223.734 275.163 224.07 275.794 223.878 276.393C223.727 276.881 223.279 277.192 222.799 277.192C222.688 277.192 222.568 277.176 222.456 277.136ZM376.642 273.523C376.434 272.932 376.738 272.285 377.33 272.069C377.922 271.861 378.568 272.165 378.784 272.756C378.992 273.347 378.688 273.994 378.097 274.211C377.969 274.259 377.842 274.274 377.714 274.274C377.249 274.274 376.81 273.987 376.642 273.523ZM224.525 271.118C223.942 270.877 223.662 270.214 223.902 269.631C224.134 269.055 224.797 268.775 225.381 269.007C225.964 269.246 226.244 269.91 226.012 270.486C225.829 270.934 225.406 271.197 224.949 271.197C224.814 271.198 224.67 271.174 224.525 271.118ZM374.299 267.714C374.044 267.138 374.299 266.467 374.866 266.211C375.442 265.955 376.113 266.211 376.369 266.778C376.625 267.353 376.369 268.025 375.802 268.281C375.651 268.353 375.491 268.384 375.338 268.384C374.899 268.385 374.484 268.136 374.299 267.714ZM227.067 265.275C226.507 264.995 226.275 264.316 226.555 263.757C226.835 263.189 227.522 262.966 228.081 263.245C228.64 263.525 228.872 264.204 228.592 264.772C228.393 265.172 227.985 265.395 227.569 265.395C227.403 265.395 227.227 265.364 227.067 265.275ZM371.502 262.103C371.207 261.552 371.406 260.865 371.958 260.561C372.51 260.257 373.197 260.458 373.501 261.009C373.805 261.56 373.597 262.256 373.045 262.551C372.877 262.647 372.686 262.695 372.503 262.695C372.101 262.694 371.71 262.478 371.502 262.103ZM230.048 259.656C229.512 259.328 229.344 258.633 229.665 258.099C229.985 257.554 230.688 257.387 231.224 257.707C231.76 258.035 231.935 258.73 231.614 259.266C231.399 259.625 231.024 259.817 230.639 259.817C230.44 259.817 230.232 259.769 230.048 259.656ZM368.282 256.723C367.938 256.196 368.091 255.492 368.61 255.149C369.137 254.805 369.841 254.949 370.184 255.476C370.528 256.004 370.384 256.708 369.856 257.051C369.664 257.178 369.448 257.235 369.233 257.235C368.865 257.236 368.498 257.06 368.282 256.723ZM233.469 254.286C232.957 253.919 232.837 253.215 233.205 252.704C233.565 252.193 234.276 252.072 234.788 252.432C235.3 252.799 235.42 253.51 235.052 254.022C234.829 254.334 234.485 254.494 234.125 254.494C233.9 254.494 233.668 254.43 233.469 254.286ZM364.653 251.609C364.27 251.113 364.366 250.394 364.861 250.019C365.357 249.635 366.068 249.723 366.451 250.218C366.836 250.721 366.747 251.432 366.243 251.817C366.044 251.976 365.797 252.057 365.556 252.057C365.213 252.057 364.877 251.897 364.653 251.609ZM237.29 249.196C236.809 248.796 236.747 248.076 237.146 247.597C237.546 247.118 238.264 247.054 238.744 247.453C239.232 247.853 239.296 248.571 238.889 249.06C238.664 249.324 238.346 249.46 238.018 249.46C237.761 249.459 237.505 249.379 237.29 249.196ZM360.633 246.79C360.217 246.326 360.249 245.607 360.721 245.184C361.184 244.768 361.904 244.801 362.328 245.272C362.743 245.735 362.711 246.455 362.239 246.879C362.024 247.071 361.751 247.166 361.48 247.166C361.169 247.166 360.856 247.037 360.633 246.79ZM241.493 244.424C241.046 243.984 241.029 243.265 241.469 242.809C241.917 242.362 242.635 242.354 243.083 242.794C243.53 243.233 243.538 243.953 243.099 244.401C242.875 244.633 242.58 244.744 242.284 244.744C241.996 244.743 241.709 244.64 241.493 244.424ZM356.254 242.298C355.798 241.866 355.782 241.147 356.214 240.69C356.654 240.235 357.373 240.218 357.82 240.651C358.275 241.082 358.3 241.802 357.868 242.257C357.645 242.489 357.341 242.609 357.045 242.609C356.757 242.61 356.477 242.505 356.254 242.298ZM246.048 239.979C245.633 239.509 245.681 238.789 246.152 238.381C246.631 237.965 247.343 238.013 247.758 238.485C248.173 238.956 248.125 239.676 247.654 240.091C247.439 240.275 247.167 240.371 246.904 240.371C246.591 240.372 246.273 240.236 246.048 239.979ZM351.546 238.159C351.059 237.759 350.987 237.047 351.378 236.56C351.778 236.072 352.489 235.993 352.977 236.392C353.463 236.783 353.544 237.503 353.145 237.99C352.922 238.27 352.594 238.414 352.257 238.414C352.01 238.413 351.754 238.325 351.546 238.159ZM250.939 235.912C250.564 235.409 250.668 234.698 251.171 234.322C251.171 234.322 251.171 234.322 251.163 234.322C251.667 233.946 252.386 234.042 252.762 234.554C253.138 235.057 253.034 235.768 252.531 236.144C252.323 236.296 252.083 236.368 251.851 236.368C251.499 236.368 251.163 236.208 250.939 235.912ZM346.527 234.394V234.386C346.008 234.034 345.879 233.323 346.24 232.811C346.59 232.292 347.302 232.164 347.822 232.516C348.333 232.875 348.461 233.587 348.11 234.097C347.887 234.417 347.535 234.594 347.166 234.594C346.951 234.594 346.726 234.53 346.527 234.394ZM256.127 232.227C255.791 231.7 255.951 230.996 256.478 230.661C257.005 230.326 257.709 230.484 258.044 231.013C258.379 231.549 258.22 232.244 257.693 232.588C257.51 232.708 257.293 232.764 257.086 232.764C256.71 232.763 256.342 232.572 256.127 232.227ZM341.227 231.02C340.685 230.709 340.5 230.014 340.82 229.47C341.131 228.927 341.827 228.743 342.37 229.062C342.914 229.375 343.098 230.069 342.785 230.613C342.569 230.981 342.194 231.18 341.802 231.18C341.603 231.181 341.412 231.133 341.227 231.02ZM261.585 228.967C261.29 228.408 261.497 227.721 262.057 227.434C262.608 227.138 263.296 227.346 263.591 227.904C263.886 228.464 263.67 229.151 263.119 229.439C262.942 229.528 262.767 229.575 262.583 229.575C262.177 229.574 261.785 229.351 261.585 228.967ZM335.689 228.08C335.122 227.807 334.881 227.129 335.153 226.562C335.425 226.002 336.103 225.763 336.672 226.034C337.238 226.306 337.47 226.986 337.199 227.553C337.007 227.961 336.599 228.192 336.175 228.192C336.009 228.192 335.84 228.16 335.689 228.08ZM267.276 226.138C267.029 225.562 267.293 224.891 267.867 224.643C268.442 224.396 269.114 224.659 269.361 225.236C269.609 225.811 269.344 226.482 268.77 226.73C268.619 226.793 268.466 226.826 268.315 226.826C267.875 226.825 267.46 226.569 267.276 226.138ZM329.927 225.579C329.343 225.354 329.048 224.7 329.28 224.108C329.512 223.524 330.167 223.237 330.75 223.46C331.334 223.692 331.629 224.348 331.397 224.932C331.222 225.387 330.798 225.658 330.342 225.658C330.207 225.658 330.063 225.634 329.927 225.579ZM273.166 223.764C272.967 223.165 273.279 222.517 273.879 222.318C274.47 222.11 275.117 222.43 275.318 223.021C275.525 223.62 275.205 224.267 274.615 224.467C274.495 224.506 274.366 224.53 274.247 224.53C273.773 224.532 273.326 224.236 273.166 223.764ZM323.989 223.54C323.389 223.356 323.046 222.724 323.23 222.125C323.413 221.518 324.044 221.182 324.643 221.357C325.243 221.541 325.586 222.173 325.403 222.78C325.258 223.268 324.812 223.588 324.315 223.588C324.212 223.589 324.1 223.572 323.989 223.54ZM279.232 221.854C279.081 221.247 279.448 220.623 280.056 220.472C280.664 220.312 281.287 220.68 281.439 221.287C281.598 221.894 281.231 222.519 280.623 222.67C280.527 222.694 280.431 222.71 280.335 222.71C279.832 222.708 279.368 222.366 279.232 221.854ZM317.922 221.973C317.307 221.838 316.915 221.23 317.051 220.615C317.178 220.007 317.786 219.615 318.402 219.752C319.017 219.88 319.402 220.487 319.273 221.102C319.153 221.63 318.681 221.997 318.162 221.997C318.083 221.997 318.004 221.99 317.922 221.973ZM285.435 220.424C285.323 219.809 285.739 219.217 286.361 219.105C286.361 219.105 286.361 219.105 286.361 219.113C286.977 219.002 287.568 219.417 287.673 220.032C287.784 220.647 287.369 221.239 286.752 221.351C286.68 221.359 286.617 221.367 286.553 221.367C286.01 221.367 285.53 220.975 285.435 220.424ZM311.744 220.879C311.121 220.799 310.689 220.224 310.769 219.6C310.857 218.976 311.425 218.545 312.048 218.624C312.672 218.712 313.103 219.288 313.024 219.911C312.944 220.478 312.457 220.893 311.897 220.893C311.849 220.895 311.792 220.887 311.744 220.879ZM291.724 219.488C291.669 218.856 292.124 218.305 292.747 218.241C293.371 218.185 293.93 218.641 293.986 219.265C294.049 219.896 293.586 220.448 292.971 220.511C292.931 220.511 292.891 220.511 292.859 220.511C292.275 220.511 291.78 220.072 291.724 219.488ZM305.502 220.271C304.87 220.239 304.391 219.704 304.432 219.073C304.464 218.449 305.007 217.97 305.631 218.001C305.631 218.001 305.631 218.001 305.631 218.01C306.262 218.042 306.742 218.576 306.702 219.208C306.67 219.808 306.166 220.278 305.567 220.278C305.542 220.28 305.519 220.28 305.502 220.271ZM298.07 219.033C298.054 218.409 298.557 217.891 299.189 217.882C299.812 217.867 300.331 218.37 300.34 218.993C300.356 219.625 299.852 220.144 299.229 220.152C299.22 220.152 299.212 220.152 299.205 220.152C298.59 220.151 298.078 219.656 298.07 219.033Z" fill="#964529"/>
<path d="M323.254 380.492C323.174 380.492 323.102 380.483 323.03 380.468C322.958 380.452 322.886 380.435 322.814 380.404C322.75 380.372 322.678 380.34 322.622 380.299C322.558 380.26 322.503 380.212 322.447 380.155C322.232 379.948 322.111 379.652 322.111 379.357C322.111 379.053 322.232 378.766 322.447 378.549C322.862 378.125 323.63 378.125 324.052 378.549C324.269 378.764 324.388 379.053 324.388 379.357C324.388 379.652 324.269 379.949 324.052 380.155C323.837 380.372 323.549 380.492 323.254 380.492Z" fill="#964529"/>
<path d="M244.063 359.914C243.535 360.401 242.968 360.764 242.36 360.996C241.753 361.229 241.141 361.332 240.525 361.302C239.906 361.275 239.297 361.116 238.698 360.828C238.097 360.54 237.54 360.118 237.028 359.564L234.455 356.787L241.673 350.098L244.244 352.874C244.757 353.429 245.136 354.015 245.378 354.636C245.619 355.256 245.731 355.877 245.71 356.498C245.688 357.118 245.54 357.719 245.264 358.307C244.986 358.892 244.587 359.429 244.063 359.914ZM242.643 358.381C243.022 358.03 243.315 357.665 243.525 357.287C243.734 356.907 243.858 356.529 243.895 356.149C243.931 355.769 243.883 355.394 243.747 355.022C243.613 354.65 243.389 354.296 243.075 353.956L241.895 352.683L237.015 357.204L238.196 358.48C238.51 358.816 238.844 359.067 239.203 359.232C239.562 359.396 239.931 359.473 240.314 359.463C240.697 359.454 241.087 359.359 241.479 359.179C241.873 359.002 242.261 358.735 242.643 358.381Z" fill="#964529"/>
<path d="M254.358 368.343C253.914 368.91 253.407 369.359 252.837 369.694C252.268 370.028 251.671 370.236 251.048 370.315C250.424 370.396 249.791 370.347 249.145 370.165C248.5 369.984 247.881 369.661 247.287 369.195C246.692 368.729 246.23 368.205 245.901 367.621C245.572 367.037 245.369 366.433 245.297 365.807C245.226 365.183 245.282 364.552 245.472 363.919C245.662 363.286 245.978 362.687 246.421 362.12C246.864 361.553 247.371 361.104 247.939 360.771C248.507 360.437 249.103 360.233 249.729 360.154C250.355 360.074 250.989 360.126 251.634 360.307C252.28 360.489 252.899 360.811 253.494 361.277C254.087 361.742 254.549 362.268 254.88 362.851C255.21 363.435 255.41 364.039 255.48 364.664C255.548 365.291 255.488 365.92 255.303 366.551C255.113 367.184 254.798 367.782 254.358 368.343ZM252.72 367.058C253.038 366.653 253.269 366.247 253.415 365.841C253.562 365.436 253.622 365.042 253.598 364.657C253.574 364.274 253.466 363.91 253.272 363.566C253.079 363.223 252.8 362.908 252.437 362.623C252.075 362.339 251.702 362.144 251.32 362.036C250.94 361.929 250.559 361.91 250.182 361.978C249.802 362.046 249.433 362.199 249.074 362.438C248.715 362.677 248.376 362.998 248.058 363.403C247.736 363.814 247.503 364.22 247.358 364.627C247.212 365.032 247.151 365.425 247.178 365.807C247.203 366.189 247.313 366.555 247.508 366.899C247.702 367.245 247.981 367.559 248.345 367.845C248.708 368.129 249.079 368.325 249.46 368.43C249.839 368.535 250.218 368.554 250.594 368.487C250.971 368.42 251.34 368.267 251.699 368.03C252.058 367.793 252.398 367.469 252.72 367.058Z" fill="#964529"/>
<path d="M261.824 372.643L264.775 374.286L262.798 377.835C262.182 377.912 261.585 377.885 261.006 377.757C260.426 377.63 259.861 377.411 259.309 377.104C258.602 376.71 258.023 376.244 257.571 375.705C257.121 375.167 256.8 374.589 256.611 373.971C256.424 373.355 256.366 372.716 256.445 372.056C256.524 371.395 256.74 370.746 257.093 370.11C257.452 369.466 257.887 368.934 258.397 368.516C258.908 368.095 259.466 367.8 260.073 367.632C260.679 367.462 261.322 367.423 261.997 367.514C262.673 367.607 263.354 367.844 264.041 368.228C264.397 368.426 264.714 368.638 264.989 368.868C265.267 369.096 265.506 369.334 265.711 369.58C265.916 369.826 266.088 370.079 266.228 370.339C266.369 370.597 266.481 370.86 266.566 371.126L265.61 371.632C265.461 371.716 265.315 371.735 265.173 371.692C265.031 371.648 264.91 371.54 264.811 371.366C264.716 371.2 264.622 371.045 264.523 370.899C264.425 370.754 264.314 370.614 264.188 370.476C264.063 370.339 263.918 370.207 263.751 370.076C263.583 369.948 263.382 369.817 263.145 369.685C262.747 369.464 262.345 369.331 261.944 369.289C261.544 369.247 261.159 369.289 260.791 369.416C260.424 369.54 260.08 369.748 259.759 370.036C259.439 370.325 259.156 370.687 258.913 371.125C258.648 371.599 258.479 372.06 258.406 372.508C258.332 372.955 258.347 373.377 258.449 373.77C258.551 374.164 258.735 374.522 259.003 374.846C259.269 375.17 259.612 375.449 260.031 375.683C260.314 375.842 260.585 375.953 260.839 376.021C261.095 376.089 261.357 376.131 261.624 376.151L262.428 374.706L261.457 374.165C261.343 374.101 261.269 374.021 261.238 373.923C261.207 373.825 261.218 373.729 261.269 373.634L261.824 372.643Z" fill="#964529"/>
<path d="M271.469 373.604L270.553 375.962L273.612 377.151L273.055 378.586L269.994 377.397L269.059 379.806L272.99 381.335L272.413 382.819L266.571 380.549L270.136 371.376L275.977 373.647L275.399 375.133L271.469 373.604Z" fill="#964529"/>
<path d="M283.566 383.353C283.675 383.38 283.758 383.443 283.814 383.54L284.392 384.569C283.885 384.966 283.314 385.222 282.678 385.334C282.043 385.449 281.329 385.409 280.539 385.213C279.823 385.038 279.209 384.758 278.7 384.374C278.188 383.99 277.786 383.532 277.493 382.999C277.201 382.465 277.021 381.875 276.952 381.224C276.884 380.574 276.937 379.897 277.11 379.191C277.226 378.715 277.39 378.277 277.597 377.874C277.806 377.472 278.054 377.115 278.34 376.803C278.627 376.492 278.944 376.225 279.295 376.004C279.645 375.783 280.02 375.612 280.422 375.496C280.822 375.378 281.244 375.318 281.686 375.311C282.127 375.305 282.582 375.36 283.053 375.474C283.405 375.561 283.73 375.675 284.028 375.813C284.327 375.952 284.601 376.11 284.844 376.286C285.09 376.462 285.309 376.657 285.501 376.87C285.693 377.083 285.858 377.304 285.998 377.533L285.109 378.279C285.055 378.327 284.993 378.365 284.92 378.394C284.847 378.422 284.757 378.424 284.653 378.399C284.547 378.374 284.451 378.309 284.361 378.208C284.271 378.108 284.159 377.992 284.027 377.861C283.894 377.731 283.718 377.599 283.503 377.467C283.286 377.335 282.998 377.223 282.639 377.135C282.237 377.037 281.853 377.019 281.484 377.083C281.114 377.145 280.777 377.284 280.471 377.501C280.164 377.716 279.895 378.008 279.665 378.375C279.435 378.741 279.257 379.18 279.131 379.688C279.005 380.203 278.964 380.678 279.009 381.115C279.051 381.551 279.164 381.939 279.345 382.276C279.525 382.614 279.763 382.894 280.059 383.118C280.355 383.343 280.692 383.502 281.07 383.594C281.294 383.648 281.5 383.689 281.687 383.71C281.876 383.733 282.054 383.737 282.222 383.724C282.391 383.708 282.554 383.678 282.714 383.628C282.873 383.58 283.039 383.508 283.21 383.414C283.268 383.387 283.328 383.367 283.387 383.353C283.445 383.337 283.505 383.338 283.566 383.353Z" fill="#964529"/>
<path d="M297.895 382.611C297.828 383.327 297.648 383.979 297.349 384.569C297.051 385.159 296.662 385.657 296.183 386.061C295.702 386.466 295.141 386.768 294.501 386.964C293.861 387.16 293.164 387.224 292.412 387.154C291.66 387.084 290.987 386.893 290.394 386.582C289.801 386.27 289.306 385.871 288.905 385.385C288.505 384.898 288.213 384.337 288.028 383.702C287.844 383.068 287.787 382.393 287.853 381.676C287.92 380.961 288.101 380.307 288.399 379.721C288.696 379.134 289.086 378.637 289.569 378.232C290.051 377.828 290.613 377.527 291.254 377.331C291.893 377.134 292.591 377.069 293.343 377.14C294.095 377.21 294.768 377.401 295.36 377.713C295.953 378.023 296.448 378.424 296.846 378.914C297.243 379.402 297.534 379.963 297.719 380.595C297.901 381.228 297.961 381.899 297.895 382.611ZM295.822 382.418C295.869 381.904 295.844 381.438 295.748 381.019C295.649 380.599 295.487 380.233 295.26 379.924C295.032 379.614 294.745 379.368 294.395 379.183C294.047 378.998 293.643 378.885 293.183 378.842C292.725 378.8 292.305 378.836 291.927 378.953C291.549 379.069 291.218 379.26 290.937 379.522C290.655 379.785 290.429 380.114 290.255 380.508C290.083 380.903 289.973 381.356 289.925 381.87C289.875 382.388 289.901 382.856 289.998 383.277C290.095 383.696 290.259 384.06 290.486 384.367C290.714 384.674 291.002 384.921 291.354 385.105C291.706 385.29 292.11 385.404 292.568 385.447C293.028 385.489 293.446 385.452 293.822 385.335C294.198 385.218 294.527 385.029 294.807 384.77C295.088 384.509 295.315 384.182 295.488 383.786C295.664 383.392 295.774 382.936 295.822 382.418Z" fill="#964529"/>
<path d="M303.881 387.362L301.833 387.418L301.568 377.58L303.616 377.526L303.881 387.362Z" fill="#964529"/>
<path d="M315.767 376.167L317.19 385.906L316.15 386.058C315.993 386.082 315.857 386.073 315.743 386.038C315.628 386.002 315.509 385.928 315.387 385.82L309.633 380.353C309.67 380.508 309.701 380.661 309.731 380.811C309.761 380.962 309.784 381.103 309.803 381.234L310.626 386.865L308.847 387.124L307.425 377.387L308.486 377.232C308.571 377.22 308.644 377.211 308.706 377.21C308.767 377.209 308.823 377.217 308.876 377.234C308.93 377.251 308.981 377.277 309.031 377.31C309.082 377.343 309.139 377.391 309.202 377.449L314.995 382.937C314.951 382.769 314.914 382.606 314.882 382.448C314.849 382.291 314.823 382.142 314.801 381.998L313.988 376.427L315.767 376.167Z" fill="#964529"/>
<g clip-path="url(#clip1_235_76052)">
<path d="M300.512 416.341C364.319 416.341 416.046 364.838 416.046 301.306C416.046 237.775 364.319 186.272 300.512 186.272C236.704 186.272 184.978 237.775 184.978 301.306C184.978 364.838 236.704 416.341 300.512 416.341Z" fill="#202938"/>
<path d="M300.512 412.983C362.189 412.983 412.188 362.984 412.188 301.306C412.188 239.628 362.189 189.629 300.512 189.629C238.835 189.629 188.835 239.628 188.835 301.306C188.835 362.984 238.835 412.983 300.512 412.983Z" fill="#4F48E5" stroke="#202938" stroke-width="1.57423" stroke-miterlimit="10" stroke-linecap="round" stroke-linejoin="round"/>
<path d="M300.863 405.712C358.427 405.712 405.092 359.047 405.092 301.483C405.092 243.919 358.427 197.254 300.863 197.254C243.299 197.254 196.634 243.919 196.634 301.483C196.634 359.047 243.299 405.712 300.863 405.712Z" fill="#E1E7FF" stroke="#202938" stroke-width="1.57423" stroke-miterlimit="10" stroke-linecap="round" stroke-linejoin="round"/>
<path d="M362.504 363.125C396.548 329.081 396.548 273.886 362.504 239.842C328.46 205.799 273.265 205.799 239.221 239.842C205.178 273.886 205.178 329.081 239.221 363.125C273.265 397.168 328.46 397.168 362.504 363.125Z" stroke="#202938" stroke-width="1.57423" stroke-miterlimit="10"/>
<path d="M223.4 358.955C223.315 358.955 223.231 358.946 223.138 358.928C223.054 358.909 222.969 358.881 222.894 358.852C222.809 358.815 222.734 358.777 222.66 358.73C222.585 358.674 222.519 358.618 222.463 358.562C222.209 358.309 222.068 357.971 222.068 357.615C222.068 357.268 222.209 356.921 222.463 356.678C222.518 356.612 222.585 356.556 222.66 356.509C222.735 356.462 222.809 356.414 222.894 356.386C222.969 356.349 223.054 356.33 223.138 356.312C223.315 356.274 223.493 356.274 223.662 356.312C223.746 356.33 223.831 356.349 223.916 356.386C223.992 356.424 224.066 356.462 224.141 356.509C224.216 356.556 224.282 356.612 224.348 356.678C224.591 356.921 224.741 357.269 224.741 357.615C224.741 357.971 224.591 358.309 224.348 358.562C224.282 358.618 224.215 358.674 224.141 358.73C224.066 358.777 223.992 358.815 223.916 358.852C223.832 358.88 223.747 358.908 223.662 358.928C223.577 358.946 223.493 358.955 223.4 358.955Z" fill="#202938"/>
<path d="M333.472 391.631C333.22 390.938 333.567 390.178 334.251 389.916C334.945 389.653 335.713 390.009 335.977 390.694C336.231 391.387 335.883 392.156 335.189 392.42C335.039 392.475 334.88 392.504 334.73 392.504C334.184 392.503 333.678 392.165 333.472 391.631ZM340.392 388.837C340.082 388.171 340.373 387.375 341.039 387.065C341.705 386.756 342.501 387.037 342.811 387.702C343.12 388.377 342.839 389.165 342.164 389.484C342.164 389.484 342.164 389.484 342.164 389.474C341.986 389.568 341.789 389.606 341.601 389.606C341.103 389.606 340.626 389.314 340.392 388.837ZM347.076 385.508C346.711 384.871 346.935 384.054 347.582 383.688C348.22 383.323 349.035 383.547 349.392 384.194C349.757 384.832 349.532 385.647 348.895 386.014C348.689 386.126 348.463 386.181 348.238 386.181C347.771 386.183 347.32 385.939 347.076 385.508ZM353.48 381.664C353.067 381.055 353.227 380.23 353.836 379.816C354.445 379.404 355.28 379.563 355.684 380.183C356.096 380.791 355.937 381.616 355.328 382.03C355.102 382.18 354.84 382.255 354.587 382.255C354.156 382.255 353.734 382.048 353.48 381.664ZM359.565 377.342C359.105 376.77 359.2 375.926 359.771 375.466C360.352 375.016 361.187 375.11 361.646 375.692C362.106 376.263 362.012 377.098 361.431 377.557C361.187 377.754 360.896 377.847 360.606 377.847C360.212 377.849 359.828 377.68 359.565 377.342ZM365.294 372.559C364.788 372.025 364.815 371.181 365.359 370.675C365.903 370.179 366.748 370.206 367.244 370.751C367.75 371.285 367.713 372.129 367.178 372.636C366.915 372.87 366.596 372.993 366.269 372.993C365.913 372.992 365.556 372.841 365.294 372.559ZM370.638 367.347C370.095 366.85 370.058 366.007 370.564 365.462C371.06 364.928 371.904 364.89 372.448 365.387C372.983 365.893 373.019 366.737 372.524 367.272C372.262 367.562 371.895 367.703 371.54 367.703C371.21 367.703 370.892 367.591 370.638 367.347ZM375.56 361.741C374.98 361.281 374.885 360.446 375.336 359.866C375.794 359.294 376.63 359.19 377.211 359.649C377.792 360.1 377.886 360.943 377.436 361.525C377.173 361.852 376.78 362.032 376.386 362.032C376.095 362.031 375.805 361.937 375.56 361.741ZM380.033 355.768C379.423 355.355 379.264 354.53 379.668 353.92C380.08 353.302 380.905 353.143 381.523 353.555C382.133 353.967 382.293 354.793 381.889 355.402C381.626 355.786 381.204 355.993 380.773 355.993C380.52 355.993 380.267 355.917 380.033 355.768ZM218.112 352.111C218.112 352.111 218.112 352.111 218.121 352.111C217.727 351.482 217.924 350.657 218.552 350.273C219.181 349.889 220.006 350.085 220.39 350.714C220.774 351.342 220.578 352.158 219.949 352.552C219.734 352.684 219.49 352.749 219.256 352.749C218.805 352.748 218.364 352.514 218.112 352.111ZM384.036 349.467C383.389 349.111 383.164 348.295 383.53 347.648C383.887 347.01 384.702 346.776 385.34 347.143C385.987 347.498 386.212 348.315 385.856 348.961C385.612 349.393 385.152 349.637 384.693 349.637C384.467 349.636 384.243 349.579 384.036 349.467ZM214.408 345.511C214.408 345.511 214.408 345.511 214.418 345.511C214.08 344.845 214.343 344.049 214.999 343.711C215.655 343.383 216.452 343.635 216.789 344.292C217.127 344.949 216.865 345.754 216.208 346.092C216.01 346.185 215.805 346.233 215.599 346.233C215.121 346.233 214.652 345.97 214.408 345.511ZM387.534 342.876C386.868 342.556 386.567 341.769 386.886 341.104C387.196 340.429 387.983 340.139 388.659 340.457C389.324 340.756 389.615 341.554 389.305 342.219C389.071 342.706 388.593 342.998 388.087 342.998C387.899 342.998 387.712 342.96 387.534 342.876ZM211.238 338.637C210.957 337.953 211.276 337.176 211.96 336.894C212.635 336.612 213.414 336.931 213.704 337.616C213.986 338.291 213.658 339.078 212.983 339.361C212.814 339.426 212.645 339.463 212.467 339.463C211.942 339.462 211.445 339.154 211.238 338.637ZM390.506 336.022C389.812 335.769 389.455 335 389.719 334.306C389.972 333.622 390.741 333.266 391.435 333.528C392.119 333.782 392.475 334.55 392.213 335.243C392.016 335.778 391.51 336.106 390.967 336.106C390.816 336.106 390.656 336.079 390.506 336.022ZM208.604 331.54C208.604 331.54 208.604 331.54 208.614 331.54C208.38 330.847 208.764 330.086 209.457 329.863C210.161 329.637 210.919 330.012 211.145 330.715C211.371 331.418 210.986 332.168 210.292 332.393C210.151 332.44 210.011 332.459 209.879 332.459C209.317 332.459 208.792 332.103 208.604 331.54ZM392.925 328.961C392.222 328.764 391.808 328.024 392.006 327.311C392.212 326.608 392.953 326.196 393.656 326.403C394.369 326.6 394.772 327.34 394.575 328.043C394.406 328.634 393.872 329.018 393.29 329.018C393.168 329.018 393.047 328.999 392.925 328.961ZM206.542 324.265C206.373 323.544 206.814 322.821 207.526 322.653C208.248 322.484 208.961 322.925 209.138 323.637C209.307 324.35 208.868 325.072 208.154 325.249C208.051 325.268 207.939 325.287 207.835 325.287C207.236 325.286 206.692 324.874 206.542 324.265ZM394.791 321.743C394.069 321.593 393.6 320.89 393.75 320.168C393.891 319.445 394.594 318.976 395.316 319.126C396.038 319.267 396.507 319.97 396.366 320.692C396.235 321.329 395.682 321.761 395.053 321.761C394.968 321.762 394.884 321.752 394.791 321.743ZM205.06 316.849C204.938 316.118 205.436 315.433 206.166 315.321C206.888 315.199 207.573 315.696 207.685 316.427C207.807 317.149 207.31 317.833 206.588 317.955C206.513 317.965 206.438 317.965 206.373 317.965C205.725 317.965 205.163 317.505 205.06 316.849ZM396.085 314.392C395.354 314.299 394.838 313.632 394.922 312.902C395.006 312.17 395.673 311.655 396.404 311.739C397.136 311.832 397.66 312.489 397.576 313.23C397.492 313.905 396.911 314.403 396.246 314.403C396.197 314.402 396.141 314.392 396.085 314.392ZM204.151 309.338C204.085 308.597 204.638 307.96 205.37 307.894C206.101 307.838 206.748 308.382 206.814 309.122H206.804C206.869 309.853 206.316 310.49 205.586 310.556C205.548 310.556 205.51 310.556 205.474 310.556C204.788 310.557 204.207 310.033 204.151 309.338ZM396.806 306.957C396.065 306.928 395.494 306.301 395.532 305.569C395.559 304.828 396.188 304.266 396.919 304.294C397.66 304.332 398.223 304.951 398.195 305.691C398.166 306.403 397.575 306.957 396.863 306.957C396.844 306.957 396.826 306.957 396.806 306.957ZM203.822 301.782C203.822 301.782 203.822 301.782 203.832 301.782C203.822 301.042 204.423 300.441 205.154 300.441C205.894 300.432 206.495 301.032 206.495 301.764C206.495 302.504 205.904 303.104 205.163 303.104C204.433 303.104 203.832 302.513 203.822 301.782ZM395.57 298.209C395.551 297.468 396.123 296.858 396.864 296.831C397.594 296.812 398.213 297.384 398.242 298.125C398.261 298.857 397.679 299.475 396.948 299.494C396.929 299.494 396.919 299.503 396.9 299.503C396.187 299.494 395.597 298.931 395.57 298.209ZM205.314 295.64C204.583 295.594 204.03 294.956 204.085 294.215C204.131 293.483 204.77 292.93 205.51 292.987C206.241 293.034 206.794 293.671 206.748 294.412C206.692 295.115 206.111 295.65 205.416 295.65C205.379 295.649 205.351 295.649 205.314 295.64ZM395.052 290.868C394.968 290.136 395.494 289.48 396.225 289.395C396.956 289.321 397.621 289.846 397.706 290.577C397.782 291.309 397.257 291.965 396.516 292.05C396.47 292.05 396.422 292.059 396.366 292.059C395.7 292.059 395.118 291.552 395.052 290.868ZM206.045 288.215C205.314 288.112 204.807 287.428 204.919 286.696C205.032 285.974 205.708 285.468 206.438 285.581C207.17 285.693 207.667 286.368 207.563 287.099C207.46 287.765 206.888 288.234 206.241 288.234C206.176 288.234 206.111 288.234 206.045 288.215ZM393.956 283.592C393.824 282.87 394.303 282.167 395.025 282.035C395.747 281.895 396.441 282.372 396.581 283.094C396.722 283.816 396.243 284.52 395.521 284.651C395.437 284.67 395.352 284.679 395.269 284.679C394.641 284.68 394.077 284.23 393.956 283.592ZM207.339 280.874C206.626 280.705 206.177 279.983 206.345 279.27C206.504 278.548 207.226 278.107 207.939 278.267C208.661 278.435 209.102 279.157 208.941 279.87C208.802 280.488 208.248 280.902 207.647 280.902C207.545 280.902 207.441 280.892 207.339 280.874ZM392.306 276.429C392.109 275.716 392.531 274.985 393.243 274.789C393.956 274.591 394.687 275.013 394.875 275.726C394.875 275.726 394.875 275.726 394.884 275.726C395.072 276.438 394.659 277.169 393.947 277.357C393.825 277.395 393.704 277.403 393.591 277.403C393 277.404 392.465 277.02 392.306 276.429ZM209.213 273.645C208.51 273.419 208.116 272.67 208.342 271.976C208.567 271.273 209.317 270.878 210.011 271.104C210.714 271.328 211.107 272.069 210.883 272.773C210.705 273.345 210.18 273.71 209.617 273.71C209.485 273.71 209.345 273.691 209.213 273.645ZM390.092 269.407C389.849 268.713 390.205 267.953 390.899 267.7C391.593 267.457 392.353 267.813 392.606 268.506C392.849 269.2 392.494 269.96 391.799 270.213C391.649 270.27 391.499 270.288 391.35 270.288C390.806 270.287 390.291 269.951 390.092 269.407ZM211.643 266.585C210.957 266.304 210.63 265.525 210.911 264.841C211.183 264.166 211.962 263.837 212.645 264.109C213.33 264.39 213.658 265.168 213.386 265.844C213.171 266.369 212.673 266.678 212.139 266.678C211.979 266.678 211.81 266.65 211.643 266.585ZM387.346 262.59C387.046 261.916 387.346 261.127 388.011 260.828C388.686 260.528 389.474 260.828 389.773 261.494C390.074 262.169 389.773 262.957 389.108 263.256C388.931 263.34 388.743 263.378 388.564 263.378C388.049 263.378 387.562 263.088 387.346 262.59ZM214.624 259.731C213.967 259.402 213.695 258.606 214.024 257.949C214.351 257.283 215.158 257.021 215.814 257.348C216.471 257.677 216.743 258.473 216.415 259.139C216.18 259.608 215.701 259.87 215.214 259.87C215.018 259.871 214.811 259.833 214.624 259.731ZM384.064 256.008C383.717 255.362 383.952 254.554 384.598 254.199C385.245 253.843 386.052 254.077 386.408 254.723C386.763 255.37 386.52 256.186 385.873 256.533C385.676 256.645 385.453 256.702 385.236 256.702C384.767 256.703 384.308 256.449 384.064 256.008ZM218.12 253.139C217.491 252.755 217.295 251.939 217.671 251.311C218.045 250.672 218.871 250.476 219.499 250.851C220.127 251.235 220.333 252.051 219.958 252.679C219.705 253.101 219.265 253.326 218.814 253.326C218.58 253.327 218.336 253.271 218.12 253.139ZM380.286 249.699C379.883 249.079 380.061 248.254 380.671 247.851C381.29 247.448 382.115 247.617 382.518 248.236C382.921 248.855 382.752 249.68 382.134 250.083C381.909 250.233 381.656 250.299 381.403 250.299C380.97 250.299 380.539 250.092 380.286 249.699ZM222.133 246.839C221.534 246.407 221.392 245.582 221.824 244.982C222.246 244.382 223.08 244.241 223.68 244.663C224.28 245.094 224.421 245.929 223.99 246.529C223.727 246.895 223.324 247.082 222.902 247.082C222.64 247.082 222.368 247.008 222.133 246.839ZM376.029 243.698C375.58 243.116 375.692 242.272 376.274 241.832C376.855 241.381 377.69 241.485 378.139 242.066C378.589 242.656 378.486 243.491 377.895 243.941C377.661 244.129 377.371 244.222 377.089 244.222C376.685 244.223 376.292 244.035 376.029 243.698ZM226.616 240.866C226.052 240.397 225.979 239.553 226.448 238.991C226.917 238.428 227.76 238.352 228.323 238.822C228.894 239.291 228.97 240.135 228.491 240.707C228.229 241.016 227.854 241.176 227.469 241.176C227.169 241.176 226.868 241.082 226.616 240.866ZM371.314 238.044C370.826 237.5 370.864 236.657 371.417 236.159C371.96 235.671 372.805 235.709 373.302 236.262C373.789 236.806 373.751 237.649 373.198 238.147C372.945 238.371 372.626 238.484 372.307 238.484C371.942 238.485 371.575 238.335 371.314 238.044ZM231.547 235.269C231.022 234.754 231.003 233.91 231.519 233.375C232.045 232.85 232.887 232.841 233.413 233.356C233.938 233.872 233.948 234.716 233.431 235.241C233.17 235.513 232.822 235.644 232.475 235.644C232.138 235.644 231.8 235.522 231.547 235.269ZM366.176 232.776C365.641 232.27 365.623 231.426 366.129 230.891C366.645 230.356 367.49 230.338 368.014 230.844C368.549 231.35 368.577 232.194 368.071 232.729C367.809 233.001 367.452 233.142 367.105 233.142C366.765 233.141 366.438 233.019 366.176 232.776ZM236.891 230.055C236.403 229.502 236.46 228.658 237.013 228.18C237.575 227.693 238.41 227.748 238.898 228.302C239.386 228.855 239.329 229.698 238.776 230.186C238.523 230.403 238.204 230.515 237.895 230.515C237.528 230.515 237.155 230.356 236.891 230.055ZM360.653 227.918C360.081 227.449 359.997 226.615 360.456 226.043C360.925 225.471 361.758 225.378 362.331 225.846C362.902 226.305 362.997 227.149 362.529 227.721C362.266 228.05 361.881 228.218 361.488 228.218C361.197 228.218 360.897 228.115 360.653 227.918ZM242.63 225.283C242.188 224.692 242.311 223.858 242.902 223.417C242.902 223.417 242.902 223.417 242.891 223.417C243.483 222.976 244.326 223.089 244.766 223.689C245.208 224.28 245.087 225.114 244.496 225.555C244.251 225.733 243.97 225.817 243.698 225.817C243.286 225.818 242.891 225.631 242.63 225.283ZM354.765 223.502V223.493C354.156 223.08 354.006 222.246 354.428 221.646C354.84 221.036 355.673 220.886 356.283 221.298C356.882 221.72 357.034 222.555 356.621 223.155C356.359 223.53 355.945 223.736 355.514 223.736C355.262 223.736 355 223.662 354.765 223.502ZM248.715 220.961C248.32 220.342 248.508 219.517 249.127 219.124C249.746 218.73 250.571 218.917 250.965 219.536C251.358 220.165 251.17 220.98 250.552 221.383C250.336 221.524 250.083 221.59 249.839 221.59C249.399 221.589 248.968 221.364 248.715 220.961ZM348.548 219.546C347.911 219.18 347.695 218.365 348.071 217.727C348.436 217.09 349.252 216.874 349.89 217.249C350.528 217.615 350.743 218.43 350.378 219.068C350.124 219.499 349.684 219.733 349.224 219.733C348.989 219.732 348.765 219.677 348.548 219.546ZM255.118 217.136C254.771 216.479 255.015 215.673 255.672 215.336C256.318 214.989 257.125 215.233 257.472 215.889C257.819 216.546 257.565 217.352 256.919 217.689C256.712 217.793 256.505 217.849 256.29 217.849C255.811 217.849 255.352 217.586 255.118 217.136ZM342.051 216.095C341.386 215.776 341.103 214.979 341.422 214.314C341.741 213.658 342.538 213.377 343.203 213.695C343.869 214.014 344.141 214.81 343.823 215.476C343.597 215.954 343.119 216.225 342.622 216.225C342.426 216.226 342.229 216.189 342.051 216.095ZM261.793 213.816C261.503 213.142 261.812 212.353 262.487 212.063C263.162 211.772 263.95 212.082 264.241 212.756C264.53 213.431 264.222 214.219 263.547 214.51C263.37 214.585 263.191 214.622 263.013 214.622C262.497 214.624 262.01 214.323 261.793 213.816ZM335.291 213.161C334.606 212.898 334.26 212.129 334.531 211.435C334.803 210.751 335.573 210.413 336.257 210.675C336.942 210.947 337.288 211.716 337.017 212.401C336.811 212.935 336.313 213.254 335.779 213.254C335.62 213.254 335.451 213.227 335.291 213.161ZM268.703 211.032C268.469 210.329 268.835 209.569 269.539 209.335C270.231 209.092 270.992 209.466 271.226 210.16C271.47 210.863 271.094 211.623 270.401 211.857C270.261 211.904 270.111 211.933 269.97 211.933C269.416 211.933 268.891 211.585 268.703 211.032ZM328.325 210.77C327.622 210.555 327.219 209.814 327.435 209.111C327.65 208.398 328.391 208.004 329.094 208.21C329.797 208.426 330.2 209.166 329.985 209.879C329.817 210.451 329.291 210.825 328.71 210.825C328.587 210.825 328.456 210.808 328.325 210.77ZM275.82 208.792C275.642 208.079 276.074 207.347 276.785 207.169C277.498 206.981 278.229 207.412 278.408 208.125C278.595 208.838 278.163 209.569 277.451 209.748C277.338 209.776 277.225 209.795 277.113 209.795C276.523 209.795 275.979 209.392 275.82 208.792ZM321.208 208.932C320.486 208.773 320.027 208.06 320.186 207.338C320.336 206.625 321.049 206.166 321.771 206.325C322.492 206.475 322.943 207.188 322.793 207.91C322.652 208.528 322.099 208.959 321.489 208.959C321.396 208.959 321.303 208.951 321.208 208.932ZM283.096 207.113C282.964 206.391 283.452 205.698 284.183 205.566C284.183 205.566 284.183 205.566 284.183 205.576C284.905 205.445 285.6 205.932 285.722 206.654C285.853 207.376 285.366 208.069 284.643 208.201C284.559 208.21 284.483 208.22 284.409 208.22C283.771 208.22 283.207 207.76 283.096 207.113ZM313.961 207.648C313.23 207.554 312.723 206.879 312.816 206.147C312.92 205.415 313.586 204.909 314.317 205.003C315.049 205.106 315.555 205.782 315.461 206.512C315.368 207.177 314.796 207.665 314.139 207.665C314.083 207.666 314.017 207.657 313.961 207.648ZM290.474 206.017C290.409 205.276 290.943 204.629 291.674 204.554C292.406 204.489 293.063 205.023 293.127 205.753C293.203 206.494 292.658 207.141 291.937 207.216C291.891 207.216 291.843 207.216 291.806 207.216C291.121 207.216 290.54 206.701 290.474 206.017ZM306.638 206.935C305.897 206.897 305.335 206.27 305.382 205.529C305.42 204.797 306.057 204.235 306.788 204.272C306.788 204.272 306.788 204.272 306.788 204.282C307.529 204.32 308.091 204.947 308.044 205.688C308.007 206.391 307.416 206.944 306.713 206.944C306.685 206.944 306.657 206.944 306.638 206.935ZM297.919 205.481C297.9 204.75 298.491 204.141 299.232 204.132C299.962 204.113 300.572 204.704 300.581 205.435C300.6 206.176 300.011 206.785 299.279 206.794C299.27 206.794 299.26 206.794 299.251 206.794C298.529 206.794 297.928 206.213 297.919 205.481Z" fill="#202938"/>
<path d="M327.462 394.893C327.369 394.893 327.285 394.883 327.2 394.864C327.115 394.847 327.031 394.827 326.946 394.79C326.87 394.752 326.786 394.714 326.72 394.667C326.645 394.621 326.581 394.564 326.514 394.499C326.261 394.256 326.121 393.908 326.121 393.562C326.121 393.206 326.261 392.868 326.514 392.615C327.002 392.118 327.903 392.118 328.398 392.615C328.652 392.868 328.792 393.206 328.792 393.562C328.792 393.909 328.652 394.256 328.398 394.499C328.147 394.753 327.809 394.893 327.462 394.893Z" fill="#202938"/>
<path d="M319.846 396.681C319.752 396.681 319.668 396.671 319.583 396.652C319.498 396.635 319.414 396.615 319.329 396.578C319.254 396.54 319.17 396.502 319.104 396.455C319.028 396.409 318.964 396.352 318.898 396.287C318.645 396.044 318.505 395.696 318.505 395.35C318.505 394.994 318.645 394.656 318.898 394.403C319.386 393.906 320.287 393.906 320.782 394.403C321.036 394.656 321.176 394.994 321.176 395.35C321.176 395.697 321.036 396.044 320.782 396.287C320.531 396.541 320.193 396.681 319.846 396.681Z" fill="#202938"/>
<path d="M312.23 398.468C312.136 398.468 312.052 398.459 311.967 398.44C311.882 398.422 311.798 398.402 311.713 398.365C311.638 398.328 311.554 398.29 311.488 398.243C311.412 398.197 311.348 398.14 311.282 398.075C311.029 397.831 310.888 397.484 310.888 397.138C310.888 396.782 311.029 396.444 311.282 396.191C311.77 395.694 312.67 395.694 313.166 396.191C313.42 396.444 313.559 396.782 313.559 397.138C313.559 397.485 313.42 397.831 313.166 398.075C312.915 398.329 312.577 398.468 312.23 398.468Z" fill="#202938"/>
<path d="M291.51 398.779C291.416 398.779 291.332 398.77 291.247 398.751C291.162 398.733 291.078 398.713 290.993 398.677C290.918 398.639 290.834 398.601 290.768 398.554C290.692 398.508 290.628 398.451 290.562 398.386C290.309 398.142 290.168 397.795 290.168 397.449C290.168 397.093 290.309 396.755 290.562 396.502C291.05 396.005 291.95 396.005 292.446 396.502C292.7 396.755 292.839 397.093 292.839 397.449C292.839 397.796 292.7 398.142 292.446 398.386C292.195 398.64 291.857 398.779 291.51 398.779Z" fill="#202938"/>
<path d="M298.856 399.829C298.763 399.829 298.679 399.82 298.594 399.801C298.509 399.783 298.425 399.763 298.34 399.726C298.264 399.689 298.18 399.651 298.114 399.604C298.039 399.557 297.975 399.501 297.908 399.436C297.655 399.192 297.515 398.845 297.515 398.498C297.515 398.143 297.655 397.805 297.908 397.552C298.396 397.054 299.297 397.054 299.792 397.552C300.046 397.805 300.186 398.143 300.186 398.498C300.186 398.846 300.046 399.192 299.792 399.436C299.541 399.69 299.203 399.829 298.856 399.829Z" fill="#202938"/>
<path d="M306.202 398.779C306.109 398.779 306.025 398.77 305.94 398.751C305.855 398.733 305.771 398.713 305.686 398.677C305.611 398.639 305.527 398.601 305.46 398.554C305.385 398.508 305.321 398.451 305.255 398.386C305.002 398.142 304.861 397.795 304.861 397.449C304.861 397.093 305.002 396.755 305.255 396.502C305.743 396.005 306.643 396.005 307.139 396.502C307.393 396.755 307.532 397.093 307.532 397.449C307.532 397.796 307.393 398.142 307.139 398.386C306.888 398.64 306.55 398.779 306.202 398.779Z" fill="#202938"/>
<path d="M283.114 397.73C283.02 397.73 282.936 397.721 282.851 397.702C282.766 397.684 282.682 397.664 282.597 397.627C282.522 397.589 282.438 397.552 282.372 397.504C282.296 397.458 282.232 397.402 282.166 397.336C281.913 397.093 281.772 396.746 281.772 396.399C281.772 396.044 281.913 395.706 282.166 395.453C282.654 394.955 283.555 394.955 284.05 395.453C284.304 395.706 284.443 396.044 284.443 396.399C284.443 396.747 284.304 397.093 284.05 397.336C283.799 397.59 283.461 397.73 283.114 397.73Z" fill="#202938"/>
<path d="M231.689 369.394C231.595 369.394 231.511 369.384 231.426 369.365C231.341 369.347 231.257 369.328 231.172 369.291C231.097 369.253 231.013 369.215 230.947 369.168C230.871 369.122 230.807 369.065 230.741 369C230.488 368.757 230.347 368.409 230.347 368.063C230.347 367.707 230.488 367.369 230.741 367.116C231.229 366.619 232.13 366.619 232.625 367.116C232.879 367.369 233.018 367.707 233.018 368.063C233.018 368.41 232.879 368.757 232.625 369C232.374 369.254 232.036 369.394 231.689 369.394Z" fill="#202938"/>
<path d="M235.887 373.592C235.793 373.592 235.709 373.582 235.624 373.564C235.539 373.546 235.455 373.526 235.37 373.489C235.295 373.451 235.211 373.413 235.145 373.366C235.069 373.32 235.005 373.263 234.939 373.198C234.686 372.955 234.545 372.607 234.545 372.261C234.545 371.905 234.686 371.567 234.939 371.314C235.427 370.817 236.328 370.817 236.823 371.314C237.077 371.567 237.216 371.905 237.216 372.261C237.216 372.608 237.077 372.955 236.823 373.198C236.572 373.452 236.234 373.592 235.887 373.592Z" fill="#202938"/>
<path d="M241.134 378.839C241.041 378.839 240.957 378.83 240.872 378.811C240.787 378.793 240.703 378.773 240.618 378.737C240.542 378.699 240.458 378.661 240.392 378.614C240.317 378.568 240.253 378.511 240.186 378.446C239.933 378.202 239.793 377.855 239.793 377.509C239.793 377.153 239.933 376.815 240.186 376.562C240.674 376.065 241.575 376.065 242.07 376.562C242.324 376.815 242.464 377.153 242.464 377.509C242.464 377.856 242.324 378.202 242.07 378.446C241.819 378.7 241.481 378.839 241.134 378.839Z" fill="#202938"/>
<path d="M253.728 387.235C253.635 387.235 253.551 387.226 253.466 387.207C253.381 387.189 253.297 387.169 253.212 387.133C253.136 387.095 253.052 387.057 252.986 387.01C252.91 386.964 252.846 386.907 252.78 386.842C252.527 386.598 252.387 386.251 252.387 385.905C252.387 385.549 252.527 385.211 252.78 384.958C253.268 384.461 254.169 384.461 254.664 384.958C254.918 385.211 255.058 385.549 255.058 385.905C255.058 386.252 254.918 386.598 254.664 386.842C254.413 387.096 254.075 387.235 253.728 387.235Z" fill="#202938"/>
<path d="M260.025 390.384C259.932 390.384 259.848 390.374 259.763 390.356C259.678 390.338 259.594 390.318 259.509 390.281C259.433 390.243 259.349 390.205 259.283 390.158C259.207 390.112 259.143 390.055 259.077 389.99C258.824 389.747 258.684 389.399 258.684 389.053C258.684 388.697 258.824 388.359 259.077 388.106C259.565 387.609 260.466 387.609 260.961 388.106C261.215 388.359 261.355 388.697 261.355 389.053C261.355 389.4 261.215 389.747 260.961 389.99C260.71 390.244 260.372 390.384 260.025 390.384Z" fill="#202938"/>
<path d="M267.371 393.532C267.278 393.532 267.194 393.522 267.109 393.504C267.024 393.486 266.94 393.466 266.855 393.429C266.779 393.391 266.695 393.353 266.629 393.306C266.554 393.26 266.49 393.203 266.424 393.138C266.171 392.895 266.03 392.547 266.03 392.201C266.03 391.845 266.171 391.507 266.424 391.254C266.912 390.757 267.812 390.757 268.307 391.254C268.561 391.507 268.701 391.845 268.701 392.201C268.701 392.548 268.561 392.895 268.307 393.138C268.057 393.392 267.719 393.532 267.371 393.532Z" fill="#202938"/>
<path d="M274.718 395.631C274.624 395.631 274.54 395.622 274.455 395.603C274.37 395.585 274.286 395.565 274.201 395.528C274.126 395.49 274.042 395.453 273.976 395.405C273.9 395.359 273.836 395.302 273.77 395.237C273.517 394.994 273.377 394.647 273.377 394.3C273.377 393.944 273.517 393.606 273.77 393.354C274.258 392.856 275.159 392.856 275.654 393.354C275.908 393.606 276.047 393.944 276.047 394.3C276.047 394.648 275.908 394.994 275.654 395.237C275.403 395.491 275.065 395.631 274.718 395.631Z" fill="#202938"/>
<path d="M247.431 383.037C247.338 383.037 247.254 383.028 247.169 383.009C247.084 382.991 247 382.971 246.915 382.934C246.839 382.897 246.755 382.859 246.689 382.812C246.613 382.765 246.549 382.709 246.483 382.644C246.23 382.4 246.09 382.053 246.09 381.706C246.09 381.351 246.23 381.013 246.483 380.76C246.971 380.262 247.872 380.262 248.367 380.76C248.621 381.013 248.761 381.351 248.761 381.706C248.761 382.054 248.621 382.4 248.367 382.644C248.116 382.898 247.778 383.037 247.431 383.037Z" fill="#202938"/>
<path d="M227.491 364.147C227.397 364.147 227.313 364.137 227.228 364.118C227.143 364.1 227.059 364.08 226.974 364.044C226.899 364.006 226.815 363.968 226.749 363.921C226.673 363.875 226.609 363.818 226.543 363.753C226.29 363.51 226.15 363.162 226.15 362.816C226.15 362.46 226.29 362.122 226.543 361.869C227.031 361.372 227.932 361.372 228.427 361.869C228.681 362.122 228.821 362.46 228.821 362.816C228.821 363.163 228.681 363.51 228.427 363.753C228.176 364.007 227.838 364.147 227.491 364.147Z" fill="#202938"/>
<path d="M323.179 239.755C328.927 239.755 333.928 241.268 338.132 244.33L338.529 244.606C342.599 247.489 345.702 251.219 347.827 255.782L348.244 256.645C350.264 260.973 351.277 265.506 351.277 270.235C351.277 275.956 349.777 281.395 346.795 286.534C345.32 289.075 343.506 291.297 341.356 293.194C340.566 293.891 340.138 295.174 340.241 296.555C340.344 297.938 340.953 299.106 341.836 299.638C345.048 301.575 347.791 304.029 350.059 306.995H350.058C354.227 312.3 356.286 318.822 356.286 326.494C356.286 333.193 354.505 338.904 350.889 343.56L350.882 343.57C347.299 348.071 342.462 351.48 336.414 353.814L336.413 353.813C330.492 356.141 324.017 357.298 317.002 357.298H266.03C261.973 357.298 258.683 354.009 258.683 349.952V247.102C258.683 243.045 261.973 239.755 266.03 239.755H323.179ZM289.071 307.869C286.173 307.869 283.824 310.219 283.824 313.117V330.928C283.824 333.826 286.173 336.175 289.071 336.175H317.002C319.614 336.175 321.933 335.567 323.986 334.368C326.173 333.047 327.878 331.33 329.12 329.214C330.358 327.104 330.979 324.795 330.979 322.266C330.979 319.49 330.399 317.063 329.267 314.958L329.263 314.95L329.259 314.941C328.115 312.713 326.572 311.02 324.634 309.828L324.606 309.81L324.58 309.792C322.769 308.518 320.647 307.869 318.171 307.869H289.071ZM289.071 261.042C286.173 261.042 283.824 263.391 283.824 266.289V282.799C283.824 285.697 286.173 288.047 289.071 288.047H313.496C315.885 288.047 318.044 287.493 319.993 286.394C321.937 285.298 323.47 283.757 324.603 281.751L324.613 281.734L324.624 281.717C325.839 279.744 326.471 277.341 326.471 274.462C326.471 271.685 325.891 269.321 324.77 267.336L324.76 267.319L324.751 267.3C323.723 265.299 322.299 263.769 320.472 262.682L320.461 262.675L320.45 262.668C318.741 261.592 316.768 261.042 314.498 261.042H289.071Z" fill="#4F48E5" stroke="#202938" stroke-width="2.09898"/>
</g>
<path d="M123.354 163.17C134.844 173.334 151.701 174.593 164.572 166.247L185.845 152.455L187.824 151.762L153.205 233.836C151.358 238.213 154.406 243.098 159.148 243.366C173.548 244.178 186.985 236.114 193.044 223.025L221.327 161.919L225.323 159.056L207.247 242.707C206.316 247.593 210.792 251.782 215.606 250.53C230.382 246.684 241.65 234.712 244.594 219.73L249.433 195.106C252.026 194.766 254.546 193.843 256.783 192.343L284.863 173.517L275.941 242.286C275.599 244.923 277.877 247.153 280.505 246.755C295.981 244.41 308.165 232.331 310.645 216.878L318.783 166.177L320.235 163.834L348.521 158.388C348.568 158.402 348.6 158.41 348.6 158.41L350.119 158.081L367.039 154.823L366.664 154.492L397.726 147.752C415.02 144.006 430.079 133.47 439.543 118.524L451.139 100.198L453.202 96.9312L586.896 -35.8672H466.285H455.036H455.034L412.829 44.6387L355.944 68.4872L330.595 70.9375L276.831 77.2543L276.681 76.7594L247.746 99.2639L194.361 112.241L124.078 155.022C121.155 156.802 120.791 160.904 123.354 163.17Z" stroke="#904D40" stroke-width="0.765722" stroke-miterlimit="10" stroke-linecap="round" stroke-linejoin="round"/>
<path d="M245.839 123.543L276.814 77.2552L330.595 70.9361L355.944 68.4858L412.828 44.6373L455.032 -35.8687H466.282H586.895L453.205 96.9286L451.143 100.196L439.546 118.521C430.082 133.467 415.024 144.003 397.73 147.75L348.604 158.409L346.593 157.724L245.839 123.543Z" fill="#C17361"/>
<path d="M347.817 120.46C356.352 116.898 384.875 118.817 394.012 120.247C406.651 122.217 419.77 120.155 431.408 114.928C435.645 113.029 439.209 110.722 442.434 108.16C433.93 119.808 422.751 129.517 409.959 136.194C402.884 139.879 395.36 142.656 388.397 146.545C385.845 147.964 383.364 149.557 381.057 151.364L348.602 158.409C348.602 158.409 299.558 145.045 289.329 142.279C288.033 133.12 339.283 124.034 347.817 120.46Z" fill="#AC6257"/>
<path d="M330.597 70.9361L355.946 68.4858L412.831 44.6373L455.035 -35.8687H466.285C458.985 -23.8825 450.961 17.1133 441.681 27.6593C421.355 50.7318 393.984 69.0971 363.408 72.303C352.465 73.4585 341.5 72.6513 330.597 70.9361Z" fill="#AC6257"/>
<path d="M367.042 154.82L290.874 169.485L256.785 192.341C252.065 195.506 246.086 196.136 240.808 194.026L240.376 193.853C235.707 191.985 232.597 187.519 232.465 182.494C232.306 176.475 235.304 170.81 240.371 167.558L322.098 115.08L367.042 154.82Z" fill="#AC6257"/>
<path d="M279.996 91.4253L250.664 129.741L188.878 151.386L185.839 152.455L164.567 166.244C153.505 173.427 139.488 173.499 128.473 166.916C126.683 165.847 124.966 164.598 123.356 163.169C122.203 162.148 121.639 160.755 121.639 159.373C121.639 157.68 122.468 155.998 124.077 155.025L153.553 137.08L194.355 112.241L248.959 98.9684L279.996 91.4253Z" fill="#C17361"/>
<path d="M248.959 98.9683L194.355 112.241L153.553 137.08L124.077 155.025C122.468 155.998 121.639 157.68 121.639 159.373C121.639 160.755 122.203 162.148 123.356 163.169C124.966 164.598 126.683 165.847 128.473 166.916C139.488 173.499 153.505 173.426 164.567 166.244L185.839 152.455L188.878 151.386" stroke="#904D40" stroke-width="0.765722" stroke-miterlimit="10" stroke-linecap="round" stroke-linejoin="round"/>
<path d="M155.463 151.253L128.473 166.916C126.683 165.847 124.966 164.598 123.356 163.169C122.203 162.148 121.639 160.754 121.639 159.373C121.639 157.68 122.468 155.998 124.077 155.025L153.553 137.08L156.844 140.299C160.111 143.506 159.426 148.959 155.463 151.253Z" fill="#D38579" stroke="#904D40" stroke-width="0.90085" stroke-miterlimit="10" stroke-linecap="round" stroke-linejoin="round"/>
<path d="M288.032 114.139L230.089 155.638L221.333 161.92L193.046 223.021C187.761 234.432 176.891 242.023 164.651 243.248C163.486 243.368 162.309 243.428 161.12 243.428C160.471 243.428 159.811 243.404 159.15 243.368C154.406 243.092 151.355 238.216 153.205 233.831L165.348 205.052L191.521 142.99L276.681 76.7593L288.032 114.139Z" fill="#C17361"/>
<path d="M230.089 155.638L221.333 161.92L193.046 223.021C187.761 234.432 176.891 242.023 164.651 243.248C163.486 243.368 162.309 243.428 161.12 243.428C160.471 243.428 159.811 243.404 159.15 243.368C154.406 243.092 151.355 238.216 153.205 233.831L165.348 205.052L191.521 142.99L276.681 76.7593" stroke="#904D40" stroke-width="0.765722" stroke-miterlimit="10" stroke-linecap="round" stroke-linejoin="round"/>
<path d="M177.455 218.109L164.651 243.249C163.486 243.369 162.309 243.429 161.12 243.429C160.471 243.429 159.811 243.405 159.15 243.369C154.406 243.093 151.355 238.216 153.205 233.832L165.348 205.053L174.537 209.473C177.756 211.022 179.077 214.914 177.455 218.109Z" fill="#D38579" stroke="#904D40" stroke-width="0.90085" stroke-miterlimit="10" stroke-linecap="round" stroke-linejoin="round"/>
<path d="M317.363 121.226L294.53 136.516L255.865 162.388L244.599 219.73C241.992 232.979 232.864 243.885 220.564 248.882C218.967 249.531 217.309 250.083 215.603 250.527C215.027 250.684 214.438 250.756 213.874 250.756C209.79 250.756 206.427 246.996 207.243 242.708L213.201 215.166L228.9 142.522L290.878 77.7085L317.363 121.226Z" fill="#C17361"/>
<path d="M290.878 77.7085L228.9 142.522L213.201 215.166L207.243 242.708C206.427 246.996 209.79 250.756 213.874 250.756C214.438 250.756 215.027 250.684 215.603 250.527C217.309 250.083 218.967 249.531 220.564 248.882C232.864 243.885 241.992 232.979 244.599 219.73L255.865 162.388L294.53 136.516" stroke="#904D40" stroke-width="0.765722" stroke-miterlimit="10" stroke-linecap="round" stroke-linejoin="round"/>
<path d="M227.471 224.667L220.564 248.882C218.967 249.53 217.309 250.083 215.603 250.527C215.027 250.684 214.438 250.756 213.874 250.756C209.79 250.756 206.427 246.996 207.243 242.708L213.201 215.166L223.159 217.4C226.426 218.133 228.395 221.448 227.471 224.667Z" fill="#D38579" stroke="#904D40" stroke-width="0.90085" stroke-miterlimit="10" stroke-linecap="round" stroke-linejoin="round"/>
<path d="M348.112 118.859L346.935 120.769L318.781 166.171L310.649 216.871C308.559 229.843 299.647 240.437 287.695 244.894C285.401 245.746 282.999 246.371 280.513 246.755C280.308 246.791 280.104 246.803 279.9 246.803C277.546 246.803 275.624 244.713 275.948 242.287L279.672 213.604L286.614 160.022L312.631 80.0742L348.112 118.859Z" fill="#C17361"/>
<path d="M312.631 80.0742L286.614 160.022L279.672 213.604L275.948 242.287C275.624 244.713 277.546 246.803 279.9 246.803C280.104 246.803 280.308 246.791 280.513 246.755C282.999 246.371 285.401 245.746 287.695 244.894C299.647 240.437 308.559 229.843 310.649 216.871L318.781 166.171L346.935 120.769" stroke="#904D40" stroke-width="0.765722" stroke-miterlimit="10" stroke-linecap="round" stroke-linejoin="round"/>
<path d="M291.731 222.817L287.695 244.893C285.401 245.746 282.999 246.371 280.513 246.755C280.308 246.791 280.104 246.803 279.9 246.803C277.546 246.803 275.624 244.713 275.948 242.287L279.672 213.604L284.957 214.012C289.377 214.361 292.536 218.457 291.731 222.817Z" fill="#D38579" stroke="#904D40" stroke-width="0.90085" stroke-miterlimit="10" stroke-linecap="round" stroke-linejoin="round"/>
<path d="M378.166 462.645L347.191 508.933L293.41 515.252L268.062 517.703L211.177 541.551L168.973 622.057H157.722H37.109L170.801 489.26L172.863 485.993L184.46 467.667C193.924 452.721 208.983 442.185 226.277 438.439L275.402 427.78L277.412 428.464L378.166 462.645Z" fill="#C17361"/>
<path d="M275.688 467.447C267.153 471.01 238.63 469.091 229.493 467.662C216.855 465.693 203.736 467.754 192.097 472.981C187.86 474.88 180.725 475.938 177.5 478.5C184.5 466.5 193 454.5 200 450.5C207 446.5 210 443 222.5 439.5C235 436 235.5 436.5 239.377 435.515L274 428C274 428 323.948 442.864 334.176 445.63C335.472 454.789 284.222 463.875 275.688 467.447Z" fill="#AC6257"/>
<path d="M293.408 515.252L268.059 517.702L211.175 541.551L168.971 622.057H157.72C165.019 610.072 173.044 569.075 182.324 558.529C202.649 535.456 230.021 517.091 260.597 513.885C271.541 512.73 282.505 513.537 293.408 515.252Z" fill="#AC6257"/>
<path d="M273.5 428L333.132 416.703L367.22 393.848C371.94 390.683 377.92 390.052 383.197 392.163L383.63 392.336C388.299 394.204 391.408 398.669 391.54 403.695C391.699 409.714 388.701 415.378 383.635 418.631L301.907 471.108L273.5 428Z" fill="#AC6257"/>
<path d="M344.009 494.763L373.341 456.447L435.127 434.802L438.166 433.733L459.438 419.944C470.501 412.762 484.518 412.69 495.532 419.272C497.322 420.341 499.039 421.59 500.649 423.019C501.802 424.04 502.367 425.434 502.367 426.815C502.367 428.508 501.538 430.19 499.928 431.163L470.453 449.108L429.65 473.947L375.047 487.22L344.009 494.763Z" fill="#C17361"/>
<path d="M375.047 487.22L429.65 473.947L470.453 449.108L499.928 431.163C501.538 430.19 502.367 428.508 502.367 426.815C502.367 425.434 501.802 424.04 500.649 423.019C499.039 421.59 497.322 420.341 495.532 419.272C484.518 412.69 470.501 412.762 459.438 419.944L438.166 433.733L435.127 434.802" stroke="#904D40" stroke-width="0.765722" stroke-miterlimit="10" stroke-linecap="round" stroke-linejoin="round"/>
<path d="M468.543 434.935L495.532 419.272C497.322 420.341 499.04 421.59 500.649 423.02C501.802 424.04 502.367 425.434 502.367 426.815C502.367 428.509 501.538 430.19 499.928 431.163L470.453 449.108L467.161 445.889C463.894 442.682 464.579 437.229 468.543 434.935Z" fill="#D38579" stroke="#904D40" stroke-width="0.90085" stroke-miterlimit="10" stroke-linecap="round" stroke-linejoin="round"/>
<path d="M335.974 472.05L393.916 430.551L402.673 424.269L430.959 363.167C436.244 351.756 447.114 344.165 459.354 342.94C460.519 342.82 461.696 342.76 462.885 342.76C463.534 342.76 464.195 342.784 464.855 342.82C469.6 343.096 472.651 347.973 470.801 352.357L458.657 381.136L432.485 443.198L347.324 509.429L335.974 472.05Z" fill="#C17361"/>
<path d="M393.916 430.551L402.673 424.269L430.959 363.167C436.244 351.756 447.115 344.165 459.354 342.94C460.519 342.82 461.696 342.76 462.885 342.76C463.534 342.76 464.195 342.784 464.855 342.82C469.6 343.096 472.651 347.973 470.801 352.357L458.657 381.136L432.485 443.198L347.324 509.429" stroke="#904D40" stroke-width="0.765722" stroke-miterlimit="10" stroke-linecap="round" stroke-linejoin="round"/>
<path d="M446.55 368.08L459.354 342.94C460.519 342.82 461.696 342.76 462.885 342.76C463.534 342.76 464.195 342.784 464.855 342.82C469.6 343.096 472.651 347.973 470.801 352.357L458.657 381.136L449.469 376.716C446.25 375.166 444.928 371.275 446.55 368.08Z" fill="#D38579" stroke="#904D40" stroke-width="0.90085" stroke-miterlimit="10" stroke-linecap="round" stroke-linejoin="round"/>
<path d="M306.642 464.963L329.476 449.673L368.14 423.8L379.407 366.458C382.013 353.21 391.142 342.304 403.441 337.307C405.039 336.658 406.696 336.106 408.402 335.661C408.979 335.505 409.567 335.433 410.132 335.433C414.216 335.433 417.579 339.193 416.762 343.481L410.804 371.023L395.106 443.667L333.127 508.48L306.642 464.963Z" fill="#C17361"/>
<path d="M333.127 508.48L395.106 443.667L410.804 371.023L416.762 343.481C417.579 339.193 414.216 335.433 410.132 335.433C409.567 335.433 408.979 335.505 408.402 335.661C406.696 336.106 405.039 336.658 403.441 337.307C391.142 342.304 382.013 353.21 379.407 366.458L368.14 423.8L329.476 449.673" stroke="#904D40" stroke-width="0.765722" stroke-miterlimit="10" stroke-linecap="round" stroke-linejoin="round"/>
<path d="M396.535 361.522L403.441 337.307C405.039 336.658 406.696 336.106 408.402 335.661C408.979 335.505 409.567 335.433 410.132 335.433C414.216 335.433 417.579 339.193 416.762 343.481L410.804 371.023L400.847 368.789C397.58 368.056 395.61 364.741 396.535 361.522Z" fill="#D38579" stroke="#904D40" stroke-width="0.90085" stroke-miterlimit="10" stroke-linecap="round" stroke-linejoin="round"/>
<path d="M275.893 467.329L277.07 465.42L305.225 420.017L313.356 369.317C315.446 356.345 324.359 345.751 336.31 341.295C338.604 340.442 341.006 339.817 343.493 339.433C343.697 339.397 343.901 339.385 344.105 339.385C346.46 339.385 348.381 341.475 348.057 343.901L344.334 372.584L337.391 426.167L311.375 506.114L275.893 467.329Z" fill="#C17361"/>
<path d="M311.374 506.114L337.391 426.167L344.334 372.584L348.057 343.901C348.381 341.475 346.46 339.385 344.105 339.385C343.901 339.385 343.697 339.397 343.493 339.433C341.006 339.817 338.604 340.442 336.31 341.295C324.359 345.751 315.446 356.345 313.356 369.317L305.225 420.017L277.07 465.42" stroke="#904D40" stroke-width="0.765722" stroke-miterlimit="10" stroke-linecap="round" stroke-linejoin="round"/>
<path d="M332.274 363.371L336.31 341.295C338.604 340.442 341.006 339.817 343.493 339.433C343.697 339.397 343.901 339.385 344.105 339.385C346.46 339.385 348.381 341.475 348.057 343.901L344.334 372.584L339.049 372.176C334.628 371.827 331.469 367.732 332.274 363.371Z" fill="#D38579" stroke="#904D40" stroke-width="0.90085" stroke-miterlimit="10" stroke-linecap="round" stroke-linejoin="round"/>
<path d="M421.019 229.869L425.966 238.915L435.012 243.862L425.966 248.81L421.019 257.856L416.071 248.81L407.024 243.862L416.071 238.915L421.019 229.869Z" fill="#FCFCFC" stroke="#6466EF" stroke-width="1.20113" stroke-miterlimit="10"/>
<path d="M427.747 179.595L434.103 191.214L445.722 197.57L434.103 203.925L427.747 215.543L421.393 203.925L409.774 197.57L421.393 191.214L427.747 179.595Z" fill="#FCFCFC" stroke="#6466EF" stroke-width="1.20113" stroke-miterlimit="10"/>
<path d="M389.766 205.197L392.527 210.243L397.573 213.003L392.527 215.763L389.766 220.809L387.007 215.763L381.96 213.003L387.007 210.243L389.766 205.197Z" fill="#FCFCFC" stroke="#6466EF" stroke-width="1.20113" stroke-miterlimit="10"/>
<path d="M185.227 339.457L190.174 348.503L199.221 353.45L190.174 358.398L185.227 367.443L180.279 358.398L171.234 353.45L180.279 348.503L185.227 339.457Z" fill="#FCFCFC" stroke="#6466EF" stroke-width="1.20113" stroke-miterlimit="10"/>
<path d="M158.317 364.527L162.233 371.688L169.395 375.605L162.233 379.522L158.317 386.683L154.4 379.522L147.238 375.605L154.4 371.688L158.317 364.527Z" fill="#FCFCFC" stroke="#6466EF" stroke-width="1.20113" stroke-miterlimit="10"/>
<path d="M153.568 300.888L160.823 314.153L174.089 321.408L160.823 328.663L153.568 341.927L146.314 328.663L133.048 321.408L146.314 314.153L153.568 300.888Z" fill="#FCFCFC" stroke="#6466EF" stroke-width="1.20113" stroke-miterlimit="10"/>
</g>
<defs>
<clipPath id="clip0_235_76052">
<rect width="600.566" height="600.566" fill="white" transform="translate(0 0.433594)"/>
</clipPath>
<clipPath id="clip1_235_76052">
<rect width="246.565" height="246.565" fill="white" transform="translate(177.58 178.201)"/>
</clipPath>
</defs>
</svg>
