<svg width="15" height="15" viewBox="0 0 15 15" fill="none" xmlns="http://www.w3.org/2000/svg">
<path fill-rule="evenodd" clip-rule="evenodd" d="M1.2 0C0.537256 0 0 0.537256 0 1.2V13.2C0 13.8627 0.537256 14.4 1.2 14.4H13.2C13.8627 14.4 14.4 13.8627 14.4 13.2V1.2C14.4 0.537256 13.8627 0 13.2 0H1.2ZM4.41661 3.20218C4.42111 3.96718 3.84849 4.43855 3.16898 4.43518C2.52886 4.4318 1.97086 3.92218 1.97423 3.2033C1.97761 2.52718 2.51198 1.9838 3.20611 1.99955C3.91036 2.0153 4.42111 2.53168 4.41661 3.20218ZM7.42376 5.40941H5.40777H5.40664V12.2573H7.53736V12.0975C7.53736 11.7936 7.53712 11.4896 7.53688 11.1855C7.53624 10.3745 7.53552 9.56256 7.53968 8.75176C7.5408 8.55488 7.54976 8.35016 7.6004 8.16224C7.79048 7.46024 8.42168 7.00688 9.12592 7.11832C9.57816 7.18912 9.87736 7.45128 10.0034 7.87768C10.081 8.14424 10.1159 8.43112 10.1193 8.70904C10.1284 9.54712 10.1271 10.3852 10.1258 11.2234C10.1254 11.5192 10.1249 11.8152 10.1249 12.111V12.2562H12.2624V12.0919C12.2624 11.7303 12.2622 11.3688 12.262 11.0073C12.2616 10.1037 12.2611 9.20008 12.2635 8.29616C12.2646 7.88776 12.2208 7.48504 12.1206 7.09016C11.971 6.50288 11.6617 6.01688 11.1588 5.66592C10.8022 5.41615 10.4106 5.25528 9.97304 5.23728C9.9232 5.23521 9.87296 5.2325 9.82248 5.22977C9.59872 5.21767 9.37128 5.20538 9.15736 5.24853C8.54536 5.37115 8.00768 5.65128 7.60152 6.14512C7.55432 6.20176 7.50816 6.25928 7.43928 6.34512L7.42376 6.36456V5.40941ZM2.14531 12.2595H4.26594V5.41386H2.14531V12.2595Z" fill="white"/>
</svg>
