<svg width="392" height="512" viewBox="0 0 392 512" fill="none" xmlns="http://www.w3.org/2000/svg">
<g clip-path="url(#clip0_587_4187)">
<rect width="392" height="512" fill="#202938"/>
<path d="M196.002 452.13C68.3074 452.13 -36.9615 336.353 -48.9965 188.763L-48.9965 781.328H441L441 188.741C428.97 336.338 323.699 452.13 196.002 452.13Z" fill="white"/>
<path d="M196.002 490.94C89.5178 490.94 -2.87947 418.87 -48.9964 313.294L-48.9964 781.329H441L441 313.29C394.883 418.866 302.486 490.94 196.002 490.94Z" fill="#34D399"/>
<path d="M441 520.489V482.201L344.218 439.337C333.02 447.875 321.286 455.489 309.068 462.053L441 520.489Z" fill="#14B881"/>
<path d="M441 647.816V609.532L169.8 489.427C120.545 483.879 75.0558 462.885 36.7559 430.507L-48.9963 392.529V430.817L441 647.816Z" fill="#14B881"/>
<path d="M441 456.824V418.54L389.831 395.879C381.713 405.444 373.125 414.444 364.07 422.757L441 456.824Z" fill="#14B881"/>
<path d="M441 545.868L280.969 474.995C263.386 481.785 245.039 486.531 226.112 488.985L441 584.153V545.868Z" fill="#14B881"/>
<path d="M441 711.48V673.196L-48.9963 456.19V494.481L441 711.48Z" fill="#14B881"/>
<path d="M64.6028 87.367H47.1836L47.0904 77.7724H61.7151C64.2923 77.7724 66.4037 77.4464 68.0494 76.7944C69.695 76.1113 70.9215 75.1332 71.7288 73.8601C72.5672 72.556 72.9864 70.9724 72.9864 69.1094C72.9864 66.998 72.5827 65.2902 71.7754 63.9861C70.9991 62.682 69.7727 61.735 68.0959 61.145C66.4503 60.5551 64.3233 60.2601 61.7151 60.2601H52.0274V117.129H38.0548V49.3149H61.7151C65.6585 49.3149 69.1827 49.6875 72.2877 50.4327C75.4238 51.1779 78.0786 52.3112 80.2521 53.8327C82.4256 55.3541 84.0868 57.2793 85.2357 59.608C86.3846 61.9058 86.959 64.6382 86.959 67.8053C86.959 70.5998 86.3225 73.177 85.0494 75.5368C83.8074 77.8966 81.8357 79.8218 79.1343 81.3122C76.464 82.8026 72.9708 83.6254 68.6548 83.7807L64.6028 87.367ZM63.9973 117.129H43.3644L48.8137 106.23H63.9973C66.4503 106.23 68.453 105.842 70.0055 105.066C71.558 104.258 72.7069 103.172 73.4521 101.805C74.1973 100.439 74.5699 98.8711 74.5699 97.1012C74.5699 95.114 74.2284 93.3907 73.5453 91.9314C72.8932 90.472 71.8375 89.3542 70.3781 88.5779C68.9188 87.7706 66.9937 87.367 64.6028 87.367H51.1425L51.2356 77.7724H68.0028L71.2165 81.5451C75.3462 81.4829 78.6686 82.2126 81.1836 83.7341C83.7298 85.2245 85.5772 87.1651 86.7261 89.556C87.906 91.9469 88.496 94.5085 88.496 97.241C88.496 101.588 87.5489 105.252 85.6549 108.233C83.7608 111.183 80.9818 113.403 77.3179 114.893C73.685 116.383 69.2448 117.129 63.9973 117.129ZM148.293 106.23V117.129H114.153V106.23H148.293ZM118.671 49.3149V117.129H104.699V49.3149H118.671ZM190.532 60.9121L172.088 117.129H157.23L182.427 49.3149H191.882L190.532 60.9121ZM205.855 117.129L187.364 60.9121L185.874 49.3149H195.422L220.759 117.129H205.855ZM205.016 91.8848V102.83H169.2V91.8848H205.016ZM271.241 94.6327H285.167C284.888 99.1971 283.63 103.249 281.395 106.789C279.19 110.329 276.1 113.092 272.126 115.079C268.183 117.067 263.432 118.06 257.874 118.06C253.527 118.06 249.63 117.315 246.184 115.825C242.737 114.303 239.787 112.13 237.334 109.304C234.912 106.478 233.065 103.063 231.792 99.0574C230.519 95.0519 229.882 90.5652 229.882 85.5971V80.893C229.882 75.925 230.534 71.4382 231.838 67.4327C233.173 63.3962 235.068 59.9651 237.521 57.1395C240.005 54.314 242.97 52.1404 246.416 50.619C249.863 49.0975 253.713 48.3368 257.967 48.3368C263.618 48.3368 268.384 49.3614 272.266 51.4108C276.178 53.4601 279.206 56.2857 281.348 59.8875C283.521 63.4893 284.826 67.588 285.26 72.1834H271.288C271.132 69.451 270.589 67.1377 269.658 65.2437C268.726 63.3185 267.313 61.8747 265.419 60.9121C263.556 59.9185 261.072 59.4217 257.967 59.4217C255.638 59.4217 253.605 59.8564 251.866 60.7258C250.127 61.5953 248.668 62.9149 247.488 64.6848C246.308 66.4546 245.423 68.6902 244.833 71.3916C244.274 74.0619 243.994 77.198 243.994 80.7998V85.5971C243.994 89.1058 244.258 92.1953 244.786 94.8656C245.314 97.5049 246.121 99.7405 247.208 101.572C248.326 103.373 249.754 104.74 251.493 105.671C253.263 106.572 255.39 107.022 257.874 107.022C260.793 107.022 263.199 106.556 265.093 105.625C266.987 104.693 268.431 103.311 269.425 101.479C270.449 99.6474 271.055 97.3652 271.241 94.6327ZM314.038 49.3149V117.129H300.066V49.3149H314.038ZM354.652 49.3149L327.778 82.8026L312.268 99.4766L309.753 86.2492L320.233 71.9039L337.512 49.3149H354.652ZM338.77 117.129L318.789 85.7834L329.129 77.1204L355.304 117.129H338.77Z" fill="white"/>
<path d="M52.0274 154.315V222.129H38.0548V154.315H52.0274ZM79.0412 183.285V194.183H48.2082V183.285H79.0412ZM82.3014 154.315V165.26H48.2082V154.315H82.3014ZM90.4056 154.315H115.696C120.881 154.315 125.337 155.091 129.063 156.644C132.82 158.196 135.708 160.494 137.726 163.537C139.744 166.58 140.754 170.321 140.754 174.761C140.754 178.394 140.133 181.515 138.891 184.123C137.68 186.7 135.956 188.858 133.721 190.597C131.516 192.305 128.923 193.671 125.943 194.696L121.518 197.025H99.5343L99.4412 186.126H115.789C118.242 186.126 120.276 185.691 121.891 184.822C123.505 183.952 124.716 182.741 125.523 181.189C126.362 179.636 126.781 177.835 126.781 175.786C126.781 173.613 126.377 171.734 125.57 170.151C124.763 168.567 123.536 167.356 121.891 166.518C120.245 165.679 118.18 165.26 115.696 165.26H104.378V222.129H90.4056V154.315ZM128.318 222.129L112.855 191.901L127.619 191.808L143.269 221.477V222.129H128.318ZM166.37 154.315V222.129H152.444V154.315H166.37ZM200.277 222.129H185.513L185.606 211.23H200.277C203.941 211.23 207.03 210.407 209.545 208.762C212.061 207.085 213.955 204.647 215.228 201.449C216.532 198.251 217.184 194.385 217.184 189.852V186.545C217.184 183.067 216.811 180.009 216.066 177.37C215.352 174.73 214.281 172.51 212.852 170.709C211.424 168.908 209.67 167.558 207.589 166.657C205.509 165.726 203.118 165.26 200.417 165.26H185.233V154.315H200.417C204.95 154.315 209.095 155.091 212.852 156.644C216.64 158.165 219.916 160.354 222.68 163.211C225.443 166.067 227.57 169.483 229.061 173.457C230.582 177.401 231.343 181.794 231.343 186.638V189.852C231.343 194.665 230.582 199.058 229.061 203.033C227.57 207.007 225.443 210.423 222.68 213.279C219.947 216.105 216.671 218.294 212.852 219.846C209.064 221.368 204.872 222.129 200.277 222.129ZM193.43 154.315V222.129H179.458V154.315H193.43ZM268.044 165.912L249.6 222.129H234.743L259.94 154.315H269.395L268.044 165.912ZM283.367 222.129L264.877 165.912L263.387 154.315H272.935L298.272 222.129H283.367ZM282.529 196.885V207.83H246.713V196.885H282.529ZM307.726 154.315L321.885 185.241L336.044 154.315H351.274L328.965 197.444V222.129H314.806V197.444L292.45 154.315H307.726Z" fill="white"/>
<path d="M40.6236 21.7635L36.937 33H33.9673L39.0037 19.4455H40.8935L40.6236 21.7635ZM43.6864 33L39.9905 21.7635L39.6926 19.4455H41.601L46.6654 33H43.6864ZM43.5188 27.9543V30.142H36.3598V27.9543H43.5188ZM53.5819 28.1684H50.1281V25.99H53.5819C54.1156 25.99 54.5501 25.9031 54.8852 25.7293C55.2203 25.5494 55.4655 25.3011 55.6206 24.9846C55.7758 24.6681 55.8534 24.3112 55.8534 23.914C55.8534 23.5106 55.7758 23.1351 55.6206 22.7876C55.4655 22.44 55.2203 22.1607 54.8852 21.9497C54.5501 21.7387 54.1156 21.6332 53.5819 21.6332H51.0963V33H48.3035V19.4455H53.5819C54.6432 19.4455 55.5524 19.6379 56.3095 20.0227C57.0729 20.4013 57.6563 20.9257 58.0597 21.596C58.4631 22.2662 58.6648 23.0327 58.6648 23.8954C58.6648 24.7705 58.4631 25.5276 58.0597 26.1669C57.6563 26.8061 57.0729 27.2995 56.3095 27.6471C55.5524 27.9946 54.6432 28.1684 53.5819 28.1684ZM60.9732 19.4455H66.0282C67.0646 19.4455 67.9552 19.6007 68.7 19.911C69.451 20.2213 70.0281 20.6805 70.4316 21.2888C70.835 21.897 71.0367 22.6448 71.0367 23.5323C71.0367 24.2585 70.9125 24.8822 70.6643 25.4035C70.4222 25.9186 70.0778 26.35 69.6309 26.6975C69.1903 27.0389 68.6721 27.3119 68.0763 27.5168L67.1919 27.9822H62.7978L62.7792 25.8038H66.0468C66.5371 25.8038 66.9436 25.7169 67.2664 25.5432C67.5891 25.3694 67.8311 25.1273 67.9925 24.817C68.1601 24.5067 68.2438 24.1467 68.2438 23.7371C68.2438 23.3027 68.1632 22.9272 68.0018 22.6107C67.8404 22.2942 67.5953 22.0521 67.2664 21.8846C66.9374 21.717 66.5247 21.6332 66.0282 21.6332H63.766V33H60.9732V19.4455ZM68.5511 33L65.4603 26.9582L68.4114 26.9396L71.5394 32.8697V33H68.5511ZM84.7025 25.9062V26.5486C84.7025 27.5788 84.5629 28.5036 84.2836 29.3228C84.0043 30.142 83.6102 30.8402 83.1013 31.4174C82.5924 31.9884 81.9842 32.4259 81.2766 32.73C80.5753 33.0341 79.7965 33.1862 78.94 33.1862C78.0897 33.1862 77.3108 33.0341 76.6033 32.73C75.902 32.4259 75.2938 31.9884 74.7787 31.4174C74.2636 30.8402 73.8633 30.142 73.5778 29.3228C73.2985 28.5036 73.1588 27.5788 73.1588 26.5486V25.9062C73.1588 24.8698 73.2985 23.945 73.5778 23.132C73.857 22.3128 74.2511 21.6146 74.7601 21.0374C75.2752 20.4602 75.8834 20.0196 76.5847 19.7155C77.2922 19.4114 78.0711 19.2593 78.9214 19.2593C79.7778 19.2593 80.5567 19.4114 81.258 19.7155C81.9655 20.0196 82.5738 20.4602 83.0827 21.0374C83.5978 21.6146 83.995 22.3128 84.2743 23.132C84.5598 23.945 84.7025 24.8698 84.7025 25.9062ZM81.8818 26.5486V25.8876C81.8818 25.1677 81.8166 24.5346 81.6863 23.9885C81.5559 23.4423 81.3635 22.9831 81.1091 22.6107C80.8546 22.2383 80.5443 21.959 80.1781 21.7728C79.812 21.5805 79.393 21.4843 78.9214 21.4843C78.4497 21.4843 78.0308 21.5805 77.6646 21.7728C77.3046 21.959 76.9974 22.2383 76.743 22.6107C76.4947 22.9831 76.3054 23.4423 76.1751 23.9885C76.0448 24.5346 75.9796 25.1677 75.9796 25.8876V26.5486C75.9796 27.2623 76.0448 27.8953 76.1751 28.4477C76.3054 28.9938 76.4978 29.4562 76.7523 29.8348C77.0067 30.2072 77.317 30.4896 77.6832 30.682C78.0494 30.8744 78.4683 30.9705 78.94 30.9705C79.4117 30.9705 79.8306 30.8744 80.1968 30.682C80.5629 30.4896 80.8701 30.2072 81.1184 29.8348C81.3666 29.4562 81.5559 28.9938 81.6863 28.4477C81.8166 27.8953 81.8818 27.2623 81.8818 26.5486ZM91.7773 30.1699L94.9704 19.4455H98.0798L93.3599 33H91.3118L91.7773 30.1699ZM88.8355 19.4455L92.0193 30.1699L92.5034 33H90.4367L85.7448 19.4455H88.8355ZM108.822 30.8216V33H101.608V30.8216H108.822ZM102.52 19.4455V33H99.7272V19.4455H102.52ZM107.882 24.966V27.0885H101.608V24.966H107.882ZM108.813 19.4455V21.6332H101.608V19.4455H108.813ZM118.69 28.5036H121.474C121.418 29.4159 121.166 30.2258 120.72 30.9333C120.279 31.6408 119.661 32.1932 118.867 32.5904C118.079 32.9876 117.129 33.1862 116.018 33.1862C115.149 33.1862 114.37 33.0372 113.682 32.7393C112.993 32.4352 112.403 32.0008 111.913 31.436C111.429 30.8712 111.059 30.1886 110.805 29.3879C110.551 28.5873 110.423 27.6905 110.423 26.6975V25.7573C110.423 24.7643 110.554 23.8675 110.814 23.0669C111.081 22.26 111.46 21.5742 111.95 21.0095C112.447 20.4447 113.039 20.0103 113.728 19.7062C114.417 19.4021 115.187 19.25 116.037 19.25C117.166 19.25 118.119 19.4548 118.895 19.8644C119.677 20.274 120.282 20.8388 120.71 21.5587C121.145 22.2787 121.405 23.0979 121.492 24.0164H118.699C118.668 23.4703 118.56 23.0079 118.374 22.6293C118.187 22.2445 117.905 21.9559 117.526 21.7635C117.154 21.5649 116.658 21.4656 116.037 21.4656C115.571 21.4656 115.165 21.5525 114.817 21.7263C114.47 21.9001 114.178 22.1638 113.942 22.5176C113.706 22.8714 113.53 23.3182 113.412 23.8582C113.3 24.3919 113.244 25.0187 113.244 25.7387V26.6975C113.244 27.3988 113.297 28.0164 113.402 28.5501C113.508 29.0776 113.669 29.5245 113.886 29.8907C114.11 30.2506 114.395 30.5237 114.743 30.7099C115.097 30.8899 115.522 30.9799 116.018 30.9799C116.602 30.9799 117.083 30.8868 117.461 30.7006C117.84 30.5144 118.128 30.2382 118.327 29.872C118.532 29.5059 118.653 29.0497 118.69 28.5036ZM132.728 24.966V27.1444H125.653V24.966H132.728ZM126.482 19.4455V33H123.689V19.4455H126.482ZM134.72 19.4455V33H131.937V19.4455H134.72ZM143.21 21.7635L139.524 33H136.554L141.59 19.4455H143.48L143.21 21.7635ZM146.273 33L142.577 21.7635L142.279 19.4455H144.188L149.252 33H146.273ZM146.106 27.9543V30.142H138.947V27.9543H146.106ZM141.637 18.6821L143.462 15.8148H146.376L143.815 18.6821H141.637ZM164.733 30.8216V33H157.909V30.8216H164.733ZM158.812 19.4455V33H156.019V19.4455H158.812ZM177.235 25.9062V26.5486C177.235 27.5788 177.095 28.5036 176.816 29.3228C176.537 30.142 176.143 30.8402 175.634 31.4174C175.125 31.9884 174.517 32.4259 173.809 32.73C173.108 33.0341 172.329 33.1862 171.473 33.1862C170.622 33.1862 169.843 33.0341 169.136 32.73C168.435 32.4259 167.826 31.9884 167.311 31.4174C166.796 30.8402 166.396 30.142 166.11 29.3228C165.831 28.5036 165.691 27.5788 165.691 26.5486V25.9062C165.691 24.8698 165.831 23.945 166.11 23.132C166.39 22.3128 166.784 21.6146 167.293 21.0374C167.808 20.4602 168.416 20.0196 169.117 19.7155C169.825 19.4114 170.604 19.2593 171.454 19.2593C172.31 19.2593 173.089 19.4114 173.791 19.7155C174.498 20.0196 175.106 20.4602 175.615 21.0374C176.13 21.6146 176.528 22.3128 176.807 23.132C177.092 23.945 177.235 24.8698 177.235 25.9062ZM174.414 26.5486V25.8876C174.414 25.1677 174.349 24.5346 174.219 23.9885C174.089 23.4423 173.896 22.9831 173.642 22.6107C173.387 22.2383 173.077 21.959 172.711 21.7728C172.345 21.5805 171.926 21.4843 171.454 21.4843C170.982 21.4843 170.563 21.5805 170.197 21.7728C169.837 21.959 169.53 22.2383 169.276 22.6107C169.027 22.9831 168.838 23.4423 168.708 23.9885C168.577 24.5346 168.512 25.1677 168.512 25.8876V26.5486C168.512 27.2623 168.577 27.8953 168.708 28.4477C168.838 28.9938 169.03 29.4562 169.285 29.8348C169.539 30.2072 169.85 30.4896 170.216 30.682C170.582 30.8744 171.001 30.9705 171.473 30.9705C171.944 30.9705 172.363 30.8744 172.729 30.682C173.096 30.4896 173.403 30.2072 173.651 29.8348C173.899 29.4562 174.089 28.9938 174.219 28.4477C174.349 27.8953 174.414 27.2623 174.414 26.5486ZM186.684 29.4531C186.684 29.2111 186.647 28.9938 186.572 28.8015C186.504 28.6029 186.373 28.4229 186.181 28.2615C185.989 28.0939 185.719 27.9295 185.371 27.7681C185.024 27.6067 184.574 27.4392 184.021 27.2654C183.407 27.0668 182.823 26.8434 182.271 26.5951C181.725 26.3469 181.241 26.0583 180.819 25.7293C180.403 25.3942 180.074 25.0063 179.832 24.5657C179.596 24.125 179.478 23.613 179.478 23.0296C179.478 22.4648 179.602 21.9528 179.851 21.4936C180.099 21.0281 180.446 20.6309 180.893 20.302C181.34 19.9668 181.868 19.7093 182.476 19.5293C183.09 19.3493 183.764 19.2593 184.496 19.2593C185.495 19.2593 186.367 19.4393 187.112 19.7993C187.857 20.1592 188.434 20.6526 188.844 21.2794C189.259 21.9063 189.467 22.6231 189.467 23.4299H186.693C186.693 23.0327 186.609 22.6852 186.442 22.3873C186.28 22.0832 186.032 21.8442 185.697 21.6704C185.368 21.4967 184.952 21.4098 184.45 21.4098C183.965 21.4098 183.562 21.4843 183.239 21.6332C182.917 21.776 182.675 21.9714 182.513 22.2197C182.352 22.4617 182.271 22.7348 182.271 23.0389C182.271 23.2686 182.327 23.4765 182.439 23.6627C182.557 23.8488 182.73 24.0226 182.96 24.184C183.19 24.3453 183.472 24.4974 183.807 24.6401C184.142 24.7829 184.53 24.9225 184.971 25.0591C185.709 25.2825 186.358 25.5339 186.917 25.8131C187.481 26.0924 187.953 26.4058 188.332 26.7534C188.71 27.1009 188.996 27.495 189.188 27.9357C189.38 28.3763 189.477 28.8759 189.477 29.4345C189.477 30.0241 189.362 30.5516 189.132 31.0171C188.903 31.4826 188.57 31.8767 188.136 32.1994C187.702 32.5221 187.183 32.7673 186.581 32.9348C185.979 33.1024 185.306 33.1862 184.561 33.1862C183.891 33.1862 183.23 33.0993 182.578 32.9255C181.927 32.7455 181.334 32.4756 180.8 32.1156C180.273 31.7556 179.851 31.2964 179.534 30.7378C179.218 30.1792 179.059 29.5183 179.059 28.7549H181.862C181.862 29.1769 181.927 29.5338 182.057 29.8255C182.187 30.1172 182.37 30.353 182.606 30.533C182.848 30.713 183.134 30.8433 183.463 30.924C183.798 31.0047 184.164 31.045 184.561 31.045C185.045 31.045 185.443 30.9768 185.753 30.8402C186.069 30.7037 186.302 30.5144 186.451 30.2723C186.606 30.0303 186.684 29.7572 186.684 29.4531ZM201.047 33H198.096L198.115 30.8216H201.047C201.78 30.8216 202.397 30.6571 202.9 30.3282C203.403 29.9931 203.781 29.5059 204.036 28.8666C204.296 28.2274 204.427 27.4547 204.427 26.5486V25.8876C204.427 25.1925 204.352 24.5812 204.203 24.0537C204.061 23.5261 203.846 23.0824 203.561 22.7224C203.276 22.3624 202.925 22.0925 202.509 21.9125C202.093 21.7263 201.615 21.6332 201.075 21.6332H198.041V19.4455H201.075C201.981 19.4455 202.81 19.6007 203.561 19.911C204.318 20.2151 204.973 20.6526 205.525 21.2236C206.078 21.7946 206.503 22.4773 206.801 23.2717C207.105 24.0599 207.257 24.938 207.257 25.9062V26.5486C207.257 27.5105 207.105 28.3887 206.801 29.1831C206.503 29.9775 206.078 30.6602 205.525 31.2312C204.979 31.796 204.324 32.2335 203.561 32.5438C202.804 32.8479 201.966 33 201.047 33ZM199.679 19.4455V33H196.886V19.4455H199.679ZM218.763 30.8216V33H211.548V30.8216H218.763ZM212.46 19.4455V33H209.668V19.4455H212.46ZM217.823 24.966V27.0885H211.548V24.966H217.823ZM218.754 19.4455V21.6332H211.548V19.4455H218.754ZM227.83 29.4531C227.83 29.2111 227.793 28.9938 227.718 28.8015C227.65 28.6029 227.52 28.4229 227.327 28.2615C227.135 28.0939 226.865 27.9295 226.517 27.7681C226.17 27.6067 225.72 27.4392 225.167 27.2654C224.553 27.0668 223.97 26.8434 223.417 26.5951C222.871 26.3469 222.387 26.0583 221.965 25.7293C221.549 25.3942 221.22 25.0063 220.978 24.5657C220.742 24.125 220.624 23.613 220.624 23.0296C220.624 22.4648 220.749 21.9528 220.997 21.4936C221.245 21.0281 221.593 20.6309 222.039 20.302C222.486 19.9668 223.014 19.7093 223.622 19.5293C224.236 19.3493 224.91 19.2593 225.642 19.2593C226.641 19.2593 227.513 19.4393 228.258 19.7993C229.003 20.1592 229.58 20.6526 229.99 21.2794C230.406 21.9063 230.613 22.6231 230.613 23.4299H227.839C227.839 23.0327 227.755 22.6852 227.588 22.3873C227.426 22.0832 227.178 21.8442 226.843 21.6704C226.514 21.4967 226.098 21.4098 225.596 21.4098C225.112 21.4098 224.708 21.4843 224.385 21.6332C224.063 21.776 223.821 21.9714 223.659 22.2197C223.498 22.4617 223.417 22.7348 223.417 23.0389C223.417 23.2686 223.473 23.4765 223.585 23.6627C223.703 23.8488 223.877 24.0226 224.106 24.184C224.336 24.3453 224.618 24.4974 224.953 24.6401C225.288 24.7829 225.676 24.9225 226.117 25.0591C226.856 25.2825 227.504 25.5339 228.063 25.8131C228.627 26.0924 229.099 26.4058 229.478 26.7534C229.856 27.1009 230.142 27.495 230.334 27.9357C230.527 28.3763 230.623 28.8759 230.623 29.4345C230.623 30.0241 230.508 30.5516 230.278 31.0171C230.049 31.4826 229.717 31.8767 229.282 32.1994C228.848 32.5221 228.33 32.7673 227.727 32.9348C227.125 33.1024 226.452 33.1862 225.707 33.1862C225.037 33.1862 224.376 33.0993 223.724 32.9255C223.073 32.7455 222.48 32.4756 221.946 32.1156C221.419 31.7556 220.997 31.2964 220.68 30.7378C220.364 30.1792 220.205 29.5183 220.205 28.7549H223.008C223.008 29.1769 223.073 29.5338 223.203 29.8255C223.333 30.1172 223.517 30.353 223.752 30.533C223.994 30.713 224.28 30.8433 224.609 30.924C224.944 31.0047 225.31 31.045 225.707 31.045C226.191 31.045 226.589 30.9768 226.899 30.8402C227.215 30.7037 227.448 30.5144 227.597 30.2723C227.752 30.0303 227.83 29.7572 227.83 29.4531ZM240.76 28.5036H243.544C243.488 29.4159 243.237 30.2258 242.79 30.9333C242.349 31.6408 241.732 32.1932 240.937 32.5904C240.149 32.9876 239.199 33.1862 238.088 33.1862C237.22 33.1862 236.441 33.0372 235.752 32.7393C235.063 32.4352 234.473 32.0008 233.983 31.436C233.499 30.8712 233.13 30.1886 232.875 29.3879C232.621 28.5873 232.494 27.6905 232.494 26.6975V25.7573C232.494 24.7643 232.624 23.8675 232.885 23.0669C233.151 22.26 233.53 21.5742 234.02 21.0095C234.517 20.4447 235.109 20.0103 235.798 19.7062C236.487 19.4021 237.257 19.25 238.107 19.25C239.237 19.25 240.189 19.4548 240.965 19.8644C241.747 20.274 242.352 20.8388 242.78 21.5587C243.215 22.2787 243.476 23.0979 243.562 24.0164H240.77C240.739 23.4703 240.63 23.0079 240.444 22.6293C240.258 22.2445 239.975 21.9559 239.597 21.7635C239.224 21.5649 238.728 21.4656 238.107 21.4656C237.642 21.4656 237.235 21.5525 236.888 21.7263C236.54 21.9001 236.248 22.1638 236.012 22.5176C235.777 22.8714 235.6 23.3182 235.482 23.8582C235.37 24.3919 235.314 25.0187 235.314 25.7387V26.6975C235.314 27.3988 235.367 28.0164 235.473 28.5501C235.578 29.0776 235.739 29.5245 235.957 29.8907C236.18 30.2506 236.466 30.5237 236.813 30.7099C237.167 30.8899 237.592 30.9799 238.088 30.9799C238.672 30.9799 239.153 30.8868 239.531 30.7006C239.91 30.5144 240.199 30.2382 240.397 29.872C240.602 29.5059 240.723 29.0497 240.76 28.5036ZM253.244 19.4455H256.027V28.4012C256.027 29.4438 255.804 30.322 255.357 31.0357C254.916 31.7494 254.305 32.2863 253.523 32.6462C252.747 33.0062 251.854 33.1862 250.842 33.1862C249.83 33.1862 248.93 33.0062 248.142 32.6462C247.36 32.2863 246.746 31.7494 246.299 31.0357C245.858 30.322 245.638 29.4438 245.638 28.4012V19.4455H248.431V28.4012C248.431 29.0094 248.527 29.5059 248.719 29.8907C248.912 30.2754 249.188 30.5578 249.548 30.7378C249.914 30.9178 250.346 31.0078 250.842 31.0078C251.351 31.0078 251.782 30.9178 252.136 30.7378C252.496 30.5578 252.769 30.2754 252.955 29.8907C253.148 29.5059 253.244 29.0094 253.244 28.4012V19.4455ZM267.803 30.8216V33H260.589V30.8216H267.803ZM261.501 19.4455V33H258.708V19.4455H261.501ZM266.863 24.966V27.0885H260.589V24.966H266.863ZM267.794 19.4455V21.6332H260.589V19.4455H267.794ZM280.846 19.4455V33H278.053L272.607 23.914V33H269.814V19.4455H272.607L278.062 28.5408V19.4455H280.846ZM289.438 19.4455V33H286.654V19.4455H289.438ZM293.608 19.4455V21.6332H282.549V19.4455H293.608ZM306.455 25.9062V26.5486C306.455 27.5788 306.315 28.5036 306.036 29.3228C305.757 30.142 305.363 30.8402 304.854 31.4174C304.345 31.9884 303.737 32.4259 303.029 32.73C302.328 33.0341 301.549 33.1862 300.692 33.1862C299.842 33.1862 299.063 33.0341 298.356 32.73C297.654 32.4259 297.046 31.9884 296.531 31.4174C296.016 30.8402 295.616 30.142 295.33 29.3228C295.051 28.5036 294.911 27.5788 294.911 26.5486V25.9062C294.911 24.8698 295.051 23.945 295.33 23.132C295.61 22.3128 296.004 21.6146 296.513 21.0374C297.028 20.4602 297.636 20.0196 298.337 19.7155C299.045 19.4114 299.824 19.2593 300.674 19.2593C301.53 19.2593 302.309 19.4114 303.01 19.7155C303.718 20.0196 304.326 20.4602 304.835 21.0374C305.35 21.6146 305.747 22.3128 306.027 23.132C306.312 23.945 306.455 24.8698 306.455 25.9062ZM303.634 26.5486V25.8876C303.634 25.1677 303.569 24.5346 303.439 23.9885C303.308 23.4423 303.116 22.9831 302.862 22.6107C302.607 22.2383 302.297 21.959 301.931 21.7728C301.564 21.5805 301.146 21.4843 300.674 21.4843C300.202 21.4843 299.783 21.5805 299.417 21.7728C299.057 21.959 298.75 22.2383 298.495 22.6107C298.247 22.9831 298.058 23.4423 297.928 23.9885C297.797 24.5346 297.732 25.1677 297.732 25.8876V26.5486C297.732 27.2623 297.797 27.8953 297.928 28.4477C298.058 28.9938 298.25 29.4562 298.505 29.8348C298.759 30.2072 299.07 30.4896 299.436 30.682C299.802 30.8744 300.221 30.9705 300.692 30.9705C301.164 30.9705 301.583 30.8744 301.949 30.682C302.315 30.4896 302.623 30.2072 302.871 29.8348C303.119 29.4562 303.308 28.9938 303.439 28.4477C303.569 27.8953 303.634 27.2623 303.634 26.5486ZM315.904 29.4531C315.904 29.2111 315.866 28.9938 315.792 28.8015C315.724 28.6029 315.593 28.4229 315.401 28.2615C315.209 28.0939 314.939 27.9295 314.591 27.7681C314.243 27.6067 313.793 27.4392 313.241 27.2654C312.627 27.0668 312.043 26.8434 311.491 26.5951C310.945 26.3469 310.461 26.0583 310.039 25.7293C309.623 25.3942 309.294 25.0063 309.052 24.5657C308.816 24.125 308.698 23.613 308.698 23.0296C308.698 22.4648 308.822 21.9528 309.071 21.4936C309.319 21.0281 309.666 20.6309 310.113 20.302C310.56 19.9668 311.088 19.7093 311.696 19.5293C312.31 19.3493 312.984 19.2593 313.716 19.2593C314.715 19.2593 315.587 19.4393 316.332 19.7993C317.077 20.1592 317.654 20.6526 318.063 21.2794C318.479 21.9063 318.687 22.6231 318.687 23.4299H315.913C315.913 23.0327 315.829 22.6852 315.662 22.3873C315.5 22.0832 315.252 21.8442 314.917 21.6704C314.588 21.4967 314.172 21.4098 313.669 21.4098C313.185 21.4098 312.782 21.4843 312.459 21.6332C312.136 21.776 311.894 21.9714 311.733 22.2197C311.572 22.4617 311.491 22.7348 311.491 23.0389C311.491 23.2686 311.547 23.4765 311.659 23.6627C311.776 23.8488 311.95 24.0226 312.18 24.184C312.409 24.3453 312.692 24.4974 313.027 24.6401C313.362 24.7829 313.75 24.9225 314.191 25.0591C314.929 25.2825 315.578 25.5339 316.136 25.8131C316.701 26.0924 317.173 26.4058 317.551 26.7534C317.93 27.1009 318.215 27.495 318.408 27.9357C318.6 28.3763 318.696 28.8759 318.696 29.4345C318.696 30.0241 318.582 30.5516 318.352 31.0171C318.122 31.4826 317.79 31.8767 317.356 32.1994C316.921 32.5221 316.403 32.7673 315.801 32.9348C315.199 33.1024 314.526 33.1862 313.781 33.1862C313.111 33.1862 312.45 33.0993 311.798 32.9255C311.147 32.7455 310.554 32.4756 310.02 32.1156C309.493 31.7556 309.071 31.2964 308.754 30.7378C308.437 30.1792 308.279 29.5183 308.279 28.7549H311.081C311.081 29.1769 311.147 29.5338 311.277 29.8255C311.407 30.1172 311.59 30.353 311.826 30.533C312.068 30.713 312.354 30.8433 312.683 30.924C313.018 31.0047 313.384 31.045 313.781 31.045C314.265 31.045 314.662 30.9768 314.973 30.8402C315.289 30.7037 315.522 30.5144 315.671 30.2723C315.826 30.0303 315.904 29.7572 315.904 29.4531ZM330.267 33H327.316L327.335 30.8216H330.267C331 30.8216 331.617 30.6571 332.12 30.3282C332.623 29.9931 333.001 29.5059 333.256 28.8666C333.516 28.2274 333.647 27.4547 333.647 26.5486V25.8876C333.647 25.1925 333.572 24.5812 333.423 24.0537C333.28 23.5261 333.066 23.0824 332.781 22.7224C332.495 22.3624 332.145 22.0925 331.729 21.9125C331.313 21.7263 330.835 21.6332 330.295 21.6332H327.26V19.4455H330.295C331.201 19.4455 332.03 19.6007 332.781 19.911C333.538 20.2151 334.193 20.6526 334.745 21.2236C335.297 21.7946 335.723 22.4773 336.021 23.2717C336.325 24.0599 336.477 24.938 336.477 25.9062V26.5486C336.477 27.5105 336.325 28.3887 336.021 29.1831C335.723 29.9775 335.297 30.6602 334.745 31.2312C334.199 31.796 333.544 32.2335 332.781 32.5438C332.024 32.8479 331.186 33 330.267 33ZM328.899 19.4455V33H326.106V19.4455H328.899ZM347.983 30.8216V33H340.768V30.8216H347.983ZM341.68 19.4455V33H338.887V19.4455H341.68ZM347.043 24.966V27.0885H340.768V24.966H347.043ZM347.973 19.4455V21.6332H340.768V19.4455H347.973ZM358.707 30.8216V33H351.883V30.8216H358.707ZM352.786 19.4455V33H349.993V19.4455H352.786Z" fill="#34D399"/>
<path d="M338.427 241.906V242.549C338.427 243.579 338.287 244.504 338.008 245.323C337.729 246.142 337.334 246.84 336.826 247.417C336.317 247.988 335.708 248.426 335.001 248.73C334.3 249.034 333.521 249.186 332.664 249.186C331.814 249.186 331.035 249.034 330.328 248.73C329.626 248.426 329.018 247.988 328.503 247.417C327.988 246.84 327.587 246.142 327.302 245.323C327.023 244.504 326.883 243.579 326.883 242.549V241.906C326.883 240.87 327.023 239.945 327.302 239.132C327.581 238.313 327.975 237.615 328.484 237.037C328.999 236.46 329.608 236.02 330.309 235.715C331.016 235.411 331.795 235.259 332.646 235.259C333.502 235.259 334.281 235.411 334.982 235.715C335.69 236.02 336.298 236.46 336.807 237.037C337.322 237.615 337.719 238.313 337.999 239.132C338.284 239.945 338.427 240.87 338.427 241.906ZM335.606 242.549V241.888C335.606 241.168 335.541 240.535 335.41 239.988C335.28 239.442 335.088 238.983 334.833 238.611C334.579 238.238 334.269 237.959 333.902 237.773C333.536 237.58 333.117 237.484 332.646 237.484C332.174 237.484 331.755 237.58 331.389 237.773C331.029 237.959 330.722 238.238 330.467 238.611C330.219 238.983 330.03 239.442 329.899 239.988C329.769 240.535 329.704 241.168 329.704 241.888V242.549C329.704 243.262 329.769 243.895 329.899 244.448C330.03 244.994 330.222 245.456 330.477 245.835C330.731 246.207 331.041 246.49 331.407 246.682C331.774 246.874 332.193 246.971 332.664 246.971C333.136 246.971 333.555 246.874 333.921 246.682C334.287 246.49 334.594 246.207 334.843 245.835C335.091 245.456 335.28 244.994 335.41 244.448C335.541 243.895 335.606 243.262 335.606 242.549ZM343.612 235.445V249H340.819V235.445H343.612ZM349.011 241.236V243.414H342.848V241.236H349.011ZM349.663 235.445V237.633H342.848V235.445H349.663ZM354.457 235.445V249H351.664V235.445H354.457ZM359.856 241.236V243.414H353.693V241.236H359.856ZM360.508 235.445V237.633H353.693V235.445H360.508Z" fill="#34D399"/>
<path d="M63.5439 310.629L43.9884 305.953L51.0454 243.205H120.595V263.016H71.196L68.1352 290.478C69.779 289.515 72.273 288.495 75.6173 287.418C78.9615 286.284 82.7026 285.717 86.8404 285.717C92.8488 285.717 98.1769 286.652 102.825 288.523C107.473 290.393 111.412 293.114 114.643 296.685C117.931 300.256 120.425 304.621 122.125 309.779C123.826 314.937 124.676 320.775 124.676 327.294C124.676 332.792 123.826 338.035 122.125 343.023C120.425 347.955 117.846 352.376 114.388 356.287C110.931 360.141 106.594 363.174 101.38 365.385C96.1647 367.595 89.9863 368.7 82.8443 368.7C77.5161 368.7 72.358 367.907 67.3699 366.32C62.4386 364.733 57.989 362.38 54.0212 359.263C50.1101 356.145 46.9642 352.376 44.5835 347.955C42.2596 343.477 41.0409 338.375 40.9275 332.65H65.2443C65.5844 336.165 66.4914 339.197 67.9651 341.748C69.4955 344.242 71.5078 346.169 74.0018 347.53C76.4958 348.89 79.415 349.57 82.7593 349.57C85.8768 349.57 88.5409 348.975 90.7515 347.785C92.9621 346.594 94.7476 344.95 96.108 342.853C97.4684 340.699 98.4604 338.205 99.0839 335.371C99.7641 332.48 100.104 329.363 100.104 326.018C100.104 322.674 99.7074 319.642 98.9138 316.921C98.1203 314.2 96.9016 311.848 95.2578 309.864C93.614 307.88 91.5167 306.35 88.966 305.273C86.472 304.196 83.5528 303.657 80.2086 303.657C75.6739 303.657 72.1596 304.366 69.6656 305.783C67.2282 307.2 65.1877 308.815 63.5439 310.629ZM223.814 294.22V315.646C223.814 324.942 222.822 332.962 220.838 339.707C218.854 346.396 215.992 351.894 212.251 356.202C208.566 360.453 204.173 363.599 199.072 365.64C193.971 367.68 188.302 368.7 182.067 368.7C177.079 368.7 172.431 368.077 168.123 366.83C163.815 365.526 159.933 363.514 156.475 360.793C153.074 358.072 150.127 354.643 147.633 350.505C145.195 346.311 143.325 341.323 142.021 335.541C140.717 329.76 140.065 323.128 140.065 315.646V294.22C140.065 284.924 141.057 276.96 143.041 270.328C145.082 263.639 147.944 258.169 151.629 253.918C155.37 249.667 159.791 246.549 164.892 244.566C169.994 242.525 175.662 241.505 181.897 241.505C186.885 241.505 191.505 242.157 195.756 243.46C200.064 244.707 203.947 246.663 207.404 249.327C210.862 251.991 213.809 255.42 216.247 259.615C218.684 263.753 220.555 268.712 221.858 274.494C223.162 280.219 223.814 286.794 223.814 294.22ZM199.242 318.876V290.904C199.242 286.426 198.987 282.515 198.477 279.17C198.023 275.826 197.315 272.992 196.351 270.668C195.388 268.287 194.197 266.36 192.78 264.886C191.363 263.413 189.748 262.336 187.934 261.655C186.12 260.975 184.108 260.635 181.897 260.635C179.12 260.635 176.654 261.174 174.5 262.251C172.403 263.328 170.617 265.056 169.144 267.437C167.67 269.761 166.536 272.879 165.743 276.79C165.006 280.644 164.637 285.349 164.637 290.904V318.876C164.637 323.354 164.864 327.294 165.317 330.695C165.828 334.096 166.565 337.015 167.528 339.452C168.548 341.833 169.739 343.788 171.099 345.319C172.516 346.793 174.132 347.87 175.945 348.55C177.816 349.23 179.857 349.57 182.067 349.57C184.788 349.57 187.197 349.032 189.294 347.955C191.448 346.821 193.262 345.064 194.736 342.683C196.266 340.246 197.4 337.072 198.137 333.16C198.874 329.249 199.242 324.488 199.242 318.876ZM240.139 273.559V267.012C240.139 262.307 241.159 258.028 243.199 254.173C245.24 250.319 248.244 247.23 252.212 244.906C256.18 242.582 261.054 241.42 266.836 241.42C272.788 241.42 277.747 242.582 281.715 244.906C285.74 247.23 288.744 250.319 290.728 254.173C292.768 258.028 293.789 262.307 293.789 267.012V273.559C293.789 278.15 292.768 282.373 290.728 286.227C288.744 290.082 285.768 293.171 281.8 295.495C277.832 297.819 272.901 298.981 267.006 298.981C261.168 298.981 256.236 297.819 252.212 295.495C248.244 293.171 245.24 290.082 243.199 286.227C241.159 282.373 240.139 278.15 240.139 273.559ZM256.378 267.012V273.559C256.378 275.543 256.747 277.441 257.483 279.255C258.277 281.012 259.467 282.458 261.054 283.592C262.698 284.669 264.682 285.207 267.006 285.207C269.443 285.207 271.427 284.669 272.958 283.592C274.488 282.458 275.622 281.012 276.359 279.255C277.096 277.441 277.464 275.543 277.464 273.559V267.012C277.464 264.915 277.067 262.987 276.274 261.23C275.537 259.416 274.375 257.971 272.788 256.894C271.257 255.76 269.273 255.194 266.836 255.194C264.569 255.194 262.642 255.76 261.054 256.894C259.467 257.971 258.277 259.416 257.483 261.23C256.747 262.987 256.378 264.915 256.378 267.012ZM299.315 343.193V336.646C299.315 331.998 300.335 327.747 302.376 323.893C304.473 320.038 307.506 316.949 311.474 314.625C315.498 312.301 320.429 311.139 326.268 311.139C332.163 311.139 337.094 312.301 341.062 314.625C345.03 316.949 348.034 320.038 350.074 323.893C352.115 327.747 353.135 331.998 353.135 336.646V343.193C353.135 347.841 352.115 352.092 350.074 355.947C348.091 359.801 345.115 362.891 341.147 365.214C337.179 367.538 332.276 368.7 326.438 368.7C320.543 368.7 315.583 367.538 311.559 365.214C307.534 362.891 304.473 359.801 302.376 355.947C300.335 352.092 299.315 347.841 299.315 343.193ZM315.64 336.646V343.193C315.64 345.234 316.093 347.161 317 348.975C317.907 350.789 319.154 352.234 320.741 353.311C322.385 354.388 324.284 354.927 326.438 354.927C329.159 354.927 331.284 354.388 332.815 353.311C334.345 352.234 335.394 350.789 335.96 348.975C336.584 347.161 336.896 345.234 336.896 343.193V336.646C336.896 334.606 336.499 332.707 335.705 330.95C334.912 329.136 333.722 327.691 332.134 326.614C330.604 325.48 328.648 324.913 326.268 324.913C323.887 324.913 321.903 325.48 320.316 326.614C318.786 327.691 317.624 329.136 316.83 330.95C316.037 332.707 315.64 334.606 315.64 336.646ZM332.304 260.89L271.852 357.647L259.949 351.356L320.401 254.598L332.304 260.89Z" fill="#34D399"/>
<circle opacity="0.4" cx="149.5" cy="480" r="8" fill="white"/>
<circle cx="180.5" cy="480" r="8" fill="white"/>
<circle opacity="0.4" cx="211.5" cy="480" r="8" fill="white"/>
<circle opacity="0.4" cx="242.5" cy="480" r="8" fill="white"/>
</g>
<rect x="2" y="2" width="388" height="508" rx="22" stroke="#14B881" stroke-width="4"/>
<defs>
<clipPath id="clip0_587_4187">
<rect width="392" height="512" rx="24" fill="white"/>
</clipPath>
</defs>
</svg>
