<svg width="1536" height="512" viewBox="0 0 1536 512" fill="none" xmlns="http://www.w3.org/2000/svg">
<g clip-path="url(#clip0_509_12750)">
<rect width="1536" height="512" rx="24" fill="#4F48E5"/>
<path d="M72.7969 116H68.0469L68.0781 113.547H72.7969C74.4219 113.547 75.776 113.208 76.8594 112.531C77.9427 111.844 78.7552 110.885 79.2969 109.656C79.849 108.417 80.125 106.969 80.125 105.312V103.922C80.125 102.62 79.9688 101.464 79.6562 100.453C79.3438 99.4323 78.8854 98.5729 78.2812 97.875C77.6771 97.1667 76.9375 96.6302 76.0625 96.2656C75.1979 95.901 74.2031 95.7188 73.0781 95.7188H67.9531V93.25H73.0781C74.5677 93.25 75.9271 93.5 77.1562 94C78.3854 94.4896 79.4427 95.2031 80.3281 96.1406C81.224 97.0677 81.9115 98.1927 82.3906 99.5156C82.8698 100.828 83.1094 102.307 83.1094 103.953V105.312C83.1094 106.958 82.8698 108.443 82.3906 109.766C81.9115 111.078 81.2188 112.198 80.3125 113.125C79.4167 114.052 78.3333 114.766 77.0625 115.266C75.8021 115.755 74.3802 116 72.7969 116ZM69.6562 93.25V116H66.6406V93.25H69.6562ZM94.2188 116.312C93.0417 116.312 91.974 116.115 91.0156 115.719C90.0677 115.312 89.25 114.745 88.5625 114.016C87.8854 113.286 87.3646 112.422 87 111.422C86.6354 110.422 86.4531 109.328 86.4531 108.141V107.484C86.4531 106.109 86.6562 104.885 87.0625 103.812C87.4688 102.729 88.0208 101.812 88.7188 101.062C89.4167 100.312 90.2083 99.7448 91.0938 99.3594C91.9792 98.974 92.8958 98.7812 93.8438 98.7812C95.0521 98.7812 96.0938 98.9896 96.9688 99.4062C97.8542 99.8229 98.5781 100.406 99.1406 101.156C99.7031 101.896 100.12 102.771 100.391 103.781C100.661 104.781 100.797 105.875 100.797 107.062V108.359H88.1719V106H97.9062V105.781C97.8646 105.031 97.7083 104.302 97.4375 103.594C97.1771 102.885 96.7604 102.302 96.1875 101.844C95.6146 101.385 94.8333 101.156 93.8438 101.156C93.1875 101.156 92.5833 101.297 92.0312 101.578C91.4792 101.849 91.0052 102.255 90.6094 102.797C90.2135 103.339 89.9062 104 89.6875 104.781C89.4688 105.562 89.3594 106.464 89.3594 107.484V108.141C89.3594 108.943 89.4688 109.698 89.6875 110.406C89.9167 111.104 90.2448 111.719 90.6719 112.25C91.1094 112.781 91.6354 113.198 92.25 113.5C92.875 113.802 93.5833 113.953 94.375 113.953C95.3958 113.953 96.2604 113.745 96.9688 113.328C97.6771 112.911 98.2969 112.354 98.8281 111.656L100.578 113.047C100.214 113.599 99.75 114.125 99.1875 114.625C98.625 115.125 97.9323 115.531 97.1094 115.844C96.2969 116.156 95.3333 116.312 94.2188 116.312ZM114.016 111.516C114.016 111.099 113.922 110.714 113.734 110.359C113.557 109.995 113.188 109.667 112.625 109.375C112.073 109.073 111.24 108.812 110.125 108.594C109.188 108.396 108.339 108.161 107.578 107.891C106.828 107.62 106.188 107.292 105.656 106.906C105.135 106.521 104.734 106.068 104.453 105.547C104.172 105.026 104.031 104.417 104.031 103.719C104.031 103.052 104.177 102.422 104.469 101.828C104.771 101.234 105.193 100.708 105.734 100.25C106.286 99.7917 106.948 99.4323 107.719 99.1719C108.49 98.9115 109.349 98.7812 110.297 98.7812C111.651 98.7812 112.807 99.0208 113.766 99.5C114.724 99.9792 115.458 100.62 115.969 101.422C116.479 102.214 116.734 103.094 116.734 104.062H113.844C113.844 103.594 113.703 103.141 113.422 102.703C113.151 102.255 112.75 101.885 112.219 101.594C111.698 101.302 111.057 101.156 110.297 101.156C109.495 101.156 108.844 101.281 108.344 101.531C107.854 101.771 107.495 102.078 107.266 102.453C107.047 102.828 106.938 103.224 106.938 103.641C106.938 103.953 106.99 104.234 107.094 104.484C107.208 104.724 107.406 104.948 107.688 105.156C107.969 105.354 108.365 105.542 108.875 105.719C109.385 105.896 110.036 106.073 110.828 106.25C112.214 106.562 113.354 106.938 114.25 107.375C115.146 107.812 115.812 108.349 116.25 108.984C116.688 109.62 116.906 110.391 116.906 111.297C116.906 112.036 116.75 112.714 116.438 113.328C116.135 113.943 115.693 114.474 115.109 114.922C114.536 115.359 113.849 115.703 113.047 115.953C112.255 116.193 111.365 116.312 110.375 116.312C108.885 116.312 107.625 116.047 106.594 115.516C105.562 114.984 104.781 114.297 104.25 113.453C103.719 112.609 103.453 111.719 103.453 110.781H106.359C106.401 111.573 106.63 112.203 107.047 112.672C107.464 113.13 107.974 113.458 108.578 113.656C109.182 113.844 109.781 113.938 110.375 113.938C111.167 113.938 111.828 113.833 112.359 113.625C112.901 113.417 113.312 113.13 113.594 112.766C113.875 112.401 114.016 111.984 114.016 111.516ZM127.469 113.938C128.156 113.938 128.792 113.797 129.375 113.516C129.958 113.234 130.438 112.849 130.812 112.359C131.188 111.859 131.401 111.292 131.453 110.656H134.203C134.151 111.656 133.812 112.589 133.188 113.453C132.573 114.307 131.766 115 130.766 115.531C129.766 116.052 128.667 116.312 127.469 116.312C126.198 116.312 125.089 116.089 124.141 115.641C123.203 115.193 122.422 114.578 121.797 113.797C121.182 113.016 120.719 112.12 120.406 111.109C120.104 110.089 119.953 109.01 119.953 107.875V107.219C119.953 106.083 120.104 105.01 120.406 104C120.719 102.979 121.182 102.078 121.797 101.297C122.422 100.516 123.203 99.901 124.141 99.4531C125.089 99.0052 126.198 98.7812 127.469 98.7812C128.792 98.7812 129.948 99.0521 130.938 99.5938C131.927 100.125 132.703 100.854 133.266 101.781C133.839 102.698 134.151 103.74 134.203 104.906H131.453C131.401 104.208 131.203 103.578 130.859 103.016C130.526 102.453 130.068 102.005 129.484 101.672C128.911 101.328 128.24 101.156 127.469 101.156C126.583 101.156 125.839 101.333 125.234 101.688C124.641 102.031 124.167 102.5 123.812 103.094C123.469 103.677 123.219 104.328 123.062 105.047C122.917 105.755 122.844 106.479 122.844 107.219V107.875C122.844 108.615 122.917 109.344 123.062 110.062C123.208 110.781 123.453 111.432 123.797 112.016C124.151 112.599 124.625 113.068 125.219 113.422C125.823 113.766 126.573 113.938 127.469 113.938ZM147.797 112.094V99.0938H150.703V116H147.938L147.797 112.094ZM148.344 108.531L149.547 108.5C149.547 109.625 149.427 110.667 149.188 111.625C148.958 112.573 148.583 113.396 148.062 114.094C147.542 114.792 146.859 115.339 146.016 115.734C145.172 116.12 144.146 116.312 142.938 116.312C142.115 116.312 141.359 116.193 140.672 115.953C139.995 115.714 139.411 115.344 138.922 114.844C138.432 114.344 138.052 113.693 137.781 112.891C137.521 112.089 137.391 111.125 137.391 110V99.0938H140.281V110.031C140.281 110.792 140.365 111.422 140.531 111.922C140.708 112.411 140.943 112.802 141.234 113.094C141.536 113.375 141.87 113.573 142.234 113.688C142.609 113.802 142.995 113.859 143.391 113.859C144.62 113.859 145.594 113.625 146.312 113.156C147.031 112.677 147.547 112.036 147.859 111.234C148.182 110.422 148.344 109.521 148.344 108.531ZM155.094 92H158V112.719L157.75 116H155.094V92ZM169.422 107.406V107.734C169.422 108.964 169.276 110.104 168.984 111.156C168.693 112.198 168.266 113.104 167.703 113.875C167.141 114.646 166.453 115.245 165.641 115.672C164.828 116.099 163.896 116.312 162.844 116.312C161.771 116.312 160.828 116.13 160.016 115.766C159.214 115.391 158.536 114.854 157.984 114.156C157.432 113.458 156.99 112.615 156.656 111.625C156.333 110.635 156.109 109.521 155.984 108.281V106.844C156.109 105.594 156.333 104.474 156.656 103.484C156.99 102.495 157.432 101.651 157.984 100.953C158.536 100.245 159.214 99.7083 160.016 99.3438C160.818 98.9688 161.75 98.7812 162.812 98.7812C163.875 98.7812 164.818 98.9896 165.641 99.4062C166.464 99.8125 167.151 100.396 167.703 101.156C168.266 101.917 168.693 102.828 168.984 103.891C169.276 104.943 169.422 106.115 169.422 107.406ZM166.516 107.734V107.406C166.516 106.562 166.438 105.771 166.281 105.031C166.125 104.281 165.875 103.625 165.531 103.062C165.188 102.49 164.734 102.042 164.172 101.719C163.609 101.385 162.917 101.219 162.094 101.219C161.365 101.219 160.729 101.344 160.188 101.594C159.656 101.844 159.203 102.182 158.828 102.609C158.453 103.026 158.146 103.505 157.906 104.047C157.677 104.578 157.505 105.13 157.391 105.703V109.469C157.557 110.198 157.828 110.901 158.203 111.578C158.589 112.245 159.099 112.792 159.734 113.219C160.38 113.646 161.177 113.859 162.125 113.859C162.906 113.859 163.573 113.703 164.125 113.391C164.688 113.068 165.141 112.625 165.484 112.062C165.839 111.5 166.099 110.849 166.266 110.109C166.432 109.37 166.516 108.578 166.516 107.734ZM175.969 101.75V116H173.078V99.0938H175.891L175.969 101.75ZM181.25 99L181.234 101.688C180.995 101.635 180.766 101.604 180.547 101.594C180.339 101.573 180.099 101.562 179.828 101.562C179.161 101.562 178.573 101.667 178.062 101.875C177.552 102.083 177.12 102.375 176.766 102.75C176.411 103.125 176.13 103.573 175.922 104.094C175.724 104.604 175.594 105.167 175.531 105.781L174.719 106.25C174.719 105.229 174.818 104.271 175.016 103.375C175.224 102.479 175.542 101.688 175.969 101C176.396 100.302 176.938 99.7604 177.594 99.375C178.26 98.9792 179.052 98.7812 179.969 98.7812C180.177 98.7812 180.417 98.8073 180.688 98.8594C180.958 98.901 181.146 98.9479 181.25 99ZM187.047 99.0938V116H184.156V99.0938H187.047ZM184.062 96.625L187.094 92.0312H190.578L186.391 96.625H184.062Z" fill="#34D399"/>
<path d="M106.201 212.576H83.7383V198.408H106.201C109.673 198.408 112.498 197.843 114.678 196.713C116.857 195.542 118.452 193.928 119.461 191.869C120.47 189.811 120.975 187.49 120.975 184.906C120.975 182.283 120.47 179.84 119.461 177.58C118.452 175.32 116.857 173.503 114.678 172.131C112.498 170.758 109.673 170.072 106.201 170.072H90.0352V244H71.8711V155.844H106.201C113.104 155.844 119.017 157.095 123.941 159.598C128.906 162.06 132.701 165.471 135.324 169.83C137.948 174.189 139.26 179.174 139.26 184.785C139.26 190.477 137.948 195.401 135.324 199.559C132.701 203.716 128.906 206.925 123.941 209.186C119.017 211.446 113.104 212.576 106.201 212.576ZM168.141 192.777V244H150.703V178.488H167.111L168.141 192.777ZM187.879 178.064L187.576 194.23C186.729 194.109 185.699 194.008 184.488 193.928C183.318 193.807 182.248 193.746 181.279 193.746C178.817 193.746 176.678 194.069 174.861 194.715C173.085 195.32 171.592 196.229 170.381 197.439C169.21 198.65 168.322 200.124 167.717 201.859C167.152 203.595 166.829 205.573 166.748 207.793L163.236 206.703C163.236 202.465 163.66 198.57 164.508 195.018C165.355 191.425 166.587 188.297 168.201 185.633C169.856 182.969 171.874 180.91 174.256 179.457C176.637 178.004 179.362 177.277 182.43 177.277C183.398 177.277 184.387 177.358 185.396 177.52C186.406 177.641 187.233 177.822 187.879 178.064ZM191.512 211.91V210.639C191.512 205.835 192.198 201.415 193.57 197.379C194.943 193.302 196.941 189.77 199.564 186.783C202.188 183.796 205.417 181.475 209.252 179.82C213.087 178.125 217.486 177.277 222.451 177.277C227.416 177.277 231.836 178.125 235.711 179.82C239.586 181.475 242.835 183.796 245.459 186.783C248.123 189.77 250.141 193.302 251.514 197.379C252.886 201.415 253.572 205.835 253.572 210.639V211.91C253.572 216.673 252.886 221.093 251.514 225.17C250.141 229.206 248.123 232.738 245.459 235.766C242.835 238.753 239.606 241.074 235.771 242.729C231.937 244.383 227.537 245.211 222.572 245.211C217.607 245.211 213.188 244.383 209.312 242.729C205.478 241.074 202.229 238.753 199.564 235.766C196.941 232.738 194.943 229.206 193.57 225.17C192.198 221.093 191.512 216.673 191.512 211.91ZM208.949 210.639V211.91C208.949 214.655 209.191 217.218 209.676 219.6C210.16 221.981 210.927 224.08 211.977 225.896C213.066 227.673 214.479 229.065 216.215 230.074C217.951 231.083 220.07 231.588 222.572 231.588C224.994 231.588 227.073 231.083 228.809 230.074C230.544 229.065 231.937 227.673 232.986 225.896C234.036 224.08 234.803 221.981 235.287 219.6C235.812 217.218 236.074 214.655 236.074 211.91V210.639C236.074 207.975 235.812 205.472 235.287 203.131C234.803 200.749 234.016 198.65 232.926 196.834C231.876 194.977 230.484 193.524 228.748 192.475C227.012 191.425 224.913 190.9 222.451 190.9C219.989 190.9 217.89 191.425 216.154 192.475C214.459 193.524 213.066 194.977 211.977 196.834C210.927 198.65 210.16 200.749 209.676 203.131C209.191 205.472 208.949 207.975 208.949 210.639ZM281.727 192.051V244H264.229V178.488H280.637L281.727 192.051ZM279.305 208.943H274.461C274.461 204.382 275.006 200.184 276.096 196.35C277.226 192.475 278.861 189.124 281 186.299C283.18 183.433 285.864 181.213 289.053 179.639C292.242 178.064 295.935 177.277 300.133 177.277C303.039 177.277 305.703 177.721 308.125 178.609C310.547 179.457 312.626 180.809 314.361 182.666C316.137 184.482 317.51 186.864 318.479 189.811C319.447 192.717 319.932 196.208 319.932 200.285V244H302.494V202.223C302.494 199.236 302.09 196.935 301.283 195.32C300.476 193.706 299.326 192.576 297.832 191.93C296.379 191.284 294.623 190.961 292.564 190.961C290.304 190.961 288.326 191.425 286.631 192.354C284.976 193.282 283.604 194.574 282.514 196.229C281.424 197.843 280.617 199.74 280.092 201.92C279.567 204.1 279.305 206.441 279.305 208.943ZM318.297 206.945L312.061 207.732C312.061 203.454 312.585 199.478 313.635 195.805C314.725 192.132 316.319 188.902 318.418 186.117C320.557 183.332 323.201 181.173 326.35 179.639C329.498 178.064 333.131 177.277 337.248 177.277C340.396 177.277 343.262 177.742 345.846 178.67C348.429 179.558 350.629 180.991 352.445 182.969C354.302 184.906 355.715 187.449 356.684 190.598C357.693 193.746 358.197 197.601 358.197 202.162V244H340.699V202.162C340.699 199.135 340.296 196.834 339.488 195.26C338.721 193.645 337.591 192.535 336.098 191.93C334.645 191.284 332.909 190.961 330.891 190.961C328.792 190.961 326.955 191.385 325.381 192.232C323.807 193.04 322.495 194.17 321.445 195.623C320.396 197.076 319.609 198.771 319.084 200.709C318.559 202.606 318.297 204.685 318.297 206.945ZM368.914 211.91V210.639C368.914 205.835 369.6 201.415 370.973 197.379C372.345 193.302 374.343 189.77 376.967 186.783C379.59 183.796 382.82 181.475 386.654 179.82C390.489 178.125 394.889 177.277 399.854 177.277C404.818 177.277 409.238 178.125 413.113 179.82C416.988 181.475 420.238 183.796 422.861 186.783C425.525 189.77 427.544 193.302 428.916 197.379C430.288 201.415 430.975 205.835 430.975 210.639V211.91C430.975 216.673 430.288 221.093 428.916 225.17C427.544 229.206 425.525 232.738 422.861 235.766C420.238 238.753 417.008 241.074 413.174 242.729C409.339 244.383 404.939 245.211 399.975 245.211C395.01 245.211 390.59 244.383 386.715 242.729C382.88 241.074 379.631 238.753 376.967 235.766C374.343 232.738 372.345 229.206 370.973 225.17C369.6 221.093 368.914 216.673 368.914 211.91ZM386.352 210.639V211.91C386.352 214.655 386.594 217.218 387.078 219.6C387.562 221.981 388.329 224.08 389.379 225.896C390.469 227.673 391.882 229.065 393.617 230.074C395.353 231.083 397.472 231.588 399.975 231.588C402.396 231.588 404.475 231.083 406.211 230.074C407.947 229.065 409.339 227.673 410.389 225.896C411.438 224.08 412.205 221.981 412.689 219.6C413.214 217.218 413.477 214.655 413.477 211.91V210.639C413.477 207.975 413.214 205.472 412.689 203.131C412.205 200.749 411.418 198.65 410.328 196.834C409.279 194.977 407.886 193.524 406.15 192.475C404.415 191.425 402.316 190.9 399.854 190.9C397.391 190.9 395.292 191.425 393.557 192.475C391.861 193.524 390.469 194.977 389.379 196.834C388.329 198.65 387.562 200.749 387.078 203.131C386.594 205.472 386.352 207.975 386.352 210.639ZM468.756 231.588C470.895 231.588 472.792 231.184 474.447 230.377C476.102 229.529 477.394 228.359 478.322 226.865C479.291 225.331 479.796 223.535 479.836 221.477H496.244C496.204 226.078 494.973 230.175 492.551 233.768C490.129 237.32 486.88 240.125 482.803 242.184C478.726 244.202 474.165 245.211 469.119 245.211C464.033 245.211 459.593 244.363 455.799 242.668C452.045 240.973 448.917 238.632 446.414 235.645C443.911 232.617 442.035 229.105 440.783 225.109C439.532 221.073 438.906 216.754 438.906 212.152V210.396C438.906 205.755 439.532 201.436 440.783 197.439C442.035 193.403 443.911 189.891 446.414 186.904C448.917 183.877 452.045 181.516 455.799 179.82C459.553 178.125 463.952 177.277 468.998 177.277C474.367 177.277 479.069 178.307 483.105 180.365C487.182 182.424 490.371 185.37 492.672 189.205C495.013 192.999 496.204 197.5 496.244 202.707H479.836C479.796 200.527 479.331 198.549 478.443 196.773C477.596 194.997 476.344 193.585 474.689 192.535C473.075 191.445 471.077 190.9 468.695 190.9C466.152 190.9 464.074 191.445 462.459 192.535C460.844 193.585 459.593 195.038 458.705 196.895C457.817 198.711 457.191 200.79 456.828 203.131C456.505 205.432 456.344 207.854 456.344 210.396V212.152C456.344 214.695 456.505 217.137 456.828 219.479C457.151 221.82 457.757 223.898 458.645 225.715C459.573 227.531 460.844 228.964 462.459 230.014C464.074 231.063 466.173 231.588 468.756 231.588ZM524.762 178.488V244H507.264V178.488H524.762ZM506.174 161.414C506.174 158.871 507.062 156.772 508.838 155.117C510.614 153.462 512.995 152.635 515.982 152.635C518.929 152.635 521.29 153.462 523.066 155.117C524.883 156.772 525.791 158.871 525.791 161.414C525.791 163.957 524.883 166.056 523.066 167.711C521.29 169.366 518.929 170.193 515.982 170.193C512.995 170.193 510.614 169.366 508.838 167.711C507.062 166.056 506.174 163.957 506.174 161.414ZM536.387 211.91V210.639C536.387 205.835 537.073 201.415 538.445 197.379C539.818 193.302 541.816 189.77 544.439 186.783C547.063 183.796 550.292 181.475 554.127 179.82C557.962 178.125 562.361 177.277 567.326 177.277C572.291 177.277 576.711 178.125 580.586 179.82C584.461 181.475 587.71 183.796 590.334 186.783C592.998 189.77 595.016 193.302 596.389 197.379C597.761 201.415 598.447 205.835 598.447 210.639V211.91C598.447 216.673 597.761 221.093 596.389 225.17C595.016 229.206 592.998 232.738 590.334 235.766C587.71 238.753 584.481 241.074 580.646 242.729C576.812 244.383 572.412 245.211 567.447 245.211C562.482 245.211 558.062 244.383 554.188 242.729C550.353 241.074 547.104 238.753 544.439 235.766C541.816 232.738 539.818 229.206 538.445 225.17C537.073 221.093 536.387 216.673 536.387 211.91ZM553.824 210.639V211.91C553.824 214.655 554.066 217.218 554.551 219.6C555.035 221.981 555.802 224.08 556.852 225.896C557.941 227.673 559.354 229.065 561.09 230.074C562.826 231.083 564.945 231.588 567.447 231.588C569.869 231.588 571.948 231.083 573.684 230.074C575.419 229.065 576.812 227.673 577.861 225.896C578.911 224.08 579.678 221.981 580.162 219.6C580.687 217.218 580.949 214.655 580.949 211.91V210.639C580.949 207.975 580.687 205.472 580.162 203.131C579.678 200.749 578.891 198.65 577.801 196.834C576.751 194.977 575.359 193.524 573.623 192.475C571.887 191.425 569.788 190.9 567.326 190.9C564.864 190.9 562.765 191.425 561.029 192.475C559.334 193.524 557.941 194.977 556.852 196.834C555.802 198.65 555.035 200.749 554.551 203.131C554.066 205.472 553.824 207.975 553.824 210.639ZM626.238 192.475V244H608.801V178.488H625.148L626.238 192.475ZM623.695 208.943H618.973C618.973 204.1 619.598 199.74 620.85 195.865C622.101 191.95 623.857 188.62 626.117 185.875C628.378 183.09 631.062 180.971 634.17 179.518C637.318 178.024 640.83 177.277 644.705 177.277C647.773 177.277 650.578 177.721 653.121 178.609C655.664 179.497 657.844 180.91 659.66 182.848C661.517 184.785 662.93 187.348 663.898 190.537C664.908 193.726 665.412 197.621 665.412 202.223V244H647.854V202.162C647.854 199.256 647.45 196.995 646.643 195.381C645.835 193.766 644.645 192.636 643.07 191.99C641.536 191.304 639.639 190.961 637.379 190.961C635.038 190.961 632.999 191.425 631.264 192.354C629.568 193.282 628.156 194.574 627.025 196.229C625.936 197.843 625.108 199.74 624.543 201.92C623.978 204.1 623.695 206.441 623.695 208.943ZM708.824 245.211C703.738 245.211 699.177 244.404 695.141 242.789C691.104 241.134 687.673 238.854 684.848 235.947C682.062 233.041 679.923 229.671 678.43 225.836C676.936 221.961 676.189 217.844 676.189 213.484V211.062C676.189 206.098 676.896 201.557 678.309 197.439C679.721 193.322 681.74 189.75 684.363 186.723C687.027 183.695 690.257 181.374 694.051 179.76C697.845 178.105 702.124 177.277 706.887 177.277C711.529 177.277 715.646 178.044 719.238 179.578C722.831 181.112 725.838 183.292 728.26 186.117C730.722 188.943 732.579 192.333 733.83 196.289C735.081 200.204 735.707 204.564 735.707 209.367V216.633H683.637V205.008H718.572V203.676C718.572 201.254 718.128 199.094 717.24 197.197C716.393 195.26 715.101 193.726 713.365 192.596C711.63 191.465 709.41 190.9 706.705 190.9C704.404 190.9 702.426 191.405 700.771 192.414C699.117 193.423 697.764 194.836 696.715 196.652C695.706 198.469 694.939 200.608 694.414 203.07C693.93 205.492 693.688 208.156 693.688 211.062V213.484C693.688 216.108 694.051 218.53 694.777 220.75C695.544 222.97 696.614 224.887 697.986 226.502C699.399 228.117 701.094 229.368 703.072 230.256C705.09 231.144 707.371 231.588 709.914 231.588C713.062 231.588 715.989 230.982 718.693 229.771C721.438 228.52 723.799 226.643 725.777 224.141L734.254 233.344C732.882 235.322 731.005 237.219 728.623 239.035C726.282 240.852 723.456 242.345 720.146 243.516C716.837 244.646 713.062 245.211 708.824 245.211ZM781.057 225.896C781.057 224.645 780.693 223.515 779.967 222.506C779.24 221.497 777.888 220.568 775.91 219.721C773.973 218.833 771.167 218.025 767.494 217.299C764.184 216.572 761.096 215.664 758.23 214.574C755.405 213.444 752.943 212.092 750.844 210.518C748.785 208.943 747.171 207.087 746 204.947C744.829 202.768 744.244 200.285 744.244 197.5C744.244 194.755 744.829 192.172 746 189.75C747.211 187.328 748.926 185.189 751.146 183.332C753.407 181.435 756.152 179.962 759.381 178.912C762.65 177.822 766.324 177.277 770.4 177.277C776.092 177.277 780.976 178.186 785.053 180.002C789.17 181.818 792.318 184.321 794.498 187.51C796.718 190.658 797.828 194.251 797.828 198.287H780.391C780.391 196.592 780.027 195.078 779.301 193.746C778.615 192.374 777.525 191.304 776.031 190.537C774.578 189.73 772.681 189.326 770.34 189.326C768.402 189.326 766.727 189.669 765.314 190.355C763.902 191.001 762.812 191.889 762.045 193.02C761.318 194.109 760.955 195.32 760.955 196.652C760.955 197.661 761.157 198.57 761.561 199.377C762.005 200.144 762.711 200.85 763.68 201.496C764.648 202.142 765.9 202.747 767.434 203.312C769.008 203.837 770.945 204.322 773.246 204.766C777.969 205.734 782.187 207.006 785.9 208.58C789.614 210.114 792.561 212.213 794.74 214.877C796.92 217.501 798.01 220.952 798.01 225.23C798.01 228.137 797.364 230.801 796.072 233.223C794.781 235.645 792.924 237.764 790.502 239.58C788.08 241.356 785.174 242.749 781.783 243.758C778.433 244.727 774.659 245.211 770.461 245.211C764.366 245.211 759.199 244.121 754.961 241.941C750.763 239.762 747.574 236.997 745.395 233.646C743.255 230.256 742.186 226.785 742.186 223.232H758.715C758.796 225.614 759.401 227.531 760.531 228.984C761.702 230.438 763.175 231.487 764.951 232.133C766.768 232.779 768.725 233.102 770.824 233.102C773.085 233.102 774.962 232.799 776.455 232.193C777.949 231.548 779.079 230.7 779.846 229.65C780.653 228.561 781.057 227.309 781.057 225.896Z" fill="#ECF0FE"/>
<path d="M88.2188 299.082V377.188H70.7812V286.488H86.9473L88.2188 299.082ZM129.693 318.518V319.789C129.693 324.552 129.128 328.972 127.998 333.049C126.908 337.126 125.294 340.678 123.154 343.705C121.015 346.692 118.351 349.033 115.162 350.729C112.014 352.383 108.381 353.211 104.264 353.211C100.268 353.211 96.7962 352.404 93.8496 350.789C90.903 349.174 88.4206 346.914 86.4023 344.008C84.4245 341.061 82.8301 337.65 81.6191 333.775C80.4082 329.9 79.4798 325.743 78.834 321.303V317.973C79.4798 313.21 80.4082 308.85 81.6191 304.895C82.8301 300.898 84.4245 297.447 86.4023 294.541C88.4206 291.594 90.8828 289.314 93.7891 287.699C96.7357 286.085 100.187 285.277 104.143 285.277C108.3 285.277 111.953 286.064 115.102 287.639C118.29 289.213 120.954 291.473 123.094 294.42C125.273 297.367 126.908 300.878 127.998 304.955C129.128 309.032 129.693 313.553 129.693 318.518ZM112.195 319.789V318.518C112.195 315.732 111.953 313.169 111.469 310.828C111.025 308.447 110.298 306.368 109.289 304.592C108.32 302.816 107.029 301.443 105.414 300.475C103.84 299.465 101.923 298.961 99.6621 298.961C97.2806 298.961 95.2422 299.344 93.5469 300.111C91.8919 300.878 90.5397 301.988 89.4902 303.441C88.4408 304.895 87.6536 306.63 87.1289 308.648C86.6042 310.667 86.2812 312.947 86.1602 315.49V323.906C86.362 326.893 86.9271 329.577 87.8555 331.959C88.7839 334.3 90.2168 336.157 92.1543 337.529C94.0918 338.902 96.6348 339.588 99.7832 339.588C102.084 339.588 104.021 339.083 105.596 338.074C107.17 337.025 108.441 335.592 109.41 333.775C110.419 331.959 111.126 329.86 111.529 327.479C111.973 325.097 112.195 322.534 112.195 319.789ZM137.746 319.91V318.639C137.746 313.835 138.432 309.415 139.805 305.379C141.177 301.302 143.175 297.77 145.799 294.783C148.423 291.796 151.652 289.475 155.486 287.82C159.321 286.125 163.721 285.277 168.686 285.277C173.65 285.277 178.07 286.125 181.945 287.82C185.82 289.475 189.07 291.796 191.693 294.783C194.357 297.77 196.376 301.302 197.748 305.379C199.12 309.415 199.807 313.835 199.807 318.639V319.91C199.807 324.673 199.12 329.093 197.748 333.17C196.376 337.206 194.357 340.738 191.693 343.766C189.07 346.753 185.84 349.074 182.006 350.729C178.171 352.383 173.771 353.211 168.807 353.211C163.842 353.211 159.422 352.383 155.547 350.729C151.712 349.074 148.463 346.753 145.799 343.766C143.175 340.738 141.177 337.206 139.805 333.17C138.432 329.093 137.746 324.673 137.746 319.91ZM155.184 318.639V319.91C155.184 322.655 155.426 325.218 155.91 327.6C156.395 329.981 157.161 332.08 158.211 333.896C159.301 335.673 160.714 337.065 162.449 338.074C164.185 339.083 166.304 339.588 168.807 339.588C171.229 339.588 173.307 339.083 175.043 338.074C176.779 337.065 178.171 335.673 179.221 333.896C180.27 332.08 181.037 329.981 181.521 327.6C182.046 325.218 182.309 322.655 182.309 319.91V318.639C182.309 315.975 182.046 313.472 181.521 311.131C181.037 308.749 180.25 306.65 179.16 304.834C178.111 302.977 176.718 301.524 174.982 300.475C173.247 299.425 171.148 298.9 168.686 298.9C166.223 298.9 164.124 299.425 162.389 300.475C160.693 301.524 159.301 302.977 158.211 304.834C157.161 306.65 156.395 308.749 155.91 311.131C155.426 313.472 155.184 315.975 155.184 318.639ZM227.961 300.777V352H210.523V286.488H226.932L227.961 300.777ZM247.699 286.064L247.396 302.23C246.549 302.109 245.52 302.008 244.309 301.928C243.138 301.807 242.068 301.746 241.1 301.746C238.637 301.746 236.498 302.069 234.682 302.715C232.906 303.32 231.412 304.229 230.201 305.439C229.031 306.65 228.143 308.124 227.537 309.859C226.972 311.595 226.649 313.573 226.568 315.793L223.057 314.703C223.057 310.465 223.48 306.57 224.328 303.018C225.176 299.425 226.407 296.297 228.021 293.633C229.676 290.969 231.695 288.91 234.076 287.457C236.458 286.004 239.182 285.277 242.25 285.277C243.219 285.277 244.208 285.358 245.217 285.52C246.226 285.641 247.053 285.822 247.699 286.064ZM286.812 259H304.25V336.984L302.494 352H286.812V259ZM345.725 318.578V319.85C345.725 324.734 345.2 329.214 344.15 333.291C343.141 337.368 341.567 340.9 339.428 343.887C337.288 346.833 334.624 349.134 331.436 350.789C328.287 352.404 324.574 353.211 320.295 353.211C316.299 353.211 312.827 352.404 309.881 350.789C306.975 349.174 304.533 346.894 302.555 343.947C300.577 341.001 298.982 337.549 297.771 333.594C296.561 329.638 295.652 325.319 295.047 320.637V317.852C295.652 313.169 296.561 308.85 297.771 304.895C298.982 300.939 300.577 297.488 302.555 294.541C304.533 291.594 306.975 289.314 309.881 287.699C312.787 286.085 316.218 285.277 320.174 285.277C324.493 285.277 328.247 286.105 331.436 287.76C334.665 289.374 337.329 291.675 339.428 294.662C341.567 297.609 343.141 301.12 344.15 305.197C345.2 309.234 345.725 313.694 345.725 318.578ZM328.287 319.85V318.578C328.287 315.914 328.085 313.411 327.682 311.07C327.318 308.689 326.673 306.61 325.744 304.834C324.816 303.018 323.544 301.585 321.93 300.535C320.355 299.486 318.317 298.961 315.814 298.961C313.433 298.961 311.415 299.365 309.76 300.172C308.105 300.979 306.732 302.109 305.643 303.562C304.593 305.016 303.806 306.751 303.281 308.77C302.757 310.747 302.434 312.927 302.312 315.309V323.24C302.434 326.429 302.958 329.255 303.887 331.717C304.855 334.139 306.309 336.056 308.246 337.469C310.224 338.841 312.787 339.527 315.936 339.527C318.398 339.527 320.436 339.043 322.051 338.074C323.665 337.105 324.917 335.733 325.805 333.957C326.733 332.181 327.379 330.102 327.742 327.721C328.105 325.299 328.287 322.675 328.287 319.85ZM391.922 337.227V308.043C391.922 305.944 391.579 304.148 390.893 302.654C390.206 301.12 389.137 299.93 387.684 299.082C386.271 298.234 384.434 297.811 382.174 297.811C380.236 297.811 378.561 298.154 377.148 298.84C375.736 299.486 374.646 300.434 373.879 301.686C373.112 302.896 372.729 304.329 372.729 305.984H355.291C355.291 303.199 355.937 300.555 357.229 298.053C358.52 295.55 360.397 293.35 362.859 291.453C365.322 289.516 368.248 288.002 371.639 286.912C375.07 285.822 378.904 285.277 383.143 285.277C388.229 285.277 392.749 286.125 396.705 287.82C400.661 289.516 403.769 292.059 406.029 295.449C408.33 298.84 409.48 303.078 409.48 308.164V336.197C409.48 339.79 409.702 342.736 410.146 345.037C410.59 347.298 411.236 349.275 412.084 350.971V352H394.465C393.617 350.224 392.971 348.004 392.527 345.34C392.124 342.635 391.922 339.931 391.922 337.227ZM394.223 312.1L394.344 321.969H384.596C382.295 321.969 380.297 322.231 378.602 322.756C376.906 323.281 375.514 324.027 374.424 324.996C373.334 325.924 372.527 327.014 372.002 328.266C371.518 329.517 371.275 330.889 371.275 332.383C371.275 333.876 371.618 335.229 372.305 336.439C372.991 337.61 373.98 338.538 375.271 339.225C376.563 339.87 378.077 340.193 379.812 340.193C382.436 340.193 384.717 339.669 386.654 338.619C388.592 337.57 390.085 336.278 391.135 334.744C392.225 333.21 392.79 331.757 392.83 330.385L397.432 337.771C396.786 339.426 395.898 341.142 394.768 342.918C393.678 344.694 392.285 346.369 390.59 347.943C388.895 349.477 386.856 350.749 384.475 351.758C382.093 352.727 379.268 353.211 375.998 353.211C371.84 353.211 368.066 352.383 364.676 350.729C361.326 349.033 358.661 346.712 356.684 343.766C354.746 340.779 353.777 337.388 353.777 333.594C353.777 330.163 354.423 327.115 355.715 324.451C357.007 321.787 358.904 319.547 361.406 317.73C363.949 315.874 367.118 314.481 370.912 313.553C374.706 312.584 379.106 312.1 384.111 312.1H394.223ZM439.996 300.475V352H422.559V286.488H438.906L439.996 300.475ZM437.453 316.943H432.73C432.73 312.1 433.356 307.74 434.607 303.865C435.859 299.95 437.615 296.62 439.875 293.875C442.135 291.09 444.82 288.971 447.928 287.518C451.076 286.024 454.588 285.277 458.463 285.277C461.531 285.277 464.336 285.721 466.879 286.609C469.422 287.497 471.602 288.91 473.418 290.848C475.275 292.785 476.688 295.348 477.656 298.537C478.665 301.726 479.17 305.621 479.17 310.223V352H461.611V310.162C461.611 307.256 461.208 304.995 460.4 303.381C459.593 301.766 458.402 300.636 456.828 299.99C455.294 299.304 453.397 298.961 451.137 298.961C448.796 298.961 446.757 299.425 445.021 300.354C443.326 301.282 441.913 302.574 440.783 304.229C439.693 305.843 438.866 307.74 438.301 309.92C437.736 312.1 437.453 314.441 437.453 316.943ZM519.494 339.588C521.633 339.588 523.531 339.184 525.186 338.377C526.84 337.529 528.132 336.359 529.061 334.865C530.029 333.331 530.534 331.535 530.574 329.477H546.982C546.942 334.078 545.711 338.175 543.289 341.768C540.867 345.32 537.618 348.125 533.541 350.184C529.464 352.202 524.903 353.211 519.857 353.211C514.771 353.211 510.331 352.363 506.537 350.668C502.783 348.973 499.655 346.632 497.152 343.645C494.65 340.617 492.773 337.105 491.521 333.109C490.27 329.073 489.645 324.754 489.645 320.152V318.396C489.645 313.755 490.27 309.436 491.521 305.439C492.773 301.403 494.65 297.891 497.152 294.904C499.655 291.877 502.783 289.516 506.537 287.82C510.291 286.125 514.691 285.277 519.736 285.277C525.105 285.277 529.807 286.307 533.844 288.365C537.921 290.424 541.109 293.37 543.41 297.205C545.751 300.999 546.942 305.5 546.982 310.707H530.574C530.534 308.527 530.07 306.549 529.182 304.773C528.334 302.997 527.083 301.585 525.428 300.535C523.813 299.445 521.815 298.9 519.434 298.9C516.891 298.9 514.812 299.445 513.197 300.535C511.583 301.585 510.331 303.038 509.443 304.895C508.555 306.711 507.93 308.79 507.566 311.131C507.243 313.432 507.082 315.854 507.082 318.396V320.152C507.082 322.695 507.243 325.137 507.566 327.479C507.889 329.82 508.495 331.898 509.383 333.715C510.311 335.531 511.583 336.964 513.197 338.014C514.812 339.063 516.911 339.588 519.494 339.588ZM554.309 319.91V318.639C554.309 313.835 554.995 309.415 556.367 305.379C557.74 301.302 559.738 297.77 562.361 294.783C564.985 291.796 568.214 289.475 572.049 287.82C575.883 286.125 580.283 285.277 585.248 285.277C590.213 285.277 594.633 286.125 598.508 287.82C602.383 289.475 605.632 291.796 608.256 294.783C610.92 297.77 612.938 301.302 614.311 305.379C615.683 309.415 616.369 313.835 616.369 318.639V319.91C616.369 324.673 615.683 329.093 614.311 333.17C612.938 337.206 610.92 340.738 608.256 343.766C605.632 346.753 602.403 349.074 598.568 350.729C594.734 352.383 590.334 353.211 585.369 353.211C580.404 353.211 575.984 352.383 572.109 350.729C568.275 349.074 565.025 346.753 562.361 343.766C559.738 340.738 557.74 337.206 556.367 333.17C554.995 329.093 554.309 324.673 554.309 319.91ZM571.746 318.639V319.91C571.746 322.655 571.988 325.218 572.473 327.6C572.957 329.981 573.724 332.08 574.773 333.896C575.863 335.673 577.276 337.065 579.012 338.074C580.747 339.083 582.867 339.588 585.369 339.588C587.791 339.588 589.87 339.083 591.605 338.074C593.341 337.065 594.734 335.673 595.783 333.896C596.833 332.08 597.6 329.981 598.084 327.6C598.609 325.218 598.871 322.655 598.871 319.91V318.639C598.871 315.975 598.609 313.472 598.084 311.131C597.6 308.749 596.812 306.65 595.723 304.834C594.673 302.977 593.281 301.524 591.545 300.475C589.809 299.425 587.71 298.9 585.248 298.9C582.786 298.9 580.687 299.425 578.951 300.475C577.256 301.524 575.863 302.977 574.773 304.834C573.724 306.65 572.957 308.749 572.473 311.131C571.988 313.472 571.746 315.975 571.746 318.639Z" fill="#ECF0FE"/>
<path d="M75.0469 394.25V417H72.0781V394.25H75.0469ZM82.3594 394.25V396.719H64.7812V394.25H82.3594ZM82.9688 408.734V408.375C82.9688 407.156 83.1458 406.026 83.5 404.984C83.8542 403.932 84.3646 403.021 85.0312 402.25C85.6979 401.469 86.5052 400.865 87.4531 400.438C88.401 400 89.4635 399.781 90.6406 399.781C91.8281 399.781 92.8958 400 93.8438 400.438C94.8021 400.865 95.6146 401.469 96.2812 402.25C96.9583 403.021 97.474 403.932 97.8281 404.984C98.1823 406.026 98.3594 407.156 98.3594 408.375V408.734C98.3594 409.953 98.1823 411.083 97.8281 412.125C97.474 413.167 96.9583 414.078 96.2812 414.859C95.6146 415.63 94.8073 416.234 93.8594 416.672C92.9219 417.099 91.8594 417.312 90.6719 417.312C89.4844 417.312 88.4167 417.099 87.4688 416.672C86.5208 416.234 85.7083 415.63 85.0312 414.859C84.3646 414.078 83.8542 413.167 83.5 412.125C83.1458 411.083 82.9688 409.953 82.9688 408.734ZM85.8594 408.375V408.734C85.8594 409.578 85.9583 410.375 86.1562 411.125C86.3542 411.865 86.651 412.521 87.0469 413.094C87.4531 413.667 87.9583 414.12 88.5625 414.453C89.1667 414.776 89.8698 414.938 90.6719 414.938C91.4635 414.938 92.1562 414.776 92.75 414.453C93.3542 414.12 93.8542 413.667 94.25 413.094C94.6458 412.521 94.9427 411.865 95.1406 411.125C95.349 410.375 95.4531 409.578 95.4531 408.734V408.375C95.4531 407.542 95.349 406.755 95.1406 406.016C94.9427 405.266 94.6406 404.604 94.2344 404.031C93.8385 403.448 93.3385 402.99 92.7344 402.656C92.1406 402.323 91.4427 402.156 90.6406 402.156C89.849 402.156 89.151 402.323 88.5469 402.656C87.9531 402.99 87.4531 403.448 87.0469 404.031C86.651 404.604 86.3542 405.266 86.1562 406.016C85.9583 406.755 85.8594 407.542 85.8594 408.375ZM112.641 413.719V393H115.547V417H112.891L112.641 413.719ZM101.266 408.734V408.406C101.266 407.115 101.422 405.943 101.734 404.891C102.057 403.828 102.51 402.917 103.094 402.156C103.688 401.396 104.391 400.812 105.203 400.406C106.026 399.99 106.943 399.781 107.953 399.781C109.016 399.781 109.943 399.969 110.734 400.344C111.536 400.708 112.214 401.245 112.766 401.953C113.328 402.651 113.771 403.495 114.094 404.484C114.417 405.474 114.641 406.594 114.766 407.844V409.281C114.651 410.521 114.427 411.635 114.094 412.625C113.771 413.615 113.328 414.458 112.766 415.156C112.214 415.854 111.536 416.391 110.734 416.766C109.932 417.13 108.995 417.312 107.922 417.312C106.932 417.312 106.026 417.099 105.203 416.672C104.391 416.245 103.688 415.646 103.094 414.875C102.51 414.104 102.057 413.198 101.734 412.156C101.422 411.104 101.266 409.964 101.266 408.734ZM104.172 408.406V408.734C104.172 409.578 104.255 410.37 104.422 411.109C104.599 411.849 104.87 412.5 105.234 413.062C105.599 413.625 106.062 414.068 106.625 414.391C107.188 414.703 107.859 414.859 108.641 414.859C109.599 414.859 110.385 414.656 111 414.25C111.625 413.844 112.125 413.307 112.5 412.641C112.875 411.974 113.167 411.25 113.375 410.469V406.703C113.25 406.13 113.068 405.578 112.828 405.047C112.599 404.505 112.297 404.026 111.922 403.609C111.557 403.182 111.104 402.844 110.562 402.594C110.031 402.344 109.401 402.219 108.672 402.219C107.88 402.219 107.198 402.385 106.625 402.719C106.062 403.042 105.599 403.49 105.234 404.062C104.87 404.625 104.599 405.281 104.422 406.031C104.255 406.771 104.172 407.562 104.172 408.406ZM119.281 408.734V408.375C119.281 407.156 119.458 406.026 119.812 404.984C120.167 403.932 120.677 403.021 121.344 402.25C122.01 401.469 122.818 400.865 123.766 400.438C124.714 400 125.776 399.781 126.953 399.781C128.141 399.781 129.208 400 130.156 400.438C131.115 400.865 131.927 401.469 132.594 402.25C133.271 403.021 133.786 403.932 134.141 404.984C134.495 406.026 134.672 407.156 134.672 408.375V408.734C134.672 409.953 134.495 411.083 134.141 412.125C133.786 413.167 133.271 414.078 132.594 414.859C131.927 415.63 131.12 416.234 130.172 416.672C129.234 417.099 128.172 417.312 126.984 417.312C125.797 417.312 124.729 417.099 123.781 416.672C122.833 416.234 122.021 415.63 121.344 414.859C120.677 414.078 120.167 413.167 119.812 412.125C119.458 411.083 119.281 409.953 119.281 408.734ZM122.172 408.375V408.734C122.172 409.578 122.271 410.375 122.469 411.125C122.667 411.865 122.964 412.521 123.359 413.094C123.766 413.667 124.271 414.12 124.875 414.453C125.479 414.776 126.182 414.938 126.984 414.938C127.776 414.938 128.469 414.776 129.062 414.453C129.667 414.12 130.167 413.667 130.562 413.094C130.958 412.521 131.255 411.865 131.453 411.125C131.661 410.375 131.766 409.578 131.766 408.734V408.375C131.766 407.542 131.661 406.755 131.453 406.016C131.255 405.266 130.953 404.604 130.547 404.031C130.151 403.448 129.651 402.99 129.047 402.656C128.453 402.323 127.755 402.156 126.953 402.156C126.161 402.156 125.464 402.323 124.859 402.656C124.266 402.99 123.766 403.448 123.359 404.031C122.964 404.604 122.667 405.266 122.469 406.016C122.271 406.755 122.172 407.542 122.172 408.375ZM153.25 417.312C152.073 417.312 151.005 417.115 150.047 416.719C149.099 416.312 148.281 415.745 147.594 415.016C146.917 414.286 146.396 413.422 146.031 412.422C145.667 411.422 145.484 410.328 145.484 409.141V408.484C145.484 407.109 145.688 405.885 146.094 404.812C146.5 403.729 147.052 402.812 147.75 402.062C148.448 401.312 149.24 400.745 150.125 400.359C151.01 399.974 151.927 399.781 152.875 399.781C154.083 399.781 155.125 399.99 156 400.406C156.885 400.823 157.609 401.406 158.172 402.156C158.734 402.896 159.151 403.771 159.422 404.781C159.693 405.781 159.828 406.875 159.828 408.062V409.359H147.203V407H156.938V406.781C156.896 406.031 156.74 405.302 156.469 404.594C156.208 403.885 155.792 403.302 155.219 402.844C154.646 402.385 153.865 402.156 152.875 402.156C152.219 402.156 151.615 402.297 151.062 402.578C150.51 402.849 150.036 403.255 149.641 403.797C149.245 404.339 148.938 405 148.719 405.781C148.5 406.562 148.391 407.464 148.391 408.484V409.141C148.391 409.943 148.5 410.698 148.719 411.406C148.948 412.104 149.276 412.719 149.703 413.25C150.141 413.781 150.667 414.198 151.281 414.5C151.906 414.802 152.615 414.953 153.406 414.953C154.427 414.953 155.292 414.745 156 414.328C156.708 413.911 157.328 413.354 157.859 412.656L159.609 414.047C159.245 414.599 158.781 415.125 158.219 415.625C157.656 416.125 156.964 416.531 156.141 416.844C155.328 417.156 154.365 417.312 153.25 417.312ZM166.094 403.703V417H163.203V400.094H165.938L166.094 403.703ZM165.406 407.906L164.203 407.859C164.214 406.703 164.385 405.635 164.719 404.656C165.052 403.667 165.521 402.807 166.125 402.078C166.729 401.349 167.448 400.786 168.281 400.391C169.125 399.984 170.057 399.781 171.078 399.781C171.911 399.781 172.661 399.896 173.328 400.125C173.995 400.344 174.562 400.698 175.031 401.188C175.51 401.677 175.875 402.312 176.125 403.094C176.375 403.865 176.5 404.807 176.5 405.922V417H173.594V405.891C173.594 405.005 173.464 404.297 173.203 403.766C172.943 403.224 172.562 402.833 172.062 402.594C171.562 402.344 170.948 402.219 170.219 402.219C169.5 402.219 168.844 402.37 168.25 402.672C167.667 402.974 167.161 403.391 166.734 403.922C166.318 404.453 165.99 405.062 165.75 405.75C165.521 406.427 165.406 407.146 165.406 407.906ZM199.172 413.094V400.094H202.078V417H199.312L199.172 413.094ZM199.719 409.531L200.922 409.5C200.922 410.625 200.802 411.667 200.562 412.625C200.333 413.573 199.958 414.396 199.438 415.094C198.917 415.792 198.234 416.339 197.391 416.734C196.547 417.12 195.521 417.312 194.312 417.312C193.49 417.312 192.734 417.193 192.047 416.953C191.37 416.714 190.786 416.344 190.297 415.844C189.807 415.344 189.427 414.693 189.156 413.891C188.896 413.089 188.766 412.125 188.766 411V400.094H191.656V411.031C191.656 411.792 191.74 412.422 191.906 412.922C192.083 413.411 192.318 413.802 192.609 414.094C192.911 414.375 193.245 414.573 193.609 414.688C193.984 414.802 194.37 414.859 194.766 414.859C195.995 414.859 196.969 414.625 197.688 414.156C198.406 413.677 198.922 413.036 199.234 412.234C199.557 411.422 199.719 410.521 199.719 409.531ZM209.375 403.703V417H206.484V400.094H209.219L209.375 403.703ZM208.688 407.906L207.484 407.859C207.495 406.703 207.667 405.635 208 404.656C208.333 403.667 208.802 402.807 209.406 402.078C210.01 401.349 210.729 400.786 211.562 400.391C212.406 399.984 213.339 399.781 214.359 399.781C215.193 399.781 215.943 399.896 216.609 400.125C217.276 400.344 217.844 400.698 218.312 401.188C218.792 401.677 219.156 402.312 219.406 403.094C219.656 403.865 219.781 404.807 219.781 405.922V417H216.875V405.891C216.875 405.005 216.745 404.297 216.484 403.766C216.224 403.224 215.844 402.833 215.344 402.594C214.844 402.344 214.229 402.219 213.5 402.219C212.781 402.219 212.125 402.37 211.531 402.672C210.948 402.974 210.443 403.391 210.016 403.922C209.599 404.453 209.271 405.062 209.031 405.75C208.802 406.427 208.688 407.146 208.688 407.906ZM234.984 403.453V417H232.078V400.094H234.828L234.984 403.453ZM234.391 407.906L233.047 407.859C233.057 406.703 233.208 405.635 233.5 404.656C233.792 403.667 234.224 402.807 234.797 402.078C235.37 401.349 236.083 400.786 236.938 400.391C237.792 399.984 238.781 399.781 239.906 399.781C240.698 399.781 241.427 399.896 242.094 400.125C242.76 400.344 243.339 400.693 243.828 401.172C244.318 401.651 244.698 402.266 244.969 403.016C245.24 403.766 245.375 404.672 245.375 405.734V417H242.484V405.875C242.484 404.99 242.333 404.281 242.031 403.75C241.74 403.219 241.323 402.833 240.781 402.594C240.24 402.344 239.604 402.219 238.875 402.219C238.021 402.219 237.307 402.37 236.734 402.672C236.161 402.974 235.703 403.391 235.359 403.922C235.016 404.453 234.766 405.062 234.609 405.75C234.464 406.427 234.391 407.146 234.391 407.906ZM245.344 406.312L243.406 406.906C243.417 405.979 243.568 405.089 243.859 404.234C244.161 403.38 244.594 402.62 245.156 401.953C245.729 401.286 246.432 400.76 247.266 400.375C248.099 399.979 249.052 399.781 250.125 399.781C251.031 399.781 251.833 399.901 252.531 400.141C253.24 400.38 253.833 400.75 254.312 401.25C254.802 401.74 255.172 402.37 255.422 403.141C255.672 403.911 255.797 404.828 255.797 405.891V417H252.891V405.859C252.891 404.911 252.74 404.177 252.438 403.656C252.146 403.125 251.729 402.755 251.188 402.547C250.656 402.328 250.021 402.219 249.281 402.219C248.646 402.219 248.083 402.328 247.594 402.547C247.104 402.766 246.693 403.068 246.359 403.453C246.026 403.828 245.771 404.26 245.594 404.75C245.427 405.24 245.344 405.76 245.344 406.312ZM263.312 400.094V417H260.406V400.094H263.312ZM260.188 395.609C260.188 395.141 260.328 394.745 260.609 394.422C260.901 394.099 261.328 393.938 261.891 393.938C262.443 393.938 262.865 394.099 263.156 394.422C263.458 394.745 263.609 395.141 263.609 395.609C263.609 396.057 263.458 396.443 263.156 396.766C262.865 397.078 262.443 397.234 261.891 397.234C261.328 397.234 260.901 397.078 260.609 396.766C260.328 396.443 260.188 396.057 260.188 395.609ZM277.797 412.516C277.797 412.099 277.703 411.714 277.516 411.359C277.339 410.995 276.969 410.667 276.406 410.375C275.854 410.073 275.021 409.812 273.906 409.594C272.969 409.396 272.12 409.161 271.359 408.891C270.609 408.62 269.969 408.292 269.438 407.906C268.917 407.521 268.516 407.068 268.234 406.547C267.953 406.026 267.812 405.417 267.812 404.719C267.812 404.052 267.958 403.422 268.25 402.828C268.552 402.234 268.974 401.708 269.516 401.25C270.068 400.792 270.729 400.432 271.5 400.172C272.271 399.911 273.13 399.781 274.078 399.781C275.432 399.781 276.589 400.021 277.547 400.5C278.505 400.979 279.24 401.62 279.75 402.422C280.26 403.214 280.516 404.094 280.516 405.062H277.625C277.625 404.594 277.484 404.141 277.203 403.703C276.932 403.255 276.531 402.885 276 402.594C275.479 402.302 274.839 402.156 274.078 402.156C273.276 402.156 272.625 402.281 272.125 402.531C271.635 402.771 271.276 403.078 271.047 403.453C270.828 403.828 270.719 404.224 270.719 404.641C270.719 404.953 270.771 405.234 270.875 405.484C270.99 405.724 271.188 405.948 271.469 406.156C271.75 406.354 272.146 406.542 272.656 406.719C273.167 406.896 273.818 407.073 274.609 407.25C275.995 407.562 277.135 407.938 278.031 408.375C278.927 408.812 279.594 409.349 280.031 409.984C280.469 410.62 280.688 411.391 280.688 412.297C280.688 413.036 280.531 413.714 280.219 414.328C279.917 414.943 279.474 415.474 278.891 415.922C278.318 416.359 277.63 416.703 276.828 416.953C276.036 417.193 275.146 417.312 274.156 417.312C272.667 417.312 271.406 417.047 270.375 416.516C269.344 415.984 268.562 415.297 268.031 414.453C267.5 413.609 267.234 412.719 267.234 411.781H270.141C270.182 412.573 270.411 413.203 270.828 413.672C271.245 414.13 271.755 414.458 272.359 414.656C272.964 414.844 273.562 414.938 274.156 414.938C274.948 414.938 275.609 414.833 276.141 414.625C276.682 414.417 277.094 414.13 277.375 413.766C277.656 413.401 277.797 412.984 277.797 412.516ZM287.359 403.453V417H284.453V400.094H287.203L287.359 403.453ZM286.766 407.906L285.422 407.859C285.432 406.703 285.583 405.635 285.875 404.656C286.167 403.667 286.599 402.807 287.172 402.078C287.745 401.349 288.458 400.786 289.312 400.391C290.167 399.984 291.156 399.781 292.281 399.781C293.073 399.781 293.802 399.896 294.469 400.125C295.135 400.344 295.714 400.693 296.203 401.172C296.693 401.651 297.073 402.266 297.344 403.016C297.615 403.766 297.75 404.672 297.75 405.734V417H294.859V405.875C294.859 404.99 294.708 404.281 294.406 403.75C294.115 403.219 293.698 402.833 293.156 402.594C292.615 402.344 291.979 402.219 291.25 402.219C290.396 402.219 289.682 402.37 289.109 402.672C288.536 402.974 288.078 403.391 287.734 403.922C287.391 404.453 287.141 405.062 286.984 405.75C286.839 406.427 286.766 407.146 286.766 407.906ZM297.719 406.312L295.781 406.906C295.792 405.979 295.943 405.089 296.234 404.234C296.536 403.38 296.969 402.62 297.531 401.953C298.104 401.286 298.807 400.76 299.641 400.375C300.474 399.979 301.427 399.781 302.5 399.781C303.406 399.781 304.208 399.901 304.906 400.141C305.615 400.38 306.208 400.75 306.688 401.25C307.177 401.74 307.547 402.37 307.797 403.141C308.047 403.911 308.172 404.828 308.172 405.891V417H305.266V405.859C305.266 404.911 305.115 404.177 304.812 403.656C304.521 403.125 304.104 402.755 303.562 402.547C303.031 402.328 302.396 402.219 301.656 402.219C301.021 402.219 300.458 402.328 299.969 402.547C299.479 402.766 299.068 403.068 298.734 403.453C298.401 403.828 298.146 404.26 297.969 404.75C297.802 405.24 297.719 405.76 297.719 406.312ZM311.781 408.734V408.375C311.781 407.156 311.958 406.026 312.312 404.984C312.667 403.932 313.177 403.021 313.844 402.25C314.51 401.469 315.318 400.865 316.266 400.438C317.214 400 318.276 399.781 319.453 399.781C320.641 399.781 321.708 400 322.656 400.438C323.615 400.865 324.427 401.469 325.094 402.25C325.771 403.021 326.286 403.932 326.641 404.984C326.995 406.026 327.172 407.156 327.172 408.375V408.734C327.172 409.953 326.995 411.083 326.641 412.125C326.286 413.167 325.771 414.078 325.094 414.859C324.427 415.63 323.62 416.234 322.672 416.672C321.734 417.099 320.672 417.312 319.484 417.312C318.297 417.312 317.229 417.099 316.281 416.672C315.333 416.234 314.521 415.63 313.844 414.859C313.177 414.078 312.667 413.167 312.312 412.125C311.958 411.083 311.781 409.953 311.781 408.734ZM314.672 408.375V408.734C314.672 409.578 314.771 410.375 314.969 411.125C315.167 411.865 315.464 412.521 315.859 413.094C316.266 413.667 316.771 414.12 317.375 414.453C317.979 414.776 318.682 414.938 319.484 414.938C320.276 414.938 320.969 414.776 321.562 414.453C322.167 414.12 322.667 413.667 323.062 413.094C323.458 412.521 323.755 411.865 323.953 411.125C324.161 410.375 324.266 409.578 324.266 408.734V408.375C324.266 407.542 324.161 406.755 323.953 406.016C323.755 405.266 323.453 404.604 323.047 404.031C322.651 403.448 322.151 402.99 321.547 402.656C320.953 402.323 320.255 402.156 319.453 402.156C318.661 402.156 317.964 402.323 317.359 402.656C316.766 402.99 316.266 403.448 315.859 404.031C315.464 404.604 315.167 405.266 314.969 406.016C314.771 406.755 314.672 407.542 314.672 408.375ZM341.875 393V417H338.969V393H341.875ZM356.859 413.094V400.094H359.766V417H357L356.859 413.094ZM357.406 409.531L358.609 409.5C358.609 410.625 358.49 411.667 358.25 412.625C358.021 413.573 357.646 414.396 357.125 415.094C356.604 415.792 355.922 416.339 355.078 416.734C354.234 417.12 353.208 417.312 352 417.312C351.177 417.312 350.422 417.193 349.734 416.953C349.057 416.714 348.474 416.344 347.984 415.844C347.495 415.344 347.115 414.693 346.844 413.891C346.583 413.089 346.453 412.125 346.453 411V400.094H349.344V411.031C349.344 411.792 349.427 412.422 349.594 412.922C349.771 413.411 350.005 413.802 350.297 414.094C350.599 414.375 350.932 414.573 351.297 414.688C351.672 414.802 352.057 414.859 352.453 414.859C353.682 414.859 354.656 414.625 355.375 414.156C356.094 413.677 356.609 413.036 356.922 412.234C357.245 411.422 357.406 410.521 357.406 409.531ZM375.125 400.094H377.75V416.641C377.75 418.13 377.448 419.401 376.844 420.453C376.24 421.505 375.396 422.302 374.312 422.844C373.24 423.396 372 423.672 370.594 423.672C370.01 423.672 369.323 423.578 368.531 423.391C367.75 423.214 366.979 422.906 366.219 422.469C365.469 422.042 364.839 421.464 364.328 420.734L365.844 419.016C366.552 419.87 367.292 420.464 368.062 420.797C368.844 421.13 369.615 421.297 370.375 421.297C371.292 421.297 372.083 421.125 372.75 420.781C373.417 420.438 373.932 419.927 374.297 419.25C374.672 418.583 374.859 417.76 374.859 416.781V403.812L375.125 400.094ZM363.484 408.734V408.406C363.484 407.115 363.635 405.943 363.938 404.891C364.25 403.828 364.693 402.917 365.266 402.156C365.849 401.396 366.552 400.812 367.375 400.406C368.198 399.99 369.125 399.781 370.156 399.781C371.219 399.781 372.146 399.969 372.938 400.344C373.74 400.708 374.417 401.245 374.969 401.953C375.531 402.651 375.974 403.495 376.297 404.484C376.62 405.474 376.844 406.594 376.969 407.844V409.281C376.854 410.521 376.63 411.635 376.297 412.625C375.974 413.615 375.531 414.458 374.969 415.156C374.417 415.854 373.74 416.391 372.938 416.766C372.135 417.13 371.198 417.312 370.125 417.312C369.115 417.312 368.198 417.099 367.375 416.672C366.562 416.245 365.865 415.646 365.281 414.875C364.698 414.104 364.25 413.198 363.938 412.156C363.635 411.104 363.484 409.964 363.484 408.734ZM366.375 408.406V408.734C366.375 409.578 366.458 410.37 366.625 411.109C366.802 411.849 367.068 412.5 367.422 413.062C367.786 413.625 368.25 414.068 368.812 414.391C369.375 414.703 370.047 414.859 370.828 414.859C371.786 414.859 372.578 414.656 373.203 414.25C373.828 413.844 374.323 413.307 374.688 412.641C375.062 411.974 375.354 411.25 375.562 410.469V406.703C375.448 406.13 375.271 405.578 375.031 405.047C374.802 404.505 374.5 404.026 374.125 403.609C373.76 403.182 373.307 402.844 372.766 402.594C372.224 402.344 371.589 402.219 370.859 402.219C370.068 402.219 369.385 402.385 368.812 402.719C368.25 403.042 367.786 403.49 367.422 404.062C367.068 404.625 366.802 405.281 366.625 406.031C366.458 406.771 366.375 407.562 366.375 408.406ZM392.109 414.109V405.406C392.109 404.74 391.974 404.161 391.703 403.672C391.443 403.172 391.047 402.786 390.516 402.516C389.984 402.245 389.328 402.109 388.547 402.109C387.818 402.109 387.177 402.234 386.625 402.484C386.083 402.734 385.656 403.062 385.344 403.469C385.042 403.875 384.891 404.312 384.891 404.781H382C382 404.177 382.156 403.578 382.469 402.984C382.781 402.391 383.229 401.854 383.812 401.375C384.406 400.885 385.115 400.5 385.938 400.219C386.771 399.927 387.698 399.781 388.719 399.781C389.948 399.781 391.031 399.99 391.969 400.406C392.917 400.823 393.656 401.453 394.188 402.297C394.729 403.13 395 404.177 395 405.438V413.312C395 413.875 395.047 414.474 395.141 415.109C395.245 415.745 395.396 416.292 395.594 416.75V417H392.578C392.432 416.667 392.318 416.224 392.234 415.672C392.151 415.109 392.109 414.589 392.109 414.109ZM392.609 406.75L392.641 408.781H389.719C388.896 408.781 388.161 408.849 387.516 408.984C386.87 409.109 386.328 409.302 385.891 409.562C385.453 409.823 385.12 410.151 384.891 410.547C384.661 410.932 384.547 411.385 384.547 411.906C384.547 412.438 384.667 412.922 384.906 413.359C385.146 413.797 385.505 414.146 385.984 414.406C386.474 414.656 387.073 414.781 387.781 414.781C388.667 414.781 389.448 414.594 390.125 414.219C390.802 413.844 391.339 413.385 391.734 412.844C392.141 412.302 392.359 411.776 392.391 411.266L393.625 412.656C393.552 413.094 393.354 413.578 393.031 414.109C392.708 414.641 392.276 415.151 391.734 415.641C391.203 416.12 390.568 416.521 389.828 416.844C389.099 417.156 388.276 417.312 387.359 417.312C386.214 417.312 385.208 417.089 384.344 416.641C383.49 416.193 382.823 415.594 382.344 414.844C381.875 414.083 381.641 413.234 381.641 412.297C381.641 411.391 381.818 410.594 382.172 409.906C382.526 409.208 383.036 408.63 383.703 408.172C384.37 407.703 385.172 407.349 386.109 407.109C387.047 406.87 388.094 406.75 389.25 406.75H392.609ZM402.438 402.75V417H399.547V400.094H402.359L402.438 402.75ZM407.719 400L407.703 402.688C407.464 402.635 407.234 402.604 407.016 402.594C406.807 402.573 406.568 402.562 406.297 402.562C405.63 402.562 405.042 402.667 404.531 402.875C404.021 403.083 403.589 403.375 403.234 403.75C402.88 404.125 402.599 404.573 402.391 405.094C402.193 405.604 402.062 406.167 402 406.781L401.188 407.25C401.188 406.229 401.286 405.271 401.484 404.375C401.693 403.479 402.01 402.688 402.438 402C402.865 401.302 403.406 400.76 404.062 400.375C404.729 399.979 405.521 399.781 406.438 399.781C406.646 399.781 406.885 399.807 407.156 399.859C407.427 399.901 407.615 399.948 407.719 400ZM411.078 413.562V415.891C411.078 416.839 410.839 417.839 410.359 418.891C409.88 419.953 409.208 420.839 408.344 421.547L406.703 420.406C407.036 419.948 407.318 419.479 407.547 419C407.776 418.531 407.948 418.042 408.062 417.531C408.188 417.031 408.25 416.5 408.25 415.938V413.562H411.078ZM432.547 412.516C432.547 412.099 432.453 411.714 432.266 411.359C432.089 410.995 431.719 410.667 431.156 410.375C430.604 410.073 429.771 409.812 428.656 409.594C427.719 409.396 426.87 409.161 426.109 408.891C425.359 408.62 424.719 408.292 424.188 407.906C423.667 407.521 423.266 407.068 422.984 406.547C422.703 406.026 422.562 405.417 422.562 404.719C422.562 404.052 422.708 403.422 423 402.828C423.302 402.234 423.724 401.708 424.266 401.25C424.818 400.792 425.479 400.432 426.25 400.172C427.021 399.911 427.88 399.781 428.828 399.781C430.182 399.781 431.339 400.021 432.297 400.5C433.255 400.979 433.99 401.62 434.5 402.422C435.01 403.214 435.266 404.094 435.266 405.062H432.375C432.375 404.594 432.234 404.141 431.953 403.703C431.682 403.255 431.281 402.885 430.75 402.594C430.229 402.302 429.589 402.156 428.828 402.156C428.026 402.156 427.375 402.281 426.875 402.531C426.385 402.771 426.026 403.078 425.797 403.453C425.578 403.828 425.469 404.224 425.469 404.641C425.469 404.953 425.521 405.234 425.625 405.484C425.74 405.724 425.938 405.948 426.219 406.156C426.5 406.354 426.896 406.542 427.406 406.719C427.917 406.896 428.568 407.073 429.359 407.25C430.745 407.562 431.885 407.938 432.781 408.375C433.677 408.812 434.344 409.349 434.781 409.984C435.219 410.62 435.438 411.391 435.438 412.297C435.438 413.036 435.281 413.714 434.969 414.328C434.667 414.943 434.224 415.474 433.641 415.922C433.068 416.359 432.38 416.703 431.578 416.953C430.786 417.193 429.896 417.312 428.906 417.312C427.417 417.312 426.156 417.047 425.125 416.516C424.094 415.984 423.312 415.297 422.781 414.453C422.25 413.609 421.984 412.719 421.984 411.781H424.891C424.932 412.573 425.161 413.203 425.578 413.672C425.995 414.13 426.505 414.458 427.109 414.656C427.714 414.844 428.312 414.938 428.906 414.938C429.698 414.938 430.359 414.833 430.891 414.625C431.432 414.417 431.844 414.13 432.125 413.766C432.406 413.401 432.547 412.984 432.547 412.516ZM442.375 400.094V417H439.469V400.094H442.375ZM439.25 395.609C439.25 395.141 439.391 394.745 439.672 394.422C439.964 394.099 440.391 393.938 440.953 393.938C441.505 393.938 441.927 394.099 442.219 394.422C442.521 394.745 442.672 395.141 442.672 395.609C442.672 396.057 442.521 396.443 442.219 396.766C441.927 397.078 441.505 397.234 440.953 397.234C440.391 397.234 439.964 397.078 439.672 396.766C439.391 396.443 439.25 396.057 439.25 395.609ZM449.891 403.453V417H446.984V400.094H449.734L449.891 403.453ZM449.297 407.906L447.953 407.859C447.964 406.703 448.115 405.635 448.406 404.656C448.698 403.667 449.13 402.807 449.703 402.078C450.276 401.349 450.99 400.786 451.844 400.391C452.698 399.984 453.688 399.781 454.812 399.781C455.604 399.781 456.333 399.896 457 400.125C457.667 400.344 458.245 400.693 458.734 401.172C459.224 401.651 459.604 402.266 459.875 403.016C460.146 403.766 460.281 404.672 460.281 405.734V417H457.391V405.875C457.391 404.99 457.24 404.281 456.938 403.75C456.646 403.219 456.229 402.833 455.688 402.594C455.146 402.344 454.51 402.219 453.781 402.219C452.927 402.219 452.214 402.37 451.641 402.672C451.068 402.974 450.609 403.391 450.266 403.922C449.922 404.453 449.672 405.062 449.516 405.75C449.37 406.427 449.297 407.146 449.297 407.906ZM460.25 406.312L458.312 406.906C458.323 405.979 458.474 405.089 458.766 404.234C459.068 403.38 459.5 402.62 460.062 401.953C460.635 401.286 461.339 400.76 462.172 400.375C463.005 399.979 463.958 399.781 465.031 399.781C465.938 399.781 466.74 399.901 467.438 400.141C468.146 400.38 468.74 400.75 469.219 401.25C469.708 401.74 470.078 402.37 470.328 403.141C470.578 403.911 470.703 404.828 470.703 405.891V417H467.797V405.859C467.797 404.911 467.646 404.177 467.344 403.656C467.052 403.125 466.635 402.755 466.094 402.547C465.562 402.328 464.927 402.219 464.188 402.219C463.552 402.219 462.99 402.328 462.5 402.547C462.01 402.766 461.599 403.068 461.266 403.453C460.932 403.828 460.677 404.26 460.5 404.75C460.333 405.24 460.25 405.76 460.25 406.312ZM477.969 403.344V423.5H475.062V400.094H477.719L477.969 403.344ZM489.359 408.406V408.734C489.359 409.964 489.214 411.104 488.922 412.156C488.63 413.198 488.203 414.104 487.641 414.875C487.089 415.646 486.406 416.245 485.594 416.672C484.781 417.099 483.849 417.312 482.797 417.312C481.724 417.312 480.776 417.135 479.953 416.781C479.13 416.427 478.432 415.911 477.859 415.234C477.286 414.557 476.828 413.745 476.484 412.797C476.151 411.849 475.922 410.781 475.797 409.594V407.844C475.922 406.594 476.156 405.474 476.5 404.484C476.844 403.495 477.297 402.651 477.859 401.953C478.432 401.245 479.125 400.708 479.938 400.344C480.75 399.969 481.688 399.781 482.75 399.781C483.812 399.781 484.755 399.99 485.578 400.406C486.401 400.812 487.094 401.396 487.656 402.156C488.219 402.917 488.641 403.828 488.922 404.891C489.214 405.943 489.359 407.115 489.359 408.406ZM486.453 408.734V408.406C486.453 407.562 486.365 406.771 486.188 406.031C486.01 405.281 485.734 404.625 485.359 404.062C484.995 403.49 484.526 403.042 483.953 402.719C483.38 402.385 482.698 402.219 481.906 402.219C481.177 402.219 480.542 402.344 480 402.594C479.469 402.844 479.016 403.182 478.641 403.609C478.266 404.026 477.958 404.505 477.719 405.047C477.49 405.578 477.318 406.13 477.203 406.703V410.75C477.411 411.479 477.703 412.167 478.078 412.812C478.453 413.448 478.953 413.964 479.578 414.359C480.203 414.745 480.99 414.938 481.938 414.938C482.719 414.938 483.391 414.776 483.953 414.453C484.526 414.12 484.995 413.667 485.359 413.094C485.734 412.521 486.01 411.865 486.188 411.125C486.365 410.375 486.453 409.578 486.453 408.734ZM496.188 393V417H493.281V393H496.188ZM507.844 417.312C506.667 417.312 505.599 417.115 504.641 416.719C503.693 416.312 502.875 415.745 502.188 415.016C501.51 414.286 500.99 413.422 500.625 412.422C500.26 411.422 500.078 410.328 500.078 409.141V408.484C500.078 407.109 500.281 405.885 500.688 404.812C501.094 403.729 501.646 402.812 502.344 402.062C503.042 401.312 503.833 400.745 504.719 400.359C505.604 399.974 506.521 399.781 507.469 399.781C508.677 399.781 509.719 399.99 510.594 400.406C511.479 400.823 512.203 401.406 512.766 402.156C513.328 402.896 513.745 403.771 514.016 404.781C514.286 405.781 514.422 406.875 514.422 408.062V409.359H501.797V407H511.531V406.781C511.49 406.031 511.333 405.302 511.062 404.594C510.802 403.885 510.385 403.302 509.812 402.844C509.24 402.385 508.458 402.156 507.469 402.156C506.812 402.156 506.208 402.297 505.656 402.578C505.104 402.849 504.63 403.255 504.234 403.797C503.839 404.339 503.531 405 503.312 405.781C503.094 406.562 502.984 407.464 502.984 408.484V409.141C502.984 409.943 503.094 410.698 503.312 411.406C503.542 412.104 503.87 412.719 504.297 413.25C504.734 413.781 505.26 414.198 505.875 414.5C506.5 414.802 507.208 414.953 508 414.953C509.021 414.953 509.885 414.745 510.594 414.328C511.302 413.911 511.922 413.354 512.453 412.656L514.203 414.047C513.839 414.599 513.375 415.125 512.812 415.625C512.25 416.125 511.557 416.531 510.734 416.844C509.922 417.156 508.958 417.312 507.844 417.312ZM530.484 415.25L535.188 400.094H538.281L531.5 419.609C531.344 420.026 531.135 420.474 530.875 420.953C530.625 421.443 530.302 421.906 529.906 422.344C529.51 422.781 529.031 423.135 528.469 423.406C527.917 423.688 527.255 423.828 526.484 423.828C526.255 423.828 525.964 423.797 525.609 423.734C525.255 423.672 525.005 423.62 524.859 423.578L524.844 421.234C524.927 421.245 525.057 421.255 525.234 421.266C525.422 421.286 525.552 421.297 525.625 421.297C526.281 421.297 526.839 421.208 527.297 421.031C527.755 420.865 528.141 420.578 528.453 420.172C528.776 419.776 529.052 419.229 529.281 418.531L530.484 415.25ZM527.031 400.094L531.422 413.219L532.172 416.266L530.094 417.328L523.875 400.094H527.031ZM558.672 412.516C558.672 412.099 558.578 411.714 558.391 411.359C558.214 410.995 557.844 410.667 557.281 410.375C556.729 410.073 555.896 409.812 554.781 409.594C553.844 409.396 552.995 409.161 552.234 408.891C551.484 408.62 550.844 408.292 550.312 407.906C549.792 407.521 549.391 407.068 549.109 406.547C548.828 406.026 548.688 405.417 548.688 404.719C548.688 404.052 548.833 403.422 549.125 402.828C549.427 402.234 549.849 401.708 550.391 401.25C550.943 400.792 551.604 400.432 552.375 400.172C553.146 399.911 554.005 399.781 554.953 399.781C556.307 399.781 557.464 400.021 558.422 400.5C559.38 400.979 560.115 401.62 560.625 402.422C561.135 403.214 561.391 404.094 561.391 405.062H558.5C558.5 404.594 558.359 404.141 558.078 403.703C557.807 403.255 557.406 402.885 556.875 402.594C556.354 402.302 555.714 402.156 554.953 402.156C554.151 402.156 553.5 402.281 553 402.531C552.51 402.771 552.151 403.078 551.922 403.453C551.703 403.828 551.594 404.224 551.594 404.641C551.594 404.953 551.646 405.234 551.75 405.484C551.865 405.724 552.062 405.948 552.344 406.156C552.625 406.354 553.021 406.542 553.531 406.719C554.042 406.896 554.693 407.073 555.484 407.25C556.87 407.562 558.01 407.938 558.906 408.375C559.802 408.812 560.469 409.349 560.906 409.984C561.344 410.62 561.562 411.391 561.562 412.297C561.562 413.036 561.406 413.714 561.094 414.328C560.792 414.943 560.349 415.474 559.766 415.922C559.193 416.359 558.505 416.703 557.703 416.953C556.911 417.193 556.021 417.312 555.031 417.312C553.542 417.312 552.281 417.047 551.25 416.516C550.219 415.984 549.438 415.297 548.906 414.453C548.375 413.609 548.109 412.719 548.109 411.781H551.016C551.057 412.573 551.286 413.203 551.703 413.672C552.12 414.13 552.63 414.458 553.234 414.656C553.839 414.844 554.438 414.938 555.031 414.938C555.823 414.938 556.484 414.833 557.016 414.625C557.557 414.417 557.969 414.13 558.25 413.766C558.531 413.401 558.672 412.984 558.672 412.516ZM568.5 400.094V417H565.594V400.094H568.5ZM565.375 395.609C565.375 395.141 565.516 394.745 565.797 394.422C566.089 394.099 566.516 393.938 567.078 393.938C567.63 393.938 568.052 394.099 568.344 394.422C568.646 394.745 568.797 395.141 568.797 395.609C568.797 396.057 568.646 396.443 568.344 396.766C568.052 397.078 567.63 397.234 567.078 397.234C566.516 397.234 566.089 397.078 565.797 396.766C565.516 396.443 565.375 396.057 565.375 395.609ZM576.031 403.703V417H573.141V400.094H575.875L576.031 403.703ZM575.344 407.906L574.141 407.859C574.151 406.703 574.323 405.635 574.656 404.656C574.99 403.667 575.458 402.807 576.062 402.078C576.667 401.349 577.385 400.786 578.219 400.391C579.062 399.984 579.995 399.781 581.016 399.781C581.849 399.781 582.599 399.896 583.266 400.125C583.932 400.344 584.5 400.698 584.969 401.188C585.448 401.677 585.812 402.312 586.062 403.094C586.312 403.865 586.438 404.807 586.438 405.922V417H583.531V405.891C583.531 405.005 583.401 404.297 583.141 403.766C582.88 403.224 582.5 402.833 582 402.594C581.5 402.344 580.885 402.219 580.156 402.219C579.438 402.219 578.781 402.37 578.188 402.672C577.604 402.974 577.099 403.391 576.672 403.922C576.255 404.453 575.927 405.062 575.688 405.75C575.458 406.427 575.344 407.146 575.344 407.906ZM603.906 414.391L608.531 400.094H611.484L605.406 417H603.469L603.906 414.391ZM600.047 400.094L604.812 414.469L605.141 417H603.203L597.078 400.094H600.047ZM624.609 413.094V400.094H627.516V417H624.75L624.609 413.094ZM625.156 409.531L626.359 409.5C626.359 410.625 626.24 411.667 626 412.625C625.771 413.573 625.396 414.396 624.875 415.094C624.354 415.792 623.672 416.339 622.828 416.734C621.984 417.12 620.958 417.312 619.75 417.312C618.927 417.312 618.172 417.193 617.484 416.953C616.807 416.714 616.224 416.344 615.734 415.844C615.245 415.344 614.865 414.693 614.594 413.891C614.333 413.089 614.203 412.125 614.203 411V400.094H617.094V411.031C617.094 411.792 617.177 412.422 617.344 412.922C617.521 413.411 617.755 413.802 618.047 414.094C618.349 414.375 618.682 414.573 619.047 414.688C619.422 414.802 619.807 414.859 620.203 414.859C621.432 414.859 622.406 414.625 623.125 414.156C623.844 413.677 624.359 413.036 624.672 412.234C624.995 411.422 625.156 410.521 625.156 409.531ZM638.938 417.312C637.76 417.312 636.693 417.115 635.734 416.719C634.786 416.312 633.969 415.745 633.281 415.016C632.604 414.286 632.083 413.422 631.719 412.422C631.354 411.422 631.172 410.328 631.172 409.141V408.484C631.172 407.109 631.375 405.885 631.781 404.812C632.188 403.729 632.74 402.812 633.438 402.062C634.135 401.312 634.927 400.745 635.812 400.359C636.698 399.974 637.615 399.781 638.562 399.781C639.771 399.781 640.812 399.99 641.688 400.406C642.573 400.823 643.297 401.406 643.859 402.156C644.422 402.896 644.839 403.771 645.109 404.781C645.38 405.781 645.516 406.875 645.516 408.062V409.359H632.891V407H642.625V406.781C642.583 406.031 642.427 405.302 642.156 404.594C641.896 403.885 641.479 403.302 640.906 402.844C640.333 402.385 639.552 402.156 638.562 402.156C637.906 402.156 637.302 402.297 636.75 402.578C636.198 402.849 635.724 403.255 635.328 403.797C634.932 404.339 634.625 405 634.406 405.781C634.188 406.562 634.078 407.464 634.078 408.484V409.141C634.078 409.943 634.188 410.698 634.406 411.406C634.635 412.104 634.964 412.719 635.391 413.25C635.828 413.781 636.354 414.198 636.969 414.5C637.594 414.802 638.302 414.953 639.094 414.953C640.115 414.953 640.979 414.745 641.688 414.328C642.396 413.911 643.016 413.354 643.547 412.656L645.297 414.047C644.932 414.599 644.469 415.125 643.906 415.625C643.344 416.125 642.651 416.531 641.828 416.844C641.016 417.156 640.052 417.312 638.938 417.312ZM652.031 393V417H649.125V393H652.031ZM663.75 400.094V402.312H654.609V400.094H663.75ZM657.703 395.984H660.594V412.812C660.594 413.385 660.682 413.818 660.859 414.109C661.036 414.401 661.266 414.594 661.547 414.688C661.828 414.781 662.13 414.828 662.453 414.828C662.693 414.828 662.943 414.807 663.203 414.766C663.474 414.714 663.677 414.672 663.812 414.641L663.828 417C663.599 417.073 663.297 417.141 662.922 417.203C662.557 417.276 662.115 417.312 661.594 417.312C660.885 417.312 660.234 417.172 659.641 416.891C659.047 416.609 658.573 416.141 658.219 415.484C657.875 414.818 657.703 413.922 657.703 412.797V395.984ZM677.109 414.109V405.406C677.109 404.74 676.974 404.161 676.703 403.672C676.443 403.172 676.047 402.786 675.516 402.516C674.984 402.245 674.328 402.109 673.547 402.109C672.818 402.109 672.177 402.234 671.625 402.484C671.083 402.734 670.656 403.062 670.344 403.469C670.042 403.875 669.891 404.312 669.891 404.781H667C667 404.177 667.156 403.578 667.469 402.984C667.781 402.391 668.229 401.854 668.812 401.375C669.406 400.885 670.115 400.5 670.938 400.219C671.771 399.927 672.698 399.781 673.719 399.781C674.948 399.781 676.031 399.99 676.969 400.406C677.917 400.823 678.656 401.453 679.188 402.297C679.729 403.13 680 404.177 680 405.438V413.312C680 413.875 680.047 414.474 680.141 415.109C680.245 415.745 680.396 416.292 680.594 416.75V417H677.578C677.432 416.667 677.318 416.224 677.234 415.672C677.151 415.109 677.109 414.589 677.109 414.109ZM677.609 406.75L677.641 408.781H674.719C673.896 408.781 673.161 408.849 672.516 408.984C671.87 409.109 671.328 409.302 670.891 409.562C670.453 409.823 670.12 410.151 669.891 410.547C669.661 410.932 669.547 411.385 669.547 411.906C669.547 412.438 669.667 412.922 669.906 413.359C670.146 413.797 670.505 414.146 670.984 414.406C671.474 414.656 672.073 414.781 672.781 414.781C673.667 414.781 674.448 414.594 675.125 414.219C675.802 413.844 676.339 413.385 676.734 412.844C677.141 412.302 677.359 411.776 677.391 411.266L678.625 412.656C678.552 413.094 678.354 413.578 678.031 414.109C677.708 414.641 677.276 415.151 676.734 415.641C676.203 416.12 675.568 416.521 674.828 416.844C674.099 417.156 673.276 417.312 672.359 417.312C671.214 417.312 670.208 417.089 669.344 416.641C668.49 416.193 667.823 415.594 667.344 414.844C666.875 414.083 666.641 413.234 666.641 412.297C666.641 411.391 666.818 410.594 667.172 409.906C667.526 409.208 668.036 408.63 668.703 408.172C669.37 407.703 670.172 407.349 671.109 407.109C672.047 406.87 673.094 406.75 674.25 406.75H677.609ZM694.391 412.516C694.391 412.099 694.297 411.714 694.109 411.359C693.932 410.995 693.562 410.667 693 410.375C692.448 410.073 691.615 409.812 690.5 409.594C689.562 409.396 688.714 409.161 687.953 408.891C687.203 408.62 686.562 408.292 686.031 407.906C685.51 407.521 685.109 407.068 684.828 406.547C684.547 406.026 684.406 405.417 684.406 404.719C684.406 404.052 684.552 403.422 684.844 402.828C685.146 402.234 685.568 401.708 686.109 401.25C686.661 400.792 687.323 400.432 688.094 400.172C688.865 399.911 689.724 399.781 690.672 399.781C692.026 399.781 693.182 400.021 694.141 400.5C695.099 400.979 695.833 401.62 696.344 402.422C696.854 403.214 697.109 404.094 697.109 405.062H694.219C694.219 404.594 694.078 404.141 693.797 403.703C693.526 403.255 693.125 402.885 692.594 402.594C692.073 402.302 691.432 402.156 690.672 402.156C689.87 402.156 689.219 402.281 688.719 402.531C688.229 402.771 687.87 403.078 687.641 403.453C687.422 403.828 687.312 404.224 687.312 404.641C687.312 404.953 687.365 405.234 687.469 405.484C687.583 405.724 687.781 405.948 688.062 406.156C688.344 406.354 688.74 406.542 689.25 406.719C689.76 406.896 690.411 407.073 691.203 407.25C692.589 407.562 693.729 407.938 694.625 408.375C695.521 408.812 696.188 409.349 696.625 409.984C697.062 410.62 697.281 411.391 697.281 412.297C697.281 413.036 697.125 413.714 696.812 414.328C696.51 414.943 696.068 415.474 695.484 415.922C694.911 416.359 694.224 416.703 693.422 416.953C692.63 417.193 691.74 417.312 690.75 417.312C689.26 417.312 688 417.047 686.969 416.516C685.938 415.984 685.156 415.297 684.625 414.453C684.094 413.609 683.828 412.719 683.828 411.781H686.734C686.776 412.573 687.005 413.203 687.422 413.672C687.839 414.13 688.349 414.458 688.953 414.656C689.557 414.844 690.156 414.938 690.75 414.938C691.542 414.938 692.203 414.833 692.734 414.625C693.276 414.417 693.688 414.13 693.969 413.766C694.25 413.401 694.391 412.984 694.391 412.516ZM701.125 415.469C701.125 414.979 701.276 414.568 701.578 414.234C701.891 413.891 702.339 413.719 702.922 413.719C703.505 413.719 703.948 413.891 704.25 414.234C704.562 414.568 704.719 414.979 704.719 415.469C704.719 415.948 704.562 416.354 704.25 416.688C703.948 417.021 703.505 417.188 702.922 417.188C702.339 417.188 701.891 417.021 701.578 416.688C701.276 416.354 701.125 415.948 701.125 415.469Z" fill="#34D399"/>
<path d="M1366.54 17.1445C1337.51 19.9588 1309.4 34.6964 1291.23 58.8279C1273.06 82.9484 1266.62 115.594 1239.24 132.425C1204.63 153.689 1164.99 134.088 1127.91 134.377C1089.58 134.675 1051.35 151.857 1026.56 181.254C999.673 213.135 989.613 258.165 999.388 298.598C1011.27 347.747 1056.16 383.88 1102.51 399.267C1157.26 417.447 1222.89 408.291 1268.05 371.39C1285.7 356.964 1299.52 338.194 1307.39 316.751C1319.45 283.873 1319.07 243.489 1345.66 220.697C1366.77 202.603 1397.64 202.506 1422.96 191.02C1483.46 163.57 1487.11 79.3873 1438.73 38.7633C1417.97 21.3293 1391.91 14.6856 1366.54 17.1445Z" fill="#E1E7FF"/>
<path d="M1052.88 315.32L1058.7 331.868" stroke="#202938" stroke-width="1.15603" stroke-miterlimit="10"/>
<path d="M1048.13 322.371L1049.72 326.891L1046.46 317.617L1045.48 314.826" stroke="#202938" stroke-width="1.15603" stroke-miterlimit="10"/>
<path d="M1064.15 316.742L1069.97 333.29" stroke="#202938" stroke-width="1.15603" stroke-miterlimit="10"/>
<path d="M1074.96 316.857L1080.77 333.405" stroke="#202938" stroke-width="1.15603" stroke-miterlimit="10"/>
<path d="M1084.98 314.742L1090.8 331.29" stroke="#202938" stroke-width="1.15603" stroke-miterlimit="10"/>
<path d="M1094.57 311.375L1100.38 327.922" stroke="#202938" stroke-width="1.15603" stroke-miterlimit="10"/>
<path d="M1112.39 303.701L1118.21 320.248" stroke="#202938" stroke-width="1.15603" stroke-miterlimit="10"/>
<path d="M1121.01 298.715L1126.83 315.263" stroke="#202938" stroke-width="1.15603" stroke-miterlimit="10"/>
<path d="M1129.63 293.727L1135.1 309.28" stroke="#202938" stroke-width="1.15603" stroke-miterlimit="10"/>
<path d="M1138.25 288.74L1142.38 300.476" stroke="#202938" stroke-width="1.15603" stroke-miterlimit="10"/>
<path d="M1104.15 308.006L1109.97 324.554" stroke="#202938" stroke-width="1.15603" stroke-miterlimit="10"/>
<path d="M1046.46 317.616L1049.72 326.89C1058.47 335.599 1082.86 335.41 1107.14 325.895C1131.07 316.516 1146.8 301.179 1144.93 290.015L1144.92 290.016L1141.9 281.407" stroke="#202938" stroke-width="1.15603" stroke-miterlimit="10"/>
<path d="M1100.03 316.067C1126.95 306.604 1145.97 290.947 1142.51 281.096C1139.04 271.246 1114.41 270.931 1087.49 280.394C1060.57 289.857 1041.55 305.514 1045.01 315.364C1048.48 325.215 1073.11 325.529 1100.03 316.067Z" fill="#F4B04D"/>
<mask id="mask0_509_12750" style="mask-type:luminance" maskUnits="userSpaceOnUse" x="1061" y="269" width="65" height="55">
<path d="M1102.19 307.76C1119.1 294.193 1128.79 278.176 1123.83 271.987C1118.86 265.797 1101.13 271.779 1084.21 285.346C1067.29 298.914 1057.61 314.931 1062.57 321.12C1067.54 327.31 1085.27 321.328 1102.19 307.76Z" fill="white"/>
</mask>
<g mask="url(#mask0_509_12750)">
<path d="M1097.95 310.149C1118.41 302.958 1132.86 291.06 1130.23 283.574C1127.6 276.089 1108.88 275.85 1088.42 283.041C1067.96 290.232 1053.51 302.129 1056.14 309.615C1058.77 317.101 1077.49 317.339 1097.95 310.149Z" fill="#F2D34E"/>
</g>
<mask id="mask1_509_12750" style="mask-type:luminance" maskUnits="userSpaceOnUse" x="1055" y="277" width="76" height="39">
<path d="M1097.95 310.149C1118.41 302.958 1132.86 291.06 1130.23 283.575C1127.6 276.089 1108.88 275.85 1088.42 283.041C1067.96 290.232 1053.51 302.13 1056.14 309.615C1058.77 317.101 1077.49 317.34 1097.95 310.149Z" fill="white"/>
</mask>
<g mask="url(#mask1_509_12750)">
<path d="M1057.83 313.289C1054 307.327 1067.32 296.056 1087.58 288.114C1107.85 280.172 1127.38 278.566 1131.21 284.528" stroke="#202938" stroke-width="1.15603" stroke-miterlimit="10"/>
</g>
<path d="M1277.76 379.66H1110.26C1105.57 379.66 1101.76 375.854 1101.76 371.159L1127.93 75.4028C1127.93 70.7076 1131.74 66.9014 1136.44 66.9014H1303.93C1308.62 66.9014 1312.43 70.7076 1312.43 75.4028L1286.26 371.159C1286.26 375.854 1282.45 379.66 1277.76 379.66Z" fill="#202938"/>
<path d="M1290.84 379.66H1123.35C1118.65 379.66 1114.85 375.854 1114.85 371.159L1141.02 75.4028C1141.02 70.7076 1144.83 66.9014 1149.52 66.9014H1317.01C1321.71 66.9014 1325.52 70.7076 1325.52 75.4028L1299.34 371.159C1299.34 375.854 1295.54 379.66 1290.84 379.66Z" stroke="#202938" stroke-width="1.15603" stroke-miterlimit="10"/>
<path d="M1271.8 373.175H1116.22C1112.52 373.175 1109.52 370.177 1109.52 366.478L1135.69 81.8255C1135.69 78.1262 1138.69 75.1274 1142.39 75.1274H1297.97C1301.67 75.1274 1304.67 78.1262 1304.67 81.8255L1278.5 366.478C1278.5 370.177 1275.5 373.175 1271.8 373.175Z" fill="#6466EF"/>
<path d="M1247.31 84.918H1193.06C1189.54 84.918 1186.7 82.0702 1186.7 78.5576V70.7544H1253.67V78.557C1253.67 82.0702 1250.82 84.918 1247.31 84.918Z" fill="#202938"/>
<path d="M1221.49 240.298H1050.16C1041.36 240.298 1034.21 233.157 1034.21 224.348C1034.21 215.54 1041.36 208.399 1050.16 208.399H1221.49C1230.3 208.399 1237.44 215.54 1237.44 224.348C1237.44 233.157 1230.3 240.298 1221.49 240.298Z" fill="white"/>
<path d="M1076.83 249.167L1081.49 231.771C1082.21 229.077 1079.75 226.612 1077.05 227.334L1059.66 231.995C1056.96 232.717 1056.06 236.084 1058.03 238.056L1060.1 240.126L1051.83 248.394C1050.47 249.762 1050.47 251.978 1051.83 253.346L1055.48 256.988C1056.84 258.355 1059.06 258.355 1060.43 256.988L1068.7 248.72L1070.77 250.79C1072.74 252.763 1076.11 251.861 1076.83 249.167Z" fill="#202938"/>
<path d="M1181.68 138.862H1170.55V175.654H1181.68V138.862Z" fill="#E1E7FF"/>
<path d="M1181.68 140.758H1170.55L1168.94 134.396H1183.56L1181.68 140.758Z" fill="#E1E7FF"/>
<path d="M1171.83 140.758H1181.68" stroke="#202938" stroke-width="1.15603" stroke-miterlimit="10"/>
<path d="M1170.56 175.653H1181.68L1183.29 182.014H1168.68L1170.56 175.653Z" fill="#E1E7FF"/>
<path d="M1180.41 175.653H1170.56" stroke="#202938" stroke-width="1.15603" stroke-miterlimit="10"/>
<path d="M1205.37 138.862H1194.24V175.654H1205.37V138.862Z" fill="#E1E7FF"/>
<path d="M1205.37 140.758H1194.24L1192.64 134.396H1207.25L1205.37 140.758Z" fill="#E1E7FF"/>
<path d="M1195.52 140.758H1205.37" stroke="#202938" stroke-width="1.15603" stroke-miterlimit="10"/>
<path d="M1194.25 175.653H1205.38L1206.98 182.014H1192.37L1194.25 175.653Z" fill="#E1E7FF"/>
<path d="M1204.1 175.653H1194.25" stroke="#202938" stroke-width="1.15603" stroke-miterlimit="10"/>
<path d="M1229.06 138.862H1217.93V175.654H1229.06V138.862Z" fill="#E1E7FF"/>
<path d="M1229.06 140.758H1217.93L1216.33 134.396H1230.94L1229.06 140.758Z" fill="#E1E7FF"/>
<path d="M1219.21 140.758H1229.06" stroke="#202938" stroke-width="1.15603" stroke-miterlimit="10"/>
<path d="M1217.94 175.653H1229.07L1230.67 182.014H1216.06L1217.94 175.653Z" fill="#E1E7FF"/>
<path d="M1227.79 175.653H1217.94" stroke="#202938" stroke-width="1.15603" stroke-miterlimit="10"/>
<path d="M1252.75 138.862H1241.62V175.654H1252.75V138.862Z" fill="#E1E7FF"/>
<path d="M1252.75 140.758H1241.62L1240.02 134.396H1254.63L1252.75 140.758Z" fill="#E1E7FF"/>
<path d="M1242.9 140.758H1252.75" stroke="#202938" stroke-width="1.15603" stroke-miterlimit="10"/>
<path d="M1241.63 175.653H1252.76L1254.37 182.014H1239.75L1241.63 175.653Z" fill="#E1E7FF"/>
<path d="M1251.48 175.653H1241.63" stroke="#202938" stroke-width="1.15603" stroke-miterlimit="10"/>
<path d="M1258.68 129.038H1165.25V134.396H1258.68V129.038Z" fill="#202938"/>
<path d="M1258.68 182.014H1165.25V187.371H1258.68V182.014Z" fill="#E1E7FF"/>
<path d="M1271.51 187.371H1152.42V192.877H1271.51V187.371Z" fill="#4F48E5"/>
<path d="M1162.4 124.825L1208.45 104.538C1211.28 103.292 1214.5 103.292 1217.33 104.538L1263.38 124.825C1265.55 125.784 1264.87 129.038 1262.49 129.038H1163.29C1160.91 129.038 1160.22 125.784 1162.4 124.825Z" fill="#E1E7FF"/>
<path d="M1181.43 121.965L1210.12 109.322C1211.89 108.546 1213.89 108.546 1215.66 109.322L1244.35 121.965C1245.71 122.563 1245.28 124.59 1243.8 124.59H1181.98C1180.5 124.59 1180.07 122.562 1181.43 121.965Z" fill="#4F48E5"/>
<path d="M1212.89 121.369C1214.76 121.369 1216.27 119.855 1216.27 117.986C1216.27 116.118 1214.76 114.604 1212.89 114.604C1211.02 114.604 1209.51 116.118 1209.51 117.986C1209.51 119.855 1211.02 121.369 1212.89 121.369Z" stroke="#202938" stroke-width="1.15603" stroke-miterlimit="10"/>
<path d="M1165.25 182.014H1258.68" stroke="#202938" stroke-width="1.15603" stroke-miterlimit="10"/>
<path d="M1165.25 187.371H1258.68" stroke="#202938" stroke-width="1.15603" stroke-miterlimit="10"/>
<path d="M1376.12 188.202L1368.22 179.699" stroke="#202938" stroke-width="1.15603" stroke-miterlimit="10"/>
<path d="M1365.93 193.109L1357.1 184.278" stroke="#202938" stroke-width="1.15603" stroke-miterlimit="10"/>
<path d="M1352.05 194.93L1345.32 188.203" stroke="#202938" stroke-width="1.15603" stroke-miterlimit="10"/>
<path d="M1388.29 179.781C1408.47 159.602 1408.47 126.886 1388.29 106.708C1368.11 86.529 1335.4 86.529 1315.22 106.708C1295.04 126.886 1295.04 159.602 1315.22 179.781C1335.4 199.959 1368.11 199.959 1388.29 179.781Z" stroke="#202938" stroke-width="1.15603" stroke-miterlimit="10"/>
<path d="M1393.57 173.632L1384.02 164.089" stroke="#202938" stroke-width="1.15603" stroke-miterlimit="10"/>
<path d="M1399.1 164.089L1389.56 154.545" stroke="#202938" stroke-width="1.15603" stroke-miterlimit="10"/>
<path d="M1402.61 152.513L1395.1 145.001" stroke="#202938" stroke-width="1.15603" stroke-miterlimit="10"/>
<path d="M1403.45 138.267L1394.72 129.541" stroke="#202938" stroke-width="1.15603" stroke-miterlimit="10"/>
<path d="M1386.1 181.869L1376.12 171.895" stroke="#202938" stroke-width="1.15603" stroke-miterlimit="10"/>
<path d="M1381 174.804C1401.18 154.626 1401.18 121.91 1381 101.731C1360.82 81.5525 1328.1 81.5525 1307.93 101.731C1287.75 121.91 1287.75 154.626 1307.93 174.804C1328.1 194.983 1360.82 194.983 1381 174.804Z" fill="#F4B04D"/>
<mask id="mask2_509_12750" style="mask-type:luminance" maskUnits="userSpaceOnUse" x="1305" y="99" width="79" height="79">
<path d="M1383.72 138.273C1383.72 116.588 1366.14 99.0085 1344.45 99.0085C1322.77 99.0085 1305.19 116.588 1305.19 138.273C1305.19 159.958 1322.77 177.537 1344.45 177.537C1366.14 177.537 1383.72 159.958 1383.72 138.273Z" fill="white"/>
</mask>
<g mask="url(#mask2_509_12750)">
<path d="M1372.23 166.032C1387.56 150.699 1387.56 125.838 1372.23 110.504C1356.89 95.1699 1332.03 95.1699 1316.7 110.504C1301.36 125.838 1301.36 150.699 1316.7 166.032C1332.03 181.366 1356.89 181.366 1372.23 166.032Z" fill="#F2D34E"/>
</g>
<mask id="mask3_509_12750" style="mask-type:luminance" maskUnits="userSpaceOnUse" x="1305" y="99" width="79" height="79">
<path d="M1372.23 166.031C1387.56 150.698 1387.56 125.837 1372.23 110.503C1356.89 95.169 1332.03 95.169 1316.7 110.503C1301.36 125.837 1301.36 150.698 1316.7 166.031C1332.03 181.365 1356.89 181.365 1372.23 166.031Z" fill="white"/>
</mask>
<g mask="url(#mask3_509_12750)">
<path d="M1335.53 177.304C1315.3 169.085 1305.57 146.027 1313.79 125.802C1322.01 105.577 1345.06 95.8436 1365.29 104.062" stroke="#202938" stroke-width="1.15603" stroke-miterlimit="10"/>
</g>
<path d="M1354.37 117.795C1356.51 117.795 1358.36 118.357 1359.92 119.493L1360.22 119.7C1361.66 120.756 1362.76 122.106 1363.52 123.745C1364.38 125.448 1364.8 127.239 1364.8 129.111C1364.8 131.236 1364.25 133.255 1363.14 135.163C1362.59 136.107 1361.92 136.931 1361.12 137.636C1360.83 137.895 1360.67 138.371 1360.71 138.884C1360.74 139.397 1360.97 139.831 1361.3 140.028C1362.49 140.747 1363.51 141.656 1364.35 142.756L1364.63 143.131C1365.99 145.031 1366.66 147.328 1366.66 150C1366.66 152.487 1366 154.607 1364.66 156.336L1364.66 156.34C1363.33 158.011 1361.53 159.277 1359.29 160.144L1359.28 160.143C1357.09 161.007 1354.68 161.437 1352.08 161.437H1333.15C1331.65 161.436 1330.42 160.215 1330.42 158.709V120.522C1330.42 119.016 1331.65 117.795 1333.15 117.795H1354.37ZM1341.71 143.085C1340.63 143.085 1339.76 143.957 1339.76 145.033V151.646C1339.76 152.722 1340.63 153.595 1341.71 153.595H1352.08C1353.05 153.595 1353.91 153.368 1354.67 152.923C1355.48 152.432 1356.12 151.795 1356.58 151.01C1357.04 150.226 1357.27 149.368 1357.27 148.43C1357.27 147.399 1357.05 146.498 1356.63 145.717L1356.63 145.71C1356.2 144.883 1355.63 144.254 1354.91 143.812L1354.9 143.806L1354.89 143.799C1354.22 143.326 1353.43 143.085 1352.51 143.085H1341.71ZM1341.71 125.698C1340.63 125.698 1339.76 126.571 1339.76 127.646V133.776C1339.76 134.852 1340.63 135.724 1341.71 135.725H1350.78C1351.66 135.725 1352.46 135.519 1353.19 135.111C1353.91 134.705 1354.48 134.132 1354.9 133.388L1354.9 133.381L1354.91 133.375C1355.36 132.643 1355.59 131.75 1355.59 130.682C1355.59 129.65 1355.38 128.772 1354.96 128.035L1354.95 128.021C1354.57 127.279 1354.04 126.711 1353.37 126.308L1353.36 126.302C1352.72 125.902 1351.99 125.698 1351.15 125.698H1341.71Z" fill="#4F48E5" stroke="#202938" stroke-width="0.779323"/>
<path d="M1327.56 448.473H1177.55L1200.93 253.091H1354.06L1327.56 448.473Z" fill="white"/>
<path d="M1235.77 298.429H1217.79L1219.98 280.509H1237.99L1235.77 298.429Z" stroke="#202938" stroke-width="1.15603" stroke-miterlimit="10"/>
<path d="M1253.74 298.429H1235.77L1237.99 280.509H1255.99L1253.74 298.429Z" stroke="#202938" stroke-width="1.15603" stroke-miterlimit="10"/>
<path d="M1271.71 298.429H1253.74L1255.99 280.509H1274L1271.71 298.429Z" stroke="#202938" stroke-width="1.15603" stroke-miterlimit="10"/>
<path d="M1289.68 298.429H1271.71L1274 280.509H1292L1289.68 298.429Z" stroke="#202938" stroke-width="1.15603" stroke-miterlimit="10"/>
<path d="M1307.65 298.429H1289.68L1292 280.509H1310.01L1307.65 298.429Z" stroke="#202938" stroke-width="1.15603" stroke-miterlimit="10"/>
<path d="M1325.62 298.429H1307.65L1310.01 280.509H1328.01L1325.62 298.429Z" stroke="#202938" stroke-width="1.15603" stroke-miterlimit="10"/>
<path d="M1233.56 316.282H1215.62L1217.8 298.43H1235.77L1233.56 316.282Z" stroke="#202938" stroke-width="1.15603" stroke-miterlimit="10"/>
<path d="M1251.49 316.282H1233.56L1235.77 298.43H1253.74L1251.49 316.282Z" stroke="#202938" stroke-width="1.15603" stroke-miterlimit="10"/>
<path d="M1269.43 316.282H1251.49L1253.74 298.43H1271.71L1269.43 316.282Z" stroke="#202938" stroke-width="1.15603" stroke-miterlimit="10"/>
<path d="M1287.37 316.282H1269.43L1271.71 298.43H1289.68L1287.37 316.282Z" stroke="#202938" stroke-width="1.15603" stroke-miterlimit="10"/>
<path d="M1305.31 316.282H1287.37L1289.68 298.43H1307.65L1305.31 316.282Z" stroke="#202938" stroke-width="1.15603" stroke-miterlimit="10"/>
<path d="M1323.24 316.282H1305.31L1307.65 298.43H1325.62L1323.24 316.282Z" stroke="#202938" stroke-width="1.15603" stroke-miterlimit="10"/>
<path d="M1231.35 334.068H1213.45L1215.62 316.282H1233.56L1231.35 334.068Z" stroke="#202938" stroke-width="1.15603" stroke-miterlimit="10"/>
<path d="M1249.26 334.068H1231.35L1233.56 316.282H1251.49L1249.26 334.068Z" stroke="#202938" stroke-width="1.15603" stroke-miterlimit="10"/>
<path d="M1267.16 334.068H1249.26L1251.49 316.282H1269.43L1267.16 334.068Z" stroke="#202938" stroke-width="1.15603" stroke-miterlimit="10"/>
<path d="M1285.07 334.068H1267.16L1269.43 316.282H1287.37L1285.07 334.068Z" stroke="#202938" stroke-width="1.15603" stroke-miterlimit="10"/>
<path d="M1302.97 334.068H1285.06L1287.37 316.282H1305.31L1302.97 334.068Z" stroke="#202938" stroke-width="1.15603" stroke-miterlimit="10"/>
<path d="M1320.87 334.068H1302.97L1305.31 316.282H1323.24L1320.87 334.068Z" stroke="#202938" stroke-width="1.15603" stroke-miterlimit="10"/>
<path d="M1229.16 351.788H1211.29L1213.45 334.068H1231.35L1229.16 351.788Z" stroke="#202938" stroke-width="1.15603" stroke-miterlimit="10"/>
<path d="M1247.03 351.788H1229.16L1231.35 334.068H1249.26L1247.03 351.788Z" stroke="#202938" stroke-width="1.15603" stroke-miterlimit="10"/>
<path d="M1264.9 351.788H1247.03L1249.26 334.068H1267.16L1264.9 351.788Z" stroke="#202938" stroke-width="1.15603" stroke-miterlimit="10"/>
<path d="M1282.77 351.788H1264.9L1267.16 334.068H1285.07L1282.77 351.788Z" stroke="#202938" stroke-width="1.15603" stroke-miterlimit="10"/>
<path d="M1300.64 351.788H1282.77L1285.07 334.068H1302.97L1300.64 351.788Z" stroke="#202938" stroke-width="1.15603" stroke-miterlimit="10"/>
<path d="M1318.51 351.788H1300.64L1302.97 334.068H1320.87L1318.51 351.788Z" stroke="#202938" stroke-width="1.15603" stroke-miterlimit="10"/>
<path d="M1226.97 369.441H1209.13L1211.29 351.788H1229.16L1226.97 369.441Z" stroke="#202938" stroke-width="1.15603" stroke-miterlimit="10"/>
<path d="M1244.81 369.441H1226.97L1229.16 351.788H1247.03L1244.81 369.441Z" stroke="#202938" stroke-width="1.15603" stroke-miterlimit="10"/>
<path d="M1262.65 369.441H1244.81L1247.03 351.788H1264.9L1262.65 369.441Z" stroke="#202938" stroke-width="1.15603" stroke-miterlimit="10"/>
<path d="M1280.48 369.441H1262.65L1264.9 351.788H1282.77L1280.48 369.441Z" stroke="#202938" stroke-width="1.15603" stroke-miterlimit="10"/>
<path d="M1298.32 369.441H1280.48L1282.77 351.788H1300.64L1298.32 369.441Z" stroke="#202938" stroke-width="1.15603" stroke-miterlimit="10"/>
<path d="M1316.16 369.441H1298.32L1300.64 351.788H1318.51L1316.16 369.441Z" stroke="#202938" stroke-width="1.15603" stroke-miterlimit="10"/>
<path d="M1224.79 387.029H1206.99L1209.13 369.441H1226.97L1224.79 387.029Z" stroke="#202938" stroke-width="1.15603" stroke-miterlimit="10"/>
<path d="M1242.6 387.029H1224.79L1226.97 369.441H1244.81L1242.6 387.029Z" stroke="#202938" stroke-width="1.15603" stroke-miterlimit="10"/>
<path d="M1260.4 387.029H1242.6L1244.81 369.441H1262.65L1260.4 387.029Z" stroke="#202938" stroke-width="1.15603" stroke-miterlimit="10"/>
<path d="M1278.21 387.029H1260.4L1262.65 369.441H1280.48L1278.21 387.029Z" stroke="#202938" stroke-width="1.15603" stroke-miterlimit="10"/>
<path d="M1296.01 387.029H1278.21L1280.48 369.441H1298.32L1296.01 387.029Z" stroke="#202938" stroke-width="1.15603" stroke-miterlimit="10"/>
<path d="M1313.81 387.029H1296.01L1298.32 369.441H1316.16L1313.81 387.029Z" stroke="#202938" stroke-width="1.15603" stroke-miterlimit="10"/>
<path d="M1222.62 404.552H1204.85L1206.99 387.029H1224.79L1222.62 404.552Z" stroke="#202938" stroke-width="1.15603" stroke-miterlimit="10"/>
<path d="M1240.39 404.552H1222.62L1224.79 387.029H1242.6L1240.39 404.552Z" stroke="#202938" stroke-width="1.15603" stroke-miterlimit="10"/>
<path d="M1258.17 404.552H1240.39L1242.6 387.029H1260.4L1258.17 404.552Z" stroke="#202938" stroke-width="1.15603" stroke-miterlimit="10"/>
<path d="M1275.94 404.552H1258.17L1260.4 387.029H1278.21L1275.94 404.552Z" stroke="#202938" stroke-width="1.15603" stroke-miterlimit="10"/>
<path d="M1293.71 404.552H1275.94L1278.21 387.029H1296.01L1293.71 404.552Z" stroke="#202938" stroke-width="1.15603" stroke-miterlimit="10"/>
<path d="M1311.48 404.552H1293.71L1296.01 387.029H1313.81L1311.48 404.552Z" stroke="#202938" stroke-width="1.15603" stroke-miterlimit="10"/>
<path d="M1220.46 422.011H1202.72L1204.85 404.553H1222.62L1220.46 422.011Z" stroke="#202938" stroke-width="1.15603" stroke-miterlimit="10"/>
<path d="M1238.2 422.011H1220.46L1222.62 404.553H1240.39L1238.2 422.011Z" stroke="#202938" stroke-width="1.15603" stroke-miterlimit="10"/>
<path d="M1255.94 422.011H1238.2L1240.39 404.553H1258.17L1255.94 422.011Z" stroke="#202938" stroke-width="1.15603" stroke-miterlimit="10"/>
<path d="M1273.68 422.011H1255.94L1258.17 404.553H1275.94L1273.68 422.011Z" stroke="#202938" stroke-width="1.15603" stroke-miterlimit="10"/>
<path d="M1291.41 422.011H1273.67L1275.94 404.553H1293.71L1291.41 422.011Z" stroke="#202938" stroke-width="1.15603" stroke-miterlimit="10"/>
<path d="M1309.15 422.011H1291.41L1293.71 404.553H1311.48L1309.15 422.011Z" stroke="#202938" stroke-width="1.15603" stroke-miterlimit="10"/>
<path d="M1213.31 412.267L1208.28 409.404L1260.14 332.256L1270.17 367.995L1307.96 309.887L1313.08 312.703L1267.63 382.523L1257.52 346.58L1213.31 412.267Z" fill="#34D399"/>
<path d="M1312.13 326.927L1309.47 312.911L1294.76 317.399L1299.87 309.539L1314.59 305.049L1317.24 319.082L1312.13 326.927Z" fill="#34D399"/>
<path d="M1243.23 365.113C1243.84 360.207 1240.32 356.227 1235.35 356.227C1230.38 356.227 1225.87 360.207 1225.26 365.113C1224.65 370.014 1228.18 373.983 1233.14 373.983C1238.09 373.983 1242.61 370.014 1243.23 365.113Z" fill="#4F48E5"/>
<path d="M1293.64 337.388C1294.29 332.453 1290.77 328.449 1285.79 328.449C1280.81 328.449 1276.26 332.453 1275.63 337.388C1274.99 342.317 1278.51 346.309 1283.48 346.309C1288.45 346.309 1293 342.317 1293.64 337.388Z" fill="#14B881"/>
<path d="M1140.4 413.859L1128.02 426.291" stroke="#202938" stroke-width="1.15603" stroke-miterlimit="10"/>
<path d="M1131.98 412.648L1128.6 416.043L1135.54 409.076L1137.62 406.979" stroke="#202938" stroke-width="1.15603" stroke-miterlimit="10"/>
<path d="M1144.02 424.624L1131.64 437.056" stroke="#202938" stroke-width="1.15603" stroke-miterlimit="10"/>
<path d="M1148.61 434.407L1136.24 446.84" stroke="#202938" stroke-width="1.15603" stroke-miterlimit="10"/>
<path d="M1154.87 442.514L1142.5 454.947" stroke="#202938" stroke-width="1.15603" stroke-miterlimit="10"/>
<path d="M1162.08 449.681L1149.7 462.114" stroke="#202938" stroke-width="1.15603" stroke-miterlimit="10"/>
<path d="M1176.74 462.396L1164.36 474.829" stroke="#202938" stroke-width="1.15603" stroke-miterlimit="10"/>
<path d="M1184.98 467.991L1172.6 480.424" stroke="#202938" stroke-width="1.15603" stroke-miterlimit="10"/>
<path d="M1193.21 473.585L1181.58 485.27" stroke="#202938" stroke-width="1.15603" stroke-miterlimit="10"/>
<path d="M1201.45 479.179L1192.68 487.996" stroke="#202938" stroke-width="1.15603" stroke-miterlimit="10"/>
<path d="M1169.27 456.847L1156.9 469.279" stroke="#202938" stroke-width="1.15603" stroke-miterlimit="10"/>
<path d="M1135.54 409.075L1128.6 416.043C1124.57 427.712 1135.34 449.591 1154.47 467.317C1173.32 484.786 1193.97 492.281 1203.21 485.741L1203.2 485.739L1209.64 479.271" stroke="#202938" stroke-width="1.15603" stroke-miterlimit="10"/>
<path d="M1210.13 479.686C1217.5 472.285 1207.07 449.967 1186.84 429.837C1166.62 409.707 1144.25 399.388 1136.88 406.789C1129.52 414.19 1139.94 436.508 1160.17 456.638C1180.4 476.768 1202.77 487.087 1210.13 479.686Z" fill="#F4B04D"/>
<mask id="mask4_509_12750" style="mask-type:luminance" maskUnits="userSpaceOnUse" x="1135" y="427" width="79" height="30">
<path d="M1213.99 441.829C1213.95 433.895 1196.34 427.547 1174.66 427.651C1152.97 427.756 1135.43 434.272 1135.46 442.207C1135.5 450.141 1153.11 456.489 1174.8 456.385C1196.48 456.281 1214.03 449.764 1213.99 441.829Z" fill="white"/>
</mask>
<g mask="url(#mask4_509_12750)">
<path d="M1202.56 469.704C1208.16 464.08 1200.24 447.12 1184.86 431.823C1169.49 416.526 1152.5 408.685 1146.9 414.309C1141.3 419.933 1149.23 436.893 1164.6 452.19C1179.97 467.487 1196.96 475.329 1202.56 469.704Z" fill="#F2D34E"/>
</g>
<mask id="mask5_509_12750" style="mask-type:luminance" maskUnits="userSpaceOnUse" x="1145" y="412" width="60" height="60">
<path d="M1202.56 469.706C1208.16 464.082 1200.24 447.121 1184.87 431.824C1169.49 416.527 1152.5 408.686 1146.9 414.31C1141.3 419.934 1149.23 436.894 1164.6 452.191C1179.97 467.488 1196.96 475.33 1202.56 469.706Z" fill="white"/>
</mask>
<g mask="url(#mask5_509_12750)">
<path d="M1144.37 417.427C1148.08 411.385 1164.02 418.481 1179.98 433.276C1195.95 448.071 1205.89 464.962 1202.18 471.004" stroke="#202938" stroke-width="1.15603" stroke-miterlimit="10"/>
</g>
<path d="M1046.32 83.1492L1041.15 77.9783C1039.96 76.7963 1038.05 76.7963 1036.87 77.9783L1031.7 83.1492C1030.51 84.3313 1030.51 86.2474 1031.7 87.4294L1036.87 92.6003C1038.05 93.7824 1039.96 93.7824 1041.15 92.6003L1046.32 87.4294C1047.5 86.2474 1047.5 84.3313 1046.32 83.1492Z" fill="#ECF0FE"/>
<path d="M1403.46 264.072L1398.29 258.901C1397.11 257.719 1395.2 257.719 1394.01 258.901L1388.84 264.072C1387.66 265.254 1387.66 267.17 1388.84 268.352L1394.01 273.523C1395.2 274.705 1397.11 274.705 1398.29 273.523L1403.46 268.352C1404.65 267.17 1404.65 265.254 1403.46 264.072Z" fill="#34D399"/>
<path d="M1055.79 116.407C1057.84 116.407 1059.51 114.742 1059.51 112.689C1059.51 110.636 1057.84 108.972 1055.79 108.972C1053.74 108.972 1052.07 110.636 1052.07 112.689C1052.07 114.742 1053.74 116.407 1055.79 116.407Z" fill="#202938"/>
<path d="M1376.12 300.347C1378.18 300.347 1379.84 298.683 1379.84 296.63C1379.84 294.577 1378.18 292.913 1376.12 292.913C1374.07 292.913 1372.41 294.577 1372.41 296.63C1372.41 298.683 1374.07 300.347 1376.12 300.347Z" fill="#202938"/>
</g>
<rect x="2" y="2" width="1532" height="508" rx="22" stroke="#34D399" stroke-width="4"/>
<defs>
<clipPath id="clip0_509_12750">
<rect width="1536" height="512" rx="24" fill="white"/>
</clipPath>
</defs>
</svg>
