<svg width="392" height="512" viewBox="0 0 392 512" fill="none" xmlns="http://www.w3.org/2000/svg">
<rect x="2" y="2" width="388" height="508" rx="22" fill="#4F48E5"/>
<rect x="2" y="2" width="388" height="508" rx="22" stroke="#14B881" stroke-width="4"/>
<path d="M297.524 84.6066C275.372 86.7557 253.921 98.0095 240.05 116.437C226.186 134.855 221.278 159.784 200.377 172.637C173.972 188.874 143.716 173.906 115.421 174.127C86.1714 174.354 56.999 187.475 38.0818 209.923C17.5661 234.268 9.88904 268.653 17.3482 299.528C26.4156 337.06 60.6745 364.651 96.0406 376.401C137.824 390.283 187.906 383.292 222.365 355.113C235.837 344.097 246.377 329.764 252.383 313.39C261.591 288.284 261.301 257.446 281.592 240.042C297.701 226.225 321.257 226.152 340.578 217.38C386.748 196.419 389.527 132.136 352.613 101.115C336.772 87.8022 316.88 82.729 297.524 84.6066Z" fill="#E1E7FF"/>
<path d="M58.171 312.297L62.6088 324.934" stroke="#202938" stroke-width="0.950027" stroke-miterlimit="10"/>
<path d="M54.546 317.682L55.7581 321.133L53.2708 314.051L52.5227 311.92" stroke="#202938" stroke-width="0.950027" stroke-miterlimit="10"/>
<path d="M66.769 313.383L71.2072 326.019" stroke="#202938" stroke-width="0.950027" stroke-miterlimit="10"/>
<path d="M75.0168 313.471L79.455 326.107" stroke="#202938" stroke-width="0.950027" stroke-miterlimit="10"/>
<path d="M82.667 311.856L87.1047 324.493" stroke="#202938" stroke-width="0.950027" stroke-miterlimit="10"/>
<path d="M89.9805 309.285L94.4182 321.921" stroke="#202938" stroke-width="0.950027" stroke-miterlimit="10"/>
<path d="M103.583 303.425L108.021 316.061" stroke="#202938" stroke-width="0.950027" stroke-miterlimit="10"/>
<path d="M110.161 299.617L114.599 312.254" stroke="#202938" stroke-width="0.950027" stroke-miterlimit="10"/>
<path d="M116.74 295.809L120.911 307.685" stroke="#202938" stroke-width="0.950027" stroke-miterlimit="10"/>
<path d="M123.318 292.001L126.465 300.962" stroke="#202938" stroke-width="0.950027" stroke-miterlimit="10"/>
<path d="M97.2939 306.713L101.732 319.349" stroke="#202938" stroke-width="0.950027" stroke-miterlimit="10"/>
<path d="M53.2711 314.051L55.7579 321.132C62.4377 327.783 81.0475 327.639 99.5752 320.373C117.835 313.21 129.838 301.499 128.409 292.974L128.408 292.975L126.099 286.401" stroke="#202938" stroke-width="0.950027" stroke-miterlimit="10"/>
<path d="M94.1482 312.868C114.692 305.642 129.205 293.686 126.563 286.164C123.92 278.642 105.124 278.402 84.58 285.628C64.0358 292.854 49.5234 304.81 52.1656 312.332C54.8078 319.854 73.6041 320.094 94.1482 312.868Z" fill="#F4B04D"/>
<mask id="mask0_317_39318" style="mask-type:luminance" maskUnits="userSpaceOnUse" x="64" y="277" width="50" height="42">
<path d="M95.7937 306.522C108.703 296.16 116.099 283.93 112.312 279.205C108.525 274.48 94.9893 279.05 82.0796 289.412C69.1699 299.774 61.7745 312.004 65.5615 316.729C69.3486 321.454 82.884 316.884 95.7937 306.522Z" fill="white"/>
</mask>
<g mask="url(#mask0_317_39318)">
<path d="M92.5602 308.346C108.173 302.853 119.202 293.768 117.195 288.053C115.189 282.339 100.905 282.159 85.2926 287.651C69.68 293.144 58.6505 302.229 60.6574 307.944C62.6643 313.658 76.9477 313.838 92.5602 308.346Z" fill="#F2D34E"/>
</g>
<mask id="mask1_317_39318" style="mask-type:luminance" maskUnits="userSpaceOnUse" x="60" y="283" width="58" height="30">
<path d="M92.5616 308.349C108.173 302.858 119.201 293.773 117.193 288.057C115.186 282.341 100.902 282.158 85.2905 287.649C69.6789 293.14 58.6509 302.226 60.6587 307.942C62.6666 313.658 76.9499 313.84 92.5616 308.349Z" fill="white"/>
</mask>
<g mask="url(#mask1_317_39318)">
<path d="M61.9431 310.747C59.0196 306.195 69.1862 297.588 84.6501 291.523C100.114 285.459 115.02 284.232 117.943 288.784" stroke="#202938" stroke-width="0.950027" stroke-miterlimit="10"/>
</g>
<path d="M229.773 361.429H101.958C98.3746 361.429 95.4701 358.522 95.4701 354.937L115.442 129.093C115.442 125.508 118.346 122.602 121.929 122.602H249.744C253.327 122.602 256.232 125.508 256.232 129.093L236.26 354.937C236.26 358.522 233.356 361.429 229.773 361.429Z" fill="#202938"/>
<path d="M239.759 361.429H111.943C108.36 361.429 105.456 358.522 105.456 354.937L125.428 129.093C125.428 125.508 128.332 122.602 131.915 122.602H259.73C263.313 122.602 266.217 125.508 266.217 129.093L246.246 354.937C246.246 358.522 243.342 361.429 239.759 361.429Z" stroke="#202938" stroke-width="0.950027" stroke-miterlimit="10"/>
<path d="M225.229 356.477H106.5C103.677 356.477 101.388 354.187 101.388 351.362L121.36 133.998C121.36 131.173 123.649 128.883 126.472 128.883H245.201C248.024 128.883 250.312 131.173 250.312 133.998L230.34 351.362C230.341 354.187 228.052 356.477 225.229 356.477Z" fill="#6466EF"/>
<path d="M206.537 136.359H165.138C162.457 136.359 160.284 134.185 160.284 131.502V125.544H211.391V131.502C211.391 134.185 209.217 136.359 206.537 136.359Z" fill="#202938"/>
<path d="M186.837 255.009H56.0954C49.3737 255.009 43.9246 249.557 43.9246 242.83C43.9246 236.104 49.3737 230.652 56.0954 230.652H186.837C193.559 230.652 199.008 236.104 199.008 242.83C199.008 249.557 193.559 255.009 186.837 255.009Z" fill="white"/>
<path d="M76.4435 261.782L80.0004 248.499C80.5513 246.441 78.6701 244.559 76.6142 245.11L63.3393 248.669C61.2834 249.221 60.5949 251.792 62.0999 253.298L63.6798 254.879L57.3706 261.192C56.327 262.237 56.327 263.929 57.3706 264.974L60.1494 267.754C61.193 268.798 62.8846 268.798 63.9282 267.754L70.2374 261.441L71.8174 263.022C73.3228 264.528 75.8926 263.839 76.4435 261.782Z" fill="#202938"/>
<path d="M156.452 177.552H147.961V205.646H156.452V177.552Z" fill="#E1E7FF"/>
<path d="M156.452 178.999H147.961L146.737 174.142H157.886L156.452 178.999Z" fill="#E1E7FF"/>
<path d="M148.935 178.999H156.452" stroke="#202938" stroke-width="0.950027" stroke-miterlimit="10"/>
<path d="M147.968 205.646H156.459L157.683 210.503H146.533L147.968 205.646Z" fill="#E1E7FF"/>
<path d="M155.485 205.646H147.968" stroke="#202938" stroke-width="0.950027" stroke-miterlimit="10"/>
<path d="M174.532 177.552H166.042V205.646H174.532V177.552Z" fill="#E1E7FF"/>
<path d="M174.532 178.999H166.041L164.816 174.142H175.967L174.532 178.999Z" fill="#E1E7FF"/>
<path d="M167.015 178.999H174.532" stroke="#202938" stroke-width="0.950027" stroke-miterlimit="10"/>
<path d="M166.048 205.646H174.538L175.763 210.503H164.613L166.048 205.646Z" fill="#E1E7FF"/>
<path d="M173.565 205.646H166.048" stroke="#202938" stroke-width="0.950027" stroke-miterlimit="10"/>
<path d="M192.611 177.552H184.12V205.646H192.611V177.552Z" fill="#E1E7FF"/>
<path d="M192.611 178.999H184.12L182.895 174.142H194.045L192.611 178.999Z" fill="#E1E7FF"/>
<path d="M185.094 178.999H192.611" stroke="#202938" stroke-width="0.950027" stroke-miterlimit="10"/>
<path d="M184.127 205.646H192.618L193.842 210.503H182.692L184.127 205.646Z" fill="#E1E7FF"/>
<path d="M191.644 205.646H184.127" stroke="#202938" stroke-width="0.950027" stroke-miterlimit="10"/>
<path d="M210.69 177.552H202.199V205.646H210.69V177.552Z" fill="#E1E7FF"/>
<path d="M210.69 178.999H202.199L200.974 174.142H212.125L210.69 178.999Z" fill="#E1E7FF"/>
<path d="M203.174 178.999H210.691" stroke="#202938" stroke-width="0.950027" stroke-miterlimit="10"/>
<path d="M202.206 205.646H210.697L211.922 210.503H200.771L202.206 205.646Z" fill="#E1E7FF"/>
<path d="M209.723 205.646H202.207" stroke="#202938" stroke-width="0.950027" stroke-miterlimit="10"/>
<path d="M215.214 170.05H143.917V174.141H215.214V170.05Z" fill="#202938"/>
<path d="M215.214 210.503H143.917V214.594H215.214V210.503Z" fill="#E1E7FF"/>
<path d="M225.002 214.594H134.129V218.798H225.002V214.594Z" fill="#4F48E5"/>
<path d="M141.745 166.833L176.885 151.341C179.043 150.39 181.5 150.39 183.658 151.341L218.799 166.833C220.461 167.565 219.938 170.05 218.122 170.05H142.421C140.605 170.05 140.083 167.565 141.745 166.833Z" fill="#E1E7FF"/>
<path d="M156.262 164.649L178.162 154.994C179.506 154.402 181.038 154.402 182.383 154.994L204.282 164.649C205.318 165.106 204.992 166.653 203.86 166.653H156.684C155.552 166.653 155.226 165.105 156.262 164.649Z" fill="#4F48E5"/>
<path d="M180.271 164.194C181.697 164.194 182.852 163.037 182.852 161.611C182.852 160.184 181.697 159.028 180.271 159.028C178.846 159.028 177.69 160.184 177.69 161.611C177.69 163.037 178.846 164.194 180.271 164.194Z" stroke="#202938" stroke-width="0.950027" stroke-miterlimit="10"/>
<path d="M143.917 210.503H215.214" stroke="#202938" stroke-width="0.950027" stroke-miterlimit="10"/>
<path d="M143.917 214.594H215.214" stroke="#202938" stroke-width="0.950027" stroke-miterlimit="10"/>
<path d="M304.835 215.229L298.808 208.736" stroke="#202938" stroke-width="0.950027" stroke-miterlimit="10"/>
<path d="M297.056 218.975L290.318 212.232" stroke="#202938" stroke-width="0.950027" stroke-miterlimit="10"/>
<path d="M286.463 220.366L281.33 215.229" stroke="#202938" stroke-width="0.950027" stroke-miterlimit="10"/>
<path d="M314.121 208.798C329.52 193.389 329.52 168.407 314.121 152.998C298.723 137.59 273.757 137.59 258.359 152.998C242.961 168.407 242.961 193.389 258.359 208.798C273.757 224.206 298.723 224.206 314.121 208.798Z" stroke="#202938" stroke-width="0.950027" stroke-miterlimit="10"/>
<path d="M318.146 204.103L310.863 196.815" stroke="#202938" stroke-width="0.950027" stroke-miterlimit="10"/>
<path d="M322.372 196.816L315.089 189.528" stroke="#202938" stroke-width="0.950027" stroke-miterlimit="10"/>
<path d="M325.048 187.976L319.315 182.24" stroke="#202938" stroke-width="0.950027" stroke-miterlimit="10"/>
<path d="M325.687 177.098L319.028 170.434" stroke="#202938" stroke-width="0.950027" stroke-miterlimit="10"/>
<path d="M312.447 210.393L304.835 202.776" stroke="#202938" stroke-width="0.950027" stroke-miterlimit="10"/>
<path d="M308.556 204.998C323.955 189.589 323.955 164.607 308.556 149.198C293.158 133.789 268.193 133.789 252.794 149.198C237.396 164.607 237.396 189.589 252.794 204.998C268.193 220.406 293.158 220.406 308.556 204.998Z" fill="#F4B04D"/>
<mask id="mask2_317_39318" style="mask-type:luminance" maskUnits="userSpaceOnUse" x="250" y="147" width="61" height="61">
<path d="M310.632 177.102C310.632 160.543 297.218 147.119 280.67 147.119C264.122 147.119 250.707 160.543 250.707 177.102C250.707 193.661 264.122 207.084 280.67 207.084C297.218 207.084 310.632 193.661 310.632 177.102Z" fill="white"/>
</mask>
<g mask="url(#mask2_317_39318)">
<path d="M301.862 198.299C313.563 186.59 313.563 167.606 301.862 155.897C290.16 144.188 271.189 144.188 259.488 155.897C247.786 167.606 247.786 186.59 259.488 198.299C271.189 210.009 290.16 210.009 301.862 198.299Z" fill="#F2D34E"/>
</g>
<mask id="mask3_317_39318" style="mask-type:luminance" maskUnits="userSpaceOnUse" x="250" y="147" width="61" height="61">
<path d="M301.862 198.299C313.563 186.59 313.563 167.605 301.862 155.896C290.161 144.187 271.189 144.187 259.488 155.896C247.787 167.605 247.787 186.59 259.488 198.299C271.189 210.008 290.161 210.008 301.862 198.299Z" fill="white"/>
</mask>
<g mask="url(#mask3_317_39318)">
<path d="M273.858 206.906C258.424 200.631 250.997 183.023 257.268 167.579C263.539 152.135 281.135 144.702 296.569 150.978" stroke="#202938" stroke-width="0.950027" stroke-miterlimit="10"/>
</g>
<path d="M288.237 161.442C289.869 161.442 291.29 161.872 292.485 162.743C293.698 163.573 294.618 164.66 295.241 165.999L295.359 166.244C295.933 167.474 296.221 168.762 296.221 170.106C296.221 171.732 295.794 173.279 294.947 174.739C294.562 175.402 294.097 175.989 293.55 176.499C293.313 176.72 293.184 177.123 293.217 177.556C293.249 177.99 293.436 178.357 293.703 178.527C294.544 179.061 295.267 179.724 295.871 180.514H295.87C297.055 182.023 297.64 183.877 297.64 186.056C297.64 187.96 297.134 189.584 296.106 190.909L296.104 190.912C295.086 192.192 293.712 193.161 291.995 193.824L291.994 193.823C290.314 194.484 288.476 194.813 286.486 194.813H272.182C270.944 194.813 269.941 193.81 269.94 192.572V163.683C269.941 162.446 270.944 161.442 272.182 161.442H288.237ZM278.71 180.799C277.826 180.799 277.109 181.516 277.109 182.4V187.178C277.11 188.062 277.826 188.779 278.71 188.779H286.486C287.131 188.779 287.711 188.648 288.233 188.388L288.454 188.269C289.07 187.897 289.551 187.413 289.9 186.817C290.249 186.222 290.424 185.571 290.424 184.858C290.424 184.074 290.26 183.389 289.941 182.797L289.938 182.792C289.616 182.163 289.182 181.686 288.637 181.35L288.629 181.345L288.62 181.34C288.111 180.982 287.514 180.799 286.817 180.799H278.71ZM278.71 167.522C277.826 167.522 277.109 168.24 277.109 169.124V173.533C277.11 174.417 277.826 175.133 278.71 175.134H285.493C286.166 175.134 286.775 174.977 287.323 174.668C287.87 174.359 288.301 173.925 288.62 173.36L288.626 173.349H288.627C288.969 172.794 289.146 172.118 289.146 171.305C289.146 170.521 288.983 169.854 288.668 169.296L288.661 169.285V169.284C288.372 168.721 287.971 168.29 287.458 167.984L287.451 167.98C286.971 167.677 286.417 167.522 285.777 167.522H278.71Z" fill="#4F48E5" stroke="#202938" stroke-width="0.64045"/>
<path d="M267.781 413.974H153.309L171.147 264.779H288.001L267.781 413.974Z" fill="white"/>
<path d="M197.73 299.4H184.016L185.684 285.716H199.423L197.73 299.4Z" stroke="#202938" stroke-width="0.950027" stroke-miterlimit="10"/>
<path d="M211.444 299.4H197.73L199.424 285.716H213.164L211.444 299.4Z" stroke="#202938" stroke-width="0.950027" stroke-miterlimit="10"/>
<path d="M225.158 299.4H211.444L213.163 285.716H226.903L225.158 299.4Z" stroke="#202938" stroke-width="0.950027" stroke-miterlimit="10"/>
<path d="M238.872 299.4H225.157L226.903 285.716H240.643L238.872 299.4Z" stroke="#202938" stroke-width="0.950027" stroke-miterlimit="10"/>
<path d="M252.586 299.4H238.872L240.643 285.716H254.382L252.586 299.4Z" stroke="#202938" stroke-width="0.950027" stroke-miterlimit="10"/>
<path d="M266.299 299.4H252.585L254.382 285.716H268.122L266.299 299.4Z" stroke="#202938" stroke-width="0.950027" stroke-miterlimit="10"/>
<path d="M196.043 313.032H182.355L184.017 299.4H197.73L196.043 313.032Z" stroke="#202938" stroke-width="0.950027" stroke-miterlimit="10"/>
<path d="M209.731 313.032H196.043L197.73 299.4H211.444L209.731 313.032Z" stroke="#202938" stroke-width="0.950027" stroke-miterlimit="10"/>
<path d="M223.419 313.032H209.731L211.444 299.4H225.158L223.419 313.032Z" stroke="#202938" stroke-width="0.950027" stroke-miterlimit="10"/>
<path d="M237.107 313.032H223.419L225.158 299.4H238.872L237.107 313.032Z" stroke="#202938" stroke-width="0.950027" stroke-miterlimit="10"/>
<path d="M250.796 313.032H237.108L238.872 299.4H252.586L250.796 313.032Z" stroke="#202938" stroke-width="0.950027" stroke-miterlimit="10"/>
<path d="M264.484 313.032H250.796L252.586 299.4H266.3L264.484 313.032Z" stroke="#202938" stroke-width="0.950027" stroke-miterlimit="10"/>
<path d="M194.361 326.614H180.698L182.354 313.032H196.042L194.361 326.614Z" stroke="#202938" stroke-width="0.950027" stroke-miterlimit="10"/>
<path d="M208.024 326.614H194.361L196.043 313.032H209.731L208.024 326.614Z" stroke="#202938" stroke-width="0.950027" stroke-miterlimit="10"/>
<path d="M221.687 326.614H208.024L209.731 313.032H223.419L221.687 326.614Z" stroke="#202938" stroke-width="0.950027" stroke-miterlimit="10"/>
<path d="M235.35 326.614H221.688L223.42 313.032H237.108L235.35 326.614Z" stroke="#202938" stroke-width="0.950027" stroke-miterlimit="10"/>
<path d="M249.012 326.614H235.35L237.107 313.032H250.796L249.012 326.614Z" stroke="#202938" stroke-width="0.950027" stroke-miterlimit="10"/>
<path d="M262.675 326.614H249.012L250.796 313.032H264.484L262.675 326.614Z" stroke="#202938" stroke-width="0.950027" stroke-miterlimit="10"/>
<path d="M192.687 340.145H179.05L180.699 326.614H194.361L192.687 340.145Z" stroke="#202938" stroke-width="0.950027" stroke-miterlimit="10"/>
<path d="M206.324 340.145H192.687L194.361 326.614H208.024L206.324 340.145Z" stroke="#202938" stroke-width="0.950027" stroke-miterlimit="10"/>
<path d="M219.961 340.145H206.324L208.025 326.614H221.687L219.961 340.145Z" stroke="#202938" stroke-width="0.950027" stroke-miterlimit="10"/>
<path d="M233.599 340.145H219.961L221.687 326.614H235.35L233.599 340.145Z" stroke="#202938" stroke-width="0.950027" stroke-miterlimit="10"/>
<path d="M247.236 340.145H233.599L235.35 326.614H249.013L247.236 340.145Z" stroke="#202938" stroke-width="0.950027" stroke-miterlimit="10"/>
<path d="M260.873 340.145H247.235L249.012 326.614H262.674L260.873 340.145Z" stroke="#202938" stroke-width="0.950027" stroke-miterlimit="10"/>
<path d="M191.018 353.625H177.406L179.049 340.145H192.686L191.018 353.625Z" stroke="#202938" stroke-width="0.950027" stroke-miterlimit="10"/>
<path d="M204.63 353.625H191.018L192.687 340.145H206.324L204.63 353.625Z" stroke="#202938" stroke-width="0.950027" stroke-miterlimit="10"/>
<path d="M218.241 353.625H204.629L206.323 340.145H219.96L218.241 353.625Z" stroke="#202938" stroke-width="0.950027" stroke-miterlimit="10"/>
<path d="M231.854 353.625H218.242L219.961 340.145H233.598L231.854 353.625Z" stroke="#202938" stroke-width="0.950027" stroke-miterlimit="10"/>
<path d="M245.465 353.625H231.854L233.598 340.145H247.235L245.465 353.625Z" stroke="#202938" stroke-width="0.950027" stroke-miterlimit="10"/>
<path d="M259.077 353.625H245.466L247.236 340.145H260.873L259.077 353.625Z" stroke="#202938" stroke-width="0.950027" stroke-miterlimit="10"/>
<path d="M189.356 367.056H175.769L177.406 353.625H191.018L189.356 367.056Z" stroke="#202938" stroke-width="0.950027" stroke-miterlimit="10"/>
<path d="M202.942 367.056H189.355L191.017 353.625H204.629L202.942 367.056Z" stroke="#202938" stroke-width="0.950027" stroke-miterlimit="10"/>
<path d="M216.529 367.056H202.942L204.63 353.625H218.242L216.529 367.056Z" stroke="#202938" stroke-width="0.950027" stroke-miterlimit="10"/>
<path d="M230.115 367.056H216.529L218.242 353.625H231.854L230.115 367.056Z" stroke="#202938" stroke-width="0.950027" stroke-miterlimit="10"/>
<path d="M243.702 367.056H230.115L231.854 353.625H245.465L243.702 367.056Z" stroke="#202938" stroke-width="0.950027" stroke-miterlimit="10"/>
<path d="M257.289 367.056H243.702L245.465 353.625H259.077L257.289 367.056Z" stroke="#202938" stroke-width="0.950027" stroke-miterlimit="10"/>
<path d="M187.7 380.437H174.138L175.769 367.056H189.356L187.7 380.437Z" stroke="#202938" stroke-width="0.950027" stroke-miterlimit="10"/>
<path d="M201.261 380.437H187.7L189.356 367.056H202.942L201.261 380.437Z" stroke="#202938" stroke-width="0.950027" stroke-miterlimit="10"/>
<path d="M214.822 380.437H201.261L202.942 367.056H216.529L214.822 380.437Z" stroke="#202938" stroke-width="0.950027" stroke-miterlimit="10"/>
<path d="M228.384 380.437H214.823L216.529 367.056H230.115L228.384 380.437Z" stroke="#202938" stroke-width="0.950027" stroke-miterlimit="10"/>
<path d="M241.945 380.437H228.384L230.115 367.056H243.702L241.945 380.437Z" stroke="#202938" stroke-width="0.950027" stroke-miterlimit="10"/>
<path d="M255.506 380.437H241.944L243.702 367.056H257.288L255.506 380.437Z" stroke="#202938" stroke-width="0.950027" stroke-miterlimit="10"/>
<path d="M186.05 393.768H172.514L174.139 380.437H187.7L186.05 393.768Z" stroke="#202938" stroke-width="0.950027" stroke-miterlimit="10"/>
<path d="M199.586 393.768H186.05L187.7 380.437H201.261L199.586 393.768Z" stroke="#202938" stroke-width="0.950027" stroke-miterlimit="10"/>
<path d="M213.122 393.768H199.585L201.261 380.437H214.822L213.122 393.768Z" stroke="#202938" stroke-width="0.950027" stroke-miterlimit="10"/>
<path d="M226.658 393.768H213.122L214.822 380.437H228.383L226.658 393.768Z" stroke="#202938" stroke-width="0.950027" stroke-miterlimit="10"/>
<path d="M240.194 393.768H226.658L228.383 380.437H241.945L240.194 393.768Z" stroke="#202938" stroke-width="0.950027" stroke-miterlimit="10"/>
<path d="M253.73 393.768H240.194L241.945 380.437H255.506L253.73 393.768Z" stroke="#202938" stroke-width="0.950027" stroke-miterlimit="10"/>
<path d="M180.596 386.328L176.757 384.141L216.333 325.23L223.987 352.521L252.82 308.148L256.731 310.299L222.048 363.615L214.33 336.167L180.596 386.328Z" fill="#34D399"/>
<path d="M256.001 321.161L253.974 310.458L242.751 313.885L246.646 307.883L257.877 304.454L259.903 315.171L256.001 321.161Z" fill="#34D399"/>
<path d="M203.422 350.32C203.892 346.574 201.201 343.534 197.412 343.534C193.623 343.534 190.175 346.574 189.712 350.32C189.25 354.062 191.942 357.093 195.724 357.093C199.506 357.093 202.953 354.062 203.422 350.32Z" fill="#4F48E5"/>
<path d="M241.896 329.149C242.388 325.38 239.705 322.323 235.905 322.323C232.104 322.323 228.63 325.38 228.146 329.149C227.663 332.913 230.346 335.961 234.14 335.961C237.933 335.961 241.406 332.913 241.896 329.149Z" fill="#14B881"/>
<path d="M124.952 387.543L115.51 397.037" stroke="#202938" stroke-width="0.950027" stroke-miterlimit="10"/>
<path d="M118.53 386.618L115.951 389.211L121.242 383.891L122.835 382.29" stroke="#202938" stroke-width="0.950027" stroke-miterlimit="10"/>
<path d="M127.714 395.763L118.272 405.257" stroke="#202938" stroke-width="0.950027" stroke-miterlimit="10"/>
<path d="M131.221 403.234L121.779 412.728" stroke="#202938" stroke-width="0.950027" stroke-miterlimit="10"/>
<path d="M136 409.425L126.558 418.919" stroke="#202938" stroke-width="0.950027" stroke-miterlimit="10"/>
<path d="M141.495 414.897L132.053 424.391" stroke="#202938" stroke-width="0.950027" stroke-miterlimit="10"/>
<path d="M152.683 424.607L143.242 434.101" stroke="#202938" stroke-width="0.950027" stroke-miterlimit="10"/>
<path d="M158.97 428.879L149.529 438.373" stroke="#202938" stroke-width="0.950027" stroke-miterlimit="10"/>
<path d="M165.257 433.151L156.383 442.074" stroke="#202938" stroke-width="0.950027" stroke-miterlimit="10"/>
<path d="M171.543 437.423L164.847 444.155" stroke="#202938" stroke-width="0.950027" stroke-miterlimit="10"/>
<path d="M146.989 420.369L137.548 429.863" stroke="#202938" stroke-width="0.950027" stroke-miterlimit="10"/>
<path d="M121.242 383.89L115.951 389.211C112.871 398.122 121.093 414.829 135.688 428.365C150.073 441.704 165.832 447.428 172.882 442.433L172.881 442.432L177.792 437.493" stroke="#202938" stroke-width="0.950027" stroke-miterlimit="10"/>
<path d="M178.167 437.81C183.788 432.158 175.832 415.116 160.396 399.744C144.961 384.373 127.892 376.493 122.271 382.144C116.65 387.796 124.607 404.839 140.042 420.21C155.477 435.582 172.547 443.461 178.167 437.81Z" fill="#F4B04D"/>
<mask id="mask4_317_39318" style="mask-type:luminance" maskUnits="userSpaceOnUse" x="121" y="398" width="61" height="23">
<path d="M181.114 408.902C181.085 402.843 167.646 397.996 151.098 398.075C134.55 398.155 121.159 403.131 121.188 409.19C121.217 415.249 134.656 420.096 151.204 420.017C167.752 419.937 181.143 414.961 181.114 408.902Z" fill="white"/>
</mask>
<g mask="url(#mask4_317_39318)">
<path d="M172.39 430.188C176.661 425.893 170.615 412.942 158.886 401.261C147.156 389.58 134.185 383.593 129.914 387.887C125.643 392.182 131.689 405.133 143.418 416.814C155.148 428.495 168.119 434.483 172.39 430.188Z" fill="#F2D34E"/>
</g>
<mask id="mask5_317_39318" style="mask-type:luminance" maskUnits="userSpaceOnUse" x="128" y="386" width="46" height="46">
<path d="M172.39 430.189C176.661 425.894 170.615 412.943 158.886 401.262C147.156 389.581 134.185 383.593 129.914 387.888C125.643 392.182 131.689 405.133 143.418 416.814C155.148 428.495 168.119 434.483 172.39 430.189Z" fill="white"/>
</mask>
<g mask="url(#mask5_317_39318)">
<path d="M127.987 390.268C130.813 385.655 142.979 391.073 155.161 402.371C167.343 413.668 174.928 426.567 172.103 431.18" stroke="#202938" stroke-width="0.950027" stroke-miterlimit="10"/>
</g>
<path d="M53.1605 135.009L49.2146 131.06C48.3126 130.157 46.8504 130.157 45.9484 131.06L42.0024 135.009C41.1004 135.911 41.1004 137.374 42.0024 138.277L45.9484 142.226C46.8504 143.128 48.3126 143.128 49.2146 142.226L53.1605 138.277C54.0625 137.374 54.0625 135.911 53.1605 135.009Z" fill="#ECF0FE"/>
<path d="M325.7 273.164L321.754 269.215C320.852 268.312 319.39 268.312 318.488 269.215L314.542 273.164C313.64 274.066 313.64 275.529 314.542 276.432L318.488 280.381C319.39 281.283 320.852 281.283 321.754 280.381L325.7 276.432C326.602 275.529 326.602 274.066 325.7 273.164Z" fill="#34D399"/>
<path d="M60.3889 160.404C61.9555 160.404 63.2255 159.134 63.2255 157.566C63.2255 155.998 61.9555 154.727 60.3889 154.727C58.8222 154.727 57.5522 155.998 57.5522 157.566C57.5522 159.134 58.8222 160.404 60.3889 160.404Z" fill="#202938"/>
<path d="M304.836 300.864C306.403 300.864 307.672 299.593 307.672 298.025C307.672 296.458 306.403 295.187 304.836 295.187C303.269 295.187 301.999 296.458 301.999 298.025C301.999 299.593 303.269 300.864 304.836 300.864Z" fill="#202938"/>
<path d="M35.6094 33.25V56H30.9375V33.25H35.6094ZM42.6094 33.25V36.9219H24.0469V33.25H42.6094ZM41.5625 47.7188V47.3906C41.5625 46.151 41.7396 45.0104 42.0938 43.9688C42.4479 42.9167 42.9635 42.0052 43.6406 41.2344C44.3177 40.4635 45.151 39.8646 46.1406 39.4375C47.1302 39 48.2656 38.7812 49.5469 38.7812C50.8281 38.7812 51.9688 39 52.9688 39.4375C53.9688 39.8646 54.8073 40.4635 55.4844 41.2344C56.1719 42.0052 56.6927 42.9167 57.0469 43.9688C57.401 45.0104 57.5781 46.151 57.5781 47.3906V47.7188C57.5781 48.9479 57.401 50.0885 57.0469 51.1406C56.6927 52.1823 56.1719 53.0938 55.4844 53.875C54.8073 54.6458 53.974 55.2448 52.9844 55.6719C51.9948 56.099 50.8594 56.3125 49.5781 56.3125C48.2969 56.3125 47.1562 56.099 46.1562 55.6719C45.1667 55.2448 44.3281 54.6458 43.6406 53.875C42.9635 53.0938 42.4479 52.1823 42.0938 51.1406C41.7396 50.0885 41.5625 48.9479 41.5625 47.7188ZM46.0625 47.3906V47.7188C46.0625 48.4271 46.125 49.0885 46.25 49.7031C46.375 50.3177 46.5729 50.8594 46.8438 51.3281C47.125 51.7865 47.4896 52.1458 47.9375 52.4062C48.3854 52.6667 48.9323 52.7969 49.5781 52.7969C50.2031 52.7969 50.7396 52.6667 51.1875 52.4062C51.6354 52.1458 51.9948 51.7865 52.2656 51.3281C52.5365 50.8594 52.7344 50.3177 52.8594 49.7031C52.9948 49.0885 53.0625 48.4271 53.0625 47.7188V47.3906C53.0625 46.7031 52.9948 46.0573 52.8594 45.4531C52.7344 44.8385 52.5312 44.2969 52.25 43.8281C51.9792 43.349 51.6198 42.974 51.1719 42.7031C50.724 42.4323 50.1823 42.2969 49.5469 42.2969C48.9115 42.2969 48.3698 42.4323 47.9219 42.7031C47.4844 42.974 47.125 43.349 46.8438 43.8281C46.5729 44.2969 46.375 44.8385 46.25 45.4531C46.125 46.0573 46.0625 46.7031 46.0625 47.3906ZM70.3281 52.3125V32H74.8594V56H70.7812L70.3281 52.3125ZM59.6406 47.75V47.4219C59.6406 46.1302 59.7865 44.9583 60.0781 43.9062C60.3698 42.8438 60.7969 41.9323 61.3594 41.1719C61.9219 40.4115 62.6146 39.8229 63.4375 39.4062C64.2604 38.9896 65.1979 38.7812 66.25 38.7812C67.2396 38.7812 68.1042 38.9896 68.8438 39.4062C69.5938 39.8229 70.2292 40.4167 70.75 41.1875C71.2812 41.9479 71.7083 42.849 72.0312 43.8906C72.3542 44.9219 72.5885 46.0521 72.7344 47.2812V48C72.5885 49.1771 72.3542 50.2708 72.0312 51.2812C71.7083 52.2917 71.2812 53.1771 70.75 53.9375C70.2292 54.6875 69.5938 55.2708 68.8438 55.6875C68.0938 56.1042 67.2188 56.3125 66.2188 56.3125C65.1667 56.3125 64.2292 56.099 63.4062 55.6719C62.5938 55.2448 61.9062 54.6458 61.3438 53.875C60.7917 53.1042 60.3698 52.1979 60.0781 51.1562C59.7865 50.1146 59.6406 48.9792 59.6406 47.75ZM64.1406 47.4219V47.75C64.1406 48.4479 64.1927 49.099 64.2969 49.7031C64.4115 50.3073 64.5938 50.8438 64.8438 51.3125C65.1042 51.7708 65.4375 52.1302 65.8438 52.3906C66.2604 52.6406 66.7656 52.7656 67.3594 52.7656C68.1302 52.7656 68.7656 52.5938 69.2656 52.25C69.7656 51.8958 70.1458 51.4115 70.4062 50.7969C70.6771 50.1823 70.8333 49.474 70.875 48.6719V46.625C70.8438 45.9688 70.75 45.3802 70.5938 44.8594C70.4479 44.3281 70.2292 43.875 69.9375 43.5C69.6562 43.125 69.3021 42.8333 68.875 42.625C68.4583 42.4167 67.9635 42.3125 67.3906 42.3125C66.8073 42.3125 66.3073 42.4479 65.8906 42.7188C65.474 42.9792 65.1354 43.3385 64.875 43.7969C64.625 44.2552 64.4375 44.7969 64.3125 45.4219C64.1979 46.0365 64.1406 46.7031 64.1406 47.4219ZM77.6562 47.7188V47.3906C77.6562 46.151 77.8333 45.0104 78.1875 43.9688C78.5417 42.9167 79.0573 42.0052 79.7344 41.2344C80.4115 40.4635 81.2448 39.8646 82.2344 39.4375C83.224 39 84.3594 38.7812 85.6406 38.7812C86.9219 38.7812 88.0625 39 89.0625 39.4375C90.0625 39.8646 90.901 40.4635 91.5781 41.2344C92.2656 42.0052 92.7865 42.9167 93.1406 43.9688C93.4948 45.0104 93.6719 46.151 93.6719 47.3906V47.7188C93.6719 48.9479 93.4948 50.0885 93.1406 51.1406C92.7865 52.1823 92.2656 53.0938 91.5781 53.875C90.901 54.6458 90.0677 55.2448 89.0781 55.6719C88.0885 56.099 86.9531 56.3125 85.6719 56.3125C84.3906 56.3125 83.25 56.099 82.25 55.6719C81.2604 55.2448 80.4219 54.6458 79.7344 53.875C79.0573 53.0938 78.5417 52.1823 78.1875 51.1406C77.8333 50.0885 77.6562 48.9479 77.6562 47.7188ZM82.1562 47.3906V47.7188C82.1562 48.4271 82.2188 49.0885 82.3438 49.7031C82.4688 50.3177 82.6667 50.8594 82.9375 51.3281C83.2188 51.7865 83.5833 52.1458 84.0312 52.4062C84.4792 52.6667 85.026 52.7969 85.6719 52.7969C86.2969 52.7969 86.8333 52.6667 87.2812 52.4062C87.7292 52.1458 88.0885 51.7865 88.3594 51.3281C88.6302 50.8594 88.8281 50.3177 88.9531 49.7031C89.0885 49.0885 89.1562 48.4271 89.1562 47.7188V47.3906C89.1562 46.7031 89.0885 46.0573 88.9531 45.4531C88.8281 44.8385 88.625 44.2969 88.3438 43.8281C88.0729 43.349 87.7135 42.974 87.2656 42.7031C86.8177 42.4323 86.276 42.2969 85.6406 42.2969C85.0052 42.2969 84.4635 42.4323 84.0156 42.7031C83.5781 42.974 83.2188 43.349 82.9375 43.8281C82.6667 44.2969 82.4688 44.8385 82.3438 45.4531C82.2188 46.0573 82.1562 46.7031 82.1562 47.3906ZM112.188 56.3125C110.875 56.3125 109.698 56.1042 108.656 55.6875C107.615 55.2604 106.729 54.6719 106 53.9219C105.281 53.1719 104.729 52.3021 104.344 51.3125C103.958 50.3125 103.766 49.25 103.766 48.125V47.5C103.766 46.2188 103.948 45.0469 104.312 43.9844C104.677 42.9219 105.198 42 105.875 41.2188C106.562 40.4375 107.396 39.8385 108.375 39.4219C109.354 38.9948 110.458 38.7812 111.688 38.7812C112.885 38.7812 113.948 38.9792 114.875 39.375C115.802 39.7708 116.578 40.3333 117.203 41.0625C117.839 41.7917 118.318 42.6667 118.641 43.6875C118.964 44.6979 119.125 45.8229 119.125 47.0625V48.9375H105.688V45.9375H114.703V45.5938C114.703 44.9688 114.589 44.4115 114.359 43.9219C114.141 43.4219 113.807 43.026 113.359 42.7344C112.911 42.4427 112.339 42.2969 111.641 42.2969C111.047 42.2969 110.536 42.4271 110.109 42.6875C109.682 42.9479 109.333 43.3125 109.062 43.7812C108.802 44.25 108.604 44.8021 108.469 45.4375C108.344 46.0625 108.281 46.75 108.281 47.5V48.125C108.281 48.8021 108.375 49.4271 108.562 50C108.76 50.5729 109.036 51.0677 109.391 51.4844C109.755 51.901 110.193 52.224 110.703 52.4531C111.224 52.6823 111.812 52.7969 112.469 52.7969C113.281 52.7969 114.036 52.6406 114.734 52.3281C115.443 52.0052 116.052 51.5208 116.562 50.875L118.75 53.25C118.396 53.7604 117.911 54.25 117.297 54.7188C116.693 55.1875 115.964 55.5729 115.109 55.875C114.255 56.1667 113.281 56.3125 112.188 56.3125ZM126.094 42.7031V56H121.594V39.0938H125.812L126.094 42.7031ZM125.438 46.9531H124.219C124.219 45.7031 124.38 44.5781 124.703 43.5781C125.026 42.5677 125.479 41.7083 126.062 41C126.646 40.2812 127.339 39.7344 128.141 39.3594C128.953 38.974 129.859 38.7812 130.859 38.7812C131.651 38.7812 132.375 38.8958 133.031 39.125C133.688 39.3542 134.25 39.7188 134.719 40.2188C135.198 40.7188 135.562 41.3802 135.812 42.2031C136.073 43.026 136.203 44.0312 136.203 45.2188V56H131.672V45.2031C131.672 44.4531 131.568 43.8698 131.359 43.4531C131.151 43.0365 130.844 42.7448 130.438 42.5781C130.042 42.401 129.552 42.3125 128.969 42.3125C128.365 42.3125 127.839 42.4323 127.391 42.6719C126.953 42.9115 126.589 43.2448 126.297 43.6719C126.016 44.0885 125.802 44.5781 125.656 45.1406C125.51 45.7031 125.438 46.3073 125.438 46.9531ZM157.594 51.9531V39.0938H162.094V56H157.859L157.594 51.9531ZM158.094 48.4844L159.422 48.4531C159.422 49.5781 159.292 50.625 159.031 51.5938C158.771 52.5521 158.38 53.3854 157.859 54.0938C157.339 54.7917 156.682 55.3385 155.891 55.7344C155.099 56.1198 154.167 56.3125 153.094 56.3125C152.271 56.3125 151.51 56.1979 150.812 55.9688C150.125 55.7292 149.531 55.3594 149.031 54.8594C148.542 54.349 148.156 53.6979 147.875 52.9062C147.604 52.1042 147.469 51.1406 147.469 50.0156V39.0938H151.969V50.0469C151.969 50.5469 152.026 50.9688 152.141 51.3125C152.266 51.6562 152.438 51.9375 152.656 52.1562C152.875 52.375 153.13 52.5312 153.422 52.625C153.724 52.7188 154.057 52.7656 154.422 52.7656C155.349 52.7656 156.078 52.5781 156.609 52.2031C157.151 51.8281 157.531 51.3177 157.75 50.6719C157.979 50.0156 158.094 49.2865 158.094 48.4844ZM169.938 42.7031V56H165.438V39.0938H169.656L169.938 42.7031ZM169.281 46.9531H168.062C168.062 45.7031 168.224 44.5781 168.547 43.5781C168.87 42.5677 169.323 41.7083 169.906 41C170.49 40.2812 171.182 39.7344 171.984 39.3594C172.797 38.974 173.703 38.7812 174.703 38.7812C175.495 38.7812 176.219 38.8958 176.875 39.125C177.531 39.3542 178.094 39.7188 178.562 40.2188C179.042 40.7188 179.406 41.3802 179.656 42.2031C179.917 43.026 180.047 44.0312 180.047 45.2188V56H175.516V45.2031C175.516 44.4531 175.411 43.8698 175.203 43.4531C174.995 43.0365 174.688 42.7448 174.281 42.5781C173.885 42.401 173.396 42.3125 172.812 42.3125C172.208 42.3125 171.682 42.4323 171.234 42.6719C170.797 42.9115 170.432 43.2448 170.141 43.6719C169.859 44.0885 169.646 44.5781 169.5 45.1406C169.354 45.7031 169.281 46.3073 169.281 46.9531ZM195.938 42.5938V56H191.422V39.0938H195.656L195.938 42.5938ZM195.312 46.9531H194.062C194.062 45.776 194.203 44.6927 194.484 43.7031C194.776 42.7031 195.198 41.8385 195.75 41.1094C196.312 40.3698 197.005 39.7969 197.828 39.3906C198.651 38.9844 199.604 38.7812 200.688 38.7812C201.438 38.7812 202.125 38.8958 202.75 39.125C203.375 39.3438 203.911 39.6927 204.359 40.1719C204.818 40.6406 205.172 41.2552 205.422 42.0156C205.672 42.7656 205.797 43.6667 205.797 44.7188V56H201.297V45.2188C201.297 44.4479 201.193 43.8542 200.984 43.4375C200.776 43.0208 200.479 42.7292 200.094 42.5625C199.719 42.3958 199.266 42.3125 198.734 42.3125C198.151 42.3125 197.641 42.4323 197.203 42.6719C196.776 42.9115 196.422 43.2448 196.141 43.6719C195.859 44.0885 195.651 44.5781 195.516 45.1406C195.38 45.7031 195.312 46.3073 195.312 46.9531ZM205.375 46.4375L203.766 46.6406C203.766 45.5365 203.901 44.5104 204.172 43.5625C204.453 42.6146 204.865 41.7812 205.406 41.0625C205.958 40.3438 206.641 39.7865 207.453 39.3906C208.266 38.9844 209.203 38.7812 210.266 38.7812C211.078 38.7812 211.818 38.901 212.484 39.1406C213.151 39.3698 213.719 39.7396 214.188 40.25C214.667 40.75 215.031 41.4062 215.281 42.2188C215.542 43.0312 215.672 44.026 215.672 45.2031V56H211.156V45.2031C211.156 44.4219 211.052 43.8281 210.844 43.4219C210.646 43.0052 210.354 42.7188 209.969 42.5625C209.594 42.3958 209.146 42.3125 208.625 42.3125C208.083 42.3125 207.609 42.4219 207.203 42.6406C206.797 42.849 206.458 43.1406 206.188 43.5156C205.917 43.8906 205.714 44.3281 205.578 44.8281C205.443 45.3177 205.375 45.8542 205.375 46.4375ZM223.906 39.0938V56H219.391V39.0938H223.906ZM219.109 34.6875C219.109 34.0312 219.339 33.4896 219.797 33.0625C220.255 32.6354 220.87 32.4219 221.641 32.4219C222.401 32.4219 223.01 32.6354 223.469 33.0625C223.938 33.4896 224.172 34.0312 224.172 34.6875C224.172 35.3438 223.938 35.8854 223.469 36.3125C223.01 36.7396 222.401 36.9531 221.641 36.9531C220.87 36.9531 220.255 36.7396 219.797 36.3125C219.339 35.8854 219.109 35.3438 219.109 34.6875ZM236.766 51.3281C236.766 51.0052 236.672 50.7135 236.484 50.4531C236.297 50.1927 235.948 49.9531 235.438 49.7344C234.938 49.5052 234.214 49.2969 233.266 49.1094C232.411 48.9219 231.615 48.6875 230.875 48.4062C230.146 48.1146 229.51 47.7656 228.969 47.3594C228.438 46.9531 228.021 46.474 227.719 45.9219C227.417 45.3594 227.266 44.7188 227.266 44C227.266 43.2917 227.417 42.625 227.719 42C228.031 41.375 228.474 40.8229 229.047 40.3438C229.63 39.8542 230.339 39.474 231.172 39.2031C232.016 38.9219 232.964 38.7812 234.016 38.7812C235.484 38.7812 236.745 39.0156 237.797 39.4844C238.859 39.9531 239.672 40.599 240.234 41.4219C240.807 42.2344 241.094 43.1615 241.094 44.2031H236.594C236.594 43.7656 236.5 43.375 236.312 43.0312C236.135 42.6771 235.854 42.401 235.469 42.2031C235.094 41.9948 234.604 41.8906 234 41.8906C233.5 41.8906 233.068 41.9792 232.703 42.1562C232.339 42.3229 232.057 42.5521 231.859 42.8438C231.672 43.125 231.578 43.4375 231.578 43.7812C231.578 44.0417 231.63 44.276 231.734 44.4844C231.849 44.6823 232.031 44.8646 232.281 45.0312C232.531 45.1979 232.854 45.3542 233.25 45.5C233.656 45.6354 234.156 45.7604 234.75 45.875C235.969 46.125 237.057 46.4531 238.016 46.8594C238.974 47.2552 239.734 47.7969 240.297 48.4844C240.859 49.1615 241.141 50.0521 241.141 51.1562C241.141 51.9062 240.974 52.5938 240.641 53.2188C240.307 53.8438 239.828 54.3906 239.203 54.8594C238.578 55.3177 237.828 55.6771 236.953 55.9375C236.089 56.1875 235.115 56.3125 234.031 56.3125C232.458 56.3125 231.125 56.0312 230.031 55.4688C228.948 54.9062 228.125 54.1927 227.562 53.3281C227.01 52.4531 226.734 51.5573 226.734 50.6406H231C231.021 51.2552 231.177 51.75 231.469 52.125C231.771 52.5 232.151 52.7708 232.609 52.9375C233.078 53.1042 233.583 53.1875 234.125 53.1875C234.708 53.1875 235.193 53.1094 235.578 52.9531C235.964 52.7865 236.255 52.5677 236.453 52.2969C236.661 52.0156 236.766 51.6927 236.766 51.3281ZM248.562 42.5938V56H244.047V39.0938H248.281L248.562 42.5938ZM247.938 46.9531H246.688C246.688 45.776 246.828 44.6927 247.109 43.7031C247.401 42.7031 247.823 41.8385 248.375 41.1094C248.938 40.3698 249.63 39.7969 250.453 39.3906C251.276 38.9844 252.229 38.7812 253.312 38.7812C254.062 38.7812 254.75 38.8958 255.375 39.125C256 39.3438 256.536 39.6927 256.984 40.1719C257.443 40.6406 257.797 41.2552 258.047 42.0156C258.297 42.7656 258.422 43.6667 258.422 44.7188V56H253.922V45.2188C253.922 44.4479 253.818 43.8542 253.609 43.4375C253.401 43.0208 253.104 42.7292 252.719 42.5625C252.344 42.3958 251.891 42.3125 251.359 42.3125C250.776 42.3125 250.266 42.4323 249.828 42.6719C249.401 42.9115 249.047 43.2448 248.766 43.6719C248.484 44.0885 248.276 44.5781 248.141 45.1406C248.005 45.7031 247.938 46.3073 247.938 46.9531ZM258 46.4375L256.391 46.6406C256.391 45.5365 256.526 44.5104 256.797 43.5625C257.078 42.6146 257.49 41.7812 258.031 41.0625C258.583 40.3438 259.266 39.7865 260.078 39.3906C260.891 38.9844 261.828 38.7812 262.891 38.7812C263.703 38.7812 264.443 38.901 265.109 39.1406C265.776 39.3698 266.344 39.7396 266.812 40.25C267.292 40.75 267.656 41.4062 267.906 42.2188C268.167 43.0312 268.297 44.026 268.297 45.2031V56H263.781V45.2031C263.781 44.4219 263.677 43.8281 263.469 43.4219C263.271 43.0052 262.979 42.7188 262.594 42.5625C262.219 42.3958 261.771 42.3125 261.25 42.3125C260.708 42.3125 260.234 42.4219 259.828 42.6406C259.422 42.849 259.083 43.1406 258.812 43.5156C258.542 43.8906 258.339 44.3281 258.203 44.8281C258.068 45.3177 258 45.8542 258 46.4375ZM271.062 47.7188V47.3906C271.062 46.151 271.24 45.0104 271.594 43.9688C271.948 42.9167 272.464 42.0052 273.141 41.2344C273.818 40.4635 274.651 39.8646 275.641 39.4375C276.63 39 277.766 38.7812 279.047 38.7812C280.328 38.7812 281.469 39 282.469 39.4375C283.469 39.8646 284.307 40.4635 284.984 41.2344C285.672 42.0052 286.193 42.9167 286.547 43.9688C286.901 45.0104 287.078 46.151 287.078 47.3906V47.7188C287.078 48.9479 286.901 50.0885 286.547 51.1406C286.193 52.1823 285.672 53.0938 284.984 53.875C284.307 54.6458 283.474 55.2448 282.484 55.6719C281.495 56.099 280.359 56.3125 279.078 56.3125C277.797 56.3125 276.656 56.099 275.656 55.6719C274.667 55.2448 273.828 54.6458 273.141 53.875C272.464 53.0938 271.948 52.1823 271.594 51.1406C271.24 50.0885 271.062 48.9479 271.062 47.7188ZM275.562 47.3906V47.7188C275.562 48.4271 275.625 49.0885 275.75 49.7031C275.875 50.3177 276.073 50.8594 276.344 51.3281C276.625 51.7865 276.99 52.1458 277.438 52.4062C277.885 52.6667 278.432 52.7969 279.078 52.7969C279.703 52.7969 280.24 52.6667 280.688 52.4062C281.135 52.1458 281.495 51.7865 281.766 51.3281C282.036 50.8594 282.234 50.3177 282.359 49.7031C282.495 49.0885 282.562 48.4271 282.562 47.7188V47.3906C282.562 46.7031 282.495 46.0573 282.359 45.4531C282.234 44.8385 282.031 44.2969 281.75 43.8281C281.479 43.349 281.12 42.974 280.672 42.7031C280.224 42.4323 279.682 42.2969 279.047 42.2969C278.411 42.2969 277.87 42.4323 277.422 42.7031C276.984 42.974 276.625 43.349 276.344 43.8281C276.073 44.2969 275.875 44.8385 275.75 45.4531C275.625 46.0573 275.562 46.7031 275.562 47.3906ZM302.562 32V56H298.047V32H302.562ZM316.281 51.9531V39.0938H320.781V56H316.547L316.281 51.9531ZM316.781 48.4844L318.109 48.4531C318.109 49.5781 317.979 50.625 317.719 51.5938C317.458 52.5521 317.068 53.3854 316.547 54.0938C316.026 54.7917 315.37 55.3385 314.578 55.7344C313.786 56.1198 312.854 56.3125 311.781 56.3125C310.958 56.3125 310.198 56.1979 309.5 55.9688C308.812 55.7292 308.219 55.3594 307.719 54.8594C307.229 54.349 306.844 53.6979 306.562 52.9062C306.292 52.1042 306.156 51.1406 306.156 50.0156V39.0938H310.656V50.0469C310.656 50.5469 310.714 50.9688 310.828 51.3125C310.953 51.6562 311.125 51.9375 311.344 52.1562C311.562 52.375 311.818 52.5312 312.109 52.625C312.411 52.7188 312.745 52.7656 313.109 52.7656C314.036 52.7656 314.766 52.5781 315.297 52.2031C315.839 51.8281 316.219 51.3177 316.438 50.6719C316.667 50.0156 316.781 49.2865 316.781 48.4844ZM334.922 39.0938H339V55.4375C339 56.9792 338.656 58.2865 337.969 59.3594C337.292 60.4427 336.344 61.2604 335.125 61.8125C333.906 62.375 332.49 62.6562 330.875 62.6562C330.167 62.6562 329.417 62.5625 328.625 62.375C327.844 62.1875 327.094 61.8958 326.375 61.5C325.667 61.1042 325.073 60.6042 324.594 60L326.578 57.3438C327.099 57.9479 327.703 58.4167 328.391 58.75C329.078 59.0938 329.839 59.2656 330.672 59.2656C331.484 59.2656 332.172 59.1146 332.734 58.8125C333.297 58.5208 333.729 58.0885 334.031 57.5156C334.333 56.9531 334.484 56.2708 334.484 55.4688V43L334.922 39.0938ZM323.547 47.75V47.4219C323.547 46.1302 323.703 44.9583 324.016 43.9062C324.339 42.8438 324.792 41.9323 325.375 41.1719C325.969 40.4115 326.688 39.8229 327.531 39.4062C328.375 38.9896 329.328 38.7812 330.391 38.7812C331.516 38.7812 332.458 38.9896 333.219 39.4062C333.979 39.8229 334.604 40.4167 335.094 41.1875C335.583 41.9479 335.964 42.849 336.234 43.8906C336.516 44.9219 336.734 46.0521 336.891 47.2812V48C336.734 49.1771 336.5 50.2708 336.188 51.2812C335.875 52.2917 335.464 53.1771 334.953 53.9375C334.443 54.6875 333.807 55.2708 333.047 55.6875C332.297 56.1042 331.401 56.3125 330.359 56.3125C329.318 56.3125 328.375 56.099 327.531 55.6719C326.698 55.2448 325.984 54.6458 325.391 53.875C324.797 53.1042 324.339 52.1979 324.016 51.1562C323.703 50.1146 323.547 48.9792 323.547 47.75ZM328.047 47.4219V47.75C328.047 48.4479 328.115 49.099 328.25 49.7031C328.385 50.3073 328.594 50.8438 328.875 51.3125C329.167 51.7708 329.526 52.1302 329.953 52.3906C330.391 52.6406 330.906 52.7656 331.5 52.7656C332.323 52.7656 332.995 52.5938 333.516 52.25C334.036 51.8958 334.427 51.4115 334.688 50.7969C334.948 50.1823 335.099 49.474 335.141 48.6719V46.625C335.12 45.9688 335.031 45.3802 334.875 44.8594C334.719 44.3281 334.5 43.875 334.219 43.5C333.938 43.125 333.573 42.8333 333.125 42.625C332.677 42.4167 332.146 42.3125 331.531 42.3125C330.938 42.3125 330.422 42.4479 329.984 42.7188C329.557 42.9792 329.198 43.3385 328.906 43.7969C328.625 44.2552 328.411 44.7969 328.266 45.4219C328.12 46.0365 328.047 46.7031 328.047 47.4219ZM351.625 52.1875V44.6562C351.625 44.1146 351.536 43.651 351.359 43.2656C351.182 42.8698 350.906 42.5625 350.531 42.3438C350.167 42.125 349.693 42.0156 349.109 42.0156C348.609 42.0156 348.177 42.1042 347.812 42.2812C347.448 42.4479 347.167 42.6927 346.969 43.0156C346.771 43.3281 346.672 43.6979 346.672 44.125H342.172C342.172 43.4062 342.339 42.724 342.672 42.0781C343.005 41.4323 343.49 40.8646 344.125 40.375C344.76 39.875 345.516 39.4844 346.391 39.2031C347.276 38.9219 348.266 38.7812 349.359 38.7812C350.672 38.7812 351.839 39 352.859 39.4375C353.88 39.875 354.682 40.5312 355.266 41.4062C355.859 42.2812 356.156 43.375 356.156 44.6875V51.9219C356.156 52.849 356.214 53.6094 356.328 54.2031C356.443 54.7865 356.609 55.2969 356.828 55.7344V56H352.281C352.062 55.5417 351.896 54.9688 351.781 54.2812C351.677 53.5833 351.625 52.8854 351.625 52.1875ZM352.219 45.7031L352.25 48.25H349.734C349.141 48.25 348.625 48.3177 348.188 48.4531C347.75 48.5885 347.391 48.7812 347.109 49.0312C346.828 49.2708 346.62 49.5521 346.484 49.875C346.359 50.1979 346.297 50.5521 346.297 50.9375C346.297 51.3229 346.385 51.6719 346.562 51.9844C346.74 52.2865 346.995 52.526 347.328 52.7031C347.661 52.8698 348.052 52.9531 348.5 52.9531C349.177 52.9531 349.766 52.8177 350.266 52.5469C350.766 52.276 351.151 51.9427 351.422 51.5469C351.703 51.151 351.849 50.776 351.859 50.4219L353.047 52.3281C352.88 52.7552 352.651 53.1979 352.359 53.6562C352.078 54.1146 351.719 54.5469 351.281 54.9531C350.844 55.349 350.318 55.6771 349.703 55.9375C349.089 56.1875 348.359 56.3125 347.516 56.3125C346.443 56.3125 345.469 56.099 344.594 55.6719C343.729 55.2344 343.042 54.6354 342.531 53.875C342.031 53.1042 341.781 52.2292 341.781 51.25C341.781 50.3646 341.948 49.5781 342.281 48.8906C342.615 48.2031 343.104 47.625 343.75 47.1562C344.406 46.6771 345.224 46.3177 346.203 46.0781C347.182 45.8281 348.318 45.7031 349.609 45.7031H352.219ZM364.125 42.7812V56H359.625V39.0938H363.859L364.125 42.7812ZM369.219 38.9844L369.141 43.1562C368.922 43.125 368.656 43.099 368.344 43.0781C368.042 43.0469 367.766 43.0312 367.516 43.0312C366.88 43.0312 366.328 43.1146 365.859 43.2812C365.401 43.4375 365.016 43.6719 364.703 43.9844C364.401 44.2969 364.172 44.6771 364.016 45.125C363.87 45.5729 363.786 46.0833 363.766 46.6562L362.859 46.375C362.859 45.2812 362.969 44.276 363.188 43.3594C363.406 42.4323 363.724 41.625 364.141 40.9375C364.568 40.25 365.089 39.7188 365.703 39.3438C366.318 38.9688 367.021 38.7812 367.812 38.7812C368.062 38.7812 368.318 38.8021 368.578 38.8438C368.839 38.875 369.052 38.9219 369.219 38.9844Z" fill="#ECF0FE"/>
<path d="M98.8398 479.535C98.8398 479.23 98.793 478.957 98.6992 478.715C98.6133 478.465 98.4492 478.238 98.207 478.035C97.9648 477.824 97.625 477.617 97.1875 477.414C96.75 477.211 96.1836 477 95.4883 476.781C94.7148 476.531 93.9805 476.25 93.2852 475.938C92.5977 475.625 91.9883 475.262 91.457 474.848C90.9336 474.426 90.5195 473.938 90.2148 473.383C89.918 472.828 89.7695 472.184 89.7695 471.449C89.7695 470.738 89.9258 470.094 90.2383 469.516C90.5508 468.93 90.9883 468.43 91.5508 468.016C92.1133 467.594 92.7773 467.27 93.543 467.043C94.3164 466.816 95.1641 466.703 96.0859 466.703C97.3438 466.703 98.4414 466.93 99.3789 467.383C100.316 467.836 101.043 468.457 101.559 469.246C102.082 470.035 102.344 470.938 102.344 471.953H98.8516C98.8516 471.453 98.7461 471.016 98.5352 470.641C98.332 470.258 98.0195 469.957 97.5977 469.738C97.1836 469.52 96.6602 469.41 96.0273 469.41C95.418 469.41 94.9102 469.504 94.5039 469.691C94.0977 469.871 93.793 470.117 93.5898 470.43C93.3867 470.734 93.2852 471.078 93.2852 471.461C93.2852 471.75 93.3555 472.012 93.4961 472.246C93.6445 472.48 93.8633 472.699 94.1523 472.902C94.4414 473.105 94.7969 473.297 95.2188 473.477C95.6406 473.656 96.1289 473.832 96.6836 474.004C97.6133 474.285 98.4297 474.602 99.1328 474.953C99.8438 475.305 100.438 475.699 100.914 476.137C101.391 476.574 101.75 477.07 101.992 477.625C102.234 478.18 102.355 478.809 102.355 479.512C102.355 480.254 102.211 480.918 101.922 481.504C101.633 482.09 101.215 482.586 100.668 482.992C100.121 483.398 99.4688 483.707 98.7109 483.918C97.9531 484.129 97.1055 484.234 96.168 484.234C95.3242 484.234 94.4922 484.125 93.6719 483.906C92.8516 483.68 92.1055 483.34 91.4336 482.887C90.7695 482.434 90.2383 481.855 89.8398 481.152C89.4414 480.449 89.2422 479.617 89.2422 478.656H92.7695C92.7695 479.188 92.8516 479.637 93.0156 480.004C93.1797 480.371 93.4102 480.668 93.707 480.895C94.0117 481.121 94.3711 481.285 94.7852 481.387C95.207 481.488 95.668 481.539 96.168 481.539C96.7773 481.539 97.2773 481.453 97.668 481.281C98.0664 481.109 98.3594 480.871 98.5469 480.566C98.7422 480.262 98.8398 479.918 98.8398 479.535ZM108.098 471.32V484H104.711V471.32H108.098ZM104.5 468.016C104.5 467.523 104.672 467.117 105.016 466.797C105.359 466.477 105.82 466.316 106.398 466.316C106.969 466.316 107.426 466.477 107.77 466.797C108.121 467.117 108.297 467.523 108.297 468.016C108.297 468.508 108.121 468.914 107.77 469.234C107.426 469.555 106.969 469.715 106.398 469.715C105.82 469.715 105.359 469.555 105.016 469.234C104.672 468.914 104.5 468.508 104.5 468.016ZM114.262 473.945V484H110.875V471.32H114.051L114.262 473.945ZM113.793 477.215H112.855C112.855 476.332 112.961 475.52 113.172 474.777C113.391 474.027 113.707 473.379 114.121 472.832C114.543 472.277 115.062 471.848 115.68 471.543C116.297 471.238 117.012 471.086 117.824 471.086C118.387 471.086 118.902 471.172 119.371 471.344C119.84 471.508 120.242 471.77 120.578 472.129C120.922 472.48 121.188 472.941 121.375 473.512C121.562 474.074 121.656 474.75 121.656 475.539V484H118.281V475.914C118.281 475.336 118.203 474.891 118.047 474.578C117.891 474.266 117.668 474.047 117.379 473.922C117.098 473.797 116.758 473.734 116.359 473.734C115.922 473.734 115.539 473.824 115.211 474.004C114.891 474.184 114.625 474.434 114.414 474.754C114.203 475.066 114.047 475.434 113.945 475.855C113.844 476.277 113.793 476.73 113.793 477.215ZM121.34 476.828L120.133 476.98C120.133 476.152 120.234 475.383 120.438 474.672C120.648 473.961 120.957 473.336 121.363 472.797C121.777 472.258 122.289 471.84 122.898 471.543C123.508 471.238 124.211 471.086 125.008 471.086C125.617 471.086 126.172 471.176 126.672 471.355C127.172 471.527 127.598 471.805 127.949 472.188C128.309 472.562 128.582 473.055 128.77 473.664C128.965 474.273 129.062 475.02 129.062 475.902V484H125.676V475.902C125.676 475.316 125.598 474.871 125.441 474.566C125.293 474.254 125.074 474.039 124.785 473.922C124.504 473.797 124.168 473.734 123.777 473.734C123.371 473.734 123.016 473.816 122.711 473.98C122.406 474.137 122.152 474.355 121.949 474.637C121.746 474.918 121.594 475.246 121.492 475.621C121.391 475.988 121.34 476.391 121.34 476.828ZM135.051 473.758V488.875H131.676V471.32H134.805L135.051 473.758ZM143.078 477.52V477.766C143.078 478.688 142.969 479.543 142.75 480.332C142.539 481.121 142.227 481.809 141.812 482.395C141.398 482.973 140.883 483.426 140.266 483.754C139.656 484.074 138.953 484.234 138.156 484.234C137.383 484.234 136.711 484.078 136.141 483.766C135.57 483.453 135.09 483.016 134.699 482.453C134.316 481.883 134.008 481.223 133.773 480.473C133.539 479.723 133.359 478.918 133.234 478.059V477.414C133.359 476.492 133.539 475.648 133.773 474.883C134.008 474.109 134.316 473.441 134.699 472.879C135.09 472.309 135.566 471.867 136.129 471.555C136.699 471.242 137.367 471.086 138.133 471.086C138.938 471.086 139.645 471.238 140.254 471.543C140.871 471.848 141.387 472.285 141.801 472.855C142.223 473.426 142.539 474.105 142.75 474.895C142.969 475.684 143.078 476.559 143.078 477.52ZM139.691 477.766V477.52C139.691 476.98 139.645 476.484 139.551 476.031C139.465 475.57 139.324 475.168 139.129 474.824C138.941 474.48 138.691 474.215 138.379 474.027C138.074 473.832 137.703 473.734 137.266 473.734C136.805 473.734 136.41 473.809 136.082 473.957C135.762 474.105 135.5 474.32 135.297 474.602C135.094 474.883 134.941 475.219 134.84 475.609C134.738 476 134.676 476.441 134.652 476.934V478.562C134.691 479.141 134.801 479.66 134.98 480.121C135.16 480.574 135.438 480.934 135.812 481.199C136.188 481.465 136.68 481.598 137.289 481.598C137.734 481.598 138.109 481.5 138.414 481.305C138.719 481.102 138.965 480.824 139.152 480.473C139.348 480.121 139.484 479.715 139.562 479.254C139.648 478.793 139.691 478.297 139.691 477.766ZM148.738 466V484H145.352V466H148.738ZM157.363 484.234C156.379 484.234 155.496 484.078 154.715 483.766C153.934 483.445 153.27 483.004 152.723 482.441C152.184 481.879 151.77 481.227 151.48 480.484C151.191 479.734 151.047 478.938 151.047 478.094V477.625C151.047 476.664 151.184 475.785 151.457 474.988C151.73 474.191 152.121 473.5 152.629 472.914C153.145 472.328 153.77 471.879 154.504 471.566C155.238 471.246 156.066 471.086 156.988 471.086C157.887 471.086 158.684 471.234 159.379 471.531C160.074 471.828 160.656 472.25 161.125 472.797C161.602 473.344 161.961 474 162.203 474.766C162.445 475.523 162.566 476.367 162.566 477.297V478.703H152.488V476.453H159.25V476.195C159.25 475.727 159.164 475.309 158.992 474.941C158.828 474.566 158.578 474.27 158.242 474.051C157.906 473.832 157.477 473.723 156.953 473.723C156.508 473.723 156.125 473.82 155.805 474.016C155.484 474.211 155.223 474.484 155.02 474.836C154.824 475.188 154.676 475.602 154.574 476.078C154.48 476.547 154.434 477.062 154.434 477.625V478.094C154.434 478.602 154.504 479.07 154.645 479.5C154.793 479.93 155 480.301 155.266 480.613C155.539 480.926 155.867 481.168 156.25 481.34C156.641 481.512 157.082 481.598 157.574 481.598C158.184 481.598 158.75 481.48 159.273 481.246C159.805 481.004 160.262 480.641 160.645 480.156L162.285 481.938C162.02 482.32 161.656 482.688 161.195 483.039C160.742 483.391 160.195 483.68 159.555 483.906C158.914 484.125 158.184 484.234 157.363 484.234ZM174.227 482.57L177.59 471.32H181.211L176.113 485.91C176.004 486.23 175.855 486.574 175.668 486.941C175.488 487.309 175.242 487.656 174.93 487.984C174.625 488.32 174.238 488.594 173.77 488.805C173.309 489.016 172.742 489.121 172.07 489.121C171.75 489.121 171.488 489.102 171.285 489.062C171.082 489.023 170.84 488.969 170.559 488.898V486.426C170.645 486.426 170.734 486.426 170.828 486.426C170.922 486.434 171.012 486.438 171.098 486.438C171.543 486.438 171.906 486.387 172.188 486.285C172.469 486.184 172.695 486.027 172.867 485.816C173.039 485.613 173.176 485.348 173.277 485.02L174.227 482.57ZM172.82 471.32L175.574 480.508L176.055 484.082L173.758 484.328L169.199 471.32H172.82ZM195.391 480.496C195.391 480.254 195.32 480.035 195.18 479.84C195.039 479.645 194.777 479.465 194.395 479.301C194.02 479.129 193.477 478.973 192.766 478.832C192.125 478.691 191.527 478.516 190.973 478.305C190.426 478.086 189.949 477.824 189.543 477.52C189.145 477.215 188.832 476.855 188.605 476.441C188.379 476.02 188.266 475.539 188.266 475C188.266 474.469 188.379 473.969 188.605 473.5C188.84 473.031 189.172 472.617 189.602 472.258C190.039 471.891 190.57 471.605 191.195 471.402C191.828 471.191 192.539 471.086 193.328 471.086C194.43 471.086 195.375 471.262 196.164 471.613C196.961 471.965 197.57 472.449 197.992 473.066C198.422 473.676 198.637 474.371 198.637 475.152H195.262C195.262 474.824 195.191 474.531 195.051 474.273C194.918 474.008 194.707 473.801 194.418 473.652C194.137 473.496 193.77 473.418 193.316 473.418C192.941 473.418 192.617 473.484 192.344 473.617C192.07 473.742 191.859 473.914 191.711 474.133C191.57 474.344 191.5 474.578 191.5 474.836C191.5 475.031 191.539 475.207 191.617 475.363C191.703 475.512 191.84 475.648 192.027 475.773C192.215 475.898 192.457 476.016 192.754 476.125C193.059 476.227 193.434 476.32 193.879 476.406C194.793 476.594 195.609 476.84 196.328 477.145C197.047 477.441 197.617 477.848 198.039 478.363C198.461 478.871 198.672 479.539 198.672 480.367C198.672 480.93 198.547 481.445 198.297 481.914C198.047 482.383 197.688 482.793 197.219 483.145C196.75 483.488 196.188 483.758 195.531 483.953C194.883 484.141 194.152 484.234 193.34 484.234C192.16 484.234 191.16 484.023 190.34 483.602C189.527 483.18 188.91 482.645 188.488 481.996C188.074 481.34 187.867 480.668 187.867 479.98H191.066C191.082 480.441 191.199 480.812 191.418 481.094C191.645 481.375 191.93 481.578 192.273 481.703C192.625 481.828 193.004 481.891 193.41 481.891C193.848 481.891 194.211 481.832 194.5 481.715C194.789 481.59 195.008 481.426 195.156 481.223C195.312 481.012 195.391 480.77 195.391 480.496ZM204.426 471.32V484H201.039V471.32H204.426ZM200.828 468.016C200.828 467.523 201 467.117 201.344 466.797C201.688 466.477 202.148 466.316 202.727 466.316C203.297 466.316 203.754 466.477 204.098 466.797C204.449 467.117 204.625 467.523 204.625 468.016C204.625 468.508 204.449 468.914 204.098 469.234C203.754 469.555 203.297 469.715 202.727 469.715C202.148 469.715 201.688 469.555 201.344 469.234C201 468.914 200.828 468.508 200.828 468.016ZM210.52 474.027V484H207.145V471.32H210.309L210.52 474.027ZM210.027 477.215H209.113C209.113 476.277 209.234 475.434 209.477 474.684C209.719 473.926 210.059 473.281 210.496 472.75C210.934 472.211 211.453 471.801 212.055 471.52C212.664 471.23 213.344 471.086 214.094 471.086C214.688 471.086 215.23 471.172 215.723 471.344C216.215 471.516 216.637 471.789 216.988 472.164C217.348 472.539 217.621 473.035 217.809 473.652C218.004 474.27 218.102 475.023 218.102 475.914V484H214.703V475.902C214.703 475.34 214.625 474.902 214.469 474.59C214.312 474.277 214.082 474.059 213.777 473.934C213.48 473.801 213.113 473.734 212.676 473.734C212.223 473.734 211.828 473.824 211.492 474.004C211.164 474.184 210.891 474.434 210.672 474.754C210.461 475.066 210.301 475.434 210.191 475.855C210.082 476.277 210.027 476.73 210.027 477.215ZM230.957 481.539L233.77 471.32H237.297L233.02 484H230.887L230.957 481.539ZM229.023 471.32L231.848 481.551L231.906 484H229.762L225.484 471.32H229.023ZM246.309 480.965V471.32H249.684V484H246.508L246.309 480.965ZM246.684 478.363L247.68 478.34C247.68 479.184 247.582 479.969 247.387 480.695C247.191 481.414 246.898 482.039 246.508 482.57C246.117 483.094 245.625 483.504 245.031 483.801C244.438 484.09 243.738 484.234 242.934 484.234C242.316 484.234 241.746 484.148 241.223 483.977C240.707 483.797 240.262 483.52 239.887 483.145C239.52 482.762 239.23 482.273 239.02 481.68C238.816 481.078 238.715 480.355 238.715 479.512V471.32H242.09V479.535C242.09 479.91 242.133 480.227 242.219 480.484C242.312 480.742 242.441 480.953 242.605 481.117C242.77 481.281 242.961 481.398 243.18 481.469C243.406 481.539 243.656 481.574 243.93 481.574C244.625 481.574 245.172 481.434 245.57 481.152C245.977 480.871 246.262 480.488 246.426 480.004C246.598 479.512 246.684 478.965 246.684 478.363ZM258.098 484.234C257.113 484.234 256.23 484.078 255.449 483.766C254.668 483.445 254.004 483.004 253.457 482.441C252.918 481.879 252.504 481.227 252.215 480.484C251.926 479.734 251.781 478.938 251.781 478.094V477.625C251.781 476.664 251.918 475.785 252.191 474.988C252.465 474.191 252.855 473.5 253.363 472.914C253.879 472.328 254.504 471.879 255.238 471.566C255.973 471.246 256.801 471.086 257.723 471.086C258.621 471.086 259.418 471.234 260.113 471.531C260.809 471.828 261.391 472.25 261.859 472.797C262.336 473.344 262.695 474 262.938 474.766C263.18 475.523 263.301 476.367 263.301 477.297V478.703H253.223V476.453H259.984V476.195C259.984 475.727 259.898 475.309 259.727 474.941C259.562 474.566 259.312 474.27 258.977 474.051C258.641 473.832 258.211 473.723 257.688 473.723C257.242 473.723 256.859 473.82 256.539 474.016C256.219 474.211 255.957 474.484 255.754 474.836C255.559 475.188 255.41 475.602 255.309 476.078C255.215 476.547 255.168 477.062 255.168 477.625V478.094C255.168 478.602 255.238 479.07 255.379 479.5C255.527 479.93 255.734 480.301 256 480.613C256.273 480.926 256.602 481.168 256.984 481.34C257.375 481.512 257.816 481.598 258.309 481.598C258.918 481.598 259.484 481.48 260.008 481.246C260.539 481.004 260.996 480.641 261.379 480.156L263.02 481.938C262.754 482.32 262.391 482.688 261.93 483.039C261.477 483.391 260.93 483.68 260.289 483.906C259.648 484.125 258.918 484.234 258.098 484.234ZM268.785 466V484H265.398V466H268.785ZM277.785 471.32V473.711H270.402V471.32H277.785ZM272.23 468.191H275.605V480.18C275.605 480.547 275.652 480.828 275.746 481.023C275.848 481.219 275.996 481.355 276.191 481.434C276.387 481.504 276.633 481.539 276.93 481.539C277.141 481.539 277.328 481.531 277.492 481.516C277.664 481.492 277.809 481.469 277.926 481.445L277.938 483.93C277.648 484.023 277.336 484.098 277 484.152C276.664 484.207 276.293 484.234 275.887 484.234C275.145 484.234 274.496 484.113 273.941 483.871C273.395 483.621 272.973 483.223 272.676 482.676C272.379 482.129 272.23 481.41 272.23 480.52V468.191ZM286.551 481.141V475.492C286.551 475.086 286.484 474.738 286.352 474.449C286.219 474.152 286.012 473.922 285.73 473.758C285.457 473.594 285.102 473.512 284.664 473.512C284.289 473.512 283.965 473.578 283.691 473.711C283.418 473.836 283.207 474.02 283.059 474.262C282.91 474.496 282.836 474.773 282.836 475.094H279.461C279.461 474.555 279.586 474.043 279.836 473.559C280.086 473.074 280.449 472.648 280.926 472.281C281.402 471.906 281.969 471.613 282.625 471.402C283.289 471.191 284.031 471.086 284.852 471.086C285.836 471.086 286.711 471.25 287.477 471.578C288.242 471.906 288.844 472.398 289.281 473.055C289.727 473.711 289.949 474.531 289.949 475.516V480.941C289.949 481.637 289.992 482.207 290.078 482.652C290.164 483.09 290.289 483.473 290.453 483.801V484H287.043C286.879 483.656 286.754 483.227 286.668 482.711C286.59 482.188 286.551 481.664 286.551 481.141ZM286.996 476.277L287.02 478.188H285.133C284.688 478.188 284.301 478.238 283.973 478.34C283.645 478.441 283.375 478.586 283.164 478.773C282.953 478.953 282.797 479.164 282.695 479.406C282.602 479.648 282.555 479.914 282.555 480.203C282.555 480.492 282.621 480.754 282.754 480.988C282.887 481.215 283.078 481.395 283.328 481.527C283.578 481.652 283.871 481.715 284.207 481.715C284.715 481.715 285.156 481.613 285.531 481.41C285.906 481.207 286.195 480.957 286.398 480.66C286.609 480.363 286.719 480.082 286.727 479.816L287.617 481.246C287.492 481.566 287.32 481.898 287.102 482.242C286.891 482.586 286.621 482.91 286.293 483.215C285.965 483.512 285.57 483.758 285.109 483.953C284.648 484.141 284.102 484.234 283.469 484.234C282.664 484.234 281.934 484.074 281.277 483.754C280.629 483.426 280.113 482.977 279.73 482.406C279.355 481.828 279.168 481.172 279.168 480.438C279.168 479.773 279.293 479.184 279.543 478.668C279.793 478.152 280.16 477.719 280.645 477.367C281.137 477.008 281.75 476.738 282.484 476.559C283.219 476.371 284.07 476.277 285.039 476.277H286.996ZM299.406 480.496C299.406 480.254 299.336 480.035 299.195 479.84C299.055 479.645 298.793 479.465 298.41 479.301C298.035 479.129 297.492 478.973 296.781 478.832C296.141 478.691 295.543 478.516 294.988 478.305C294.441 478.086 293.965 477.824 293.559 477.52C293.16 477.215 292.848 476.855 292.621 476.441C292.395 476.02 292.281 475.539 292.281 475C292.281 474.469 292.395 473.969 292.621 473.5C292.855 473.031 293.188 472.617 293.617 472.258C294.055 471.891 294.586 471.605 295.211 471.402C295.844 471.191 296.555 471.086 297.344 471.086C298.445 471.086 299.391 471.262 300.18 471.613C300.977 471.965 301.586 472.449 302.008 473.066C302.438 473.676 302.652 474.371 302.652 475.152H299.277C299.277 474.824 299.207 474.531 299.066 474.273C298.934 474.008 298.723 473.801 298.434 473.652C298.152 473.496 297.785 473.418 297.332 473.418C296.957 473.418 296.633 473.484 296.359 473.617C296.086 473.742 295.875 473.914 295.727 474.133C295.586 474.344 295.516 474.578 295.516 474.836C295.516 475.031 295.555 475.207 295.633 475.363C295.719 475.512 295.855 475.648 296.043 475.773C296.23 475.898 296.473 476.016 296.77 476.125C297.074 476.227 297.449 476.32 297.895 476.406C298.809 476.594 299.625 476.84 300.344 477.145C301.062 477.441 301.633 477.848 302.055 478.363C302.477 478.871 302.688 479.539 302.688 480.367C302.688 480.93 302.562 481.445 302.312 481.914C302.062 482.383 301.703 482.793 301.234 483.145C300.766 483.488 300.203 483.758 299.547 483.953C298.898 484.141 298.168 484.234 297.355 484.234C296.176 484.234 295.176 484.023 294.355 483.602C293.543 483.18 292.926 482.645 292.504 481.996C292.09 481.34 291.883 480.668 291.883 479.98H295.082C295.098 480.441 295.215 480.812 295.434 481.094C295.66 481.375 295.945 481.578 296.289 481.703C296.641 481.828 297.02 481.891 297.426 481.891C297.863 481.891 298.227 481.832 298.516 481.715C298.805 481.59 299.023 481.426 299.172 481.223C299.328 481.012 299.406 480.77 299.406 480.496Z" fill="#ECF0FE"/>
</svg>
