<svg width="440" height="352" viewBox="0 0 440 352" fill="none" xmlns="http://www.w3.org/2000/svg">
<g clip-path="url(#clip0_317_38933)">
<path d="M220 346C312.784 346 388 272.575 388 182C388 91.4253 312.784 18 220 18C127.216 18 52 91.4253 52 182C52 272.575 127.216 346 220 346Z" fill="#FBFCFF"/>
<path d="M288.34 250.325C326.249 212.417 326.381 151.087 288.637 113.342C250.892 75.5976 189.562 75.7303 151.654 113.639C113.745 151.547 113.613 212.877 151.357 250.622C189.102 288.366 250.432 288.234 288.34 250.325Z" fill="#964529"/>
<path d="M245.96 250.732C283.851 236.566 303.083 194.365 288.917 156.474C274.751 118.582 232.55 99.3493 194.659 113.515C156.769 127.681 137.536 169.882 151.703 207.773C165.869 245.665 208.069 264.898 245.96 250.732Z" stroke="#964529" stroke-width="1.32266" stroke-miterlimit="10"/>
<path d="M155.208 230.418C155.137 230.418 155.066 230.41 154.988 230.394C154.917 230.378 154.846 230.354 154.783 230.331C154.711 230.3 154.648 230.269 154.587 230.229C154.524 230.181 154.468 230.135 154.421 230.086C154.208 229.874 154.089 229.59 154.089 229.291C154.089 229 154.208 228.707 154.421 228.504C154.468 228.448 154.523 228.402 154.587 228.361C154.649 228.321 154.712 228.282 154.783 228.258C154.846 228.228 154.917 228.211 154.988 228.196C155.137 228.164 155.287 228.164 155.428 228.196C155.499 228.211 155.57 228.228 155.641 228.258C155.704 228.29 155.768 228.321 155.83 228.361C155.892 228.401 155.948 228.448 156.004 228.504C156.209 228.708 156.334 229 156.334 229.291C156.334 229.59 156.207 229.873 156.004 230.086C155.948 230.134 155.892 230.181 155.83 230.229C155.767 230.269 155.704 230.3 155.641 230.331C155.57 230.355 155.499 230.379 155.428 230.394C155.358 230.411 155.287 230.418 155.208 230.418Z" fill="#964529"/>
<path d="M247.691 257.873C247.479 257.291 247.771 256.652 248.345 256.431C248.928 256.211 249.574 256.509 249.794 257.085C250.007 257.667 249.716 258.314 249.132 258.534C249.005 258.581 248.872 258.605 248.746 258.605C248.289 258.605 247.864 258.321 247.691 257.873ZM253.504 255.524C253.244 254.966 253.489 254.296 254.048 254.036C254.606 253.776 255.277 254.013 255.536 254.571C255.796 255.138 255.559 255.8 254.992 256.068C254.992 256.068 254.992 256.068 254.992 256.06C254.842 256.139 254.677 256.171 254.519 256.171C254.103 256.171 253.702 255.926 253.504 255.524ZM259.121 252.728C258.814 252.193 259.003 251.507 259.546 251.2C260.082 250.893 260.767 251.082 261.067 251.625C261.374 252.161 261.184 252.846 260.649 253.153C260.476 253.248 260.287 253.295 260.097 253.295C259.704 253.295 259.327 253.09 259.121 252.728ZM264.502 249.5C264.156 248.987 264.29 248.294 264.801 247.947C265.314 247.602 266.015 247.736 266.353 248.255C266.699 248.767 266.565 249.461 266.054 249.807C265.864 249.933 265.644 249.997 265.431 249.997C265.07 249.996 264.715 249.822 264.502 249.5ZM269.615 245.867C269.229 245.387 269.308 244.678 269.788 244.292C270.277 243.913 270.977 243.992 271.363 244.481C271.749 244.962 271.671 245.663 271.182 246.049C270.977 246.214 270.734 246.294 270.49 246.294C270.158 246.292 269.835 246.151 269.615 245.867ZM274.429 241.849C274.004 241.4 274.026 240.691 274.483 240.266C274.94 239.85 275.649 239.872 276.067 240.329C276.492 240.778 276.461 241.487 276.011 241.912C275.791 242.108 275.522 242.211 275.248 242.211C274.948 242.213 274.648 242.086 274.429 241.849ZM278.918 237.47C278.462 237.052 278.43 236.344 278.855 235.887C279.272 235.438 279.981 235.406 280.438 235.824C280.887 236.249 280.918 236.958 280.501 237.407C280.281 237.652 279.973 237.769 279.673 237.769C279.399 237.768 279.131 237.674 278.918 237.47ZM283.053 232.759C282.566 232.373 282.486 231.671 282.865 231.183C283.251 230.703 283.952 230.615 284.441 231.002C284.93 231.381 285.008 232.089 284.629 232.578C284.409 232.854 284.079 233.003 283.747 233.003C283.502 233.003 283.258 232.925 283.053 232.759ZM286.811 227.741C286.298 227.394 286.165 226.7 286.504 226.188C286.85 225.669 287.544 225.535 288.064 225.882C288.576 226.229 288.71 226.923 288.37 227.434C288.15 227.757 287.796 227.93 287.433 227.93C287.221 227.93 287.009 227.866 286.811 227.741ZM150.765 224.668C150.765 224.668 150.765 224.668 150.773 224.668C150.443 224.14 150.607 223.448 151.136 223.125C151.664 222.801 152.357 222.967 152.679 223.495C153.003 224.023 152.837 224.709 152.309 225.039C152.128 225.15 151.923 225.205 151.725 225.205C151.349 225.203 150.978 225.007 150.765 224.668ZM290.175 222.446C289.631 222.147 289.442 221.461 289.749 220.919C290.049 220.383 290.734 220.186 291.271 220.494C291.814 220.793 292.004 221.479 291.704 222.021C291.499 222.383 291.113 222.589 290.727 222.589C290.537 222.589 290.349 222.541 290.175 222.446ZM147.654 219.123C147.654 219.123 147.654 219.123 147.662 219.123C147.378 218.564 147.599 217.894 148.15 217.611C148.701 217.335 149.371 217.548 149.654 218.1C149.939 218.652 149.717 219.329 149.165 219.612C149 219.69 148.827 219.73 148.654 219.73C148.253 219.729 147.858 219.509 147.654 219.123ZM293.113 216.909C292.554 216.64 292.301 215.979 292.57 215.42C292.83 214.853 293.491 214.609 294.059 214.876C294.618 215.128 294.862 215.797 294.602 216.357C294.406 216.767 294.004 217.011 293.578 217.011C293.421 217.012 293.263 216.98 293.113 216.909ZM144.991 213.348C144.755 212.774 145.023 212.119 145.598 211.883C146.165 211.647 146.819 211.914 147.063 212.49C147.3 213.057 147.024 213.718 146.457 213.955C146.315 214.01 146.173 214.042 146.023 214.042C145.582 214.042 145.165 213.781 144.991 213.348ZM295.611 211.151C295.028 210.939 294.729 210.292 294.949 209.709C295.161 209.134 295.807 208.835 296.391 209.055C296.965 209.268 297.265 209.915 297.045 210.497C296.879 210.946 296.454 211.222 295.997 211.222C295.87 211.222 295.736 211.198 295.611 211.151ZM142.777 207.385C142.777 207.385 142.777 207.385 142.785 207.385C142.589 206.802 142.912 206.164 143.495 205.976C144.085 205.786 144.723 206.101 144.912 206.692C145.101 207.283 144.778 207.914 144.194 208.102C144.076 208.142 143.957 208.158 143.847 208.158C143.376 208.156 142.936 207.858 142.777 207.385ZM297.643 205.218C297.052 205.052 296.705 204.431 296.871 203.832C297.045 203.241 297.667 202.894 298.258 203.068C298.856 203.234 299.195 203.855 299.03 204.447C298.888 204.943 298.439 205.267 297.95 205.267C297.847 205.267 297.746 205.25 297.643 205.218ZM141.045 201.272C140.903 200.666 141.274 200.059 141.871 199.918C142.479 199.776 143.077 200.146 143.226 200.745C143.368 201.343 142.999 201.95 142.398 202.1C142.312 202.116 142.217 202.132 142.131 202.132C141.628 202.13 141.171 201.785 141.045 201.272ZM299.211 199.153C298.604 199.027 298.211 198.437 298.336 197.829C298.455 197.223 299.046 196.829 299.652 196.954C300.259 197.073 300.652 197.663 300.534 198.27C300.424 198.805 299.959 199.167 299.43 199.167C299.36 199.168 299.289 199.161 299.211 199.153ZM139.8 195.041C139.698 194.427 140.115 193.851 140.729 193.757C141.336 193.654 141.911 194.072 142.005 194.686C142.107 195.292 141.69 195.868 141.083 195.97C141.02 195.979 140.956 195.979 140.902 195.979C140.358 195.979 139.886 195.592 139.8 195.041ZM300.298 192.976C299.684 192.897 299.25 192.338 299.321 191.724C299.392 191.109 299.951 190.676 300.566 190.747C301.18 190.826 301.622 191.378 301.551 192C301.48 192.567 300.992 192.985 300.432 192.985C300.393 192.985 300.344 192.976 300.298 192.976ZM139.036 188.731C138.98 188.108 139.446 187.573 140.06 187.517C140.675 187.47 141.218 187.927 141.274 188.55H141.265C141.32 189.164 140.856 189.699 140.241 189.755C140.209 189.755 140.178 189.755 140.147 189.755C139.571 189.755 139.082 189.315 139.036 188.731ZM300.904 186.73C300.281 186.706 299.802 186.178 299.833 185.564C299.856 184.941 300.383 184.469 300.999 184.493C301.622 184.524 302.094 185.044 302.07 185.667C302.047 186.265 301.551 186.73 300.952 186.73C300.936 186.73 300.921 186.73 300.904 186.73ZM138.76 182.382C138.76 182.382 138.76 182.382 138.768 182.382C138.76 181.76 139.264 181.256 139.879 181.256C140.502 181.247 141.006 181.752 141.006 182.366C141.006 182.988 140.51 183.492 139.887 183.492C139.272 183.492 138.768 182.996 138.76 182.382ZM299.865 179.38C299.848 178.758 300.329 178.246 300.952 178.223C301.566 178.207 302.086 178.688 302.109 179.309C302.126 179.924 301.637 180.444 301.023 180.459C301.006 180.459 300.999 180.467 300.984 180.467C300.385 180.459 299.888 179.987 299.865 179.38ZM140.013 177.222C139.398 177.183 138.933 176.647 138.98 176.024C139.019 175.41 139.556 174.944 140.178 174.992C140.792 175.031 141.257 175.567 141.218 176.189C141.171 176.779 140.683 177.229 140.099 177.229C140.067 177.23 140.045 177.23 140.013 177.222ZM299.431 173.212C299.36 172.598 299.802 172.046 300.416 171.975C301.031 171.912 301.591 172.353 301.661 172.968C301.723 173.583 301.283 174.135 300.66 174.206C300.621 174.206 300.581 174.214 300.534 174.214C299.975 174.213 299.486 173.788 299.431 173.212ZM140.627 170.983C140.013 170.897 139.588 170.321 139.681 169.707C139.776 169.101 140.343 168.674 140.957 168.769C141.572 168.864 141.99 169.431 141.903 170.045C141.817 170.604 141.336 170.998 140.793 170.998C140.737 170.998 140.682 170.998 140.627 170.983ZM298.509 167.099C298.399 166.492 298.8 165.902 299.408 165.792C300.014 165.673 300.598 166.076 300.716 166.682C300.834 167.288 300.432 167.879 299.826 167.99C299.755 168.005 299.684 168.014 299.614 168.014C299.085 168.013 298.612 167.635 298.509 167.099ZM141.714 164.815C141.116 164.673 140.737 164.067 140.879 163.468C141.013 162.861 141.62 162.491 142.218 162.625C142.824 162.767 143.195 163.373 143.061 163.972C142.944 164.492 142.479 164.839 141.974 164.839C141.888 164.839 141.8 164.83 141.714 164.815ZM297.123 161.081C296.957 160.482 297.312 159.867 297.91 159.703C298.508 159.537 299.124 159.892 299.281 160.49C299.281 160.49 299.281 160.49 299.289 160.49C299.447 161.089 299.1 161.702 298.502 161.861C298.4 161.893 298.297 161.9 298.203 161.9C297.706 161.9 297.257 161.577 297.123 161.081ZM143.29 158.741C142.699 158.552 142.369 157.922 142.557 157.34C142.746 156.749 143.376 156.417 143.959 156.607C144.549 156.796 144.881 157.418 144.692 158.009C144.542 158.489 144.101 158.796 143.628 158.796C143.518 158.796 143.4 158.78 143.29 158.741ZM295.264 155.18C295.059 154.598 295.359 153.96 295.942 153.747C296.526 153.542 297.163 153.841 297.376 154.424C297.581 155.006 297.281 155.644 296.699 155.857C296.572 155.905 296.447 155.92 296.321 155.92C295.863 155.92 295.43 155.637 295.264 155.18ZM145.33 152.809C144.754 152.572 144.478 151.919 144.715 151.343C144.944 150.776 145.597 150.5 146.173 150.729C146.748 150.964 147.024 151.619 146.795 152.186C146.614 152.628 146.197 152.887 145.748 152.887C145.614 152.888 145.472 152.865 145.33 152.809ZM292.956 149.454C292.703 148.887 292.955 148.225 293.514 147.973C294.081 147.72 294.743 147.973 294.995 148.531C295.248 149.099 294.995 149.76 294.437 150.012C294.287 150.084 294.13 150.114 293.98 150.114C293.546 150.115 293.138 149.87 292.956 149.454ZM147.835 147.05C147.283 146.775 147.055 146.104 147.33 145.554C147.606 144.994 148.283 144.774 148.834 145.05C149.386 145.325 149.614 145.994 149.338 146.554C149.142 146.949 148.739 147.169 148.33 147.169C148.166 147.169 147.992 147.138 147.835 147.05ZM290.198 143.924C289.907 143.38 290.103 142.703 290.648 142.404C291.191 142.104 291.869 142.302 292.168 142.845C292.468 143.389 292.263 144.074 291.719 144.365C291.554 144.46 291.366 144.507 291.184 144.507C290.789 144.506 290.403 144.293 290.198 143.924ZM150.773 141.512C150.245 141.189 150.079 140.503 150.396 139.977C150.71 139.44 151.404 139.276 151.932 139.591C152.46 139.914 152.633 140.599 152.317 141.127C152.105 141.481 151.735 141.671 151.356 141.671C151.159 141.671 150.954 141.623 150.773 141.512ZM287.024 138.621C286.686 138.101 286.836 137.407 287.347 137.069C287.867 136.73 288.561 136.872 288.899 137.392C289.238 137.912 289.096 138.606 288.576 138.944C288.387 139.07 288.174 139.125 287.962 139.125C287.599 139.126 287.237 138.952 287.024 138.621ZM154.145 136.219C153.641 135.857 153.522 135.163 153.885 134.66C154.24 134.155 154.941 134.037 155.445 134.391C155.949 134.753 156.068 135.454 155.705 135.958C155.485 136.266 155.147 136.424 154.791 136.424C154.57 136.424 154.342 136.361 154.145 136.219ZM283.448 133.58C283.07 133.091 283.165 132.383 283.652 132.012C284.141 131.635 284.842 131.721 285.22 132.209C285.599 132.705 285.511 133.406 285.015 133.785C284.819 133.942 284.575 134.021 284.338 134.021C283.999 134.021 283.668 133.864 283.448 133.58ZM157.911 131.201C157.437 130.807 157.376 130.098 157.769 129.626C158.163 129.153 158.871 129.091 159.345 129.484C159.825 129.878 159.888 130.586 159.487 131.068C159.265 131.328 158.952 131.462 158.628 131.462C158.375 131.461 158.123 131.383 157.911 131.201ZM279.485 128.83C279.075 128.373 279.106 127.664 279.571 127.247C280.028 126.838 280.738 126.87 281.156 127.334C281.565 127.791 281.533 128.5 281.068 128.918C280.856 129.107 280.587 129.201 280.32 129.201C280.013 129.201 279.705 129.074 279.485 128.83ZM162.053 126.498C161.613 126.064 161.596 125.355 162.03 124.907C162.471 124.466 163.179 124.458 163.621 124.891C164.061 125.325 164.07 126.034 163.636 126.475C163.416 126.704 163.125 126.814 162.834 126.814C162.55 126.813 162.267 126.711 162.053 126.498ZM275.168 124.402C274.72 123.977 274.703 123.268 275.129 122.818C275.563 122.369 276.272 122.353 276.712 122.779C277.161 123.204 277.186 123.913 276.76 124.362C276.539 124.59 276.24 124.709 275.949 124.709C275.665 124.71 275.389 124.607 275.168 124.402ZM166.544 122.117C166.134 121.653 166.182 120.944 166.646 120.542C167.118 120.132 167.82 120.179 168.229 120.645C168.638 121.109 168.591 121.818 168.127 122.227C167.915 122.409 167.646 122.503 167.387 122.503C167.079 122.504 166.765 122.371 166.544 122.117ZM270.529 120.323C270.048 119.928 269.977 119.227 270.363 118.747C270.757 118.266 271.458 118.188 271.939 118.581C272.418 118.967 272.498 119.676 272.105 120.157C271.884 120.433 271.561 120.575 271.23 120.575C270.986 120.573 270.734 120.487 270.529 120.323ZM171.365 118.109C170.994 117.613 171.097 116.912 171.593 116.541C171.593 116.541 171.593 116.541 171.585 116.541C172.082 116.171 172.79 116.265 173.161 116.77C173.531 117.266 173.43 117.967 172.934 118.337C172.729 118.486 172.492 118.557 172.263 118.557C171.917 118.557 171.585 118.4 171.365 118.109ZM265.581 116.612V116.604C265.07 116.257 264.943 115.556 265.298 115.052C265.644 114.54 266.345 114.414 266.857 114.761C267.362 115.115 267.487 115.817 267.142 116.32C266.921 116.635 266.575 116.809 266.211 116.809C265.999 116.809 265.778 116.746 265.581 116.612ZM176.478 114.476C176.147 113.957 176.304 113.263 176.824 112.933C177.344 112.602 178.037 112.759 178.368 113.279C178.698 113.807 178.541 114.493 178.022 114.832C177.841 114.95 177.628 115.006 177.423 115.006C177.052 115.004 176.69 114.816 176.478 114.476ZM260.358 113.287C259.823 112.98 259.64 112.294 259.956 111.758C260.263 111.223 260.949 111.042 261.484 111.357C262.02 111.665 262.201 112.349 261.893 112.885C261.68 113.248 261.311 113.444 260.924 113.444C260.728 113.445 260.54 113.398 260.358 113.287ZM181.858 111.263C181.567 110.712 181.771 110.034 182.323 109.751C182.867 109.46 183.544 109.665 183.835 110.216C184.126 110.767 183.913 111.444 183.37 111.729C183.196 111.816 183.023 111.862 182.842 111.862C182.442 111.861 182.054 111.641 181.858 111.263ZM254.899 110.388C254.34 110.12 254.102 109.451 254.371 108.892C254.638 108.34 255.307 108.105 255.867 108.372C256.426 108.64 256.655 109.31 256.387 109.869C256.198 110.271 255.796 110.498 255.378 110.498C255.214 110.498 255.048 110.468 254.899 110.388ZM187.467 108.474C187.223 107.907 187.484 107.245 188.05 107.001C188.617 106.757 189.279 107.017 189.522 107.585C189.766 108.152 189.506 108.814 188.94 109.058C188.791 109.12 188.64 109.152 188.491 109.152C188.058 109.151 187.648 108.899 187.467 108.474ZM249.22 107.923C248.644 107.702 248.353 107.057 248.582 106.473C248.81 105.898 249.456 105.615 250.031 105.835C250.606 106.064 250.897 106.71 250.669 107.285C250.496 107.734 250.078 108.002 249.628 108.002C249.496 108.002 249.353 107.978 249.22 107.923ZM193.273 106.135C193.077 105.544 193.384 104.906 193.975 104.709C194.558 104.504 195.196 104.819 195.393 105.402C195.598 105.993 195.282 106.631 194.701 106.827C194.582 106.866 194.456 106.89 194.339 106.89C193.871 106.891 193.431 106.6 193.273 106.135ZM243.366 105.913C242.776 105.732 242.437 105.109 242.618 104.519C242.799 103.921 243.421 103.589 244.012 103.762C244.602 103.943 244.941 104.566 244.76 105.165C244.618 105.646 244.177 105.961 243.688 105.961C243.587 105.962 243.477 105.945 243.366 105.913ZM199.252 104.252C199.103 103.653 199.465 103.039 200.064 102.89C200.663 102.732 201.277 103.094 201.427 103.693C201.584 104.291 201.222 104.907 200.623 105.056C200.528 105.08 200.433 105.095 200.339 105.095C199.843 105.094 199.386 104.757 199.252 104.252ZM237.387 104.369C236.78 104.236 236.394 103.637 236.528 103.03C236.654 102.431 237.253 102.045 237.86 102.18C238.466 102.306 238.845 102.905 238.718 103.511C238.6 104.031 238.135 104.393 237.623 104.393C237.545 104.393 237.467 104.386 237.387 104.369ZM205.365 102.842C205.255 102.236 205.665 101.652 206.278 101.542C206.278 101.542 206.278 101.542 206.278 101.551C206.886 101.44 207.468 101.85 207.571 102.456C207.681 103.062 207.272 103.646 206.664 103.756C206.593 103.764 206.53 103.772 206.468 103.772C205.933 103.772 205.459 103.386 205.365 102.842ZM231.298 103.291C230.683 103.212 230.257 102.646 230.336 102.03C230.423 101.416 230.983 100.991 231.597 101.069C232.212 101.155 232.637 101.722 232.559 102.337C232.48 102.895 232 103.305 231.448 103.305C231.401 103.306 231.345 103.299 231.298 103.291ZM211.564 101.92C211.51 101.297 211.959 100.754 212.573 100.691C213.188 100.635 213.739 101.085 213.794 101.7C213.856 102.322 213.399 102.866 212.793 102.929C212.754 102.929 212.715 102.929 212.683 102.929C212.108 102.929 211.62 102.495 211.564 101.92ZM225.145 102.692C224.522 102.66 224.05 102.133 224.09 101.51C224.122 100.896 224.657 100.423 225.272 100.454C225.272 100.454 225.272 100.454 225.272 100.463C225.894 100.494 226.367 101.021 226.328 101.644C226.296 102.235 225.8 102.699 225.209 102.699C225.184 102.7 225.162 102.7 225.145 102.692ZM217.819 101.471C217.804 100.857 218.3 100.345 218.922 100.337C219.537 100.322 220.048 100.818 220.057 101.432C220.073 102.055 219.576 102.566 218.961 102.575C218.953 102.575 218.945 102.575 218.938 102.575C218.332 102.573 217.827 102.086 217.819 101.471Z" fill="#964529"/>
<path d="M242.642 260.614C242.564 260.614 242.493 260.606 242.422 260.591C242.351 260.575 242.28 260.559 242.209 260.528C242.146 260.496 242.075 260.465 242.02 260.425C241.957 260.386 241.902 260.338 241.847 260.283C241.635 260.078 241.516 259.787 241.516 259.495C241.516 259.196 241.635 258.913 241.847 258.7C242.256 258.282 243.013 258.282 243.43 258.7C243.643 258.912 243.76 259.196 243.76 259.495C243.76 259.787 243.643 260.079 243.43 260.283C243.218 260.496 242.933 260.614 242.642 260.614Z" fill="#964529"/>
<path d="M164.587 240.331C164.066 240.811 163.508 241.169 162.908 241.397C162.311 241.627 161.707 241.729 161.099 241.699C160.49 241.672 159.89 241.516 159.299 241.232C158.707 240.947 158.157 240.532 157.653 239.986L155.117 237.249L162.231 230.656L164.766 233.392C165.272 233.939 165.644 234.516 165.884 235.129C166.12 235.739 166.232 236.352 166.21 236.964C166.189 237.575 166.043 238.168 165.771 238.747C165.497 239.323 165.103 239.852 164.587 240.331ZM163.188 238.82C163.561 238.474 163.85 238.114 164.057 237.741C164.263 237.367 164.385 236.994 164.422 236.62C164.457 236.245 164.41 235.876 164.276 235.509C164.143 235.143 163.923 234.794 163.613 234.458L162.45 233.204L157.64 237.66L158.804 238.917C159.114 239.249 159.443 239.496 159.797 239.658C160.151 239.82 160.515 239.896 160.892 239.887C161.27 239.877 161.654 239.784 162.041 239.606C162.429 239.432 162.811 239.169 163.188 238.82Z" fill="#964529"/>
<path d="M174.735 248.639C174.297 249.198 173.797 249.641 173.236 249.971C172.675 250.3 172.086 250.505 171.472 250.583C170.857 250.662 170.233 250.614 169.597 250.435C168.961 250.256 168.351 249.938 167.765 249.478C167.179 249.019 166.723 248.503 166.399 247.927C166.074 247.352 165.874 246.757 165.803 246.14C165.733 245.524 165.789 244.903 165.976 244.279C166.163 243.655 166.475 243.064 166.911 242.505C167.348 241.946 167.848 241.504 168.408 241.176C168.968 240.846 169.555 240.645 170.172 240.567C170.789 240.489 171.414 240.54 172.05 240.719C172.686 240.897 173.296 241.215 173.883 241.674C174.467 242.132 174.923 242.651 175.25 243.226C175.574 243.801 175.772 244.397 175.84 245.013C175.908 245.631 175.849 246.251 175.666 246.873C175.479 247.496 175.168 248.086 174.735 248.639ZM173.12 247.372C173.434 246.973 173.661 246.573 173.805 246.173C173.95 245.774 174.009 245.386 173.985 245.006C173.962 244.628 173.855 244.269 173.664 243.931C173.474 243.592 173.199 243.282 172.842 243.001C172.484 242.721 172.117 242.529 171.741 242.422C171.365 242.317 170.99 242.298 170.618 242.365C170.244 242.432 169.881 242.583 169.527 242.819C169.173 243.054 168.839 243.371 168.525 243.77C168.208 244.174 167.978 244.575 167.835 244.976C167.692 245.375 167.631 245.763 167.657 246.14C167.682 246.516 167.791 246.876 167.983 247.216C168.175 247.557 168.449 247.866 168.808 248.148C169.166 248.428 169.531 248.621 169.907 248.724C170.281 248.828 170.654 248.847 171.024 248.781C171.396 248.715 171.759 248.564 172.113 248.33C172.467 248.097 172.803 247.777 173.12 247.372Z" fill="#964529"/>
<path d="M182.094 252.877L185.003 254.497L183.054 257.995C182.446 258.071 181.858 258.044 181.287 257.918C180.716 257.793 180.159 257.577 179.615 257.274C178.917 256.886 178.347 256.426 177.901 255.895C177.458 255.364 177.141 254.795 176.956 254.186C176.771 253.579 176.714 252.949 176.792 252.298C176.869 251.647 177.082 251.008 177.43 250.38C177.784 249.746 178.213 249.221 178.716 248.809C179.219 248.395 179.77 248.103 180.368 247.938C180.965 247.771 181.599 247.732 182.264 247.822C182.931 247.913 183.602 248.147 184.279 248.525C184.63 248.72 184.942 248.93 185.213 249.156C185.487 249.381 185.722 249.615 185.925 249.858C186.127 250.101 186.297 250.349 186.434 250.606C186.574 250.861 186.684 251.12 186.768 251.382L185.825 251.88C185.679 251.963 185.534 251.982 185.394 251.939C185.255 251.897 185.135 251.79 185.038 251.618C184.945 251.455 184.851 251.302 184.754 251.158C184.657 251.015 184.548 250.877 184.424 250.741C184.3 250.606 184.157 250.476 183.993 250.347C183.827 250.22 183.629 250.091 183.396 249.961C183.003 249.743 182.607 249.613 182.212 249.572C181.818 249.53 181.438 249.572 181.076 249.696C180.713 249.819 180.375 250.024 180.059 250.308C179.742 250.592 179.464 250.95 179.224 251.38C178.963 251.848 178.796 252.303 178.724 252.744C178.652 253.185 178.666 253.6 178.767 253.987C178.868 254.376 179.049 254.729 179.313 255.048C179.576 255.368 179.913 255.643 180.326 255.873C180.606 256.03 180.872 256.14 181.123 256.206C181.375 256.274 181.633 256.315 181.896 256.335L182.689 254.911L181.731 254.377C181.619 254.314 181.547 254.235 181.516 254.139C181.485 254.042 181.496 253.947 181.547 253.854L182.094 252.877Z" fill="#964529"/>
<path d="M191.601 253.825L190.697 256.149L193.713 257.322L193.163 258.736L190.147 257.564L189.224 259.938L193.099 261.445L192.531 262.908L186.773 260.671L190.286 251.629L196.044 253.868L195.474 255.333L191.601 253.825Z" fill="#964529"/>
<path d="M203.524 263.434C203.631 263.462 203.713 263.523 203.769 263.619L204.338 264.634C203.838 265.024 203.275 265.277 202.649 265.388C202.022 265.5 201.319 265.461 200.54 265.268C199.834 265.095 199.229 264.82 198.728 264.441C198.223 264.063 197.827 263.611 197.538 263.086C197.25 262.56 197.072 261.978 197.005 261.337C196.937 260.696 196.99 260.028 197.16 259.332C197.275 258.863 197.436 258.431 197.641 258.035C197.847 257.638 198.091 257.286 198.372 256.979C198.655 256.672 198.968 256.409 199.314 256.191C199.659 255.973 200.029 255.805 200.425 255.69C200.819 255.574 201.235 255.515 201.671 255.508C202.105 255.502 202.554 255.557 203.018 255.669C203.365 255.754 203.686 255.867 203.979 256.003C204.274 256.14 204.544 256.295 204.783 256.469C205.026 256.642 205.241 256.835 205.431 257.045C205.62 257.254 205.782 257.472 205.921 257.698L205.045 258.434C204.992 258.481 204.93 258.519 204.858 258.547C204.787 258.574 204.698 258.577 204.595 258.552C204.491 258.527 204.396 258.463 204.307 258.364C204.218 258.265 204.108 258.151 203.978 258.022C203.847 257.894 203.674 257.764 203.462 257.633C203.248 257.503 202.964 257.393 202.61 257.307C202.214 257.209 201.835 257.192 201.472 257.254C201.107 257.316 200.774 257.453 200.473 257.666C200.171 257.878 199.906 258.166 199.678 258.528C199.452 258.889 199.277 259.322 199.153 259.822C199.028 260.33 198.988 260.798 199.032 261.229C199.073 261.659 199.184 262.041 199.363 262.374C199.541 262.706 199.775 262.982 200.067 263.204C200.359 263.425 200.69 263.581 201.063 263.672C201.285 263.726 201.487 263.766 201.672 263.787C201.858 263.81 202.033 263.813 202.199 263.8C202.366 263.785 202.527 263.755 202.684 263.706C202.84 263.658 203.004 263.587 203.173 263.495C203.23 263.469 203.289 263.449 203.347 263.434C203.404 263.419 203.463 263.42 203.524 263.434Z" fill="#964529"/>
<path d="M217.647 262.703C217.581 263.408 217.403 264.051 217.109 264.633C216.815 265.214 216.431 265.705 215.959 266.103C215.486 266.502 214.933 266.8 214.302 266.993C213.671 267.186 212.984 267.249 212.243 267.18C211.502 267.112 210.838 266.923 210.254 266.617C209.669 266.309 209.181 265.916 208.786 265.436C208.392 264.957 208.104 264.404 207.922 263.778C207.74 263.153 207.684 262.487 207.749 261.781C207.815 261.076 207.994 260.432 208.287 259.854C208.58 259.275 208.965 258.785 209.441 258.386C209.915 257.989 210.469 257.691 211.102 257.498C211.731 257.304 212.419 257.24 213.16 257.31C213.901 257.379 214.564 257.567 215.148 257.875C215.733 258.18 216.221 258.576 216.613 259.059C217.005 259.539 217.291 260.092 217.473 260.715C217.653 261.339 217.712 262.001 217.647 262.703ZM215.604 262.512C215.65 262.005 215.625 261.546 215.531 261.133C215.433 260.72 215.274 260.359 215.05 260.054C214.825 259.749 214.542 259.506 214.197 259.324C213.854 259.142 213.456 259.03 213.003 258.988C212.551 258.946 212.137 258.982 211.765 259.097C211.392 259.211 211.066 259.4 210.789 259.658C210.511 259.917 210.288 260.241 210.117 260.63C209.947 261.019 209.838 261.466 209.791 261.972C209.742 262.483 209.767 262.944 209.863 263.359C209.959 263.772 210.12 264.131 210.344 264.434C210.569 264.736 210.853 264.979 211.2 265.161C211.547 265.343 211.944 265.455 212.397 265.498C212.85 265.539 213.262 265.503 213.633 265.388C214.003 265.272 214.328 265.086 214.604 264.83C214.881 264.573 215.104 264.251 215.275 263.861C215.448 263.472 215.557 263.022 215.604 262.512Z" fill="#964529"/>
<path d="M223.547 267.385L221.528 267.441L221.268 257.743L223.286 257.69L223.547 267.385Z" fill="#964529"/>
<path d="M235.263 256.351L236.666 265.95L235.641 266.099C235.485 266.123 235.352 266.115 235.239 266.081C235.126 266.045 235.008 265.972 234.889 265.865L229.217 260.477C229.253 260.63 229.284 260.78 229.314 260.928C229.343 261.077 229.366 261.216 229.385 261.345L230.196 266.895L228.442 267.151L227.041 257.553L228.086 257.4C228.17 257.388 228.242 257.38 228.303 257.379C228.363 257.378 228.419 257.386 228.471 257.403C228.524 257.419 228.574 257.445 228.624 257.477C228.673 257.51 228.73 257.558 228.792 257.614L234.502 263.024C234.459 262.858 234.422 262.697 234.39 262.542C234.358 262.387 234.332 262.24 234.311 262.098L233.51 256.607L235.263 256.351Z" fill="#964529"/>
<g clip-path="url(#clip1_317_38933)">
<path d="M220.226 295.948C283.119 295.948 334.103 245.184 334.103 182.564C334.103 119.943 283.119 69.1791 220.226 69.1791C157.334 69.1791 106.349 119.943 106.349 182.564C106.349 245.184 157.334 295.948 220.226 295.948Z" fill="#202938"/>
<path d="M220.226 292.639C281.018 292.639 330.3 243.357 330.3 182.564C330.3 121.771 281.018 72.4884 220.226 72.4884C159.434 72.4884 110.152 121.771 110.152 182.564C110.152 243.357 159.434 292.639 220.226 292.639Z" fill="#4F48E5" stroke="#202938" stroke-width="1.55165" stroke-miterlimit="10" stroke-linecap="round" stroke-linejoin="round"/>
<path d="M220.572 285.472C277.31 285.472 323.306 239.476 323.306 182.738C323.306 125.999 277.31 80.0036 220.572 80.0036C163.833 80.0036 117.838 125.999 117.838 182.738C117.838 239.476 163.833 285.472 220.572 285.472Z" fill="#E1E7FF" stroke="#202938" stroke-width="1.55165" stroke-miterlimit="10" stroke-linecap="round" stroke-linejoin="round"/>
<path d="M281.329 243.495C314.884 209.94 314.884 155.536 281.329 121.981C247.774 88.4253 193.37 88.4253 159.815 121.981C126.26 155.536 126.26 209.94 159.815 243.495C193.37 277.05 247.774 277.05 281.329 243.495Z" stroke="#202938" stroke-width="1.55165" stroke-miterlimit="10"/>
<path d="M144.22 239.386C144.136 239.386 144.053 239.377 143.961 239.359C143.879 239.341 143.795 239.313 143.721 239.285C143.638 239.247 143.563 239.21 143.491 239.164C143.416 239.109 143.352 239.054 143.296 238.998C143.046 238.749 142.907 238.416 142.907 238.065C142.907 237.723 143.046 237.381 143.296 237.141C143.351 237.076 143.416 237.021 143.491 236.975C143.564 236.928 143.638 236.882 143.721 236.854C143.795 236.818 143.879 236.799 143.961 236.78C144.136 236.743 144.312 236.743 144.479 236.78C144.561 236.799 144.645 236.818 144.729 236.854C144.803 236.891 144.877 236.928 144.95 236.975C145.025 237.021 145.089 237.076 145.154 237.141C145.394 237.381 145.542 237.724 145.542 238.065C145.542 238.416 145.394 238.749 145.154 238.998C145.089 239.054 145.024 239.109 144.95 239.164C144.877 239.21 144.803 239.247 144.729 239.285C144.646 239.312 144.562 239.34 144.479 239.359C144.395 239.377 144.312 239.386 144.22 239.386Z" fill="#202938"/>
<path d="M252.714 271.594C252.465 270.911 252.807 270.162 253.482 269.903C254.165 269.644 254.923 269.995 255.182 270.671C255.433 271.353 255.09 272.111 254.406 272.371C254.259 272.426 254.101 272.454 253.953 272.454C253.415 272.453 252.917 272.12 252.714 271.594ZM259.534 268.84C259.229 268.184 259.515 267.399 260.172 267.093C260.828 266.788 261.613 267.066 261.919 267.721C262.224 268.386 261.946 269.163 261.281 269.478C261.281 269.478 261.281 269.478 261.281 269.467C261.105 269.561 260.911 269.598 260.726 269.598C260.235 269.598 259.765 269.31 259.534 268.84ZM266.122 265.558C265.762 264.93 265.984 264.126 266.621 263.765C267.25 263.405 268.054 263.626 268.405 264.263C268.765 264.892 268.543 265.696 267.915 266.057C267.712 266.168 267.49 266.222 267.268 266.222C266.807 266.223 266.363 265.983 266.122 265.558ZM272.435 261.77C272.028 261.169 272.185 260.356 272.785 259.949C273.386 259.542 274.209 259.699 274.607 260.31C275.013 260.91 274.856 261.723 274.256 262.13C274.034 262.278 273.775 262.353 273.526 262.353C273.101 262.353 272.685 262.148 272.435 261.77ZM278.432 257.509C277.979 256.946 278.072 256.114 278.635 255.661C279.208 255.217 280.031 255.31 280.484 255.883C280.937 256.446 280.845 257.269 280.271 257.721C280.031 257.916 279.744 258.008 279.458 258.008C279.07 258.009 278.692 257.842 278.432 257.509ZM284.079 252.795C283.581 252.269 283.608 251.437 284.143 250.939C284.679 250.449 285.512 250.476 286.001 251.013C286.5 251.54 286.464 252.371 285.936 252.871C285.677 253.102 285.363 253.223 285.04 253.223C284.69 253.222 284.338 253.074 284.079 252.795ZM289.347 247.658C288.812 247.168 288.775 246.337 289.273 245.801C289.762 245.274 290.594 245.237 291.131 245.726C291.658 246.225 291.694 247.056 291.205 247.584C290.947 247.87 290.586 248.009 290.235 248.009C289.91 248.009 289.597 247.898 289.347 247.658ZM294.198 242.132C293.626 241.679 293.533 240.856 293.977 240.284C294.429 239.72 295.252 239.618 295.825 240.071C296.398 240.515 296.49 241.346 296.047 241.919C295.788 242.242 295.4 242.419 295.012 242.419C294.726 242.418 294.439 242.326 294.198 242.132ZM298.607 236.245C298.006 235.838 297.849 235.025 298.247 234.424C298.653 233.815 299.466 233.657 300.076 234.064C300.677 234.47 300.834 235.285 300.436 235.884C300.177 236.263 299.761 236.467 299.336 236.467C299.087 236.467 298.838 236.392 298.607 236.245ZM139.008 232.641C139.008 232.641 139.008 232.641 139.017 232.641C138.629 232.021 138.823 231.208 139.442 230.829C140.062 230.451 140.875 230.644 141.254 231.264C141.632 231.882 141.439 232.687 140.819 233.075C140.607 233.205 140.366 233.269 140.135 233.269C139.692 233.268 139.257 233.038 139.008 232.641ZM302.552 230.035C301.915 229.684 301.693 228.879 302.054 228.242C302.405 227.613 303.209 227.382 303.838 227.743C304.475 228.094 304.698 228.899 304.346 229.536C304.106 229.961 303.653 230.202 303.2 230.202C302.977 230.201 302.756 230.145 302.552 230.035ZM135.357 226.135C135.357 226.135 135.357 226.135 135.368 226.135C135.035 225.479 135.293 224.694 135.94 224.361C136.586 224.038 137.372 224.286 137.704 224.934C138.037 225.581 137.779 226.375 137.131 226.708C136.937 226.8 136.734 226.847 136.531 226.847C136.06 226.847 135.598 226.588 135.357 226.135ZM306 223.538C305.344 223.223 305.047 222.447 305.362 221.791C305.667 221.126 306.443 220.841 307.109 221.154C307.765 221.449 308.051 222.235 307.746 222.891C307.515 223.371 307.044 223.658 306.545 223.658C306.36 223.658 306.176 223.621 306 223.538ZM132.233 219.36C131.956 218.686 132.27 217.919 132.945 217.642C133.61 217.364 134.378 217.678 134.663 218.354C134.941 219.019 134.618 219.795 133.952 220.073C133.786 220.137 133.619 220.175 133.445 220.175C132.926 220.173 132.437 219.869 132.233 219.36ZM308.929 216.783C308.246 216.533 307.894 215.775 308.154 215.091C308.403 214.417 309.161 214.066 309.845 214.324C310.519 214.574 310.87 215.331 310.613 216.015C310.418 216.542 309.919 216.865 309.384 216.865C309.235 216.865 309.077 216.838 308.929 216.783ZM129.637 212.364C129.637 212.364 129.637 212.364 129.646 212.364C129.415 211.682 129.794 210.932 130.478 210.711C131.171 210.489 131.919 210.858 132.141 211.551C132.364 212.245 131.984 212.984 131.3 213.206C131.162 213.252 131.023 213.271 130.894 213.271C130.339 213.271 129.822 212.92 129.637 212.364ZM311.314 209.823C310.621 209.628 310.213 208.899 310.408 208.197C310.611 207.504 311.342 207.097 312.035 207.301C312.737 207.495 313.134 208.225 312.94 208.918C312.773 209.5 312.247 209.879 311.674 209.879C311.554 209.879 311.434 209.86 311.314 209.823ZM127.604 205.194C127.438 204.483 127.872 203.77 128.574 203.605C129.286 203.438 129.989 203.873 130.163 204.575C130.33 205.278 129.896 205.989 129.193 206.164C129.092 206.183 128.981 206.201 128.879 206.201C128.288 206.2 127.752 205.795 127.604 205.194ZM313.153 202.708C312.441 202.56 311.979 201.867 312.127 201.155C312.266 200.444 312.959 199.981 313.67 200.129C314.382 200.268 314.844 200.961 314.706 201.673C314.576 202.3 314.031 202.726 313.412 202.726C313.328 202.727 313.245 202.717 313.153 202.708ZM126.144 197.884C126.024 197.163 126.514 196.489 127.234 196.378C127.946 196.258 128.62 196.748 128.731 197.469C128.851 198.18 128.361 198.855 127.65 198.975C127.575 198.984 127.502 198.984 127.438 198.984C126.799 198.984 126.245 198.531 126.144 197.884ZM314.429 195.463C313.708 195.371 313.2 194.714 313.282 193.994C313.365 193.273 314.022 192.765 314.743 192.848C315.464 192.94 315.981 193.587 315.898 194.318C315.816 194.983 315.243 195.473 314.587 195.473C314.539 195.472 314.483 195.463 314.429 195.463ZM125.248 190.481C125.183 189.751 125.728 189.123 126.449 189.058C127.17 189.003 127.807 189.539 127.872 190.268H127.863C127.927 190.989 127.382 191.617 126.662 191.682C126.625 191.682 126.587 191.682 126.551 191.682C125.876 191.683 125.303 191.166 125.248 190.481ZM315.139 188.134C314.409 188.106 313.846 187.487 313.883 186.766C313.91 186.036 314.53 185.482 315.251 185.509C315.981 185.547 316.536 186.157 316.508 186.886C316.48 187.589 315.897 188.134 315.195 188.134C315.176 188.134 315.159 188.134 315.139 188.134ZM124.923 183.033C124.923 183.033 124.923 183.033 124.933 183.033C124.923 182.304 125.516 181.712 126.236 181.712C126.966 181.703 127.558 182.294 127.558 183.015C127.558 183.745 126.975 184.336 126.245 184.336C125.525 184.336 124.933 183.754 124.923 183.033ZM313.921 179.512C313.902 178.782 314.466 178.181 315.196 178.154C315.916 178.135 316.526 178.699 316.554 179.429C316.573 180.15 316 180.759 315.279 180.778C315.26 180.778 315.251 180.787 315.232 180.787C314.529 180.778 313.948 180.224 313.921 179.512ZM126.394 176.98C125.673 176.934 125.128 176.305 125.183 175.575C125.228 174.854 125.858 174.309 126.587 174.364C127.307 174.411 127.852 175.039 127.807 175.769C127.752 176.462 127.179 176.99 126.494 176.99C126.458 176.989 126.43 176.989 126.394 176.98ZM313.411 172.276C313.328 171.555 313.846 170.908 314.566 170.825C315.287 170.751 315.943 171.268 316.027 171.989C316.101 172.71 315.584 173.357 314.854 173.441C314.808 173.441 314.761 173.45 314.706 173.45C314.049 173.45 313.476 172.95 313.411 172.276ZM127.114 169.661C126.394 169.56 125.894 168.885 126.005 168.164C126.116 167.452 126.782 166.954 127.502 167.064C128.223 167.175 128.713 167.84 128.611 168.561C128.509 169.217 127.946 169.68 127.307 169.68C127.243 169.68 127.179 169.679 127.114 169.661ZM312.33 165.104C312.2 164.392 312.672 163.699 313.384 163.57C314.095 163.431 314.779 163.902 314.918 164.614C315.056 165.326 314.585 166.019 313.873 166.148C313.79 166.167 313.707 166.176 313.624 166.176C313.005 166.177 312.45 165.733 312.33 165.104ZM128.389 162.425C127.687 162.258 127.244 161.547 127.41 160.844C127.567 160.133 128.279 159.698 128.981 159.855C129.693 160.021 130.127 160.733 129.969 161.436C129.831 162.045 129.286 162.453 128.693 162.453C128.593 162.453 128.491 162.444 128.389 162.425ZM310.704 158.044C310.509 157.342 310.926 156.621 311.627 156.427C312.33 156.233 313.051 156.649 313.236 157.351C313.236 157.351 313.236 157.351 313.245 157.351C313.43 158.053 313.023 158.773 312.321 158.959C312.201 158.996 312.081 159.004 311.971 159.004C311.387 159.005 310.861 158.627 310.704 158.044ZM130.237 155.3C129.544 155.077 129.156 154.339 129.378 153.655C129.601 152.962 130.339 152.573 131.023 152.795C131.716 153.017 132.104 153.747 131.883 154.44C131.708 155.004 131.19 155.364 130.635 155.364C130.505 155.364 130.367 155.345 130.237 155.3ZM308.522 151.123C308.282 150.439 308.633 149.69 309.317 149.441C310.001 149.201 310.75 149.551 310.999 150.235C311.239 150.919 310.889 151.668 310.204 151.917C310.056 151.973 309.908 151.992 309.761 151.992C309.225 151.991 308.717 151.659 308.522 151.123ZM132.632 148.341C131.956 148.064 131.633 147.296 131.911 146.622C132.178 145.957 132.946 145.633 133.619 145.901C134.295 146.178 134.618 146.945 134.35 147.611C134.138 148.128 133.647 148.433 133.121 148.433C132.964 148.433 132.797 148.405 132.632 148.341ZM305.815 144.404C305.519 143.739 305.815 142.962 306.471 142.667C307.136 142.371 307.913 142.667 308.207 143.323C308.503 143.988 308.207 144.765 307.552 145.06C307.377 145.143 307.192 145.18 307.016 145.18C306.508 145.18 306.028 144.894 305.815 144.404ZM135.57 141.585C134.923 141.261 134.655 140.476 134.979 139.829C135.301 139.173 136.097 138.914 136.743 139.237C137.391 139.561 137.659 140.346 137.335 141.002C137.104 141.464 136.632 141.723 136.152 141.723C135.958 141.724 135.754 141.687 135.57 141.585ZM302.58 137.916C302.238 137.279 302.469 136.483 303.107 136.133C303.744 135.782 304.539 136.013 304.89 136.65C305.241 137.287 305.001 138.092 304.363 138.433C304.169 138.544 303.949 138.6 303.736 138.6C303.273 138.601 302.82 138.351 302.58 137.916ZM139.016 135.088C138.396 134.709 138.203 133.906 138.573 133.286C138.943 132.657 139.757 132.464 140.375 132.833C140.994 133.211 141.198 134.016 140.827 134.635C140.578 135.051 140.145 135.272 139.7 135.272C139.469 135.273 139.229 135.218 139.016 135.088ZM298.856 131.697C298.459 131.087 298.635 130.274 299.236 129.876C299.846 129.479 300.659 129.646 301.056 130.255C301.454 130.865 301.287 131.678 300.678 132.076C300.455 132.224 300.206 132.289 299.957 132.289C299.531 132.289 299.105 132.085 298.856 131.697ZM142.972 128.878C142.381 128.453 142.241 127.64 142.667 127.048C143.082 126.457 143.905 126.318 144.497 126.734C145.088 127.159 145.227 127.981 144.802 128.573C144.543 128.934 144.146 129.118 143.73 129.118C143.471 129.118 143.203 129.045 142.972 128.878ZM294.66 125.782C294.218 125.209 294.328 124.377 294.902 123.943C295.475 123.499 296.297 123.602 296.74 124.174C297.183 124.756 297.082 125.578 296.5 126.022C296.269 126.207 295.982 126.299 295.705 126.299C295.307 126.3 294.919 126.115 294.66 125.782ZM147.39 122.991C146.834 122.529 146.762 121.697 147.224 121.143C147.687 120.588 148.517 120.514 149.073 120.976C149.636 121.439 149.71 122.27 149.238 122.834C148.98 123.139 148.61 123.296 148.231 123.296C147.935 123.296 147.639 123.204 147.39 122.991ZM290.013 120.21C289.532 119.674 289.569 118.842 290.114 118.352C290.65 117.871 291.483 117.908 291.972 118.453C292.452 118.989 292.415 119.821 291.87 120.311C291.62 120.532 291.306 120.643 290.991 120.643C290.631 120.644 290.27 120.496 290.013 120.21ZM152.251 117.475C151.733 116.967 151.715 116.135 152.223 115.607C152.741 115.09 153.572 115.081 154.09 115.589C154.607 116.098 154.617 116.929 154.107 117.447C153.85 117.715 153.507 117.844 153.165 117.844C152.833 117.844 152.5 117.724 152.251 117.475ZM284.948 115.017C284.422 114.518 284.403 113.686 284.903 113.159C285.411 112.632 286.243 112.614 286.76 113.113C287.287 113.612 287.315 114.444 286.816 114.971C286.558 115.239 286.206 115.378 285.865 115.378C285.53 115.377 285.207 115.257 284.948 115.017ZM157.518 112.336C157.037 111.79 157.093 110.959 157.638 110.487C158.192 110.007 159.015 110.062 159.496 110.607C159.977 111.152 159.921 111.984 159.376 112.465C159.127 112.678 158.812 112.789 158.508 112.789C158.146 112.789 157.778 112.632 157.518 112.336ZM279.505 110.229C278.941 109.767 278.858 108.945 279.31 108.381C279.773 107.817 280.594 107.725 281.159 108.186C281.722 108.639 281.815 109.471 281.353 110.035C281.095 110.359 280.715 110.524 280.327 110.524C280.041 110.524 279.745 110.423 279.505 110.229ZM163.174 107.632C162.739 107.05 162.86 106.227 163.442 105.793C163.442 105.793 163.442 105.793 163.432 105.793C164.015 105.358 164.846 105.469 165.28 106.061C165.716 106.643 165.596 107.465 165.014 107.9C164.772 108.076 164.495 108.158 164.227 108.158C163.821 108.159 163.432 107.974 163.174 107.632ZM273.701 105.876V105.867C273.101 105.461 272.953 104.638 273.369 104.047C273.775 103.446 274.597 103.298 275.198 103.704C275.788 104.12 275.937 104.942 275.531 105.534C275.272 105.903 274.864 106.107 274.439 106.107C274.191 106.107 273.932 106.034 273.701 105.876ZM169.172 103.372C168.783 102.762 168.968 101.949 169.578 101.561C170.189 101.173 171.002 101.357 171.39 101.967C171.778 102.587 171.593 103.391 170.983 103.788C170.77 103.927 170.521 103.992 170.28 103.992C169.846 103.991 169.421 103.769 169.172 103.372ZM267.574 101.977C266.946 101.617 266.733 100.813 267.103 100.184C267.463 99.5561 268.267 99.343 268.896 99.7133C269.525 100.073 269.737 100.877 269.377 101.506C269.126 101.931 268.693 102.162 268.24 102.162C268.008 102.161 267.787 102.106 267.574 101.977ZM175.483 99.6016C175.142 98.954 175.382 98.1596 176.029 97.8275C176.666 97.4851 177.462 97.7262 177.803 98.3727C178.146 99.0202 177.895 99.8147 177.258 100.147C177.054 100.249 176.851 100.304 176.639 100.304C176.167 100.304 175.714 100.045 175.483 99.6016ZM261.17 98.5754C260.514 98.261 260.235 97.4758 260.55 96.82C260.864 96.1735 261.65 95.8962 262.305 96.2097C262.961 96.5241 263.229 97.3093 262.916 97.9651C262.693 98.4368 262.223 98.7037 261.732 98.7037C261.539 98.7047 261.345 98.6685 261.17 98.5754ZM182.063 96.3297C181.777 95.6645 182.082 94.8877 182.747 94.6011C183.412 94.3146 184.189 94.6197 184.475 95.2849C184.761 95.95 184.457 96.7269 183.792 97.0134C183.617 97.0869 183.441 97.1241 183.265 97.1241C182.756 97.1251 182.276 96.8293 182.063 96.3297ZM254.507 95.6831C253.831 95.4245 253.49 94.6663 253.758 93.9825C254.026 93.3081 254.784 92.975 255.458 93.2336C256.134 93.5015 256.475 94.2598 256.207 94.9342C256.005 95.4607 255.514 95.7752 254.988 95.7752C254.831 95.7752 254.664 95.7483 254.507 95.6831ZM188.874 93.5853C188.643 92.8922 189.004 92.1433 189.697 91.9126C190.38 91.6726 191.13 92.0419 191.361 92.7257C191.601 93.4188 191.23 94.1677 190.548 94.3984C190.409 94.4449 190.261 94.4728 190.122 94.4728C189.576 94.4728 189.059 94.1304 188.874 93.5853ZM247.64 93.3267C246.947 93.1146 246.55 92.3843 246.763 91.6913C246.975 90.9889 247.705 90.601 248.398 90.8037C249.091 91.0168 249.489 91.7461 249.277 92.4485C249.111 93.0122 248.593 93.3815 248.02 93.3815C247.899 93.3815 247.769 93.3639 247.64 93.3267ZM195.888 91.3768C195.714 90.6744 196.139 89.9534 196.84 89.7775C197.542 89.5924 198.263 90.0175 198.439 90.7199C198.623 91.4223 198.198 92.1433 197.496 92.3192C197.385 92.3471 197.273 92.3657 197.163 92.3657C196.581 92.3657 196.046 91.9685 195.888 91.3768ZM240.626 91.5154C239.914 91.3582 239.462 90.6558 239.618 89.9441C239.766 89.2417 240.468 88.7886 241.18 88.9459C241.891 89.0938 242.336 89.7962 242.188 90.5079C242.049 91.1171 241.504 91.5423 240.903 91.5423C240.811 91.5423 240.719 91.534 240.626 91.5154ZM203.06 89.7227C202.93 89.011 203.411 88.3273 204.132 88.198C204.132 88.198 204.132 88.198 204.132 88.2073C204.843 88.078 205.528 88.5579 205.648 89.2696C205.778 89.9813 205.298 90.6651 204.585 90.7944C204.502 90.8037 204.428 90.813 204.354 90.813C203.725 90.813 203.17 90.3599 203.06 89.7227ZM233.483 90.2493C232.762 90.1572 232.262 89.492 232.354 88.77C232.457 88.049 233.113 87.5504 233.834 87.6425C234.555 87.7438 235.053 88.41 234.961 89.13C234.869 89.7858 234.305 90.2668 233.658 90.2668C233.603 90.2679 233.538 90.2586 233.483 90.2493ZM210.332 88.6417C210.268 87.9114 210.795 87.2742 211.516 87.1997C212.237 87.1356 212.884 87.6621 212.947 88.3821C213.022 89.1124 212.485 89.7496 211.774 89.8241C211.729 89.8241 211.682 89.8241 211.645 89.8241C210.97 89.8241 210.397 89.3162 210.332 88.6417ZM226.265 89.5469C225.534 89.5096 224.98 88.891 225.026 88.1607C225.064 87.4397 225.691 86.8853 226.412 86.9225C226.412 86.9225 226.412 86.9225 226.412 86.9318C227.143 86.9691 227.696 87.5876 227.651 88.318C227.613 89.011 227.031 89.5562 226.338 89.5562C226.311 89.5562 226.283 89.5562 226.265 89.5469ZM217.67 88.1142C217.652 87.3932 218.234 86.7932 218.965 86.7839C219.685 86.7653 220.286 87.3477 220.295 88.0687C220.313 88.799 219.732 89.3989 219.011 89.4083C219.002 89.4083 218.992 89.4083 218.983 89.4083C218.271 89.4083 217.68 88.8352 217.67 88.1142Z" fill="#202938"/>
<path d="M246.79 274.808C246.698 274.808 246.615 274.799 246.531 274.78C246.447 274.763 246.364 274.743 246.281 274.707C246.206 274.669 246.123 274.632 246.058 274.586C245.984 274.54 245.921 274.484 245.856 274.42C245.606 274.18 245.468 273.838 245.468 273.496C245.468 273.146 245.606 272.813 245.856 272.563C246.337 272.073 247.224 272.073 247.712 272.563C247.963 272.813 248.1 273.146 248.1 273.496C248.1 273.839 247.963 274.18 247.712 274.42C247.465 274.67 247.132 274.808 246.79 274.808Z" fill="#202938"/>
<path d="M239.283 276.57C239.191 276.57 239.108 276.561 239.024 276.542C238.94 276.524 238.858 276.505 238.774 276.468C238.699 276.431 238.617 276.394 238.551 276.347C238.477 276.302 238.414 276.246 238.349 276.182C238.099 275.942 237.961 275.599 237.961 275.258C237.961 274.907 238.099 274.574 238.349 274.325C238.83 273.835 239.717 273.835 240.206 274.325C240.456 274.574 240.593 274.907 240.593 275.258C240.593 275.601 240.456 275.942 240.206 276.182C239.958 276.432 239.625 276.57 239.283 276.57Z" fill="#202938"/>
<path d="M231.776 278.333C231.684 278.333 231.601 278.324 231.517 278.305C231.433 278.287 231.351 278.268 231.267 278.232C231.192 278.194 231.11 278.157 231.044 278.111C230.97 278.065 230.907 278.009 230.842 277.945C230.592 277.705 230.454 277.363 230.454 277.021C230.454 276.671 230.592 276.338 230.842 276.088C231.323 275.598 232.21 275.598 232.698 276.088C232.949 276.338 233.086 276.671 233.086 277.021C233.086 277.364 232.949 277.705 232.698 277.945C232.451 278.195 232.118 278.333 231.776 278.333Z" fill="#202938"/>
<path d="M211.353 278.639C211.261 278.639 211.178 278.63 211.094 278.611C211.011 278.594 210.928 278.574 210.844 278.538C210.77 278.5 210.687 278.463 210.622 278.417C210.547 278.371 210.484 278.315 210.419 278.251C210.17 278.011 210.031 277.669 210.031 277.327C210.031 276.977 210.17 276.644 210.419 276.394C210.9 275.904 211.788 275.904 212.276 276.394C212.526 276.644 212.664 276.977 212.664 277.327C212.664 277.67 212.526 278.011 212.276 278.251C212.029 278.501 211.696 278.639 211.353 278.639Z" fill="#202938"/>
<path d="M218.594 279.673C218.502 279.673 218.419 279.664 218.336 279.645C218.252 279.628 218.169 279.608 218.085 279.572C218.011 279.534 217.928 279.497 217.863 279.451C217.788 279.405 217.725 279.349 217.66 279.285C217.411 279.045 217.272 278.703 217.272 278.361C217.272 278.011 217.411 277.678 217.66 277.428C218.141 276.938 219.029 276.938 219.517 277.428C219.767 277.678 219.905 278.011 219.905 278.361C219.905 278.704 219.767 279.045 219.517 279.285C219.27 279.535 218.937 279.673 218.594 279.673Z" fill="#202938"/>
<path d="M225.835 278.639C225.743 278.639 225.66 278.63 225.576 278.611C225.493 278.594 225.41 278.574 225.326 278.538C225.252 278.5 225.169 278.463 225.104 278.417C225.029 278.371 224.966 278.315 224.901 278.251C224.652 278.011 224.513 277.669 224.513 277.327C224.513 276.977 224.652 276.644 224.901 276.394C225.382 275.904 226.269 275.904 226.758 276.394C227.008 276.644 227.146 276.977 227.146 277.327C227.146 277.67 227.008 278.011 226.758 278.251C226.51 278.501 226.177 278.639 225.835 278.639Z" fill="#202938"/>
<path d="M203.077 277.605C202.985 277.605 202.903 277.596 202.819 277.577C202.735 277.56 202.652 277.54 202.568 277.504C202.494 277.466 202.411 277.429 202.346 277.383C202.272 277.337 202.208 277.281 202.143 277.217C201.894 276.977 201.755 276.635 201.755 276.293C201.755 275.943 201.894 275.61 202.143 275.36C202.624 274.87 203.512 274.87 204 275.36C204.25 275.61 204.388 275.943 204.388 276.293C204.388 276.636 204.25 276.977 204 277.217C203.753 277.467 203.42 277.605 203.077 277.605Z" fill="#202938"/>
<path d="M152.39 249.675C152.298 249.675 152.215 249.665 152.131 249.647C152.048 249.629 151.965 249.61 151.881 249.573C151.807 249.536 151.724 249.499 151.659 249.452C151.584 249.407 151.521 249.351 151.456 249.287C151.207 249.047 151.068 248.704 151.068 248.363C151.068 248.012 151.207 247.679 151.456 247.43C151.937 246.94 152.825 246.94 153.313 247.43C153.563 247.679 153.701 248.012 153.701 248.363C153.701 248.705 153.563 249.047 153.313 249.287C153.066 249.537 152.732 249.675 152.39 249.675Z" fill="#202938"/>
<path d="M156.528 253.812C156.436 253.812 156.353 253.803 156.269 253.784C156.186 253.766 156.103 253.747 156.019 253.711C155.945 253.673 155.862 253.636 155.797 253.59C155.722 253.544 155.659 253.488 155.594 253.424C155.345 253.184 155.206 252.842 155.206 252.5C155.206 252.15 155.345 251.817 155.594 251.567C156.075 251.077 156.962 251.077 157.451 251.567C157.701 251.817 157.839 252.15 157.839 252.5C157.839 252.843 157.701 253.184 157.451 253.424C157.203 253.674 156.87 253.812 156.528 253.812Z" fill="#202938"/>
<path d="M161.7 258.984C161.608 258.984 161.525 258.975 161.441 258.956C161.358 258.939 161.275 258.919 161.191 258.883C161.117 258.846 161.034 258.809 160.969 258.762C160.894 258.716 160.831 258.661 160.766 258.596C160.517 258.356 160.378 258.014 160.378 257.673C160.378 257.322 160.517 256.989 160.766 256.74C161.247 256.249 162.135 256.249 162.623 256.74C162.873 256.989 163.011 257.322 163.011 257.673C163.011 258.015 162.873 258.356 162.623 258.596C162.376 258.847 162.042 258.984 161.7 258.984Z" fill="#202938"/>
<path d="M174.113 267.26C174.021 267.26 173.938 267.251 173.854 267.232C173.771 267.215 173.688 267.195 173.604 267.159C173.53 267.121 173.447 267.084 173.382 267.038C173.307 266.992 173.244 266.936 173.179 266.872C172.93 266.632 172.791 266.29 172.791 265.948C172.791 265.598 172.93 265.265 173.179 265.015C173.66 264.525 174.547 264.525 175.036 265.015C175.286 265.265 175.424 265.598 175.424 265.948C175.424 266.291 175.286 266.632 175.036 266.872C174.788 267.123 174.455 267.26 174.113 267.26Z" fill="#202938"/>
<path d="M180.32 270.363C180.228 270.363 180.145 270.354 180.061 270.335C179.977 270.318 179.895 270.298 179.811 270.262C179.736 270.225 179.654 270.188 179.588 270.141C179.514 270.095 179.451 270.04 179.386 269.975C179.136 269.735 178.998 269.393 178.998 269.052C178.998 268.701 179.136 268.368 179.386 268.119C179.867 267.628 180.754 267.628 181.243 268.119C181.493 268.368 181.63 268.701 181.63 269.052C181.63 269.394 181.493 269.735 181.243 269.975C180.995 270.226 180.662 270.363 180.32 270.363Z" fill="#202938"/>
<path d="M187.561 273.467C187.469 273.467 187.386 273.457 187.302 273.439C187.219 273.421 187.136 273.401 187.052 273.365C186.977 273.328 186.895 273.291 186.83 273.244C186.755 273.199 186.692 273.143 186.627 273.079C186.377 272.839 186.239 272.496 186.239 272.155C186.239 271.804 186.377 271.471 186.627 271.222C187.108 270.732 187.995 270.732 188.484 271.222C188.734 271.471 188.872 271.804 188.872 272.155C188.872 272.497 188.734 272.839 188.484 273.079C188.236 273.329 187.903 273.467 187.561 273.467Z" fill="#202938"/>
<path d="M194.802 275.536C194.71 275.536 194.627 275.527 194.543 275.508C194.46 275.49 194.377 275.471 194.293 275.434C194.219 275.397 194.136 275.36 194.071 275.313C193.996 275.268 193.933 275.212 193.868 275.148C193.619 274.908 193.48 274.566 193.48 274.224C193.48 273.874 193.619 273.54 193.868 273.291C194.349 272.801 195.236 272.801 195.725 273.291C195.975 273.54 196.113 273.874 196.113 274.224C196.113 274.567 195.975 274.908 195.725 275.148C195.477 275.398 195.144 275.536 194.802 275.536Z" fill="#202938"/>
<path d="M167.907 263.122C167.814 263.122 167.732 263.112 167.648 263.094C167.564 263.076 167.481 263.056 167.398 263.02C167.323 262.983 167.24 262.946 167.175 262.899C167.101 262.854 167.038 262.798 166.972 262.734C166.723 262.494 166.585 262.151 166.585 261.81C166.585 261.459 166.723 261.126 166.972 260.877C167.453 260.387 168.341 260.387 168.829 260.877C169.08 261.126 169.217 261.459 169.217 261.81C169.217 262.152 169.08 262.494 168.829 262.734C168.582 262.984 168.249 263.122 167.907 263.122Z" fill="#202938"/>
<path d="M148.252 244.502C148.16 244.502 148.078 244.493 147.994 244.474C147.91 244.457 147.827 244.437 147.744 244.401C147.669 244.364 147.586 244.327 147.521 244.28C147.447 244.234 147.384 244.179 147.318 244.114C147.069 243.875 146.93 243.532 146.93 243.191C146.93 242.84 147.069 242.507 147.318 242.258C147.799 241.767 148.687 241.767 149.175 242.258C149.426 242.507 149.563 242.84 149.563 243.191C149.563 243.533 149.426 243.875 149.175 244.114C148.928 244.365 148.595 244.502 148.252 244.502Z" fill="#202938"/>
<path d="M242.569 121.895C248.234 121.895 253.163 123.386 257.306 126.403L257.699 126.676C261.719 129.523 264.781 133.209 266.876 137.719C269.132 142.232 270.264 146.975 270.264 151.937C270.264 157.577 268.785 162.937 265.845 168.003C264.391 170.507 262.604 172.697 260.485 174.567C259.706 175.254 259.285 176.519 259.386 177.88C259.487 179.242 260.087 180.394 260.957 180.919C264.124 182.828 266.828 185.246 269.064 188.17H269.063C273.172 193.399 275.2 199.828 275.2 207.389C275.2 213.992 273.445 219.62 269.882 224.21L269.874 224.219C266.343 228.656 261.575 232.017 255.614 234.317L255.613 234.316C249.776 236.611 243.395 237.752 236.48 237.752H186.24C182.24 237.752 178.998 234.51 178.998 230.51V129.136C178.998 125.137 182.24 121.895 186.24 121.895H242.569ZM208.949 189.031C206.093 189.031 203.778 191.347 203.778 194.204V211.76C203.778 214.616 206.093 216.932 208.949 216.932H236.48C239.051 216.932 241.334 216.333 243.356 215.154C245.515 213.851 247.199 212.159 248.424 210.071C249.645 207.991 250.257 205.714 250.257 203.222C250.257 200.486 249.685 198.093 248.57 196.019L248.565 196.01L248.561 196.002C247.433 193.806 245.913 192.137 244.002 190.962L243.975 190.945L243.949 190.927C242.164 189.671 240.072 189.031 237.632 189.031H208.949ZM208.949 142.875C206.093 142.875 203.778 145.191 203.778 148.048V164.321C203.778 167.177 206.093 169.494 208.949 169.494H233.024C235.379 169.494 237.507 168.947 239.428 167.864C241.344 166.784 242.855 165.265 243.972 163.288L243.982 163.271L243.992 163.255C245.191 161.31 245.814 158.941 245.814 156.104C245.814 153.366 245.242 151.037 244.137 149.081L244.126 149.062L244.117 149.045C243.105 147.073 241.701 145.564 239.901 144.493L239.889 144.486L239.878 144.479C238.194 143.418 236.249 142.875 234.011 142.875H208.949Z" fill="#4F48E5" stroke="#202938" stroke-width="2.06887"/>
</g>
<path d="M353.08 38.1848C345.633 46.6029 344.711 58.9528 350.825 68.3829L360.93 83.9686L361.438 85.4179L301.307 60.0546C298.1 58.702 294.521 60.9346 294.325 64.4088C293.73 74.9591 299.638 84.8037 309.227 89.2424L353.997 109.964L356.094 112.892L294.808 99.6484C291.228 98.9664 288.159 102.245 289.076 105.772C291.894 116.598 300.665 124.853 311.641 127.01L329.682 130.556C329.931 132.456 330.607 134.302 331.706 135.94L345.499 156.513L295.116 149.976C293.184 149.726 291.55 151.395 291.842 153.32C293.56 164.658 302.409 173.585 313.731 175.402L350.877 181.364L352.593 182.428L356.583 203.151C356.573 203.186 356.567 203.209 356.567 203.209L356.808 204.323L359.195 216.718L359.438 216.444L364.375 239.201C367.12 251.872 374.839 262.904 385.789 269.838L399.215 278.334L401.609 279.845L498.903 377.795L498.903 289.43L498.903 281.189L498.903 281.187L439.921 250.267L422.448 208.59L420.653 190.018L416.025 150.629L416.388 150.519L399.9 129.319L390.393 90.2078L359.05 38.7154C357.745 36.5735 354.74 36.3069 353.08 38.1848Z" stroke="#904D40" stroke-width="0.561" stroke-miterlimit="10" stroke-linecap="round" stroke-linejoin="round"/>
<path d="M382.111 127.923L416.024 150.616L420.654 190.018L422.449 208.59L439.921 250.266L498.903 281.186L498.903 289.428L498.903 377.794L401.61 279.848L399.217 278.337L385.791 269.84C374.841 262.907 367.121 251.874 364.377 239.204L356.568 203.212L357.069 201.739L382.111 127.923Z" fill="#C17361"/>
<path d="M384.37 202.635C386.98 208.889 385.574 229.786 384.527 236.48C383.084 245.739 384.594 255.351 388.424 263.878C389.815 266.982 391.505 269.593 393.382 271.956C384.848 265.725 377.735 257.535 372.843 248.163C370.143 242.98 368.109 237.467 365.259 232.366C364.22 230.496 363.053 228.679 361.729 226.988L356.568 203.211C356.568 203.211 366.359 167.279 368.385 159.785C375.095 158.835 381.752 196.383 384.37 202.635Z" fill="#AC6257"/>
<path d="M420.654 190.02L422.449 208.591L439.921 250.267L498.903 281.188L498.903 289.43C490.122 284.082 460.086 278.203 452.36 271.404C435.456 256.513 422.001 236.459 419.652 214.058C418.806 206.041 419.397 198.008 420.654 190.02Z" fill="#AC6257"/>
<path d="M359.197 216.721L348.453 160.916L331.708 135.942C329.389 132.484 328.927 128.103 330.473 124.236L330.6 123.919C331.969 120.499 335.24 118.221 338.922 118.124C343.332 118.008 347.482 120.204 349.865 123.916L388.312 183.793L359.197 216.721Z" fill="#AC6257"/>
<path d="M405.642 152.946L377.57 131.457L361.712 86.1896L360.929 83.9632L350.827 68.3784C345.564 60.2736 345.512 50.004 350.334 41.9344C351.117 40.6232 352.032 39.3648 353.08 38.1856C353.828 37.3408 354.848 36.9272 355.86 36.9272C357.101 36.9272 358.333 37.5344 359.046 38.7136L372.193 60.3088L390.392 90.2024L400.116 130.207L405.642 152.946Z" fill="#C17361"/>
<path d="M400.116 130.207L390.392 90.2024L372.194 60.3088L359.046 38.7136C358.334 37.5344 357.102 36.9272 355.861 36.9272C354.849 36.9272 353.828 37.3408 353.08 38.1856C352.033 39.3648 351.118 40.6232 350.334 41.9344C345.512 50.004 345.565 60.2736 350.827 68.3784L360.93 83.9632L361.713 86.1896" stroke="#904D40" stroke-width="0.561" stroke-miterlimit="10" stroke-linecap="round" stroke-linejoin="round"/>
<path d="M361.809 61.708L350.334 41.9344C351.117 40.6232 352.033 39.3648 353.08 38.1856C353.828 37.3408 354.849 36.9272 355.861 36.9272C357.101 36.9272 358.333 37.5345 359.046 38.7137L372.193 60.3088L369.835 62.72C367.485 65.1136 363.49 64.612 361.809 61.708Z" fill="#D38579" stroke="#904D40" stroke-width="0.66" stroke-miterlimit="10" stroke-linecap="round" stroke-linejoin="round"/>
<path d="M389.001 158.834L358.597 116.383L353.995 109.967L309.229 89.2434C300.869 85.3714 295.308 77.4074 294.41 68.4402C294.322 67.5866 294.278 66.7242 294.278 65.853C294.278 65.3778 294.296 64.8938 294.322 64.4098C294.524 60.9338 298.097 58.6986 301.309 60.0538L322.394 68.9506L367.864 88.1258L416.387 150.518L389.001 158.834Z" fill="#C17361"/>
<path d="M358.597 116.383L353.995 109.967L309.229 89.2434C300.869 85.3714 295.308 77.4074 294.41 68.4402C294.322 67.5866 294.278 66.7241 294.278 65.8529C294.278 65.3777 294.296 64.8938 294.322 64.4098C294.524 60.9338 298.097 58.6986 301.309 60.0538L322.394 68.9506L367.864 88.1257L416.387 150.518" stroke="#904D40" stroke-width="0.561" stroke-miterlimit="10" stroke-linecap="round" stroke-linejoin="round"/>
<path d="M312.828 77.821L294.41 68.4402C294.322 67.5866 294.278 66.7242 294.278 65.853C294.278 65.3778 294.296 64.8938 294.322 64.4098C294.524 60.9338 298.097 58.6986 301.309 60.0538L322.394 68.9506L319.156 75.6826C318.02 78.041 315.169 79.009 312.828 77.821Z" fill="#D38579" stroke="#904D40" stroke-width="0.66" stroke-miterlimit="10" stroke-linecap="round" stroke-linejoin="round"/>
<path d="M383.809 180.324L372.607 163.595L353.652 135.268L311.64 127.013C301.934 125.104 293.944 118.416 290.283 109.404C289.808 108.234 289.403 107.02 289.077 105.77C288.963 105.348 288.91 104.916 288.91 104.503C288.91 101.511 291.664 99.0468 294.806 99.6452L314.984 104.01L368.207 115.512L415.692 160.92L383.809 180.324Z" fill="#C17361"/>
<path d="M415.692 160.92L368.207 115.512L314.984 104.01L294.806 99.6452C291.664 99.0468 288.91 101.511 288.91 104.503C288.91 104.916 288.963 105.348 289.077 105.77C289.403 107.02 289.808 108.234 290.283 109.404C293.944 118.416 301.934 125.104 311.64 127.013L353.652 135.268L372.607 163.595" stroke="#904D40" stroke-width="0.561" stroke-miterlimit="10" stroke-linecap="round" stroke-linejoin="round"/>
<path d="M308.024 114.464L290.283 109.404C289.808 108.234 289.403 107.019 289.077 105.77C288.963 105.347 288.91 104.916 288.91 104.503C288.91 101.511 291.665 99.0466 294.806 99.645L314.985 104.01L313.348 111.305C312.811 113.699 310.382 115.142 308.024 114.464Z" fill="#D38579" stroke="#904D40" stroke-width="0.66" stroke-miterlimit="10" stroke-linecap="round" stroke-linejoin="round"/>
<path d="M385.543 202.852L384.144 201.989L350.88 181.362L313.735 175.405C304.231 173.873 296.47 167.344 293.205 158.588C292.58 156.907 292.122 155.147 291.841 153.325C291.814 153.176 291.806 153.026 291.806 152.877C291.806 151.152 293.337 149.744 295.114 149.981L316.129 152.709L355.386 157.796L413.958 176.857L385.543 202.852Z" fill="#C17361"/>
<path d="M413.958 176.857L355.386 157.796L316.129 152.709L295.114 149.981C293.337 149.744 291.806 151.152 291.806 152.877C291.806 153.026 291.814 153.176 291.841 153.325C292.122 155.147 292.58 156.907 293.205 158.588C296.47 167.344 304.231 173.873 313.735 175.405L350.88 181.362L384.144 201.989" stroke="#904D40" stroke-width="0.561" stroke-miterlimit="10" stroke-linecap="round" stroke-linejoin="round"/>
<path d="M309.379 161.545L293.205 158.588C292.58 156.907 292.122 155.147 291.841 153.325C291.814 153.176 291.806 153.026 291.806 152.877C291.806 151.152 293.337 149.744 295.114 149.981L316.129 152.709L315.83 156.581C315.574 159.82 312.574 162.134 309.379 161.545Z" fill="#D38579" stroke="#904D40" stroke-width="0.66" stroke-miterlimit="10" stroke-linecap="round" stroke-linejoin="round"/>
<path d="M75.0603 224.871L41.1477 202.177L36.518 162.775L34.7228 144.204L17.2504 102.528L-41.7316 71.6073L-41.7316 63.3643L-41.7316 -25.0018L55.5612 72.9466L57.9548 74.4576L71.381 82.954C82.3308 89.8875 90.0502 100.92 92.7949 113.59L100.604 149.581L100.102 151.055L75.0603 224.871Z" fill="#C17361"/>
<path d="M71.5419 149.791C68.9318 143.538 70.338 122.641 71.3844 115.946C72.8276 106.687 71.3175 97.0757 67.4877 88.5485C66.0965 85.4447 65.3213 80.217 63.4443 77.8542C72.236 82.9827 81.0277 89.2102 83.9582 94.3387C86.8888 99.4672 89.4531 101.665 92.0173 110.823C94.5816 119.981 94.2152 120.347 94.9365 123.188L100.443 148.554C100.443 148.554 89.5529 185.148 87.5262 192.642C80.8162 193.591 74.159 156.044 71.5419 149.791Z" fill="#AC6257"/>
<path d="M36.5184 162.773L34.7232 144.202L17.2508 102.526L-41.7312 71.6053L-41.7312 63.3624C-32.9506 68.7102 -2.91443 74.5894 4.81197 81.3883C21.7159 96.2797 35.1711 116.333 37.5198 138.734C38.3664 146.753 37.775 154.786 36.5184 162.773Z" fill="#AC6257"/>
<path d="M100.443 148.188L108.72 191.877L125.464 216.851C127.783 220.309 128.245 224.69 126.699 228.557L126.572 228.874C125.204 232.294 121.932 234.572 118.25 234.669C113.84 234.785 109.69 232.589 107.307 228.877L68.86 169L100.443 148.188Z" fill="#AC6257"/>
<path d="M51.5297 199.846L79.6016 221.336L95.4593 266.603L96.2424 268.829L106.345 284.414C111.607 292.519 111.66 302.789 106.838 310.858C106.054 312.169 105.139 313.428 104.092 314.607C103.344 315.452 102.323 315.865 101.311 315.865C100.07 315.865 98.8385 315.258 98.1257 314.079L84.9785 292.484L66.7801 262.59L57.056 222.585L51.5297 199.846Z" fill="#C17361"/>
<path d="M57.0559 222.585L66.7799 262.59L84.9783 292.484L98.1255 314.079C98.8383 315.258 100.07 315.865 101.311 315.865C102.323 315.865 103.344 315.452 104.092 314.607C105.139 313.428 106.054 312.169 106.837 310.858C111.66 302.789 111.607 292.519 106.345 284.414L96.2423 268.829L95.4591 266.603" stroke="#904D40" stroke-width="0.561" stroke-miterlimit="10" stroke-linecap="round" stroke-linejoin="round"/>
<path d="M95.3624 291.085L106.838 310.858C106.054 312.169 105.139 313.428 104.092 314.607C103.344 315.452 102.323 315.865 101.311 315.865C100.07 315.865 98.8385 315.258 98.1257 314.079L84.9785 292.484L87.3368 290.073C89.6864 287.679 93.6816 288.181 95.3624 291.085Z" fill="#D38579" stroke="#904D40" stroke-width="0.66" stroke-miterlimit="10" stroke-linecap="round" stroke-linejoin="round"/>
<path d="M68.1701 193.959L98.5742 236.41L103.177 242.826L147.942 263.55C156.302 267.422 161.864 275.386 162.761 284.353C162.849 285.206 162.893 286.069 162.893 286.94C162.893 287.415 162.876 287.899 162.849 288.383C162.647 291.859 159.074 294.094 155.862 292.739L134.777 283.842L89.3078 264.667L40.7845 202.275L68.1701 193.959Z" fill="#C17361"/>
<path d="M98.574 236.41L103.176 242.825L147.942 263.549C156.302 267.421 161.864 275.385 162.761 284.353C162.849 285.206 162.893 286.069 162.893 286.94C162.893 287.415 162.876 287.899 162.849 288.383C162.647 291.859 159.074 294.094 155.862 292.739L134.777 283.842L89.3076 264.667L40.7844 202.275" stroke="#904D40" stroke-width="0.561" stroke-miterlimit="10" stroke-linecap="round" stroke-linejoin="round"/>
<path d="M144.343 274.972L162.761 284.353C162.849 285.207 162.893 286.069 162.893 286.94C162.893 287.415 162.876 287.899 162.849 288.383C162.647 291.859 159.074 294.095 155.862 292.739L134.777 283.843L138.016 277.111C139.151 274.752 142.002 273.784 144.343 274.972Z" fill="#D38579" stroke="#904D40" stroke-width="0.66" stroke-miterlimit="10" stroke-linecap="round" stroke-linejoin="round"/>
<path d="M73.3625 172.47L84.5649 189.198L103.52 217.526L145.531 225.78C155.238 227.69 163.228 234.378 166.889 243.389C167.364 244.559 167.769 245.774 168.095 247.023C168.209 247.446 168.262 247.877 168.262 248.29C168.262 251.282 165.507 253.746 162.366 253.148L142.187 248.783L88.9649 237.282L41.4801 191.874L73.3625 172.47Z" fill="#C17361"/>
<path d="M41.4803 191.874L88.9651 237.282L142.188 248.784L162.366 253.148C165.507 253.747 168.262 251.283 168.262 248.291C168.262 247.877 168.209 247.446 168.095 247.024C167.769 245.774 167.364 244.56 166.889 243.389C163.228 234.378 155.238 227.69 145.531 225.78L103.52 217.526L84.5651 189.199" stroke="#904D40" stroke-width="0.561" stroke-miterlimit="10" stroke-linecap="round" stroke-linejoin="round"/>
<path d="M149.148 238.329L166.889 243.389C167.364 244.559 167.769 245.774 168.095 247.023C168.209 247.446 168.262 247.877 168.262 248.29C168.262 251.282 165.508 253.746 162.366 253.148L142.188 248.783L143.824 241.488C144.361 239.094 146.79 237.651 149.148 238.329Z" fill="#D38579" stroke="#904D40" stroke-width="0.66" stroke-miterlimit="10" stroke-linecap="round" stroke-linejoin="round"/>
<path d="M71.6286 149.941L73.0278 150.803L106.292 171.431L143.437 177.388C152.941 178.919 160.702 185.449 163.967 194.205C164.592 195.886 165.049 197.646 165.331 199.467C165.357 199.617 165.366 199.767 165.366 199.916C165.366 201.641 163.835 203.049 162.057 202.811L141.043 200.083L101.786 194.997L43.2134 175.936L71.6286 149.941Z" fill="#C17361"/>
<path d="M43.2136 175.936L101.786 194.997L141.043 200.083L162.058 202.811C163.835 203.049 165.366 201.641 165.366 199.916C165.366 199.766 165.358 199.617 165.331 199.467C165.05 197.646 164.592 195.885 163.967 194.205C160.702 185.449 152.941 178.919 143.437 177.388L106.292 171.43L73.028 150.803" stroke="#904D40" stroke-width="0.561" stroke-miterlimit="10" stroke-linecap="round" stroke-linejoin="round"/>
<path d="M147.793 191.248L163.967 194.205C164.592 195.886 165.05 197.646 165.331 199.468C165.358 199.617 165.366 199.767 165.366 199.916C165.366 201.641 163.835 203.049 162.058 202.811L141.043 200.084L141.342 196.211C141.598 192.973 144.598 190.659 147.793 191.248Z" fill="#D38579" stroke="#904D40" stroke-width="0.66" stroke-miterlimit="10" stroke-linecap="round" stroke-linejoin="round"/>
</g>
<defs>
<clipPath id="clip0_317_38933">
<rect width="440" height="352" fill="white"/>
</clipPath>
<clipPath id="clip1_317_38933">
<rect width="243.029" height="243.029" fill="white" transform="translate(99.0579 61.2234)"/>
</clipPath>
</defs>
</svg>
